<svg width="41" height="40" viewBox="0 0 41 40" fill="none" xmlns="http://www.w3.org/2000/svg">
<path d="M20.084 38.75C30.4393 38.75 38.834 30.3553 38.834 20C38.834 9.64466 30.4393 1.25 20.084 1.25C9.72865 1.25 1.33398 9.64466 1.33398 20C1.33398 30.3553 9.72865 38.75 20.084 38.75Z" fill="#FFDD67"/>
<path d="M12.8965 19.75C14.6224 19.75 16.0215 18.3509 16.0215 16.625C16.0215 14.8991 14.6224 13.5 12.8965 13.5C11.1706 13.5 9.77148 14.8991 9.77148 16.625C9.77148 18.3509 11.1706 19.75 12.8965 19.75Z" fill="#664E27"/>
<path d="M27.2715 19.75C28.9974 19.75 30.3965 18.3509 30.3965 16.625C30.3965 14.8991 28.9974 13.5 27.2715 13.5C25.5456 13.5 24.1465 14.8991 24.1465 16.625C24.1465 18.3509 25.5456 19.75 27.2715 19.75Z" fill="#664E27"/>
<path d="M14.4591 29.75C18.0841 26.75 22.0841 26.75 25.7091 29.75C26.1466 30.125 26.5216 29.5 26.2091 28.9375C25.0841 26.8125 22.8966 24.875 20.0841 24.875C17.2716 24.875 15.0216 26.8125 13.9591 28.9375C13.6466 29.5 14.0216 30.125 14.4591 29.75Z" fill="#664E27"/>
</svg>
