<svg width="41" height="40" viewBox="0 0 41 40" fill="none" xmlns="http://www.w3.org/2000/svg">
<path d="M20.084 38.75C30.4393 38.75 38.834 30.3553 38.834 20C38.834 9.64466 30.4393 1.25 20.084 1.25C9.72865 1.25 1.33398 9.64466 1.33398 20C1.33398 30.3553 9.72865 38.75 20.084 38.75Z" fill="#FFDD67"/>
<path d="M12.8965 20.375C14.6224 20.375 16.0215 18.9759 16.0215 17.25C16.0215 15.5241 14.6224 14.125 12.8965 14.125C11.1706 14.125 9.77148 15.5241 9.77148 17.25C9.77148 18.9759 11.1706 20.375 12.8965 20.375Z" fill="#664E27"/>
<path d="M27.2715 20.375C28.9974 20.375 30.3965 18.9759 30.3965 17.25C30.3965 15.5241 28.9974 14.125 27.2715 14.125C25.5456 14.125 24.1465 15.5241 24.1465 17.25C24.1465 18.9759 25.5456 20.375 27.2715 20.375Z" fill="#664E27"/>
<path d="M24.3965 30H15.7715C14.834 30 14.834 27.5 15.7715 27.5H24.334C25.334 27.5 25.334 30 24.3965 30Z" fill="#664E27"/>
</svg>
