<svg width="41" height="40" viewBox="0 0 41 40" fill="none" xmlns="http://www.w3.org/2000/svg">
<path d="M38.834 20C38.834 30.375 30.459 38.75 20.084 38.75C9.70898 38.75 1.33398 30.375 1.33398 20C1.33398 9.625 9.70898 1.25 20.084 1.25C30.459 1.25 38.834 9.625 38.834 20Z" fill="#FFDD67"/>
<path d="M38.7093 8.24962C38.3968 6.56212 37.4593 5.18712 35.8968 4.74962C34.2093 4.31212 32.7093 4.93712 31.2718 6.43712C30.4593 4.18712 29.2093 2.49962 27.2093 1.62462C25.2093 0.749621 23.2093 1.37462 21.9593 2.93712C20.6468 4.56212 20.1468 7.12462 21.5218 10.4371C22.8343 13.5621 28.6468 19.8121 28.8343 19.9996C29.0843 19.8746 35.5843 15.8121 37.1468 13.8121C38.7093 11.8746 39.0218 9.93712 38.7093 8.24962ZM18.2093 2.93712C16.9593 1.37462 14.9593 0.749621 12.9593 1.62462C10.9593 2.49962 9.70931 4.18712 8.89681 6.43712C7.39681 4.99962 5.89681 4.31212 4.20931 4.81212C2.70931 5.24962 1.70931 6.62462 1.39681 8.31212C1.08431 9.93712 1.45931 11.9371 2.95931 13.8746C4.58431 15.8121 11.0843 19.8746 11.3343 19.9996C11.5218 19.8121 17.3343 13.5621 18.6468 10.4371C20.0218 7.12462 19.5218 4.62462 18.2093 2.93712Z" fill="#F46767"/>
<path d="M30.709 23.8125C30.709 23.3125 30.3965 22.6875 29.584 22.5C27.3965 22.0625 24.209 21.6875 20.084 21.6875C15.959 21.6875 12.7715 22.125 10.584 22.5C9.70898 22.6875 9.45898 23.3125 9.45898 23.8125C9.45898 28.375 12.959 32.9375 20.084 32.9375C27.209 32.875 30.709 28.3125 30.709 23.8125Z" fill="#664E27"/>
<path d="M28.0219 23.9375C26.6469 23.6875 23.7719 23.3125 20.0844 23.3125C16.3969 23.3125 13.5219 23.6875 12.1469 23.9375C11.3344 24.0625 11.2719 24.375 11.3344 24.875C11.3969 25.125 11.3969 25.5 11.5219 25.875C11.5844 26.25 11.7094 26.4375 12.3344 26.375C13.5219 26.25 26.7094 26.25 27.8969 26.375C28.5219 26.4375 28.5844 26.25 28.7094 25.875C28.7719 25.5 28.8344 25.1875 28.8969 24.875C28.8969 24.375 28.8344 24.0625 28.0219 23.9375Z" fill="white"/>
</svg>
