<svg width="41" height="40" viewBox="0 0 41 40" fill="none" xmlns="http://www.w3.org/2000/svg">
<path d="M11.0215 38.375C15.3362 38.375 18.834 37.9553 18.834 37.4375C18.834 36.9197 15.3362 36.5 11.0215 36.5C6.70676 36.5 3.20898 36.9197 3.20898 37.4375C3.20898 37.9553 6.70676 38.375 11.0215 38.375Z" fill="#65B1EF"/>
<path d="M27.584 38.75C33.7972 38.75 38.834 38.2463 38.834 37.625C38.834 37.0037 33.7972 36.5 27.584 36.5C21.3708 36.5 16.334 37.0037 16.334 37.625C16.334 38.2463 21.3708 38.75 27.584 38.75Z" fill="#65B1EF"/>
<path d="M20.084 38.75C30.4393 38.75 38.834 30.3553 38.834 20C38.834 9.64466 30.4393 1.25 20.084 1.25C9.72865 1.25 1.33398 9.64466 1.33398 20C1.33398 30.3553 9.72865 38.75 20.084 38.75Z" fill="#FFDD67"/>
<path d="M28.0216 28.75C27.1466 26.5 25.0216 25 20.0841 25C15.0841 25 13.0216 26.5 12.1466 28.75C11.7091 29.9375 12.3341 31.875 12.3341 31.875C13.1466 34.3125 13.0216 35 20.0841 35C27.1466 35 27.0216 34.3125 27.8341 31.875C27.8341 31.875 28.5216 29.9375 28.0216 28.75Z" fill="#664E27"/>
<path d="M25.709 28.125C25.7715 27.9375 25.709 27.75 25.584 27.625C25.584 27.625 24.334 26.25 20.084 26.25C15.834 26.25 14.584 27.625 14.584 27.625C14.459 27.6875 14.459 27.9375 14.459 28.125L14.584 28.5C14.6465 28.6875 14.7715 28.8125 14.8965 28.8125H25.2715C25.3965 28.8125 25.584 28.6875 25.584 28.5L25.709 28.125Z" fill="white"/>
<path d="M27.8964 37.8125H32.1464C37.2714 31.625 31.2089 25.3125 32.7089 19.1875C31.2714 19.1875 29.8339 20.75 28.4589 20.75C26.4589 26.6875 33.0214 31.625 27.8964 37.8125ZM12.2714 37.8125H8.02136C2.89636 31.625 8.95886 25.3125 7.45886 19.1875C8.89636 19.1875 10.3339 20.75 11.7089 20.75C13.7089 26.6875 7.14636 31.625 12.2714 37.8125Z" fill="#65B1EF"/>
<path d="M25.5211 11.4389C27.3961 13.3139 30.0211 14.2514 32.6461 14.0014C33.0211 13.9389 33.2086 15.3139 32.7711 15.3764C29.7086 15.6264 26.7086 14.5639 24.5836 12.3764C24.2086 12.0639 25.2711 11.1889 25.5211 11.4389ZM7.58362 14.0014C10.2086 14.2514 12.8336 13.3139 14.7086 11.4389C14.9586 11.1889 16.0211 12.0639 15.7086 12.3764C13.5836 14.5639 10.5211 15.6264 7.52112 15.3764C6.95862 15.3764 7.20862 14.0014 7.58362 14.0014Z" fill="#917524"/>
<path d="M22.5219 18.9375C25.1469 23.9375 30.4594 23.9375 33.0844 18.9375C33.2094 18.6875 32.8969 18.5625 32.4594 18.3125C29.8344 20.375 25.5219 20.1875 23.1469 18.3125C22.7719 18.5625 22.3969 18.6875 22.5219 18.9375ZM7.08442 18.9375C9.70942 23.9375 15.0219 23.9375 17.6469 18.9375C17.7719 18.6875 17.4594 18.5625 17.0219 18.3125C14.3969 20.375 10.0844 20.1875 7.70942 18.3125C7.27192 18.5625 6.95942 18.6875 7.08442 18.9375Z" fill="#664E27"/>
</svg>
