<svg width="41" height="40" viewBox="0 0 41 40" fill="none" xmlns="http://www.w3.org/2000/svg">
<path d="M38.834 20C38.834 30.375 30.459 38.75 20.084 38.75C9.70898 38.75 1.33398 30.375 1.33398 20C1.33398 9.625 9.70898 1.25 20.084 1.25C30.459 1.25 38.834 9.625 38.834 20Z" fill="#FFDD67"/>
<path d="M30.709 23.75C30.709 23.25 30.3965 22.625 29.584 22.4375C27.3965 22 24.209 21.625 20.084 21.625C15.959 21.625 12.7715 22.0625 10.584 22.4375C9.77148 22.625 9.45898 23.25 9.45898 23.75C9.45898 28.3125 12.959 32.875 20.084 32.875C27.209 32.875 30.709 28.3125 30.709 23.75Z" fill="#664E27"/>
<path d="M17.8962 16.8125C16.7087 13.625 14.9587 12 13.2087 12C11.4587 12 9.70868 13.625 8.52118 16.8125C8.39618 17.125 9.02118 17.6875 9.33368 17.375C10.4587 16.1875 11.8337 15.6875 13.2087 15.6875C14.5837 15.6875 15.9587 16.1875 17.0837 17.375C17.4587 17.6875 18.0212 17.125 17.8962 16.8125Z" fill="#664E27"/>
<path d="M31.5837 16.8125C30.3962 13.625 28.6462 12 26.8962 12C25.1462 12 23.3962 13.625 22.2087 16.8125C22.0837 17.125 22.7087 17.6875 23.0212 17.375C24.1462 16.1875 25.5212 15.6875 26.8962 15.6875C28.3337 15.6875 29.6462 16.1875 30.7712 17.375C31.0837 17.6875 31.7087 17.125 31.5837 16.8125Z" fill="#664E27"/>
<path d="M28.0219 23.9375C26.6469 23.6875 23.7719 23.3125 20.0844 23.3125C16.3969 23.3125 13.5219 23.6875 12.1469 23.9375C11.3344 24.0625 11.2719 24.375 11.3344 24.875C11.3969 25.125 11.3969 25.5 11.5219 25.875C11.5844 26.25 11.7094 26.4375 12.3344 26.375C13.5219 26.25 26.7094 26.25 27.8969 26.375C28.5219 26.4375 28.5844 26.25 28.7094 25.875C28.7719 25.5 28.8344 25.1875 28.8969 24.875C28.8969 24.375 28.8344 24.0625 28.0219 23.9375Z" fill="white"/>
<path d="M28.0219 23.9375C26.6469 23.6875 23.7719 23.3125 20.0844 23.3125C16.3969 23.3125 13.5219 23.6875 12.1469 23.9375C11.3344 24.0625 11.2719 24.375 11.3344 24.875C11.3969 25.125 11.3969 25.5 11.5219 25.875C11.5844 26.25 11.7094 26.375 12.3344 26.375H27.8969C28.5219 26.375 28.5844 26.25 28.7094 25.875C28.7719 25.5 28.8344 25.1875 28.8969 24.875C28.8969 24.375 28.8344 24.0625 28.0219 23.9375Z" fill="white"/>
</svg>
