<svg width="45" height="45" viewBox="0 0 45 45" fill="none" xmlns="http://www.w3.org/2000/svg">
<rect width="45" height="45" rx="8" fill="url(#paint0_linear)"/>
<path d="M27.72 15.856H19.68V20.632C20.016 20.184 20.512 19.808 21.168 19.504C21.84 19.2 22.552 19.048 23.304 19.048C24.648 19.048 25.736 19.336 26.568 19.912C27.416 20.488 28.016 21.216 28.368 22.096C28.736 22.976 28.92 23.904 28.92 24.88C28.92 26.064 28.688 27.12 28.224 28.048C27.776 28.96 27.096 29.68 26.184 30.208C25.288 30.736 24.184 31 22.872 31C21.128 31 19.728 30.568 18.672 29.704C17.616 28.84 16.984 27.696 16.776 26.272H19.44C19.616 27.024 20.008 27.624 20.616 28.072C21.224 28.504 21.984 28.72 22.896 28.72C24.032 28.72 24.88 28.376 25.44 27.688C26.016 27 26.304 26.088 26.304 24.952C26.304 23.8 26.016 22.92 25.44 22.312C24.864 21.688 24.016 21.376 22.896 21.376C22.112 21.376 21.448 21.576 20.904 21.976C20.376 22.36 19.992 22.888 19.752 23.56H17.16V13.456H27.72V15.856Z" fill="white"/>
<defs>
<linearGradient id="paint0_linear" x1="-3.5" y1="-8.5" x2="45" y2="45" gradientUnits="userSpaceOnUse">
<stop stop-color="#354545"/>
<stop offset="1" stop-color="#8899B1"/>
</linearGradient>
</defs>
</svg>
