<svg width="45" height="45" viewBox="0 0 45 45" fill="none" xmlns="http://www.w3.org/2000/svg">
<rect width="45" height="45" rx="8" fill="url(#paint0_linear)"/>
<path d="M17.392 17.824C17.488 16.336 18.056 15.176 19.096 14.344C20.152 13.512 21.496 13.096 23.128 13.096C24.248 13.096 25.216 13.296 26.032 13.696C26.848 14.096 27.464 14.64 27.88 15.328C28.296 16.016 28.504 16.792 28.504 17.656C28.504 18.648 28.24 19.496 27.712 20.2C27.184 20.904 26.552 21.376 25.816 21.616V21.712C26.76 22 27.496 22.528 28.024 23.296C28.552 24.048 28.816 25.016 28.816 26.2C28.816 27.144 28.6 27.984 28.168 28.72C27.736 29.456 27.096 30.04 26.248 30.472C25.4 30.888 24.384 31.096 23.2 31.096C21.472 31.096 20.048 30.656 18.928 29.776C17.824 28.88 17.232 27.6 17.152 25.936H19.792C19.856 26.784 20.184 27.48 20.776 28.024C21.368 28.552 22.168 28.816 23.176 28.816C24.152 28.816 24.904 28.552 25.432 28.024C25.96 27.48 26.224 26.784 26.224 25.936C26.224 24.816 25.864 24.024 25.144 23.56C24.44 23.08 23.352 22.84 21.88 22.84H21.256V20.584H21.904C23.2 20.568 24.184 20.352 24.856 19.936C25.544 19.52 25.888 18.864 25.888 17.968C25.888 17.2 25.64 16.592 25.144 16.144C24.648 15.68 23.944 15.448 23.032 15.448C22.136 15.448 21.44 15.68 20.944 16.144C20.448 16.592 20.152 17.152 20.056 17.824H17.392Z" fill="white"/>
<defs>
<linearGradient id="paint0_linear" x1="-3.5" y1="-8.5" x2="45" y2="45" gradientUnits="userSpaceOnUse">
<stop stop-color="#354545"/>
<stop offset="1" stop-color="#8899B1"/>
</linearGradient>
</defs>
</svg>
