<svg width="45" height="45" viewBox="0 0 45 45" fill="none" xmlns="http://www.w3.org/2000/svg">
<rect width="45" height="45" rx="8" fill="url(#paint0_linear)"/>
<path d="M18.952 27.28C20.488 25.952 21.696 24.864 22.576 24.016C23.472 23.152 24.216 22.256 24.808 21.328C25.4 20.4 25.696 19.472 25.696 18.544C25.696 17.584 25.464 16.832 25 16.288C24.552 15.744 23.84 15.472 22.864 15.472C21.92 15.472 21.184 15.776 20.656 16.384C20.144 16.976 19.872 17.776 19.84 18.784H17.2C17.248 16.96 17.792 15.568 18.832 14.608C19.888 13.632 21.224 13.144 22.84 13.144C24.584 13.144 25.944 13.624 26.92 14.584C27.912 15.544 28.408 16.824 28.408 18.424C28.408 19.576 28.112 20.688 27.52 21.76C26.944 22.816 26.248 23.768 25.432 24.616C24.632 25.448 23.608 26.416 22.36 27.52L21.28 28.48H28.888V30.76H17.224V28.768L18.952 27.28Z" fill="white"/>
<defs>
<linearGradient id="paint0_linear" x1="-3.5" y1="-8.5" x2="45" y2="45" gradientUnits="userSpaceOnUse">
<stop stop-color="#354545"/>
<stop offset="1" stop-color="#8899B1"/>
</linearGradient>
</defs>
</svg>
