<svg xmlns="http://www.w3.org/2000/svg" xmlns:xlink="http://www.w3.org/1999/xlink" viewBox="0 0 459.3528 308"><defs><filter id="b4be6e40-fccf-4d9f-ac38-8907f1d8184b" x="257.0284" y="-8442" width="52.725" height="32766" filterUnits="userSpaceOnUse" color-interpolation-filters="sRGB"><feFlood flood-color="#fff" result="bg"/><feBlend in="SourceGraphic" in2="bg"/></filter><mask id="ba018060-1fcb-4386-ad94-118aa196f7be" x="257.0284" y="-8442" width="52.725" height="32766" maskUnits="userSpaceOnUse"><g style="filter:url(#b4be6e40-fccf-4d9f-ac38-8907f1d8184b)"/></mask><linearGradient id="a9ebe665-5004-41f3-882e-991ae73c223e" x1="257.0284" y1="369.9437" x2="309.7535" y2="369.9437" gradientUnits="userSpaceOnUse"><stop offset="0" stop-color="#fff"/><stop offset="1"/></linearGradient><linearGradient id="a3bbff08-1bc4-4caf-a41e-8178a5e2f189" x1="168.0135" y1="131.6546" x2="342.0135" y2="131.6546" gradientTransform="matrix(1, 0, 0, -1, 0, 502)" gradientUnits="userSpaceOnUse"><stop offset="0.0117" stop-color="#36b37e"/><stop offset="0.6679" stop-color="#00875a"/></linearGradient><linearGradient id="eb28c05f-7721-409c-86f0-9f74d863d12e" x1="-125.0551" y1="361.2294" x2="-125.0551" y2="404.2839" gradientTransform="translate(66.4449 502) rotate(180)" gradientUnits="userSpaceOnUse"><stop offset="0" stop-color="#fff"/><stop offset="0" stop-color="#dfe9f9" stop-opacity="0.875"/><stop offset="0" stop-color="#a5c2ed" stop-opacity="0.646"/><stop offset="0" stop-color="#72a0e3" stop-opacity="0.449"/><stop offset="0" stop-color="#4984db" stop-opacity="0.288"/><stop offset="0.001" stop-color="#296ed4" stop-opacity="0.162"/><stop offset="0.001" stop-color="#125fd0" stop-opacity="0.072"/><stop offset="0.001" stop-color="#0555cd" stop-opacity="0.018"/><stop offset="0.001" stop-color="#0052cc" stop-opacity="0"/><stop offset="0.128" stop-color="#0052cc" stop-opacity="0.022"/><stop offset="0.268" stop-color="#0052cc" stop-opacity="0.087"/><stop offset="0.414" stop-color="#0052cc" stop-opacity="0.195"/><stop offset="0.564" stop-color="#0052cc" stop-opacity="0.345"/><stop offset="0.717" stop-color="#0052cc" stop-opacity="0.54"/><stop offset="0.871" stop-color="#0052cc" stop-opacity="0.774"/><stop offset="1" stop-color="#0052cc"/></linearGradient><linearGradient id="b3980879-4fd0-43ac-a7a3-d9e8c0d9b8b5" x1="87" y1="134" x2="261" y2="134" xlink:href="#a3bbff08-1bc4-4caf-a41e-8178a5e2f189"/><linearGradient id="b72cefcb-77ff-4753-b687-2829d360da48" x1="325.1363" y1="248.688" x2="325.1363" y2="375.336" gradientTransform="matrix(1, 0, 0, -1, 0, 502)" xlink:href="#eb28c05f-7721-409c-86f0-9f74d863d12e"/><linearGradient id="ae86b687-3db2-4eea-9cb1-a984f6eff5a1" x1="-38.4999" y1="302.9237" x2="-38.4999" y2="372.9888" xlink:href="#eb28c05f-7721-409c-86f0-9f74d863d12e"/><linearGradient id="a4ccdb07-5d06-4ced-a5e4-e58ccc527b6f" x1="333.3511" y1="254.584" x2="333.3511" y2="313.9979" gradientTransform="matrix(1, 0, 0, -1, 0, 502)" xlink:href="#eb28c05f-7721-409c-86f0-9f74d863d12e"/><linearGradient id="bb5521ef-b237-4e57-a2b7-643f1b4508a3" x1="9" y1="383.2102" x2="407" y2="383.2102" gradientTransform="translate(453 766.4205) rotate(180)" gradientUnits="userSpaceOnUse"><stop offset="0.3787" stop-color="#57d9a3"/><stop offset="1" stop-color="#36b37e"/></linearGradient><linearGradient id="fde85735-7219-4a05-b559-7eda375d48be" x1="286.4983" y1="355.661" x2="293.0983" y2="355.661" gradientUnits="userSpaceOnUse"><stop offset="0" stop-color="#f6911e"/><stop offset="1" stop-color="#ffcb31"/></linearGradient><linearGradient id="f6658c33-c018-4810-91c3-ce424ad9a358" x1="284.9319" y1="356.5894" x2="288.5569" y2="356.5894" xlink:href="#fde85735-7219-4a05-b559-7eda375d48be"/><linearGradient id="e2b9afc5-010b-4a43-99ee-6076d6bc8531" x1="247.4558" y1="224.8938" x2="267.2357" y2="224.8938" gradientUnits="userSpaceOnUse"><stop offset="0.046" stop-color="#081d43"/><stop offset="0.065" stop-color="#08204b"/><stop offset="0.186" stop-color="#06327a"/><stop offset="0.312" stop-color="#0442a3"/><stop offset="0.439" stop-color="#024fc4"/><stop offset="0.57" stop-color="#0158de"/><stop offset="0.704" stop-color="#015ff1"/><stop offset="0.844" stop-color="#0064fb"/><stop offset="1" stop-color="#0065ff"/></linearGradient><linearGradient id="ffc945b8-0fb2-49cf-9e7f-8640764bcfb1" x1="271.1502" y1="286.1781" x2="288.2843" y2="286.1781" xlink:href="#e2b9afc5-010b-4a43-99ee-6076d6bc8531"/><linearGradient id="a1f646bd-d6d1-4677-812c-e791db667799" x1="294.5557" y1="248.3841" x2="285.8434" y2="261.7999" xlink:href="#e2b9afc5-010b-4a43-99ee-6076d6bc8531"/><linearGradient id="b5a1a9fc-16c5-4aea-8a03-ce9913bf2f07" x1="-931.6628" y1="267.1706" x2="-916.1647" y2="282.6689" gradientTransform="translate(-686.0147 408) rotate(180)" xlink:href="#fde85735-7219-4a05-b559-7eda375d48be"/><linearGradient id="b6b41aba-db20-49a5-8b8f-140bac122210" x1="267.4881" y1="345.8479" x2="299.6342" y2="380.3203" xlink:href="#e2b9afc5-010b-4a43-99ee-6076d6bc8531"/><filter id="bef404c1-4572-46f3-983e-e8f92342a7c3" x="257.0284" y="360.4343" width="52.725" height="19.0188" filterUnits="userSpaceOnUse" color-interpolation-filters="sRGB"><feFlood flood-color="#fff" result="bg"/><feBlend in="SourceGraphic" in2="bg"/></filter><mask id="a5bb8563-d7ae-4a33-aab0-f7860d3c4a7c" x="255.7637" y="266.4343" width="52.725" height="19.0188" maskUnits="userSpaceOnUse"><g style="filter:url(#bef404c1-4572-46f3-983e-e8f92342a7c3)"><g transform="translate(-1.2647 -94)"><g style="mask:url(#ba018060-1fcb-4386-ad94-118aa196f7be)"><path d="M309.7535,360.4343a34.926,34.926,0,0,1-2.7987,12.8917,16.1962,16.1962,0,0,1-3.0988,1.7439,58.252,58.252,0,0,1-20.4674,4.3832,58.2364,58.2364,0,0,1-20.4628-4.3832,15.9691,15.9691,0,0,1-3.0987-1.7485,34.9107,34.9107,0,0,1-2.7987-12.8871Z" style="mix-blend-mode:multiply;fill:url(#a9ebe665-5004-41f3-882e-991ae73c223e)"/></g></g></g></mask><linearGradient id="a7984ab3-e42a-4c9f-907c-154f35645ee2" x1="268.8089" y1="350.0254" x2="298.1547" y2="381.4949" xlink:href="#e2b9afc5-010b-4a43-99ee-6076d6bc8531"/><linearGradient id="a2937706-c0d0-4e86-97b0-d84dfa6d8da1" x1="191.8676" y1="277.1915" x2="201.8718" y2="277.1915" gradientUnits="userSpaceOnUse"><stop offset="0.0249" stop-color="#023f32"/><stop offset="0.0264" stop-color="#023f32"/><stop offset="0.136" stop-color="#0c5847"/><stop offset="0.2577" stop-color="#146c58"/><stop offset="0.3986" stop-color="#1a7a63"/><stop offset="0.5739" stop-color="#1d826a"/><stop offset="0.8903" stop-color="#1e846c"/></linearGradient><linearGradient id="ffbf8e1c-da35-42d0-b6a7-9449df56cbda" x1="398.8422" y1="218.6716" x2="418.1797" y2="218.6716" xlink:href="#e2b9afc5-010b-4a43-99ee-6076d6bc8531"/><linearGradient id="e6298302-e0dc-4820-84a2-49dcfc155e95" x1="28.5045" y1="194.8063" x2="46.9073" y2="194.8063" gradientTransform="translate(31.3987 -3.3666) rotate(9.136)" xlink:href="#e2b9afc5-010b-4a43-99ee-6076d6bc8531"/><linearGradient id="bff06f16-0e1f-4885-a22b-659f5029e260" x1="-997.4954" y1="178.8372" x2="-986.6049" y2="189.7278" gradientTransform="translate(-686.0147 408) rotate(180)" xlink:href="#fde85735-7219-4a05-b559-7eda375d48be"/><linearGradient id="b7936147-acc3-42e3-819a-139ca8b504c2" x1="-959.2226" y1="203.096" x2="-948.3321" y2="213.9866" gradientTransform="translate(-686.0147 408) rotate(180)" xlink:href="#fde85735-7219-4a05-b559-7eda375d48be"/><linearGradient id="a30475a2-158c-4459-9e35-590d84e5475c" x1="-880.9484" y1="330.3669" x2="-861.4965" y2="349.8191" gradientTransform="translate(-686.0147 408) rotate(180)" xlink:href="#fde85735-7219-4a05-b559-7eda375d48be"/><linearGradient id="a7a0cd4c-b6d2-4e44-85ce-ef35a057cd83" x1="-1033.5518" y1="324.3075" x2="-1007.4554" y2="350.4042" gradientTransform="translate(-686.0147 408) rotate(180)" xlink:href="#fde85735-7219-4a05-b559-7eda375d48be"/></defs><g style="isolation:isolate"><g id="f5123756-8712-40f7-9b26-51e4ecb537c9" data-name="Layer 1"><path d="M242.3326,356.8962c-34.0511,2.9977-59.8368,17.5158-74.3191,27.4492q37.4775-.4848,74.9314-.5583,49.5578-.1323,99.0686.4114c-15.2359-10.3155-51.6183-31.5343-99.6809-27.3023Z" transform="translate(-1.2647 -94)" style="fill:url(#a3bbff08-1bc4-4caf-a41e-8178a5e2f189)"/><path d="M145.8287,135.8387h-.0608a7.5694,7.5694,0,0,1-2.34-14.8269c-.0289-.392-.0445-.7884-.0445-1.1877a16.2,16.2,0,0,1,16.3759-16.0179A16.5423,16.5423,0,0,1,172.3856,109.6,21.4219,21.4219,0,0,1,198.47,94.6848a20.9686,20.9686,0,0,1,15.9626,20.2183,20.3161,20.3161,0,0,1-.1017,2.0406,6.6585,6.6585,0,0,1,1.7424-.6225c3.2318-.6594,6.8983,1.18,8.9937,3.6631,2.5175,2.9783,1.2529,5.0725,4.6516,9.5935a12.6481,12.6481,0,0,0,2.06,2.3493c4.1775,3.4928,11.4074,3.945,13.2217,4.0269Z" transform="translate(-1.2647 -94)" style="opacity:0.10000000149011612;isolation:isolate;fill:url(#eb28c05f-7721-409c-86f0-9f74d863d12e)"/><path d="M161.3191,354.5508C127.268,357.5485,101.4823,372.0665,87,382q37.4775-.485,74.9314-.5584,49.5579-.1323,99.0686.4115c-15.2359-10.3155-51.6183-31.5343-99.6809-27.3023Z" transform="translate(-1.2647 -94)" style="fill:url(#b3980879-4fd0-43ac-a7a3-d9e8c0d9b8b5)"/><path d="M436.742,172.01q.1951-2.649.2-5.349a72.107,72.107,0,0,0-144.213-.54q-.001.27,0,.54,0,3.564.343,7.042a22.1314,22.1314,0,0,0-5.876-2.147c-10.9-2.279-23.252,4.07-30.327,12.641-8.488,10.282-4.223,17.517-15.683,33.114a43.3318,43.3318,0,0,1-6.947,8.107c-14.087,12.06-38.464,13.616-44.584,13.9q28.743.192,57.6-.532l.269-.007v.007h178.651v-.008c.09,0,.178.007.269.007a34.184,34.184,0,0,0,10.3-66.776Z" transform="translate(-1.2647 -94)" style="opacity:0.10000000149011612;isolation:isolate;fill:url(#b72cefcb-77ff-4753-b687-2829d360da48)"/><path d="M32.3358,191.05h-.0967a12.3515,12.3515,0,0,1-3.7206-24.1286c-.046-.638-.0707-1.283-.0707-1.9328A26.0508,26.0508,0,0,1,74.5564,148.35a33.9765,33.9765,0,0,1,66.8468,8.6309q0,1.6828-.1616,3.3208a10.4275,10.4275,0,0,1,2.77-1.013c5.138-1.0731,10.967,1.92,14.2984,5.9611,4.0023,4.8467,1.9918,8.2548,7.395,15.6121a20.4512,20.4512,0,0,0,3.2748,3.8231c6.6415,5.684,18.1357,6.42,21.02,6.5531Z" transform="translate(-1.2647 -94)" style="opacity:0.10000000149011612;isolation:isolate;fill:url(#ae86b687-3db2-4eea-9cb1-a984f6eff5a1)"/><path d="M394.9234,240.61h.082a10.474,10.474,0,0,0,3.155-20.461q.06-.8111.061-1.639a22.09,22.09,0,0,0-39.1-14.109,28.813,28.813,0,0,0-56.687,7.319c0,.95.048,1.889.138,2.816a8.8256,8.8256,0,0,0-2.35-.859c-4.357-.911-9.3,1.627-12.125,5.054-3.394,4.111-1.688,7-6.27,13.24a17.322,17.322,0,0,1-2.778,3.241c-5.631,4.821-15.378,5.444-17.825,5.558Z" transform="translate(-1.2647 -94)" style="opacity:0.05000000074505806;isolation:isolate;fill:url(#a4ccdb07-5d06-4ced-a5e4-e58ccc527b6f)"/><path d="M244.3379,402s209.0383-3.1006,199.3344-9.65-58.9567-10.93-47.5381-18.232-181.5724-16.0643-185.8881-2.9208-171.942-1.46-149.8555,8.7623-32.9017,9.4889-7.5641,13.872S244.3379,402,244.3379,402Z" transform="translate(-1.2647 -94)" style="fill:url(#bb5521ef-b237-4e57-a2b7-643f1b4508a3)"/><path d="M279.1648,329.3345l-2.5352-3.3077a68.7837,68.7837,0,0,1,10.07-6.2124c7.8416-3.9137,14.1114-4.8172,18.6351-2.6886L303.56,320.897C296.767,317.6988,283.6466,325.9031,279.1648,329.3345Z" transform="translate(-1.2647 -94)" style="fill:#004899"/><path d="M286.8562,362.2542s-2.2268-9.6208,4.429-13.1864C291.2852,349.0678,297.5238,353.9385,286.8562,362.2542Z" transform="translate(-1.2647 -94)" style="fill:url(#fde85735-7219-4a05-b559-7eda375d48be)"/><path d="M286.8562,362.2542s4.0987-7.5074-.43-11.33C286.4265,350.9246,282.7933,356.6874,286.8562,362.2542Z" transform="translate(-1.2647 -94)" style="fill:url(#f6658c33-c018-4810-91c3-ce424ad9a358)"/><path d="M247.4558,221.6c14.326-5.3947,19.7269,6.8525,19.78,6.9767l-2.3.9821c-.18-.4168-4.5512-10.1556-16.5989-5.6186Z" transform="translate(-1.2647 -94)" style="fill:url(#e2b9afc5-010b-4a43-99ee-6076d6bc8531)"/><path d="M262.0822,222.0769a23.4547,23.4547,0,0,0-4.9263-10.2879c-5.6455-7.1379-15.06-11.94-27.2281-13.8885a60.7926,60.7926,0,0,1-34.2784-17.63,58.0585,58.0585,0,0,1-8.968-11.8457,2.0835,2.0835,0,0,1,.9666-2.9181h0a2.0818,2.0818,0,0,1,2.67.8717,54.3426,54.3426,0,0,0,8.4373,11.107,55.9568,55.9568,0,0,0,31.8319,16.3c9.308,1.49,22.0726,5.4154,30.0182,15.6489a26.9721,26.9721,0,0,1,5.6133,12.1312Z" transform="translate(-1.2647 -94)" style="fill:#004899"/><path d="M273.2609,290.1856,271.15,288.845c6.3158-9.9437,17.0267-5.8441,17.1341-5.8017l-.9182,2.3259C287.0043,285.228,278.4535,282.01,273.2609,290.1856Z" transform="translate(-1.2647 -94)" style="fill:url(#ffc945b8-0fb2-49cf-9e7f-8640764bcfb1)"/><path d="M294.7976,298.1906l-3.16-2.7171-.0248.0293a4.0554,4.0554,0,0,0,.5445-3.38c-1.17-4.8148-8.9909-8.9791-13.5491-11.0333-12.3663-5.5729-15.4706-14.7307-16.249-19.092a2.0776,2.0776,0,0,1,2.05-2.4385h0a2.0814,2.0814,0,0,1,2.0488,1.723c.61,3.4367,3.1639,11.1864,13.8626,16.0078,9.447,4.2572,14.8064,8.9775,15.9288,14.03A8.0525,8.0525,0,0,1,294.7976,298.1906Z" transform="translate(-1.2647 -94)" style="fill:#004899"/><path d="M287.8176,262.6963h0a1.2417,1.2417,0,0,1-1.4426-1.1939c-.0582-2.8419.5562-9.3106,6.7953-13.1508a1.2521,1.2521,0,0,1,1.7809.4907l.0053.0106a1.2366,1.2366,0,0,1-.4451,1.6105,12.2052,12.2052,0,0,0-5.6481,10.9734A1.2417,1.2417,0,0,1,287.8176,262.6963Z" transform="translate(-1.2647 -94)" style="fill:url(#a1f646bd-d6d1-4677-812c-e791db667799)"/><path d="M291.0889,373.8875a53.792,53.792,0,0,1-13.5027-20.77c-7.765-21.6321,1.651-40.6761,10.9171-52.8425,5.4725-7.1853,6.8884-14.2291,4.4566-22.1674-2.2739-7.4233-7.6023-14.911-13.2437-22.8381-8.2778-11.6317-17.66-24.8152-18.7576-40.5452-1.1526-16.5171,6.6385-29.4128,23.1568-38.3283,9.9037-5.3455,22.51-9.0946,38.4866-11.4409a2.1121,2.1121,0,0,1,2.3609,1.8992h0a2.1829,2.1829,0,0,1-1.7762,2.4632c-15.5128,2.2769-27.69,5.8825-37.1763,11.0027-14.8826,8.0328-21.9128,19.4991-20.8955,34.08,1.0075,14.4391,9.6112,26.5286,17.9314,38.22,5.8575,8.23,11.39,16.0045,13.8785,24.13,2.8657,9.3544,1.1726,17.9532-5.1753,26.2883-12.4846,16.3917-15.9386,32.7146-10.2669,48.516a49.9246,49.9246,0,0,0,12.2657,18.9412Z" transform="translate(-1.2647 -94)" style="fill:#004899;stroke:#004899;stroke-miterlimit:10"/><ellipse cx="237.899" cy="133.0803" rx="10.8362" ry="11.0803" style="fill:url(#b5a1a9fc-16c5-4aea-8a03-ce9913bf2f07)"/><g id="b5f8facc-0384-4fdf-a6ee-a484758df6cd" data-name="pot"><path d="M312.9754,358.99a1.0494,1.0494,0,0,1,1.0419,1.1591c-.2622,2.6329-1.4728,9.1477-7.0625,13.1765a16.1962,16.1962,0,0,1-3.0988,1.7439,58.252,58.252,0,0,1-20.4674,4.3832,58.2364,58.2364,0,0,1-20.4628-4.3832,15.9691,15.9691,0,0,1-3.0987-1.7485c-5.59-4.0252-6.8-10.5391-7.0625-13.1719a1.0494,1.0494,0,0,1,1.0419-1.1591Z" transform="translate(-1.2647 -94)" style="fill:url(#b6b41aba-db20-49a5-8b8f-140bac122210)"/><g style="mask:url(#a5bb8563-d7ae-4a33-aab0-f7860d3c4a7c)"><path d="M309.7181,361.4489a34.7016,34.7016,0,0,1-2.6468,11.62,1.0077,1.0077,0,0,1-.3438.4176,16.2916,16.2916,0,0,1-2.8715,1.583,58.252,58.252,0,0,1-20.4674,4.3832,58.2364,58.2364,0,0,1-20.4628-4.3832,16.0711,16.0711,0,0,1-2.873-1.5877,1.01,1.01,0,0,1-.3417-.4164,34.691,34.691,0,0,1-2.6473-11.6169.9638.9638,0,0,1,.9682-1.0146H308.75A.9638.9638,0,0,1,309.7181,361.4489Z" transform="translate(-1.2647 -94)" style="mix-blend-mode:multiply;fill:url(#a7984ab3-e42a-4c9f-907c-154f35645ee2)"/></g></g><path d="M240.7654,239.0535s.5651-1.4347.359-1.6481-1.2084,1.2946-1.0647.4418-1.7647,2.1418-1.7647,2.1418a2.9609,2.9609,0,0,0,.0148-1.26c-.1413-.7045-.8822,2.5026-.9836,2.7752a25.3891,25.3891,0,0,1-1.5809,2.0383c.8855,1.7336,1.4321.9393,1.4321.9393s1.1121-1.4413,1.732-2.1273c.4136-.458,2.882-3.3722,2.8315-3.72S240.7654,239.0535,240.7654,239.0535Z" transform="translate(-1.2647 -94)" style="fill:#e5b9b6"/><path d="M228.9888,226.5417s.0171-1.5421-.2515-1.668-.6682,1.64-.8376.792-.8864,2.63-.8864,2.63a2.9593,2.9593,0,0,0-.4348-1.1824c-.3829-.6081.0669,2.6525.0693,2.9434a25.383,25.383,0,0,1-.7514,2.4677c1.4447,1.3046,1.6728.3677,1.6728.3677s.5258-1.7428.8607-2.6048c.2236-.5751,1.4922-4.1774,1.321-4.4845S228.9888,226.5417,228.9888,226.5417Z" transform="translate(-1.2647 -94)" style="fill:#e5b9b6"/><path d="M178.3277,298.9514s-9.8055,28.5215-12.7762,31.3415c0,0-17.851-3.2126-28.4478.376,0,0,1.1964.3073.0123,1.5689s1.1841-1.2616,32.15,9.0325c3.9956,1.3283,15.7239-15.6009,15.9521-18.0562s-5.1918-24.3167-5.1918-24.3167Z" transform="translate(-1.2647 -94)" style="fill:#273556"/><path d="M236.0665,243.1112s-12.3632,11.0212-15.0371,11.6931-15.4089,1.334-19.8834,2.5038-2.204,6.193-2.204,6.193c3.0431,7.4138,19.1231-.8238,22.3417-2.1133s16.5118-17.6613,16.5118-17.6613C235.9957,244.2222,236.0665,243.1112,236.0665,243.1112Z" transform="translate(-1.2647 -94)" style="fill:#e5b9b6"/><path d="M184.1618,378.0194a3.8822,3.8822,0,0,1-.7035-.2642l-.0029,0c-.9868.1712-3.3587-.7813-5.0248-1.8489a4.7748,4.7748,0,0,1-1.5519-1.7032,15.4284,15.4284,0,0,0-.1738,5.52l.8592-.0334s.385-2.1857.98-1.453,1.1851,1.3691,1.1851,1.3691l6.0307-.2337S185.7487,378.4305,184.1618,378.0194Z" transform="translate(-1.2647 -94)" style="fill:#243145"/><path d="M179.7137,374.3227a15.1054,15.1054,0,0,1-.5674-3.0832l-1.5963.0537a28.4913,28.4913,0,0,0-.6714,2.9073l0,.0028a4.7748,4.7748,0,0,0,1.5519,1.7032c1.6661,1.0676,4.038,2.02,5.0248,1.8489C181.9362,377.0442,180.0766,375.3644,179.7137,374.3227Z" transform="translate(-1.2647 -94)" style="fill:#e5b9b6"/><path d="M129.3872,330.0361l.0638.8574s2.1981.3072,1.487.9274-1.3263,1.233-1.3263,1.233l.4478,6.0187s.9411-.0445,1.2956-1.6448a3.8821,3.8821,0,0,1,.2392-.7127l0-.0027c-.2062-.98.6614-3.3844,1.6691-5.0873a4.7763,4.7763,0,0,1,1.647-1.6115A15.4344,15.4344,0,0,0,129.3872,330.0361Z" transform="translate(-1.2647 -94)" style="fill:#243145"/><path d="M134.913,330.0135l-.0028,0a4.7763,4.7763,0,0,0-1.647,1.6115c-1.0077,1.7029-1.8753,4.1072-1.6691,5.0873.6565-1.5434,2.2694-3.4615,3.2975-3.8613a6.7433,6.7433,0,0,1,3.1036-.0607l-.1531-2.2093A28.5021,28.5021,0,0,0,134.913,330.0135Z" transform="translate(-1.2647 -94)" style="fill:#e5b9b6"/><path d="M196.4118,257.5893a6.8714,6.8714,0,0,0-1.3989.91c-2.77,2.3505-2.3883,6.29-1.3463,9.76,1.1368,3.7863,2.7339,9.0056,1.3364,12.9239-1.03,2.8889-2.1288,3.6377-2.1288,3.6377s4.7085,3.727,8.2138,1.6775c0,0,3.8336-7.772,5.0062-12.6036s1.45-4.84,2.5884-6.407c1.777-2.4491-.8447-6.043-2.5717-7.751C203.54,257.1941,199.8154,255.9,196.4118,257.5893Z" transform="translate(-1.2647 -94)" style="fill:#279c83"/><path d="M226.0824,231.9483s-7.4876,14.7734-9.7319,16.3747-13.859,6.8661-17.5978,9.5884.2087,6.57.2087,6.57c5.5389,5.7915,17.5031-7.7467,20.0289-10.122s8.9264-22.47,8.9264-22.47C226.422,233.0086,226.0824,231.9483,226.0824,231.9483Z" transform="translate(-1.2647 -94)" style="fill:#fde7de"/><path d="M192.8742,284.8209s-10.1914,3.5029-15.6186,12.49-3.26,25.8512-2.4673,31.5385-2.8859,11.9242-2.8376,19.8792,5.0626,24.5248,5.0626,24.5248a2.042,2.042,0,0,0,2.48-.5888s.855-19.4594,3.719-30.5668,9.2632-28.0395,13.849-37.8245,4.0264-17.7748,4.0264-17.7748S198.4723,287.6525,192.8742,284.8209Z" transform="translate(-1.2647 -94)" style="fill:#313d63"/><path d="M201.25,253.8749c.8776-2.884-4.7692-2.1206-4.7692-2.1206s.36,4.3812-.8093,6.2141a12.552,12.552,0,0,1,3.7918-.5758l2.1055-1.297S200.3725,256.759,201.25,253.8749Z" transform="translate(-1.2647 -94)" style="fill:#fde7de"/><path d="M190.4555,246.823s1.4428,4.8448,7.7875,5.98a15.422,15.422,0,0,0,2.0755.2425c4.1681.1719,4.0247-1.09,4.0247-1.09a24.509,24.509,0,0,0,.9638-6.1033c.0147-.3406,1.2929-.486,1.1153-.8009-3.3013-5.8566-2.444-7.3847-2.4553-9.1132l-12.273-1.1924-2.8491,2.3388-1.3146,2.8608,1.5883,4.54Z" transform="translate(-1.2647 -94)" style="fill:#fde7de"/><path d="M200.6358,226.7349s4.84-2.1449,7.5292-.0138,3.7513,4.9307,1.1542,8.123-7.9528,4.2719-10.0057,3.9262-4.1023-2.1341-4.4219-1.3692-.7906,2.46-1.7152,2.9372c0,0-2.6389-1.4289-3.2461.77s2.5385,4.1979,2.5385,4.1979l-.0609,4.5589s-11.0626-7.8477-8.496-21.1253l4.0637-3.6849A13.886,13.886,0,0,1,200.6358,226.7349Z" transform="translate(-1.2647 -94)" style="fill:#1e274f"/><path d="M187.5872,225.7749a11.5451,11.5451,0,0,0-3.4878-3.6987c-2.1722-1.3423-6.2689-3.3336-10.4976,1.711-5.8084,6.9292-4.1238,10.8673-5.2741,17.8247s-18.3555,4.7043-21.4586,12.3512c-3.1613,7.7895-.6987,15.5512,7.81,22.4164,8.8805,7.1654,14.9838.0866,15.5715-1.8742s-.176-4.976-.0778-7.1129a5.7845,5.7845,0,0,1,3.7684-5.1385c1.2765-.5011,9.1359-4.58,7.6778-12.6168s-3.69-9.3662-3.5285-15.9642c.0561-2.2816,1.484-7.36,4.9607-6.3776Z" transform="translate(-1.2647 -94)" style="fill:#212b54"/><path d="M182.8116,227.9474a1.2543,1.2543,0,0,0,.9791.9811c.8736.1536,4.1853-3.8732,4.1853-3.8732s-.2662-1.8109-1.6407-.91C186.3352,224.146,182.3293,227.42,182.8116,227.9474Z" transform="translate(-1.2647 -94)" style="fill:#f5a51c"/><circle cx="202.739" cy="241.422" r="0.545" transform="translate(-56.9906 327.9313) rotate(-84.9075)" style="fill:#212b54"/><path d="M202.3445,239.71a2.3491,2.3491,0,0,0-1.2691,1.5637" transform="translate(-1.2647 -94)" style="fill:#1e274f"/><ellipse cx="202.8183" cy="241.3581" rx="3.3585" ry="3.1852" transform="translate(-56.8547 327.952) rotate(-84.9075)" style="fill:none;stroke:#313d63;stroke-miterlimit:10"/><path d="M192.9483,239.8522c.14.0125,6.8886.9139,6.8886.9139" transform="translate(-1.2647 -94)" style="fill:none;stroke:#313d63;stroke-miterlimit:10"/><path d="M204.4084,248.1114a7.6873,7.6873,0,0,1-3.8676-.8389s1.5675,3.67,3.2974,2.4827Z" transform="translate(-1.2647 -94)" style="fill:#e5b9b6"/><path d="M196.6119,252.5106a11.8982,11.8982,0,0,0,4.057.3107s-3.4195,1.8748-4.123,3.0666Z" transform="translate(-1.2647 -94)" style="fill:#e5b9b6"/><path d="M197.4381,267.162s6.5774,7.6572,3.71,20.0591l-9.28-2.0088s6.2935-7.5184,2.427-15.5283Z" transform="translate(-1.2647 -94)" style="fill:url(#a2937706-c0d0-4e86-97b0-d84dfa6d8da1)"/><polyline points="398.093 104.442 409.906 139.484 396.328 143.349 398.093 104.442" style="fill:#96c0e8"/><path d="M413.1038,239.9009c-.2962-.4036-14.2616-42.4587-14.2616-42.4587l19.3375,36.48Z" transform="translate(-1.2647 -94)" style="fill:url(#ffbf8e1c-da35-42d0-b6a7-9449df56cbda)"/><polygon points="397.577 103.442 426.008 136.52 416.915 139.923 397.577 103.442" style="fill:#96c0e8"/><path d="M332.3715,349.8217c2.7606.2023,11.8327,2.77,28.2674-2.4159,22.4285-7.0759,25.2455-22.2434,2.4218-39.98s-40.39-3.1848-27.3928,4.4875c22.7442,13.4266,105.4585,29.0911,78.4441-68.6575" transform="translate(-1.2647 -94)" style="fill:none;stroke:#586f7d;stroke-miterlimit:10;stroke-width:0.5px;stroke-dasharray:12"/><path d="M83.7487,361.035s-.9286-.6557-2.461-1.8668" transform="translate(-1.2647 -94)" style="fill:none;stroke:#586f7d;stroke-miterlimit:10;stroke-width:0.5px"/><path d="M76.467,355.11C66.7454,346.4321,51.0534,329.34,53.89,311.4151c5.9173-37.4025,38.0077-42.7927,42.7866-31.2986s-61.2466,27.805-82.0981,7.0227c-19.4771-19.4121-16.24-50.4477,3.51-71.9962" transform="translate(-1.2647 -94)" style="fill:none;stroke:#586f7d;stroke-miterlimit:10;stroke-width:0.5px;stroke-dasharray:12.23550033569336,12.23550033569336"/><path d="M20.2741,212.8645q1.0905-1.086,2.2389-2.1341" transform="translate(-1.2647 -94)" style="fill:none;stroke:#586f7d;stroke-miterlimit:10;stroke-width:0.5px"/><polyline points="47.766 88.426 29.917 109.789 38.134 116.722 47.766 88.426" style="fill:#96c0e8"/><path d="M27.7484,207.7082c.3121-.19,21.2815-25.2827,21.2815-25.2827L27.3574,201.2874Z" transform="translate(-1.2647 -94)" style="fill:url(#e6298302-e0dc-4820-84a2-49dcfc155e95)"/><polygon points="47.766 88.426 20.811 102.074 26.093 107.287 47.766 88.426" style="fill:#96c0e8"/><path d="M191.0229,297.662s-.0325,7.1714-8.9967,11.5768l-.676,15.989" transform="translate(-1.2647 -94)" style="fill:none;stroke:#fff;stroke-miterlimit:10"/><circle cx="306.0354" cy="223.7175" r="7.6998" style="fill:url(#bff06f16-0e1f-4885-a22b-659f5029e260)"/><circle cx="267.7626" cy="199.4587" r="7.6998" style="fill:url(#b7936147-acc3-42e3-819a-139ca8b504c2)"/><ellipse cx="185.2077" cy="67.907" rx="13.6007" ry="13.907" style="fill:url(#a30475a2-158c-4459-9e35-590d84e5475c)"/><ellipse cx="334.4888" cy="70.6442" rx="18.2464" ry="18.6573" style="fill:url(#a7a0cd4c-b6d2-4e44-85ce-ef35a057cd83)"/></g></g></svg>
