<svg xmlns="http://www.w3.org/2000/svg" viewBox="0 0 468.97 354.58"><g style="isolation:isolate"><g id="Layer_1" ><path d="M472.51,324.25c-12.84,55.85-44.57,113.46-150.18,103.69-85.95-8-112.5-81.84-153.54-90.54-32.09-6.81-26.06,5.57-70.9-.73C43.46,329,10.77,295.85,7,251c-5.36-63.35,34.69-110,95.31-108.35,76.79,2.06,79.26,25.25,113.25,29.76,40.08,5.32,42-28.22,131.75-19.16C456.8,164.31,485.69,266.91,472.51,324.25Z" transform="translate(-6.5 -74.44)" style="fill:#f2f2f2;opacity:0.73"/><path d="M296,413.7c85-12.32,181.58-179.39,141.49-275.7-23.51-56.46-89.61-39.94-157-18.52-61.93,19.69-74.78-53.47-138-44.23-77.22,11.3-34.87,92.26,5.22,188.56S197.56,428,296,413.7Z" transform="translate(-6.5 -74.44)" style="fill:#1c7961"/><circle cx="240.71" cy="252.74" r="83.21" transform="translate(-114.71 169.79) rotate(-45)" style="fill:#1c1e36"/><path d="M364.83,292.61V156.8s-244.28-1.66-245.93,0V292.61Z" transform="translate(-6.5 -74.44)" style="fill:#fff"/><rect x="154.45" y="168.56" width="37.06" height="38.36" style="fill:#f6f6f6"/><rect x="232.8" y="57.52" width="19.71" height="231.66" transform="translate(62.81 341.57) rotate(-90)" style="fill:#2e3338"/><rect x="120.75" y="124.95" width="25.48" height="5.06" style="fill:#e6e6e6"/><rect x="120.75" y="114.4" width="25.48" height="5.06" style="fill:#e6e6e6"/><rect x="120.75" y="135.51" width="25.48" height="5.06" style="fill:#e6e6e6"/><rect x="120.75" y="146.06" width="25.48" height="5.06" style="fill:#e6e6e6"/><rect x="120.75" y="156.61" width="25.48" height="5.06" style="fill:#e6e6e6"/><rect x="120.75" y="167.17" width="25.48" height="5.06" style="fill:#e6e6e6"/><rect x="120.75" y="177.72" width="25.48" height="5.06" style="fill:#e6e6e6"/><rect x="120.75" y="188.27" width="25.48" height="5.06" style="fill:#e6e6e6"/><rect x="120.75" y="198.83" width="25.48" height="5.06" style="fill:#e6e6e6"/><rect x="196.4" y="168.56" width="37.06" height="38.36" style="fill:#f6f6f6"/><rect x="238.27" y="168.56" width="37.06" height="38.36" style="fill:#f6f6f6"/><rect x="280.01" y="168.56" width="37.06" height="38.36" style="fill:#f6f6f6"/><rect x="325.56" y="124.95" width="25.48" height="5.06" style="fill:#e6e6e6"/><rect x="325.56" y="114.4" width="25.48" height="5.06" style="fill:#e6e6e6"/><rect x="325.56" y="135.51" width="25.48" height="5.06" style="fill:#e6e6e6"/><rect x="325.56" y="146.06" width="25.48" height="5.06" style="fill:#e6e6e6"/><rect x="325.56" y="156.61" width="25.48" height="5.06" style="fill:#e6e6e6"/><path d="M143.29,171.11v1.35l-1.73.7L136,170.88l-3.53-1.46,3.53-1.94,6,2.13A1.89,1.89,0,0,1,143.29,171.11Z" transform="translate(-6.5 -74.44)" style="fill:#f7971d"/><path d="M135.75,175.4v3.8l.06,0,6.21-2.73a2.07,2.07,0,0,0,1.27-1.59v-2.46l-1.8.7Z" transform="translate(-6.5 -74.44)" style="fill:#ed6d23"/><polygon points="129.54 93.03 129.54 96.44 125.87 94.98 129.54 93.03" style="fill:#ed6d23"/><polygon points="129.25 100.95 129.25 104.79 126.01 103.15 129.25 100.95" style="fill:#f7971d"/><polygon points="126.01 103.15 126.01 99.3 129.25 100.95 126.01 103.15" style="fill:#f7971d"/><rect x="208.02" y="228.64" width="54.88" height="30.28" style="fill:#accbc5"/><path d="M262.07,325.73H222.7c-12,0-21.74,3-22.6,15.27h84.57C283.8,328.74,274.06,325.73,262.07,325.73Z" transform="translate(-6.5 -74.44)" style="fill:#cce5e0"/><path d="M123.7,317.54H361a9.06,9.06,0,0,0,9-9.06V162.18a9,9,0,0,0-9-9.06H123.7a9.06,9.06,0,0,0-9.06,9.06v146.3A9.06,9.06,0,0,0,123.7,317.54Zm-3.3-158.07H364.27v127.6H120.4Z" transform="translate(-6.5 -74.44)" style="fill:#cce5e0"/><rect x="227.21" y="219.68" width="8.35" height="8.35" rx="3.68" style="fill:#ffa929"/><rect x="154.73" y="168.11" width="36.81" height="16.16" style="fill:#27b69b"/><rect x="196.26" y="168.11" width="36.81" height="16.16" style="fill:#2b343a"/><rect x="238.73" y="168.11" width="36.81" height="16.16" style="fill:#ff5249"/><rect x="280.26" y="168.11" width="36.81" height="16.16" style="fill:#0a4356"/><circle cx="401.67" cy="299.01" r="10.1" style="fill:none;stroke:#1c7961;stroke-miterlimit:10;stroke-width:6.410310000000001px"/><path d="M455.9,287.23a4.67,4.67,0,1,1-4.66-4.67A4.67,4.67,0,0,1,455.9,287.23Z" transform="translate(-6.5 -74.44)" style="fill:#1c7961;opacity:0.93"/><path d="M132.71,373.17c7.57,0,13.69-4.49,13.69-9.23s-9-9.17-16.49-10c-10.32-1.18-10.9,5.31-10.9,10S125.14,373.17,132.71,373.17Z" transform="translate(-6.5 -74.44)" style="fill:#1c7961;opacity:0.89"/><path d="M225.79,88.89a4.71,4.71,0,1,1-4.71-4.7A4.7,4.7,0,0,1,225.79,88.89Z" transform="translate(-6.5 -74.44)" style="fill:#1c7961;opacity:0.89"/><g style="mix-blend-mode:multiply"><path d="M241,235.6c-21.63,0-21.63-19.32-43.26-19.32S176.1,235.6,154.48,235.6Z" transform="translate(-6.5 -74.44)" style="fill:#b3b3b1"/></g><g style="mix-blend-mode:multiply"><path d="M271,235.6c-21.62,0-21.62-21.6-43.25-21.6s-21.63,21.6-43.26,21.6Z" transform="translate(-6.5 -74.44)" style="fill:#27b69b"/></g><g style="mix-blend-mode:multiply"><path d="M304.13,235.6c-21.63,0-21.63-40.7-43.26-40.7s-21.63,40.7-43.25,40.7Z" transform="translate(-6.5 -74.44)" style="fill:#ff5249"/></g><g style="mix-blend-mode:multiply"><path d="M335.7,235.6c-21.63,0-21.63-26.64-43.26-26.64s-21.63,26.64-43.25,26.64Z" transform="translate(-6.5 -74.44)" style="fill:#63c8d4"/></g><circle cx="341.5" cy="98.56" r="6" style="fill:#4d4d4d"/></g></g></svg>
