<?xml version="1.0" encoding="UTF-8"?>
<svg xmlns="http://www.w3.org/2000/svg" xmlns:xlink="http://www.w3.org/1999/xlink" viewBox="0 0 425.625 388.94">
  <defs>
    <style>
      .uuid-2af259a8-8524-4596-961f-dd1b4da43223 {
        fill: url(#uuid-632b6e0d-c910-48b8-9258-6a98fd11ad0a);
      }

      .uuid-14803449-dec2-4a73-8ec1-339f13254896 {
        fill: url(#uuid-855d3146-8ebd-431f-b772-367aadad108a);
      }

      .uuid-14803449-dec2-4a73-8ec1-339f13254896, .uuid-f897a7e6-a397-4d7f-a691-35cea5e2c38c, .uuid-7f33bc95-482f-4473-9ee6-25bb226c83e8, .uuid-7ef52bcf-8cf4-4d02-a17c-45dede1336a7, .uuid-0081e57c-9f44-4837-8ee8-8411e541e46c, .uuid-393ca2f2-5d96-4376-bd61-f786df2e792a, .uuid-2846336a-6ca5-4a54-9fef-b355e15dba0b {
        mix-blend-mode: multiply;
      }

      .uuid-14803449-dec2-4a73-8ec1-339f13254896, .uuid-0081e57c-9f44-4837-8ee8-8411e541e46c {
        opacity: .68;
      }

      .uuid-5b8b251e-12c6-41f2-a070-095a39fb548f {
        fill: url(#uuid-4f137203-6f27-46d5-a531-beb292aee353);
      }

      .uuid-e5561b6d-5cc2-427d-9d35-cf56cfe5be72 {
        fill: url(#uuid-ae5e36dc-4931-4aa0-8041-70247c42f351);
      }

      .uuid-26dc8922-2210-4caa-a24e-0c3f921c2763 {
        fill: #00c7e5;
      }

      .uuid-620ef2c8-e604-4289-82d5-7995759466de {
        fill: #efb192;
      }

      .uuid-ed2f7892-fad7-49f0-9d4b-3a95703f5af7 {
        fill: #eaeaea;
      }

      .uuid-afd881d7-7341-42d7-b377-5d50db2945a6 {
        fill: #fdc8a9;
      }

      .uuid-87f9a3a0-3d50-4cd8-9a18-3fe5237c89ee {
        fill: #ffaede;
      }

      .uuid-03b9faac-57c0-4eb4-81cc-90129cc25f4e {
        fill: #fff;
      }

      .uuid-7cc65b6b-15e5-4333-9437-37b04305b78d {
        fill: #68413c;
      }

      .uuid-e3ffdc92-c5df-474c-8717-618f31c162ab {
        fill: #303030;
      }

      .uuid-721994e0-4c6b-45c3-841d-9328fef2a6d6 {
        fill: #afafaf;
      }

      .uuid-d5e628f2-0741-4c9c-b9ba-dbab9fe0907c, .uuid-f897a7e6-a397-4d7f-a691-35cea5e2c38c, .uuid-7f33bc95-482f-4473-9ee6-25bb226c83e8 {
        fill: #232323;
      }

      .uuid-f75a6044-dce9-44f8-bba9-0feae8d6937f {
        fill: #54322f;
      }

      .uuid-5c0a66bc-561d-48e4-baaf-e47c77e25f79 {
        fill: #4f6185;
      }

      .uuid-1e36c3e4-e7de-45df-9134-3aefa6b61135 {
        fill: url(#uuid-ac3c1bd1-9d95-48cf-8489-34f3823eb364);
      }

      .uuid-e25634be-e010-49f7-8178-97fc703e27bd {
        fill: #e6e9f8;
        opacity: .2;
      }

      .uuid-e25634be-e010-49f7-8178-97fc703e27bd, .uuid-76618220-150a-459c-a6bc-2c339169d268, .uuid-cfdfb309-3ee1-44c9-9b0f-04c41efc1038, .uuid-6fe5c9d0-3d7d-4306-a2db-a0c9db6a583d, .uuid-dc746033-2d71-4a83-a11a-a7d82bfcdb3f {
        isolation: isolate;
      }

      .uuid-f897a7e6-a397-4d7f-a691-35cea5e2c38c, .uuid-393ca2f2-5d96-4376-bd61-f786df2e792a {
        opacity: .15;
      }

      .uuid-797dca39-f00a-45ee-820d-b4da707404e0 {
        fill: url(#uuid-f9009b44-e7a8-4578-b785-577c1ffe4ab9);
      }

      .uuid-5881dc13-bc9f-447c-b65f-cfd01dce429a {
        fill: none;
        stroke: #ff991f;
        stroke-width: 3.41px;
      }

      .uuid-5881dc13-bc9f-447c-b65f-cfd01dce429a, .uuid-a81126ac-a286-481a-b6a8-a47f90b78d89 {
        stroke-miterlimit: 10;
      }

      .uuid-7f33bc95-482f-4473-9ee6-25bb226c83e8, .uuid-2846336a-6ca5-4a54-9fef-b355e15dba0b {
        opacity: .29;
      }

      .uuid-7ef52bcf-8cf4-4d02-a17c-45dede1336a7 {
        fill: #647ca8;
        opacity: .38;
      }

      .uuid-e29ed257-9571-45f4-9cd9-32e33d9a4359 {
        fill: url(#uuid-5acb6899-c859-421f-aea9-142c4b62dee9);
      }

      .uuid-76618220-150a-459c-a6bc-2c339169d268 {
        fill: url(#uuid-0a7b1335-76c6-49af-9478-8d03cbb82953);
        opacity: .85;
      }

      .uuid-8b12317e-a374-4136-9488-844f3591c028 {
        fill: url(#uuid-d46cc880-3b09-478a-9a6f-25a637c742c6);
      }

      .uuid-cfdfb309-3ee1-44c9-9b0f-04c41efc1038 {
        fill: url(#uuid-a0332254-d2bf-42fb-8b8c-f6a41882928f);
      }

      .uuid-cfdfb309-3ee1-44c9-9b0f-04c41efc1038, .uuid-dc746033-2d71-4a83-a11a-a7d82bfcdb3f {
        opacity: .6;
      }

      .uuid-9e321dd4-d6c1-46e6-96b1-605fb03eb8e5 {
        fill: #4c9aff;
        opacity: .2;
      }

      .uuid-f23c4b2f-46db-46bc-985c-f72565550a6f {
        fill: url(#uuid-7193f2a1-b214-4b9a-b17d-06b8471803f2);
      }

      .uuid-25327d7c-e3e5-4814-a529-bfee464b95b6 {
        fill: url(#uuid-6df66f07-caf9-4117-a956-4d6452d37a2d);
      }

      .uuid-f7b5357f-c684-44da-a965-f5753daa48c8 {
        fill: url(#uuid-69fd4b39-5687-493e-9f11-8971260423c5);
      }

      .uuid-d1b3df16-2dae-48b4-9cbd-88e0d97deb14 {
        fill: url(#uuid-b1aa3b79-5075-492d-83b8-859214620669);
      }

      .uuid-a81126ac-a286-481a-b6a8-a47f90b78d89 {
        fill: #c1272d;
        stroke: #4c9aff;
        stroke-width: 3px;
      }

      .uuid-0081e57c-9f44-4837-8ee8-8411e541e46c {
        fill: url(#uuid-a67ce3b5-87fd-4f24-a968-1d76e4e8f361);
      }

      .uuid-f7eacfb9-8731-4a40-ab73-17e348b5ac76 {
        fill: url(#uuid-fd09821e-c59f-4f96-a626-0c136976ad51);
      }

      .uuid-dc746033-2d71-4a83-a11a-a7d82bfcdb3f {
        fill: url(#uuid-517fcffd-0ced-4fce-9ebe-dd722a65a65f);
      }
    </style>
    <linearGradient id="uuid-0a7b1335-76c6-49af-9478-8d03cbb82953" data-name="New Gradient Swatch 29" x1="13.599" y1="197.131" x2="358.316" y2="197.131" gradientTransform="matrix(1, 0, 0, 1, 0, 0)" gradientUnits="userSpaceOnUse">
      <stop offset="0" stop-color="#deebff"/>
      <stop offset=".12" stop-color="#deebff" stop-opacity=".98"/>
      <stop offset=".28" stop-color="#deebff" stop-opacity=".92"/>
      <stop offset=".44" stop-color="#deebff" stop-opacity=".82"/>
      <stop offset=".62" stop-color="#deebff" stop-opacity=".68"/>
      <stop offset=".81" stop-color="#deebff" stop-opacity=".51"/>
      <stop offset="1" stop-color="#deebff" stop-opacity=".3"/>
    </linearGradient>
    <linearGradient id="uuid-6df66f07-caf9-4117-a956-4d6452d37a2d" x1="355.051" y1="745.633" x2="370.604" y2="730.079" gradientTransform="translate(0 -651)" gradientUnits="userSpaceOnUse">
      <stop offset=".04" stop-color="#0049b0"/>
      <stop offset=".13" stop-color="#0551bb" stop-opacity=".99"/>
      <stop offset=".58" stop-color="#1d76ec" stop-opacity=".92"/>
      <stop offset=".82" stop-color="#2684ff" stop-opacity=".9"/>
    </linearGradient>
    <linearGradient id="uuid-632b6e0d-c910-48b8-9258-6a98fd11ad0a" data-name="New Gradient Swatch 29" x1="40.32" y1="48.746" x2="65.948" y2="48.746" xlink:href="#uuid-0a7b1335-76c6-49af-9478-8d03cbb82953"/>
    <linearGradient id="uuid-69fd4b39-5687-493e-9f11-8971260423c5" data-name="New Gradient Swatch 29" x1="80.971" y1="25.327" x2="97.762" y2="25.327" xlink:href="#uuid-0a7b1335-76c6-49af-9478-8d03cbb82953"/>
    <linearGradient id="uuid-a0332254-d2bf-42fb-8b8c-f6a41882928f" x1="104.975" y1="955.585" x2="104.975" y2="800.847" gradientTransform="translate(0 -651)" gradientUnits="userSpaceOnUse">
      <stop offset="0" stop-color="#ffe380" stop-opacity="0"/>
      <stop offset=".09" stop-color="#ffe07a" stop-opacity=".05"/>
      <stop offset=".24" stop-color="#ffd969" stop-opacity=".18"/>
      <stop offset=".46" stop-color="#ffcd4d" stop-opacity=".4"/>
      <stop offset=".71" stop-color="#ffbd28" stop-opacity=".69"/>
      <stop offset=".96" stop-color="#ffab00"/>
    </linearGradient>
    <linearGradient id="uuid-517fcffd-0ced-4fce-9ebe-dd722a65a65f" x1="269.196" y1="915.301" x2="269.196" y2="672.732" gradientTransform="translate(0 -651)" gradientUnits="userSpaceOnUse">
      <stop offset="0" stop-color="#00c7e5" stop-opacity="0"/>
      <stop offset=".1" stop-color="#00c7e5" stop-opacity=".06"/>
      <stop offset=".28" stop-color="#00c7e5" stop-opacity=".21"/>
      <stop offset=".52" stop-color="#00c7e5" stop-opacity=".46"/>
      <stop offset=".81" stop-color="#00c7e5" stop-opacity=".81"/>
      <stop offset=".96" stop-color="#00c7e5"/>
    </linearGradient>
    <linearGradient id="uuid-d46cc880-3b09-478a-9a6f-25a637c742c6" x1="186.077" y1="948.167" x2="186.077" y2="722.76" gradientTransform="translate(0 -651)" gradientUnits="userSpaceOnUse">
      <stop offset=".18" stop-color="#2684ff" stop-opacity="0"/>
      <stop offset=".27" stop-color="#2380f9" stop-opacity=".07"/>
      <stop offset=".45" stop-color="#1c75ea" stop-opacity=".26"/>
      <stop offset=".68" stop-color="#1062d2" stop-opacity=".57"/>
      <stop offset=".96" stop-color="#0049b1" stop-opacity=".99"/>
      <stop offset=".96" stop-color="#0049b0"/>
    </linearGradient>
    <linearGradient id="uuid-7193f2a1-b214-4b9a-b17d-06b8471803f2" x1="138.25" y1="358.315" x2="348.74" y2="358.315" gradientTransform="matrix(1, 0, 0, 1, 0, 0)" gradientUnits="userSpaceOnUse">
      <stop offset="0" stop-color="#4c9aff" stop-opacity="0"/>
      <stop offset=".312" stop-color="#589df7" stop-opacity=".024"/>
      <stop offset=".662" stop-color="#7ba6e1" stop-opacity=".095"/>
      <stop offset="1" stop-color="#b1b4c0" stop-opacity=".2"/>
    </linearGradient>
    <linearGradient id="uuid-b1aa3b79-5075-492d-83b8-859214620669" data-name="Безымянный градиент 505" x1="3271.246" y1="239.167" x2="3289.182" y2="239.167" gradientTransform="translate(3476.063) rotate(-180) scale(1 -1)" gradientUnits="userSpaceOnUse">
      <stop offset=".01" stop-color="#bae1ff"/>
      <stop offset="1" stop-color="#86c0ff"/>
    </linearGradient>
    <linearGradient id="uuid-ae5e36dc-4931-4aa0-8041-70247c42f351" data-name="Безымянный градиент 505" x1="762.801" y1="317.791" x2="771.739" y2="317.791" gradientTransform="translate(-502.832 -117.537) rotate(2.941)" xlink:href="#uuid-b1aa3b79-5075-492d-83b8-859214620669"/>
    <linearGradient id="uuid-4f137203-6f27-46d5-a531-beb292aee353" data-name="Безымянный градиент 505" x1="764.265" y1="301.596" x2="766.413" y2="301.596" gradientTransform="translate(-502.832 -117.537) rotate(2.941)" xlink:href="#uuid-b1aa3b79-5075-492d-83b8-859214620669"/>
    <linearGradient id="uuid-ac3c1bd1-9d95-48cf-8489-34f3823eb364" data-name="Безымянный градиент 36" x1="-913.76" y1="242.234" x2="-907.647" y2="242.723" gradientTransform="translate(1194.701)" gradientUnits="userSpaceOnUse">
      <stop offset="0" stop-color="#fff"/>
      <stop offset="1" stop-color="#cfe2ff"/>
    </linearGradient>
    <linearGradient id="uuid-f9009b44-e7a8-4578-b785-577c1ffe4ab9" data-name="Безымянный градиент 36" x1="-896.554" y1="267.055" x2="-928.097" y2="265.221" xlink:href="#uuid-ac3c1bd1-9d95-48cf-8489-34f3823eb364"/>
    <linearGradient id="uuid-5acb6899-c859-421f-aea9-142c4b62dee9" data-name="Безымянный градиент 36" x1="-892.954" y1="267.046" x2="-883.417" y2="266.557" xlink:href="#uuid-ac3c1bd1-9d95-48cf-8489-34f3823eb364"/>
    <linearGradient id="uuid-a67ce3b5-87fd-4f24-a968-1d76e4e8f361" data-name="Безымянный градиент 36" x1="-902.114" y1="236.67" x2="-895.219" y2="236.67" xlink:href="#uuid-ac3c1bd1-9d95-48cf-8489-34f3823eb364"/>
    <linearGradient id="uuid-855d3146-8ebd-431f-b772-367aadad108a" data-name="Безымянный градиент 7" x1="-895.062" y1="236.662" x2="-887.27" y2="236.662" gradientTransform="translate(1194.701)" gradientUnits="userSpaceOnUse">
      <stop offset="0" stop-color="#cfe2ff"/>
      <stop offset="1" stop-color="#fff"/>
    </linearGradient>
    <linearGradient id="uuid-fd09821e-c59f-4f96-a626-0c136976ad51" data-name="Безымянный градиент 36" x1="-865.953" y1="249.335" x2="-885.298" y2="250.649" xlink:href="#uuid-ac3c1bd1-9d95-48cf-8489-34f3823eb364"/>
  </defs>
  <g class="uuid-6fe5c9d0-3d7d-4306-a2db-a0c9db6a583d">
    <g id="uuid-3fe7e766-8870-431f-91b0-834cdd64e75f" data-name="Layer 5"/>
    <g id="uuid-68b4bbcb-2f3f-4afd-acae-beb5fd0dfdf6" data-name="Layer 1"/>
    <g id="uuid-f606ac37-06c9-4dc1-9e8b-4e3cc3026545" data-name="Layer 4"/>
    <g id="uuid-bdc16363-760f-4c8c-9946-746ed010f2c2" data-name="Layer 2">
      <g id="uuid-28de3694-28ca-4f73-9bc8-38791991bf7a" data-name="Layer 7"/>
      <path class="uuid-76618220-150a-459c-a6bc-2c339169d268" d="M82.048,387.482C2.486,393.804,.856,327.395,33.806,216.856,66.755,106.316,106.797,.057,185.625,6.657c86.717,7.262,199.788,203.069,166.838,313.648-19.324,64.858-87.077,50.505-156.958,33.052"/>
      <path class="uuid-9e321dd4-d6c1-46e6-96b1-605fb03eb8e5" d="M425.144,74.92c6.545,70.755-54.165,24.477-156.784,256.622-53.369,120.598-145.324,26.439-208.822-56.986C-39.784,144.112,1.055,90.837,134.857,27.94,220.068-12.109,416.421-19.12,425.144,74.92Z"/>
      <circle class="uuid-e25634be-e010-49f7-8178-97fc703e27bd" cx="244.108" cy="77.496" r="11.438"/>
      <g/>
      <g/>
      <polygon class="uuid-25327d7c-e3e5-4814-a529-bfee464b95b6" points="362.227 70.666 356.924 96.471 378.664 87.81 362.227 70.666"/>
      <polygon class="uuid-26dc8922-2210-4caa-a24e-0c3f921c2763" points="368.943 39.735 384.496 34.963 388.031 55.731 372.389 60.15 368.943 39.735"/>
      <path class="uuid-5881dc13-bc9f-447c-b65f-cfd01dce429a" d="M389.357,88.075c-2.828-3.888-2.828-9.986,0-13.609s7.688-3.447,10.605,.442,3.005,10.074,0,13.698-7.688,3.358-10.605-.53Z"/>
      <circle class="uuid-2af259a8-8524-4596-961f-dd1b4da43223" cx="53.134" cy="48.746" r="12.814"/>
      <ellipse class="uuid-f7b5357f-c684-44da-a965-f5753daa48c8" cx="89.367" cy="25.327" rx="8.395" ry="5.302"/>
      <g>
        <path class="uuid-cfdfb309-3ee1-44c9-9b0f-04c41efc1038" d="M74.008,149.847h61.936c1.448,0,2.623,1.266,2.623,2.828v149.083c0,1.562-1.174,2.828-2.623,2.828h-61.936c-1.448,0-2.623-1.266-2.623-2.828V152.674c0-1.562,1.174-2.828,2.623-2.828Z"/>
        <path class="uuid-dc746033-2d71-4a83-a11a-a7d82bfcdb3f" d="M238.833,21.732h60.725c1.783,0,3.228,1.558,3.228,3.48v235.609c0,1.922-1.445,3.48-3.228,3.48h-60.725c-1.783,0-3.228-1.558-3.228-3.48V25.212c0-1.922,1.445-3.48,3.228-3.48Z"/>
        <path class="uuid-8b12317e-a374-4136-9488-844f3591c028" d="M155.109,71.76h61.936c1.448,0,2.623,1.266,2.623,2.828v219.752c0,1.562-1.174,2.828-2.623,2.828h-61.936c-1.448,0-2.623-1.266-2.623-2.828V74.588c0-1.562,1.174-2.828,2.623-2.828Z"/>
      </g>
    </g>
    <g id="uuid-7ead6261-692a-40c4-8b8b-da9319372fcf" data-name="Layer 9">
      <path class="uuid-f23c4b2f-46db-46bc-985c-f72565550a6f" d="M243.845,332.51s-110.554,4.258-105.422,13.252c5.132,8.994,31.181,15.011,25.142,25.039-6.039,10.028,96.028,22.062,98.311,4.011,2.283-18.051,90.935,2.006,79.254-12.034-11.681-14.04,17.401-13.032,4-19.051-13.4-6.019-101.285-11.218-101.285-11.218Z"/>
      <g>
        <path class="uuid-f75a6044-dce9-44f8-bba9-0feae8d6937f" d="M195.785,198.798l5.834,8.992,1.314,10.662s.304,4.371-8.465,3.746c-8.769-.626-7.182-5.267-7.182-5.267l-.404-11.708,8.904-6.425Z"/>
        <polygon class="uuid-afd881d7-7341-42d7-b377-5d50db2945a6" points="198.288 222.152 191.233 222.198 191.172 210.048 198.228 210.002 198.288 222.152"/>
        <path class="uuid-620ef2c8-e604-4289-82d5-7995759466de" d="M198.252,217.05c-1.088,.87-2.282,1.402-3.428,1.402-1.259,0-2.521-.572-3.629-1.575l-.024-4.172,7.055-.04,.025,4.385Z"/>
        <path class="uuid-afd881d7-7341-42d7-b377-5d50db2945a6" d="M195.606,196.534c4.481-.215,7.23,2.982,7.54,8.614,.048,.877-.039,2.058-.195,3.124-.094,.645-.213,1.247-.343,1.714-1.031,3.719-4.182,6.944-7.022,6.944-3.406,0-6.843-4.177-7.152-9.809-.31-5.632,2.692-10.372,7.173-10.587Z"/>
        <path class="uuid-afd881d7-7341-42d7-b377-5d50db2945a6" d="M195.534,219.644c6.085,.667,10.483,6.197,9.823,12.35l-3.217,30.006c-.413,3.879-3.496,7.047-7.483,7.384-4.522,.383-8.494-3.014-8.873-7.587l-2.488-30.076c-.052-.681-.05-1.438,.026-2.142,.66-6.153,6.128-10.601,12.213-9.934Z"/>
        <path class="uuid-afd881d7-7341-42d7-b377-5d50db2945a6" d="M198.479,295.965c-.022-1.862-.011-3.725-.018-5.587,.014-3.725,.045-7.451,.136-11.178,.174-7.454,.474-14.911,1.16-22.381,.04-.435,.376-.802,.828-.861,.524-.069,1.005,.3,1.074,.824,.981,7.442,1.576,14.897,2.045,22.354,.239,3.729,.417,7.459,.579,11.19,.067,1.865,.151,3.731,.203,5.597,.042,1.866,.149,3.731,.109,5.597-.026,7.464-.167,14.928-.445,22.391-.3,7.463-.696,14.925-1.439,22.38-.071,.719-.647,1.309-1.393,1.371-.841,.07-1.58-.554-1.65-1.395-.624-7.459-.901-14.911-1.082-22.363-.158-7.451-.18-14.901-.087-22.351,.038-1.863-.01-3.725-.02-5.587Z"/>
        <polygon class="uuid-afd881d7-7341-42d7-b377-5d50db2945a6" points="185.388 301.291 185.378 300.635 185.498 300.094 185.388 301.291"/>
        <path class="uuid-afd881d7-7341-42d7-b377-5d50db2945a6" d="M185.378,300.635l.01,.656,.11-1.197-.12,.54-.657-43.383c-.008-.475,.341-.892,.823-.958,.521-.071,1.002,.293,1.073,.815l5.977,43.637c.049,.368,.023,.766-.094,1.144l-.016,.053-13.807,44.774c-.262,.841-1.132,1.362-2.008,1.168-.924-.205-1.507-1.119-1.302-2.043l10.01-45.206Z"/>
        <path class="uuid-d1b3df16-2dae-48b4-9cbd-88e0d97deb14" d="M200.708,224.528s-5.008,10.271-11.113,0c-6.105-10.271,0,29.862,0,29.862,0,0,4.169,2.473,11.966,0,7.796-2.473-.852-29.862-.852-29.862Z"/>
        <path class="uuid-620ef2c8-e604-4289-82d5-7995759466de" d="M185.378,300.635l-.652-43.048c.092-.324,.185-.649,.284-.984,0,0,.541,.089,1.508,.201,.048,.093,.085,.194,.1,.304l5.977,43.637c.049,.368,.023,.766-.094,1.144l-.016,.053-1.247,4.044c-2.511-.201-4.882-.572-6.608-1.22,0,0,.007-.297,.017-.828l.731-3.303Z"/>
        <path class="uuid-620ef2c8-e604-4289-82d5-7995759466de" d="M198.479,295.965c-.022-1.862-.011-3.725-.018-5.587,.014-3.725,.045-7.451,.136-11.178,.172-7.363,.469-14.728,1.137-22.107,.638-.044,1.286-.097,1.944-.161,.969,7.392,1.56,14.796,2.027,22.204,.239,3.729,.417,7.459,.579,11.19,.067,1.865,.151,3.731,.203,5.597,.042,1.866,.149,3.731,.109,5.597-.005,1.469-.018,2.938-.033,4.408-.751,.055-3.136,.213-6.103,.255,.009-1.543,.02-3.087,.04-4.63,.038-1.863-.01-3.725-.02-5.587Z"/>
        <path class="uuid-87f9a3a0-3d50-4cd8-9a18-3fe5237c89ee" d="M204.437,254.347s2.257,12.631,2.067,21.077c-.19,8.446-1.686,28.227-1.686,28.227,0,0-14.1,1.141-20.187-1.141,0,0,.38-15.163-.951-22.798-1.331-7.634-2.473-12.474,1.331-25.365,0,0,8.99,1.479,19.426,0Z"/>
        <path class="uuid-7f33bc95-482f-4473-9ee6-25bb226c83e8" d="M206.457,271.814c-3.722,3.201-8.498,3.204-8.498,3.204,0,0-.903-9.78-1.179-20.041,2.37-.064,4.965-.248,7.657-.629,0,0,1.687,9.449,2.02,17.467Z"/>
        <path class="uuid-7f33bc95-482f-4473-9ee6-25bb226c83e8" d="M198.288,219.578c4.822,1.624,7.64,6.426,7.068,11.693l-3.738,16.774c-.31,2.873-2.117,5.352-4.681,6.555-.544-7.85-.701-8.257,.207-16.562,.932-8.528,1.272-15.161,1.144-18.461Z"/>
        <path class="uuid-7f33bc95-482f-4473-9ee6-25bb226c83e8" d="M184.805,248.683c-.006-7.821-.069-5.885-.196-8.612l-.628-5.844s-.446-2.273-.632-4.861c.6-4.759,3.48-8.753,7.871-9.789-.078,1.528,.232,9.298,1.374,19.785,.934,8.582-.449,28.569-.973,35.654-3.409-.774-8.895-.992-9.202-4.699l2.378-20.447c.005-.391,.008-.787,.008-1.188Z"/>
        <path class="uuid-d5e628f2-0741-4c9c-b9ba-dbab9fe0907c" d="M205.553,229.805c.552,1.353,.967,2.43,1.271,3.335-.074,.56-.13,.898-.13,.898l-1.141-4.233Z"/>
        <path class="uuid-d5e628f2-0741-4c9c-b9ba-dbab9fe0907c" d="M198.288,219.578s3.841,1.272,7.011,2.493c2.609,1.005,1.868,8.462,1.524,11.069-.304-.905-.719-1.982-1.271-3.335l1.141,4.233s.056-.337,.13-.898c1.614,4.81,.07,4.721-.89,14.932-1.141,12.132,2.282,20.591,2.282,20.591-3.55,4.86-9.736,4.86-9.736,4.86,0,0-2.057-22.367-.773-34.159,1.283-11.792,.582-19.785,.582-19.785Z"/>
        <path class="uuid-d5e628f2-0741-4c9c-b9ba-dbab9fe0907c" d="M183.991,240.072l-.629-5.844s-2.15-10.936,1.02-12.157c3.17-1.221,6.837-2.493,6.837-2.493,0,0-.528,7.993,.756,19.785,1.283,11.792-.773,34.159-.773,34.159,0,0-6.185,0-9.736-4.86,0,0,2.73-7.794,2.72-19.98-.006-7.821-.069-5.885-.196-8.612Z"/>
        <path class="uuid-d5e628f2-0741-4c9c-b9ba-dbab9fe0907c" d="M199.276,343.932c1.712,.976,3.883,0,3.883,0-.207,2.711,1.443,8.005,1.253,9.832-.19,1.828-7.037,2.152-5.896-1.419,1.141-3.572,.761-8.413,.761-8.413Z"/>
        <path class="uuid-d5e628f2-0741-4c9c-b9ba-dbab9fe0907c" d="M174.814,347.153c.033-.073,.053-.114,.053-.114l-.053,.114Z"/>
        <path class="uuid-d5e628f2-0741-4c9c-b9ba-dbab9fe0907c" d="M175.945,342.516s1.648,1.882,3.614,1.416c0,0-1.474,5.232-.614,10.067,.119,.67-.447,1.265-1.118,1.155-.835-.137-1.918-.626-2.833-2.059-1.582-2.478-.446-5.346-.18-5.942l.053-.114s-.02,.041-.053,.114l-.644,1.386-.571-2.261s1.643-3.18,2.346-3.762Z"/>
        <path class="uuid-afd881d7-7341-42d7-b377-5d50db2945a6" d="M196.003,251.296s7.446-.661,6.901,1.264c-.545,1.926-3.918,3.246-6.116,2.412-2.198-.833-5.573-1.547-5.573-1.547l1.698-2.544,3.091,.414Z"/>
        <polygon class="uuid-d5e628f2-0741-4c9c-b9ba-dbab9fe0907c" points="211.159 243.403 211.875 243.915 212.048 244.718 211.159 243.403"/>
        <path class="uuid-d5e628f2-0741-4c9c-b9ba-dbab9fe0907c" d="M204.197,221.853c1.541-.332,3.059,.647,3.392,2.188l4.286,19.874-.717-.512,.89,1.315-.173-.803,6.602,4.72c1.025,.733,1.262,2.159,.529,3.184-.733,1.025-2.159,1.262-3.184,.529l-7.318-5.232-.66-.472-.23-.844-5.568-20.406c-.012-.046-.026-.102-.037-.15-.332-1.541,.647-3.059,2.188-3.392Z"/>
        <g class="uuid-2846336a-6ca5-4a54-9fef-b355e15dba0b">
          <path class="uuid-d5e628f2-0741-4c9c-b9ba-dbab9fe0907c" d="M185.318,222.687c1.52,.417,2.413,1.987,1.996,3.507l-3.46,12.607-.492-4.572s-1.71-8.713,.179-11.45c.549-.212,1.167-.259,1.777-.092Z"/>
          <path class="uuid-d5e628f2-0741-4c9c-b9ba-dbab9fe0907c" d="M184.183,246.689l8.211,3.298c-.009,1.813-.047,3.656-.103,5.473l-8.205-2.728c.064-1.288,.101-2.638,.1-4.049,0-.751-.002-1.41-.003-1.994Z"/>
        </g>
        <path class="uuid-620ef2c8-e604-4289-82d5-7995759466de" d="M196.003,251.296s.49-.043,1.208-.076l-1.267,3.456c-2.124-.699-4.73-1.25-4.73-1.25l1.698-2.544,3.091,.414Z"/>
        <path class="uuid-d5e628f2-0741-4c9c-b9ba-dbab9fe0907c" d="M175.356,246.07l6.469-22.13c.437-1.49,1.99-2.364,3.494-1.951,1.52,.417,2.413,1.987,1.996,3.507l-5.378,19.594,14.764,5.931-1.702,4.643-17.762-5.906c-1.495-.499-2.345-2.098-1.899-3.623l.019-.064Z"/>
        <polygon class="uuid-721994e0-4c6b-45c3-841d-9328fef2a6d6" points="222.1 236.186 216.394 259.905 200.428 259.905 206.135 236.186 222.1 236.186"/>
        <polygon class="uuid-e3ffdc92-c5df-474c-8717-618f31c162ab" points="222.48 236.567 216.774 260.285 200.809 260.285 206.515 236.567 222.48 236.567"/>
        <polygon class="uuid-d5e628f2-0741-4c9c-b9ba-dbab9fe0907c" points="218.273 238.229 217.822 239.744 209.831 239.744 210.282 238.229 218.273 238.229"/>
        <polygon class="uuid-721994e0-4c6b-45c3-841d-9328fef2a6d6" points="216.578 238.412 216.435 239.085 211.383 239.085 211.526 238.412 216.578 238.412"/>
        <path class="uuid-afd881d7-7341-42d7-b377-5d50db2945a6" d="M216.578,250.585c1.325-.095,2.808-1.154,2.808-1.154,1.27-.716,.432,4.007,0,4.915-.432,.909-1.382,.828-2.808,0-1.426-.828-1.325-3.667,0-3.762Z"/>
        <path class="uuid-620ef2c8-e604-4289-82d5-7995759466de" d="M201.847,199.974c.739,1.364,1.185,3.102,1.299,5.174,.048,.877-.039,2.058-.195,3.124-.094,.645-.213,1.247-.343,1.714-.453,1.635-1.317,3.174-2.383,4.386-.478-2.115-1.312-4.306-2.721-5.792-3.116-3.287-4.04-7.555-4.04-7.555-1.264-1.295-1.78-2.166-1.957-2.741,.764-.701,1.647-1.217,2.626-1.502,4.205-.506,6.475,1.112,7.713,3.192Z"/>
        <path class="uuid-7cc65b6b-15e5-4333-9437-37b04305b78d" d="M192.397,196.524c10.715-2.897,11.539,5.655,11.729,8.598,.19,2.943,1.427,6.662,.478,11.808-.949,5.146-4.175,7.122-4.175,7.122,0,0,.94-2.758,1.095-4.474,.156-1.716-.156-8.46-3.271-11.746-3.116-3.287-4.04-7.555-4.04-7.555-2.971-3.043-1.816-3.753-1.816-3.753Z"/>
        <path class="uuid-7cc65b6b-15e5-4333-9437-37b04305b78d" d="M192.91,196.853c5.605-.19,1.821,3.329,1.821,3.329,0,0-1.788,6.433-5.136,6.545-3.347,.112-1.738,2.68-1.354,7.244,.384,4.565,2.096,10.081,2.096,10.081,0,0-4.189-3.564-4.377-11.387-.188-7.823,1.345-15.621,6.95-15.812Z"/>
        <path class="uuid-afd881d7-7341-42d7-b377-5d50db2945a6" d="M188.409,206.348c.598-.029,1.111,.445,1.193,1.953,.083,1.508-.335,2.755-.933,2.783-.598,.029-1.294-1.164-1.377-2.672-.083-1.508,.518-2.035,1.116-2.064Z"/>
      </g>
      <g>
        <g>
          <path class="uuid-afd881d7-7341-42d7-b377-5d50db2945a6" d="M244.861,196.472c4.436,.213,7.783,4.905,7.477,10.48-.306,5.575-4.151,9.923-8.587,9.71-3.327-.16-5.555-2.815-6.575-6.497-.34-1.227-.609-3.396-.532-4.79,.306-5.575,3.781-9.116,8.217-8.903Z"/>
          <rect class="uuid-afd881d7-7341-42d7-b377-5d50db2945a6" x="241.16" y="214.272" width="10.64" height="6.984" transform="translate(10.517 446.883) rotate(-85.617)"/>
          <path class="uuid-620ef2c8-e604-4289-82d5-7995759466de" d="M243.279,196.56c.633,.332,1.185,.604,1.613,.682,.973,.178,1.765-.128,2.768,.014,2.958,1.586,4.915,5.375,4.678,9.696-.013,.23-.033,.456-.058,.681-.028-.749-.214-1.176-.641-.969-1.499,.727-.529,3.79-.529,3.79,0,0-1.304,.047-1.472-.861-.168-.908,1.118-2.563,.759-3.936-.358-1.373-1.964-.277-2.373-2.22-.315-1.5-3.244-1.2-4.109-1.076-2.284,.326-5.023,1.463-6.949,1.674-.059,.007-.12,.011-.182,.014,.645-4.161,3.179-6.946,6.495-7.488Z"/>
          <path class="uuid-7cc65b6b-15e5-4333-9437-37b04305b78d" d="M244.892,195.904c2.038,.372,3.278-1.381,7.339,3.319,4.061,4.701,.255,11.497-.299,12.569-.554,1.072-2.046,2.814-1.151,1.35,.895-1.465,2.357-8.543,.858-7.816-1.499,.727-.529,3.79-.529,3.79,0,0-1.304,.047-1.472-.861-.168-.908,1.118-2.563,.759-3.936-.358-1.373-1.964-.277-2.373-2.22-.315-1.5-3.244-1.2-4.109-1.076-2.284,.326-5.023,1.463-6.949,1.674-1.926,.211-5.162-1.485-2.056-6.701,3.107-5.216,7.943-.463,9.982-.091Z"/>
          <path class="uuid-afd881d7-7341-42d7-b377-5d50db2945a6" d="M227.747,274.673l3.179,1.908-.322,3.767s1.234,8.978-1.13,8.43c-2.363-.548-4.158-4.555-3.277-7.266,.881-2.71,1.549-6.839,1.549-6.839Z"/>
          <path class="uuid-afd881d7-7341-42d7-b377-5d50db2945a6" d="M251.798,204.974c.677,.032,1.358,.629,1.264,2.337s-.881,3.059-1.559,3.026c-.677-.032-1.15-1.443-1.057-3.151,.094-1.708,.674-2.244,1.351-2.212Z"/>
          <path class="uuid-afd881d7-7341-42d7-b377-5d50db2945a6" d="M247.79,220.535c7.11,.509,12.46,6.686,11.951,13.796l-2.109,29.437c-.353,4.986-4.259,9.139-9.401,9.634-5.732,.552-10.827-3.647-11.38-9.379l-2.831-29.377c-.061-.684-.077-1.453-.027-2.16,.509-7.11,6.686-12.46,13.796-11.951Z"/>
          <polygon class="uuid-afd881d7-7341-42d7-b377-5d50db2945a6" points="234.555 249.799 229.475 273.521 236.837 226.235 234.555 249.799"/>
          <polygon class="uuid-afd881d7-7341-42d7-b377-5d50db2945a6" points="238.607 301.366 238.583 302.203 238.461 302.645 238.607 301.366"/>
          <path class="uuid-afd881d7-7341-42d7-b377-5d50db2945a6" d="M228.174,300.171l8.859-42.979c.029-.137,.066-.292,.103-.429,.988-3.585,4.694-5.69,8.279-4.702,3.585,.988,5.69,4.694,4.702,8.279l-11.535,41.864,.024-.837-.147,1.279,.122-.443-1.321,45.11c-.059,1.851-1.535,3.386-3.416,3.471-1.975,.089-3.649-1.439-3.738-3.414l-2.08-45.92c-.012-.297,.01-.619,.073-.923l.073-.356Z"/>
          <path class="uuid-d5e628f2-0741-4c9c-b9ba-dbab9fe0907c" d="M225.725,348.923c3.185-.154,8.346-3.904,8.346-3.904l2.867,1.081s2.326,4.607,1.81,6.752c-.516,2.145-19.974,3.198-20.069,.383-.095-2.814,4.38-4.184,7.045-4.312Z"/>
          <path class="uuid-03b9faac-57c0-4eb4-81cc-90129cc25f4e" d="M247.617,257.069c-.003-.006-.004-.021-.004-.044,.007,.035,.009,.053,.004,.044Z"/>
          <path class="uuid-03b9faac-57c0-4eb4-81cc-90129cc25f4e" d="M242.368,220.401c2.78,2.623,7.745,.371,7.745,.371,0,0,2.857,5.824,2.867,6.237,.01,.406-5.361,28.739-5.367,30.016-.253-1.237-7.951-29.007-7.951-29.007l2.707-7.618Z"/>
          <path class="uuid-afd881d7-7341-42d7-b377-5d50db2945a6" d="M250.212,251.815c3.714-.179,6.869,2.687,7.048,6.401l1.069,22.213c.345,7.404,.738,14.805,1.042,22.21l1.428,44.454c.055,1.851-1.325,3.474-3.198,3.674-1.966,.21-3.73-1.213-3.94-3.179l-4.72-44.163-5.094-44.112c-.016-.142-.03-.306-.037-.451-.179-3.714,2.687-6.869,6.401-7.048Z"/>
          <path class="uuid-d5e628f2-0741-4c9c-b9ba-dbab9fe0907c" d="M254.575,342.503l5.816,3.622s10.575,8.817-1.998,8.817c-10.753,0-4.171-8.817-4.171-8.817l.353-3.622Z"/>
          <path class="uuid-e3ffdc92-c5df-474c-8717-618f31c162ab" d="M233.685,268.746l20.447,1.383,5.202,5.935,1.528,35.816,.588,34.573-8.695,.888-7.34-60.668-5.233,15-2.233,45.668h-9.165s-1.41-44.132-.94-47.754c.47-3.622,5.842-30.842,5.842-30.842Z"/>
          <g class="uuid-393ca2f2-5d96-4376-bd61-f786df2e792a">
            <polygon class="uuid-d5e628f2-0741-4c9c-b9ba-dbab9fe0907c" points="244.864 284.124 245.479 287.019 240.181 301.673 237.948 347.341 235.861 347.341 238.097 300.945 244.864 284.124"/>
            <polygon class="uuid-d5e628f2-0741-4c9c-b9ba-dbab9fe0907c" points="258.81 311.315 257.28 274.927 253.072 270.058 254.131 270.129 259.333 276.065 260.861 311.881 261.448 346.454 252.753 347.341 252.728 347.13 259.399 346.44 258.81 311.315"/>
          </g>
          <path class="uuid-ed2f7892-fad7-49f0-9d4b-3a95703f5af7" d="M247.473,222.979l3.722,20.247s.733,5.97,.928,6.968c.195,.998-5.707,5.166-5.707,5.166l-2.841-12.83,3.075-19.453,.824-.099Z"/>
          <path class="uuid-ed2f7892-fad7-49f0-9d4b-3a95703f5af7" d="M246.097,222.336l-1.87,2.881s-2.716-.795-4.724-3.564l2.149-1.962s.58,2.189,4.444,2.644Z"/>
          <path class="uuid-e5561b6d-5cc2-427d-9d35-cf56cfe5be72" d="M245.568,223.044l-3.075,19.453,2.841,12.83s5.902-4.168,5.707-5.166c-.195-.998-.928-6.968-.928-6.968l-3.722-20.247-.824,.099Z"/>
          <path class="uuid-ed2f7892-fad7-49f0-9d4b-3a95703f5af7" d="M250.944,220.138l2.191,2.17c-2.585,2.549-5.737,3.062-5.737,3.062l-1.769-3.056c4.406-.059,5.315-2.176,5.315-2.176Z"/>
          <path class="uuid-f897a7e6-a397-4d7f-a691-35cea5e2c38c" d="M254.131,270.883l5.202,5.935,.066,1.549c-2.496-.139-8.657-.475-10.792-.511-2.704-.046-3.89-2.139-3.89-2.139-.613,2.642-8.89,1.538-12.435,.938,.81-4.148,1.403-7.156,1.403-7.156l20.447,1.383Z"/>
          <path class="uuid-d5e628f2-0741-4c9c-b9ba-dbab9fe0907c" d="M241.744,256.144l8.647-10.466s10.64-9.491,9.755-6.236c-.885,3.255,.324,37.139,.324,37.139,0,0-9.161-.526-11.864-.571-2.704-.046-3.89-2.139-3.89-2.139-.781,3.369-14.029,.646-14.029,.646l-.814-.259,.789-14.359,11.081-3.755Z"/>
          <polygon class="uuid-afd881d7-7341-42d7-b377-5d50db2945a6" points="262.981 249.892 262.519 248.842 262.905 247.55 262.981 249.892"/>
          <path class="uuid-afd881d7-7341-42d7-b377-5d50db2945a6" d="M255.711,222.349c2.241-.985,4.856,.032,5.842,2.273,.046,.105,.091,.22,.128,.326l7.8,22.387,.07,.2c.251,.721,.236,1.471,.007,2.142l-9.945,29.156c-.517,1.514-2.163,2.323-3.676,1.806-1.477-.504-2.28-2.087-1.84-3.57l8.424-28.228,.462,1.05-.077-2.342-.385,1.291-9.082-20.651c-.985-2.241,.032-4.856,2.273-5.842Z"/>
          <path class="uuid-620ef2c8-e604-4289-82d5-7995759466de" d="M230.926,276.581l-.322,3.767s.052,.383,.115,.98c-.816-.324-2.157-.819-4.062-1.409,.644-2.487,1.091-5.246,1.091-5.246l3.179,1.908Z"/>
          <path class="uuid-620ef2c8-e604-4289-82d5-7995759466de" d="M254.745,222.936l5.092,.676s.861,.044,2.646,3.637l6.998,20.086,.07,.2c.251,.721,.236,1.471,.007,2.142l-9.945,29.156c-.061,.18-.14,.349-.231,.508-1.414-.498-3.435-1.239-5.341-2.044,.016-.076,.033-.152,.056-.227l7.083-23.732,.789-2.422-.036-.1,.589-1.973-9.082-20.651c-.829-1.886-.236-4.033,1.307-5.254Z"/>
          <path class="uuid-d5e628f2-0741-4c9c-b9ba-dbab9fe0907c" d="M231.845,224.017c1.253-1.918,1.752-3.131,10.496-3.123,0,0,.06,14.686,3.734,28.251,0,0,4.101-22.701,4.038-28.373l9.724,1.291s.88,.042,2.706,3.756c1.825,3.714,8.053,22.064,8.053,22.064,0,0,.372,1.254-.939,4.241-1.311,2.987-8.417,26.302-8.417,26.302,0,0-4.229-1.383-7.781-2.928l8.508-26.133-2.305-6.457-24.565,20.94-3.406,15.931s-2.063-.972-6.493-2.256c0,0,4.036-18.847,4.551-28.219,.515-9.372,.843-23.369,2.096-25.287Z"/>
          <path class="uuid-ed2f7892-fad7-49f0-9d4b-3a95703f5af7" d="M245.143,253.866c.446,.021,.789,.377,.766,.793-.023,.417-.403,.737-.849,.716-.446-.021-.789-.377-.766-.793,.023-.417,.403-.737,.849-.716Z"/>
          <path class="uuid-ed2f7892-fad7-49f0-9d4b-3a95703f5af7" d="M261.584,270.837c.446,.021,.789,.377,.766,.793-.023,.417-.403,.737-.849,.716-.446-.021-.789-.377-.766-.793,.023-.417,.403-.737,.849-.716Z"/>
          <path class="uuid-ed2f7892-fad7-49f0-9d4b-3a95703f5af7" d="M260.775,274.674c.446,.021,.789,.377,.766,.793-.023,.417-.403,.737-.849,.716-.446-.021-.789-.377-.766-.793,.023-.417,.403-.737,.849-.716Z"/>
          <path class="uuid-ed2f7892-fad7-49f0-9d4b-3a95703f5af7" d="M244.815,259.833c.446,.021,.789,.377,.766,.793-.023,.417-.403,.737-.849,.716-.446-.021-.789-.377-.766-.793,.023-.417,.403-.737,.849-.716Z"/>
          <path class="uuid-03b9faac-57c0-4eb4-81cc-90129cc25f4e" d="M246.13,221.354l-1.87,2.881s-2.716-.795-4.723-3.564l3.029-1.92s-.3,2.146,3.564,2.602Z"/>
          <path class="uuid-03b9faac-57c0-4eb4-81cc-90129cc25f4e" d="M250.282,218.957l2.886,2.368c-2.585,2.549-5.737,3.062-5.737,3.062l-1.769-3.056c4.406-.059,4.62-2.374,4.62-2.374Z"/>
          <path class="uuid-5b8b251e-12c6-41f2-a070-095a39fb548f" d="M247.113,222.98c-.042,.767-.557,1.365-1.149,1.337-.592-.028-1.039-.673-.997-1.439,.042-.767,.557-1.365,1.149-1.337,.592,.028,1.039,.673,.996,1.439Z"/>
          <path class="uuid-e3ffdc92-c5df-474c-8717-618f31c162ab" d="M259.56,280.077l-.374,4.364-8.45-4.367,2.916-3.822s1.238,3.16,5.908,3.824Z"/>
        </g>
        <path class="uuid-ed2f7892-fad7-49f0-9d4b-3a95703f5af7" d="M256.853,235.386s.29,.565-.275,1.036c-.565,.471-1.491,1.177-1.993,1.177s-1.248-.33-2.052-1.036c-.804-.706-.404-1.177-.404-1.177h4.724Z"/>
      </g>
      <g>
        <path class="uuid-f75a6044-dce9-44f8-bba9-0feae8d6937f" d="M305.419,219.16c-5.914,6.192-10.588,5.096-10.588,5.096l-2.244-4.778,1.074-10.82s17.672,4.31,11.758,10.502Z"/>
        <polygon class="uuid-afd881d7-7341-42d7-b377-5d50db2945a6" points="303.755 216.153 303.697 227.868 296.894 227.825 296.953 216.11 303.755 216.153"/>
        <path class="uuid-620ef2c8-e604-4289-82d5-7995759466de" d="M303.755,218.716l-.023,4.022c-1.068,.967-2.285,1.518-3.499,1.518-1.105,0-2.257-.512-3.305-1.351l.024-4.228,6.803,.039Z"/>
        <path class="uuid-afd881d7-7341-42d7-b377-5d50db2945a6" d="M299.481,203.124c4.32,.207,7.214,4.777,6.916,10.208-.298,5.43-3.612,9.458-6.896,9.458-2.738,0-5.777-3.109-6.771-6.695-.125-.451-.24-1.031-.331-1.653-.15-1.027-.234-2.166-.188-3.012,.298-5.43,2.949-8.512,7.27-8.305Z"/>
        <path class="uuid-620ef2c8-e604-4289-82d5-7995759466de" d="M292.854,207.851c.421-.969,.88-1.817,1.375-2.549,1.246-1.512,3.025-2.285,5.252-2.178,2.243,.108,4.1,1.393,5.327,3.362-1.367,.449-3.108,.597-3.108,.597,0,0-1.342,2.596-3.806,5.944-1.596,2.168-2.433,5.093-2.538,7.647-1.178-1.215-2.143-2.839-2.626-4.58-.125-.451-.24-1.031-.331-1.653-.15-1.027-.234-2.166-.188-3.012,.074-1.341,.292-2.538,.642-3.578Z"/>
        <path class="uuid-7cc65b6b-15e5-4333-9437-37b04305b78d" d="M307.431,214.017c-.692,5.359-3.675,6.469-3.675,6.469,1.959-4.035,4.08-6.804,0-9.082-4.08-2.278-4.274-8.28-4.274-8.28,5.846-3.15,8.642,5.534,7.95,10.893Z"/>
        <path class="uuid-afd881d7-7341-42d7-b377-5d50db2945a6" d="M305.871,211.772c.66,.032,1.323,.613,1.231,2.276-.091,1.664-.858,2.979-1.518,2.947-.66-.032-1.121-1.406-1.029-3.07,.091-1.664,.656-2.186,1.316-2.154Z"/>
        <path class="uuid-afd881d7-7341-42d7-b377-5d50db2945a6" d="M299.55,225.406c5.867-.643,11.139,3.645,11.775,9.578,.073,.679,.075,1.409,.025,2.066l-2.399,28.999c-.365,4.409-4.195,7.684-8.555,7.315-3.845-.325-6.817-3.379-7.215-7.12l-3.102-28.931c-.636-5.933,3.604-11.264,9.471-11.908Z"/>
        <path class="uuid-afd881d7-7341-42d7-b377-5d50db2945a6" d="M291.114,293.556c.156-3.597,.328-7.194,.558-10.789,.453-7.191,1.026-14.378,1.972-21.554,.067-.505,.53-.861,1.035-.794,.436,.057,.76,.411,.798,.83,.661,7.202,.95,14.392,1.119,21.579,.088,3.593,.118,7.186,.131,10.778-.007,1.796,.003,3.592-.018,5.387-.01,1.796-.056,3.591-.019,5.387,.09,7.184,.069,14.366-.084,21.551-.174,7.184-.442,14.37-1.043,21.562-.068,.811-.78,1.413-1.591,1.345-.719-.06-1.275-.628-1.343-1.322-.717-7.188-1.099-14.383-1.388-21.578-.267-7.196-.404-14.393-.429-21.589-.038-1.799,.065-3.598,.105-5.397,.05-1.799,.131-3.597,.196-5.396Z"/>
        <polygon class="uuid-afd881d7-7341-42d7-b377-5d50db2945a6" points="309.226 302.975 309.342 303.496 309.332 304.129 309.226 302.975"/>
        <path class="uuid-afd881d7-7341-42d7-b377-5d50db2945a6" d="M308.146,261.528c.069-.503,.532-.854,1.035-.785,.465,.064,.801,.466,.794,.924l-.633,41.829-.115-.521,.106,1.154,.01-.633,9.652,43.586c.197,.891-.365,1.773-1.256,1.97-.844,.187-1.683-.315-1.936-1.126l-13.313-43.17-.016-.051c-.113-.365-.137-.748-.09-1.103l5.763-42.074Z"/>
        <path class="uuid-87f9a3a0-3d50-4cd8-9a18-3fe5237c89ee" d="M305.277,230.115c5.887-9.903,0,28.792,0,28.792,0,0-4.02,2.384-11.537,0-7.517-2.384,.822-28.792,.822-28.792,0,0,4.829,9.903,10.715,0Z"/>
        <path class="uuid-5c0a66bc-561d-48e4-baaf-e47c77e25f79" d="M309.696,258.866c3.668,12.43,2.567,17.096,1.284,24.457-1.284,7.361-.917,21.981-.917,21.981-5.868,2.201-19.464,1.1-19.464,1.1,0,0-1.442-19.072-1.626-27.216-.183-8.144,1.993-20.323,1.993-20.323,10.062,1.426,18.73,0,18.73,0Z"/>
        <path class="uuid-1e36c3e4-e7de-45df-9134-3aefa6b61135" d="M293.977,231.471l-5.803,19.278-.268,.89-.691,.494-7.056,5.045c-1.121,.801-2.678,.542-3.479-.578-.801-1.121-.542-2.678,.578-3.479l7.056-5.045-.959,1.384,4.599-19.6c.393-1.677,2.072-2.718,3.749-2.324s2.718,2.072,2.324,3.749c-.014,.06-.033,.128-.05,.187Z"/>
        <path class="uuid-7f33bc95-482f-4473-9ee6-25bb226c83e8" d="M298.348,259.473c-.266,9.894-1.137,19.324-1.137,19.324,0,0-4.605-.003-8.194-3.089,.321-7.731,1.948-16.841,1.948-16.841,2.596,.368,5.097,.545,7.383,.607Z"/>
        <path class="uuid-620ef2c8-e604-4289-82d5-7995759466de" d="M308.146,261.528c.069-.503,.532-.854,1.035-.785,.465,.064,.801,.466,.794,.924l-.633,41.829,1.316,5.941c-1.822,.663-4.212,.995-6.368,1.156l-1.8-5.837-.016-.051c-.113-.365-.137-.748-.09-1.103l5.763-42.074Z"/>
        <path class="uuid-620ef2c8-e604-4289-82d5-7995759466de" d="M291.114,293.556c.156-3.597,.328-7.194,.558-10.789,.453-7.191,1.026-14.378,1.972-21.554,.067-.505,.53-.861,1.035-.794,.435,.057,.76,.411,.798,.83,.661,7.202,.95,14.392,1.119,21.579,.088,3.593,.117,7.186,.131,10.778-.007,1.796,.003,3.592-.018,5.387-.01,1.796-.056,3.591-.019,5.387,.026,2.045,.039,4.089,.047,6.134-1.749-.133-3.939-.476-5.888-1.294-.017-1.624-.03-3.248-.036-4.871-.038-1.799,.065-3.598,.105-5.397,.05-1.799,.131-3.597,.196-5.396Z"/>
        <path class="uuid-797dca39-f00a-45ee-820d-b4da707404e0" d="M296.894,225.342s1.157,7.707,2.395,19.077c1.238,11.37,.697,64.236,.697,64.236,0,0-9.346,.657-12.769-4.028,0,0,1.746-40.035,2.307-51.811,.559-11.736-2.995-9.375,.367-17.613l-1.1,4.081s-1.712-10.361,1.345-11.538c3.057-1.177,6.76-2.404,6.76-2.404Z"/>
        <path class="uuid-e29ed257-9571-45f4-9cd9-32e33d9a4359" d="M303.709,225.342s-2.792,7.707-4.03,19.077c-1.237,11.37-1.331,64.236-1.331,64.236,0,0,9.544,.366,13.279-1.976,0,0,2.786-36.069-.403-51.807-1.573-7.763,.795-15.405,.795-15.405,0,0,1.339-10.544-1.717-11.721-3.057-1.177-6.592-2.404-6.592-2.404Z"/>
        <path class="uuid-5c0a66bc-561d-48e4-baaf-e47c77e25f79" d="M292.198,345.243s2.093,.941,3.744,0c0,0-.367,4.668,.734,8.112,1.1,3.444-5.502,3.131-5.685,1.369-.183-1.762,1.407-6.867,1.208-9.48Z"/>
        <path class="uuid-5c0a66bc-561d-48e4-baaf-e47c77e25f79" d="M318.438,343.877c.677,.561,2.262,3.628,2.262,3.628l-.55,2.18-.621-1.336c-.032-.071-.051-.11-.051-.11l.051,.11c.257,.576,1.351,3.34-.174,5.729-.882,1.382-1.926,1.853-2.731,1.985-.647,.106-1.193-.468-1.078-1.114,.83-4.661-.592-9.706-.592-9.706,1.895,.449,3.484-1.366,3.484-1.366Z"/>
        <path class="uuid-5c0a66bc-561d-48e4-baaf-e47c77e25f79" d="M319.528,348.348l-.051-.11s.02,.04,.051,.11Z"/>
        <polygon class="uuid-721994e0-4c6b-45c3-841d-9328fef2a6d6" points="294.831 264.225 279.437 264.225 273.935 241.356 289.329 241.356 294.831 264.225"/>
        <polygon class="uuid-5c0a66bc-561d-48e4-baaf-e47c77e25f79" points="294.464 264.592 279.07 264.592 273.568 241.723 288.962 241.723 294.464 264.592"/>
        <polygon class="uuid-7ef52bcf-8cf4-4d02-a17c-45dede1336a7" points="285.765 242.952 278.06 242.952 277.625 241.491 285.33 241.491 285.765 242.952"/>
        <polygon class="uuid-721994e0-4c6b-45c3-841d-9328fef2a6d6" points="284.268 242.317 279.397 242.317 279.26 241.668 284.13 241.668 284.268 242.317"/>
        <path class="uuid-afd881d7-7341-42d7-b377-5d50db2945a6" d="M276.553,254.127s1.429,1.021,2.707,1.112c1.278,.092,1.375,2.829,0,3.627-1.375,.798-2.29,.876-2.707,0-.417-.876-1.224-5.43,0-4.739Z"/>
        <path class="uuid-afd881d7-7341-42d7-b377-5d50db2945a6" d="M309.589,268.234l3.592-.369s-1.117,3.917-1.459,6.672c-.342,2.755-3.581,5.547-5.892,5.055-2.311-.493,2.487-7.902,2.487-7.902l1.273-3.456Z"/>
        <path class="uuid-0081e57c-9f44-4837-8ee8-8411e541e46c" d="M292.586,226.836l2.638,7.802-1.494,1.284,5.751,11.895s-2.295-18.242-3.128-22.294c-.75,.253-2.195,.746-3.768,1.313Z"/>
        <rect class="uuid-03b9faac-57c0-4eb4-81cc-90129cc25f4e" x="304.455" y="268.831" width="7.74" height="1.262"/>
        <rect class="uuid-03b9faac-57c0-4eb4-81cc-90129cc25f4e" x="304.455" y="241.993" width="5.563" height="1.172"/>
        <rect class="uuid-03b9faac-57c0-4eb4-81cc-90129cc25f4e" x="289.371" y="268.831" width="6.099" height="1.262"/>
        <path class="uuid-14803449-dec2-4a73-8ec1-339f13254896" d="M304.179,225.507c-.457,1.393-4.109,12.793-4.54,22.311l5.218-11.406-.978-1.895,3.552-7.844c-1.397-.511-2.616-.942-3.252-1.165Z"/>
        <path class="uuid-620ef2c8-e604-4289-82d5-7995759466de" d="M309.589,268.234l3.592-.369s-1.037,3.638-1.419,6.367l-3.937-1.75c.294-.487,.491-.793,.491-.793l1.273-3.456Z"/>
        <path class="uuid-f7eacfb9-8731-4a40-ab73-17e348b5ac76" d="M307.291,270.947l7.564-17.022-7.877-22.219c-.575-1.623,.274-3.405,1.897-3.98,1.622-.576,3.405,.274,3.98,1.897l8.292,23.391c.266,.752,.235,1.578-.09,2.308l-8.069,18.158-5.698-2.532Z"/>
        <path class="uuid-03b9faac-57c0-4eb4-81cc-90129cc25f4e" d="M296.894,224.797c.753,1.773,2.587,21.92,2.587,21.92l-5.018-10.795,1.494-1.284-2.718-8.037,3.654-1.805Z"/>
        <path class="uuid-03b9faac-57c0-4eb4-81cc-90129cc25f4e" d="M303.755,224.797c1.378,.306,3.226,1.711,3.226,1.711l-3.626,8.008,.978,1.895-4.851,10.306c.464-10.232,4.228-21.374,4.228-21.374l.046-.546Z"/>
        <path class="uuid-7cc65b6b-15e5-4333-9437-37b04305b78d" d="M303.231,203.114c6.114,3.16-2.531,3.894-2.531,3.894,0,0-1.342,2.596-3.806,5.944-2.464,3.348-3.13,8.503-2.064,11.305,0,0-6.595-4.299-4.232-12.853,2.364-8.553,6.518-11.45,12.632-8.29Z"/>
        <path class="uuid-7cc65b6b-15e5-4333-9437-37b04305b78d" d="M303.231,203.114c6.114,3.16-2.531,3.894-2.531,3.894,0,0-1.342,2.596-3.806,5.944-2.464,3.348-3.13,8.503-2.064,11.305,0,0-6.595-4.299-4.232-12.853,2.364-8.553,6.518-11.45,12.632-8.29Z"/>
      </g>
    </g>
    <g id="uuid-a07a02cd-c617-4b36-85a0-e169cead6e51" data-name="Layer 3"/>
    <g id="uuid-b9dba8d7-220a-47b5-a107-4dbf63cf1105" data-name="Layer 8">
      <line class="uuid-a81126ac-a286-481a-b6a8-a47f90b78d89" x1="269.819" y1="43.723" x2="102.86" y2="210.683"/>
    </g>
    <g id="uuid-97ae8af2-cbdc-439c-b79a-9b8337d67511" data-name="Layer 10">
      <circle class="uuid-03b9faac-57c0-4eb4-81cc-90129cc25f4e" cx="269.647" cy="43.443" r="3.977"/>
      <circle class="uuid-03b9faac-57c0-4eb4-81cc-90129cc25f4e" cx="186.577" cy="126.514" r="3.977"/>
      <circle class="uuid-03b9faac-57c0-4eb4-81cc-90129cc25f4e" cx="103.506" cy="210.468" r="3.977"/>
    </g>
    <g id="uuid-de203f19-9e85-48d0-b09b-3c52818a1eda" data-name="Layer 6"/>
  </g>
</svg>