<svg id="a7dc0c7b-1aa1-4d92-ad53-358febebd34a" data-name="Layer 1" xmlns="http://www.w3.org/2000/svg" xmlns:xlink="http://www.w3.org/1999/xlink" viewBox="0 0 490.5057 408.823"><defs><linearGradient id="bf112d1a-17b1-4952-880a-1528399baa8c" x1="4.4336" y1="253.2523" x2="457.863" y2="253.2523" gradientUnits="userSpaceOnUse"><stop offset="0" stop-color="#deebff"/><stop offset="0.12" stop-color="#deebff" stop-opacity="0.98"/><stop offset="0.28" stop-color="#deebff" stop-opacity="0.92"/><stop offset="0.44" stop-color="#deebff" stop-opacity="0.82"/><stop offset="0.62" stop-color="#deebff" stop-opacity="0.68"/><stop offset="0.81" stop-color="#deebff" stop-opacity="0.51"/><stop offset="1" stop-color="#deebff" stop-opacity="0.3"/></linearGradient><linearGradient id="aa0a61a1-e867-4222-8c98-17f44b028de5" x1="119.6616" y1="169.6503" x2="274.5516" y2="169.6503" gradientUnits="userSpaceOnUse"><stop offset="0" stop-color="#deebff"/><stop offset="0.74" stop-color="#fff"/></linearGradient><linearGradient id="ecb122f5-b503-4ee5-ba08-d10dea890e69" x1="333.9707" y1="264.701" x2="355.1072" y2="264.701" gradientUnits="userSpaceOnUse"><stop offset="0.0249" stop-color="#023f32"/><stop offset="0.0264" stop-color="#023f32"/><stop offset="0.136" stop-color="#0c5847"/><stop offset="0.2577" stop-color="#146c58"/><stop offset="0.3986" stop-color="#1a7a63"/><stop offset="0.5739" stop-color="#1d826a"/><stop offset="0.8903" stop-color="#1e846c"/></linearGradient><linearGradient id="bcacd6ec-fd86-4e10-9799-e8996b8e7f80" x1="227.6417" y1="144.9198" x2="240.9487" y2="144.9198" gradientTransform="matrix(1, 0, -0.0138, 1, 24.6083, 0)" gradientUnits="userSpaceOnUse"><stop offset="0" stop-color="#3457b4"/><stop offset="1" stop-color="#6c98e3"/></linearGradient><linearGradient id="a62864bb-3e62-4403-a1a1-6b6726fde730" x1="140.0402" y1="206.8809" x2="201.3402" y2="206.8809" gradientTransform="matrix(1, 0, 0.1405, 1, -24.8025, 0)" gradientUnits="userSpaceOnUse"><stop offset="0" stop-color="#fc7318"/><stop offset="1" stop-color="#feb423"/></linearGradient></defs><path d="M245.6293,74.1958c-10.132-2.0192-21.5058-3.3878-29.945,2.9115-11.0269,8.2308-11.8012,25.3328-19.6934,36.9478-9.4633,13.927-27.6056,17.68-43.707,16.3468s-31.8963-6.5935-48.0408-6.1385-33.839,8.7245-38.8216,25.0727c-4.4751,14.6831,2.2809,32.2914-5.3868,45.3945-7.619,13.02-24.8588,14.1251-37.007,22.3789-16.5914,11.2725-21.8118,35.722-16.73,55.96S24.6493,310.0139,38.67,324.7178C107.0346,396.4166,203.4919,436.7845,299.4374,433.85c25.717-.7864,51.607-4.6134,75.5636-14.596s45.9647-26.4529,60.42-49.1012c17.946-28.117,23.0438-63.4831,22.3866-97.4655-.6233-32.2251-6.1743-64.8456-20.3132-93.35a136.3247,136.3247,0,0,0-33.4876-43.5223c-13.4084-11.3485-25.9249-13.8352-41.3081-19.4983-19.1722-7.058-37.1121-18.028-56.4359-25.0887A410.5671,410.5671,0,0,0,245.6293,74.1958Z" transform="translate(-4.4336 -72.5045)" style="fill:url(#bf112d1a-17b1-4952-880a-1528399baa8c)"/><circle cx="327.3828" cy="106.1309" r="23.0151" transform="translate(122.5445 313.4141) rotate(-72.3486)" style="fill:#ffc400"/><circle cx="68.6187" cy="205.6635" r="23.0151" style="fill:#00c7e5"/><circle cx="48.9944" cy="197.2306" r="12.1942" transform="translate(-158.6503 127.0955) rotate(-76.7175)" style="fill:#ffc400"/><circle cx="422.1017" cy="199.5347" r="9.8133" style="fill:#fab116"/><circle cx="373.7692" cy="113.7889" r="7.658" transform="translate(173.934 379.6179) rotate(-76.9239)" style="fill:#2684ff"/><circle cx="87.7848" cy="118.8453" r="4.8205" style="fill:#2684ff"/><path d="M409.1218,152.8921l7.4321,1.9837a3.14,3.14,0,0,0,2.3785-.3136l21.8438-12.5957a3.14,3.14,0,0,0,1.1517-4.2891l-5.4259-9.41a3.14,3.14,0,0,0-4.2891-1.1518l-21.8438,12.5958a3.1406,3.1406,0,0,0-1.4629,1.9014L406.9,149.0391A3.14,3.14,0,0,0,409.1218,152.8921Zm3.7377-3.419a2.554,2.554,0,1,1,3.4145-1.1778A2.5541,2.5541,0,0,1,412.86,149.4731Z" transform="translate(-4.4336 -72.5045)" style="fill:#ff991f"/><path d="M404.6691,157.76a6.8336,6.8336,0,0,1-4.8333-1.9076,7.0564,7.0564,0,0,1-.1958-9.4284,8.2478,8.2478,0,0,1,5.2935-2.48,10.5669,10.5669,0,0,1,8.9629,3.5925.32.32,0,1,1-.4868.4168,9.9185,9.9185,0,0,0-8.4117-3.3717,7.608,7.608,0,0,0-4.8862,2.2767A6.1717,6.1717,0,0,0,408.83,155.58a.32.32,0,1,1,.4336.4717A6.7858,6.7858,0,0,1,404.6691,157.76Z" transform="translate(-4.4336 -72.5045)" style="fill:#ff991f"/><path d="M24.0308,250.0828a.32.32,0,0,1-.32-.32v-2.8937a.32.32,0,1,1,.6407,0v2.8937A.32.32,0,0,1,24.0308,250.0828Z" transform="translate(-4.4336 -72.5045)" style="fill:#00c7e5"/><path d="M24.0308,259.3119a.32.32,0,0,1-.32-.32v-2.8939a.32.32,0,1,1,.6407,0v2.8939A.32.32,0,0,1,24.0308,259.3119Z" transform="translate(-4.4336 -72.5045)" style="fill:#00c7e5"/><path d="M30.0924,253.2505H27.1985a.32.32,0,0,1,0-.6408h2.8939a.32.32,0,0,1,0,.6408Z" transform="translate(-4.4336 -72.5045)" style="fill:#00c7e5"/><path d="M20.8633,253.2505H17.9694a.32.32,0,0,1,0-.6408h2.8939a.32.32,0,0,1,0,.6408Z" transform="translate(-4.4336 -72.5045)" style="fill:#00c7e5"/><path d="M26.2707,251.0106a.32.32,0,0,1-.2265-.5469l2.0462-2.0462a.32.32,0,0,1,.453.453l-2.0462,2.0462A.3192.3192,0,0,1,26.2707,251.0106Z" transform="translate(-4.4336 -72.5045)" style="fill:#00c7e5"/><path d="M19.7449,257.5366a.32.32,0,0,1-.2265-.5469l2.0462-2.0464a.32.32,0,0,1,.453.453l-2.0462,2.0464A.3194.3194,0,0,1,19.7449,257.5366Z" transform="translate(-4.4336 -72.5045)" style="fill:#00c7e5"/><path d="M28.3169,257.5366a.3194.3194,0,0,1-.2265-.0939l-2.0462-2.0464a.32.32,0,0,1,.453-.453l2.0462,2.0464a.32.32,0,0,1-.2265.5469Z" transform="translate(-4.4336 -72.5045)" style="fill:#00c7e5"/><path d="M21.7911,251.0106a.3191.3191,0,0,1-.2265-.0939l-2.0462-2.0462a.32.32,0,0,1,.453-.453l2.0462,2.0462a.32.32,0,0,1-.2265.5469Z" transform="translate(-4.4336 -72.5045)" style="fill:#00c7e5"/><rect x="51.9987" y="155.099" width="299.083" height="174.1116" rx="17.7903" transform="translate(439.2614 -31.8899) rotate(90)" style="fill:#4c9aff"/><rect x="119.6616" y="29.7197" width="154.89" height="279.8613" rx="13.0872" style="fill:url(#aa0a61a1-e867-4222-8c98-17f44b028de5)"/><path d="M264.2432,125.1249H250.5868a.3206.3206,0,0,1-.31-.2382l-3.2-12.0707h-2.0127a.32.32,0,1,1,0-.6407h2.2593a.32.32,0,0,1,.31.2382l3.2005,12.0707h13.41a.32.32,0,1,1,0,.6407Z" transform="translate(-4.4336 -72.5045)" style="fill:#fff"/><path d="M253.0433,128.8637a2.1683,2.1683,0,1,1,2.1681-2.1682A2.1708,2.1708,0,0,1,253.0433,128.8637Zm0-3.6957a1.5275,1.5275,0,1,0,1.5274,1.5275A1.5295,1.5295,0,0,0,253.0433,125.168Z" transform="translate(-4.4336 -72.5045)" style="fill:#fff"/><path d="M261.8561,128.8637a2.1683,2.1683,0,1,1,2.1681-2.1682A2.1708,2.1708,0,0,1,261.8561,128.8637Zm0-3.6957a1.5275,1.5275,0,1,0,1.5274,1.5275A1.5294,1.5294,0,0,0,261.8561,125.168Z" transform="translate(-4.4336 -72.5045)" style="fill:#fff"/><path d="M264.5445,121.8145H249.7089a.32.32,0,1,1,0-.6408h14.565l1.197-7.0644H247.6661a.32.32,0,1,1,0-.6407H265.85a.3206.3206,0,0,1,.316.3739l-1.3055,7.7051A.3206.3206,0,0,1,264.5445,121.8145Z" transform="translate(-4.4336 -72.5045)" style="fill:#fff"/><path d="M265.1974,117.9618h-16.51a.32.32,0,0,1,0-.6407h16.51a.32.32,0,1,1,0,.6407Z" transform="translate(-4.4336 -72.5045)" style="fill:#fff"/><path d="M256.9424,121.8145a.32.32,0,0,1-.32-.32V113.789a.32.32,0,1,1,.6407,0v7.7051A.32.32,0,0,1,256.9424,121.8145Z" transform="translate(-4.4336 -72.5045)" style="fill:#fff"/><path d="M260.8206,121.8145l-.0254-.001a.32.32,0,0,1-.2944-.3444l.6023-7.7052a.32.32,0,1,1,.6388.05l-.6022,7.7051A.32.32,0,0,1,260.8206,121.8145Z" transform="translate(-4.4336 -72.5045)" style="fill:#fff"/><path d="M253.2473,121.8145a.32.32,0,0,1-.3191-.2954l-.6023-7.7051a.32.32,0,0,1,.6389-.05l.6022,7.7052a.32.32,0,0,1-.2944.3444Z" transform="translate(-4.4336 -72.5045)" style="fill:#fff"/><g style="opacity:0.2"><path d="M153.5,114.1093H136.9555a.32.32,0,1,1,0-.6407H153.5a.32.32,0,0,1,0,.6407Z" transform="translate(-4.4336 -72.5045)" style="fill:#4c9aff"/><path d="M153.5,118.0363H136.9555a.32.32,0,1,1,0-.6408H153.5a.32.32,0,0,1,0,.6408Z" transform="translate(-4.4336 -72.5045)" style="fill:#4c9aff"/><path d="M153.5,121.9631H136.9555a.32.32,0,1,1,0-.6408H153.5a.32.32,0,0,1,0,.6408Z" transform="translate(-4.4336 -72.5045)" style="fill:#4c9aff"/></g><g style="opacity:0.2"><rect x="135.7162" y="161.4178" width="122.7808" height="15.374" rx="4.6198" style="fill:#4c9aff"/><rect x="135.7162" y="186.8351" width="122.7808" height="15.374" rx="4.6198" style="fill:#4c9aff"/><rect x="135.7162" y="214.8888" width="35.0703" height="35.0703" rx="4.6198" style="fill:#4c9aff"/><rect x="179.5714" y="214.8888" width="35.0703" height="35.0703" rx="4.6198" style="fill:#4c9aff"/><rect x="223.4267" y="214.8888" width="35.0703" height="35.0703" rx="4.6198" style="fill:#4c9aff"/><rect x="135.7162" y="257.1916" width="35.0703" height="35.0703" rx="4.6198" style="fill:#4c9aff"/><rect x="179.5714" y="257.1916" width="35.0703" height="35.0703" rx="4.6198" style="fill:#4c9aff"/><rect x="223.4267" y="257.1916" width="35.0703" height="35.0703" rx="4.6198" style="fill:#4c9aff"/></g><path d="M151.68,243.198a3.4526,3.4526,0,1,1,3.4525-3.4525A3.4565,3.4565,0,0,1,151.68,243.198Zm0-6.2643a2.8118,2.8118,0,1,0,2.8117,2.8118A2.815,2.815,0,0,0,151.68,236.9337Z" transform="translate(-4.4336 -72.5045)" style="fill:#fff"/><path d="M144.6572,246.9256a.32.32,0,0,1-.2265-.5468l4.7241-4.7242a.32.32,0,1,1,.453.4531l-4.7241,4.7241A.32.32,0,0,1,144.6572,246.9256Z" transform="translate(-4.4336 -72.5045)" style="fill:#fff"/><path d="M443.1214,209.5006a.3206.3206,0,0,1-.3411-.1347l-10.4759-15.78a9.8311,9.8311,0,1,1,16.4862-10.7149l10.4747,15.7773a.32.32,0,1,1-.5338.3544l-10.4763-15.78A9.1905,9.1905,0,1,0,432.84,193.2343l10.4743,15.7773a.3206.3206,0,0,1-.1927.489Z" transform="translate(-4.4336 -72.5045)" style="fill:#2684ff"/><polygon points="488.09 155.272 445.198 183.138 420.853 141.938 463.745 114.072 488.09 155.272" style="fill:#2684ff"/><path d="M441.8231,209.2721a1.55,1.55,0,1,1-2.1438-.4552A1.55,1.55,0,0,1,441.8231,209.2721Z" transform="translate(-4.4336 -72.5045)" style="fill:#2684ff"/><path d="M457.7741,198.909a1.55,1.55,0,1,1-2.1439-.4552A1.55,1.55,0,0,1,457.7741,198.909Z" transform="translate(-4.4336 -72.5045)" style="fill:#2684ff"/><polygon points="488.09 155.272 490.506 149.551 463.745 114.072 488.09 155.272" style="fill:#2684ff"/><path d="M440.5977,210.4282a.32.32,0,0,1-.3411-.1347l-10.4759-15.78a9.8312,9.8312,0,1,1,16.4865-10.7148l10.4744,15.7773a.32.32,0,1,1-.5338.3543l-10.4763-15.78a9.1906,9.1906,0,1,0-15.4155,10.0114L440.79,209.9392a.3208.3208,0,0,1-.1927.489Z" transform="translate(-4.4336 -72.5045)" style="fill:#2684ff"/><path d="M405.8128,337.346a.32.32,0,0,1-.3035-.2907l-1.6223-17.571a10.3881,10.3881,0,0,1,20.6882-1.91l1.6224,17.5711a.32.32,0,0,1-.638.0586l-1.6223-17.571a9.7475,9.7475,0,0,0-19.4124,1.7926l1.6224,17.571a.32.32,0,0,1-.29.3483A.306.306,0,0,1,405.8128,337.346Z" transform="translate(-4.4336 -72.5045)" style="fill:#f5832d"/><polygon points="441.358 325.267 390.128 329.507 387.275 258.407 438.504 254.167 441.358 325.267" style="fill:#fcb123"/><polygon points="441.358 325.267 448.551 319.478 438.504 254.167 441.358 325.267" style="fill:#f5832d"/><path d="M403.6151,338.1405a.32.32,0,0,1-.3034-.2907l-1.6221-17.571a10.3881,10.3881,0,1,1,20.6883-1.91L424,335.94a.32.32,0,1,1-.6379.0587l-1.6221-17.571a9.7474,9.7474,0,1,0-19.4123,1.7922l1.622,17.5711a.3212.3212,0,0,1-.3345.3493Z" transform="translate(-4.4336 -72.5045)" style="fill:#f5832d"/><path d="M411.52,311.7367s3.1933.6458,3.5611.1382-3.1394-2.0358-1.3122-2.0516-5.1072-2.88-5.1072-2.88a6.2545,6.2545,0,0,0,2.6265-.4344c1.4133-.554-5.5319-.9111-6.1364-1.0213a53.6775,53.6775,0,0,1-4.8239-2.536c-3.2794,2.4822-1.4252,3.3259-1.4252,3.3259s3.409,1.7813,5.065,2.8175c1.1054.6913,8.0792,4.75,8.7843,4.5165S411.52,311.7367,411.52,311.7367Z" transform="translate(-4.4336 -72.5045)" style="fill:#e5b9b6"/><path d="M430.315,184.5776s1.17-3.0408.7315-3.488-2.5319,2.755-2.2423.9508-3.6935,4.5538-3.6935,4.5538a6.253,6.253,0,0,0,.0107-2.6618c-.31-1.4862-1.8226,5.3014-2.0324,5.8791a53.6256,53.6256,0,0,1-3.3065,4.3323c1.8989,3.648,3.041,1.9609,3.041,1.9609s2.3258-3.0631,3.6242-4.5231c.8666-.9739,6.0336-7.1716,5.9211-7.9056S430.315,184.5776,430.315,184.5776Z" transform="translate(-4.4336 -72.5045)" style="fill:#e5b9b6"/><path d="M305.3641,310.6745s-20.7169,60.26-26.9932,66.2175c0,0-37.7149-6.7876-60.1035.7943,0,0,2.5276.6494.0258,3.3148s2.5018-2.6654,67.9253,19.0834c8.4418,2.8064,33.221-32.9609,33.7031-38.1484s-10.9691-51.3755-10.9691-51.3755Z" transform="translate(-4.4336 -72.5045)" style="fill:#273556"/><path d="M401.3442,303.46s-27.4921-21.6488-29.8771-26.963-8.465-31.5618-12.5509-40.438-13.6968-2.298-13.6968-2.298c-14.2988,9.0681,8.7753,39.4767,12.6462,45.696s42.8371,27.8269,42.8371,27.8269C399.007,303.7232,401.3442,303.46,401.3442,303.46Z" transform="translate(-4.4336 -72.5045)" style="fill:#e5b9b6"/><path d="M317.69,477.7269a8.2139,8.2139,0,0,1-1.4863-.5581l-.0061,0c-2.0848.3617-7.0961-1.6507-10.6162-3.9062a10.09,10.09,0,0,1-3.2787-3.5986c-.65,3.6131-1.1253,8.1523-.3672,11.6632l1.8152-.07s.8135-4.618,2.07-3.07,2.5038,2.8926,2.5038,2.8926l12.7415-.4936S321.0428,478.5956,317.69,477.7269Z" transform="translate(-4.4336 -72.5045)" style="fill:#243145"/><path d="M308.2923,469.9167a31.9221,31.9221,0,0,1-1.1987-6.5141l-3.3727.1134a60.21,60.21,0,0,0-1.4185,6.1424l0,.0059a10.09,10.09,0,0,0,3.2787,3.5986c3.52,2.2555,8.5314,4.2679,10.6162,3.9062C312.988,475.6666,309.059,472.1175,308.2923,469.9167Z" transform="translate(-4.4336 -72.5045)" style="fill:#e5b9b6"/><path d="M201.9641,376.3494l.1348,1.8114s4.6441.6492,3.1418,1.9593-2.8022,2.6051-2.8022,2.6051l.9461,12.7162s1.9883-.094,2.7373-3.4751a8.2044,8.2044,0,0,1,.5052-1.5058l0-.0057c-.4356-2.0707,1.3974-7.15,3.5264-10.7483a10.09,10.09,0,0,1,3.48-3.4046C209.999,375.7814,205.4456,375.4672,201.9641,376.3494Z" transform="translate(-4.4336 -72.5045)" style="fill:#243145"/><path d="M213.6388,376.3016l-.0059,0a10.09,10.09,0,0,0-3.48,3.4046c-2.129,3.5978-3.962,8.6776-3.5264,10.7483,1.3871-3.2608,4.7946-7.3134,6.9668-8.1579,2.5211-.9846,6.5573-.1284,6.5573-.1284l-.3234-4.6676A60.2055,60.2055,0,0,0,213.6388,376.3016Z" transform="translate(-4.4336 -72.5045)" style="fill:#e5b9b6"/><path d="M343.5716,223.2861a14.5172,14.5172,0,0,0-2.9556,1.9225c-5.8518,4.966-5.0458,13.2886-2.8444,20.6208,2.4017,8,5.7761,19.0267,2.8235,27.3051-2.1771,6.1037-4.4976,7.6857-4.4976,7.6857s9.9478,7.8741,17.3537,3.5442c0,0,8.1-16.4206,10.577-26.6285s3.0644-10.2263,5.4686-13.5366c3.7545-5.1743-1.7845-12.7673-5.4333-16.3759C358.6316,222.4511,350.7625,219.7166,343.5716,223.2861Z" transform="translate(-4.4336 -72.5045)" style="fill:#279c83"/><path d="M420.5753,193.1405s-25.7148,23.733-31.3389,25.2495-32.5019,3.38-41.9114,6.0142-4.43,13.1633-4.43,13.1633c6.6985,15.55,40.3666-2.4377,47.1185-5.2791s34.2363-37.911,34.2363-37.911C420.4661,195.49,420.5753,193.1405,420.5753,193.1405Z" transform="translate(-4.4336 -72.5045)" style="fill:#fde7de"/><path d="M336.0975,280.82s-21.5322,7.4009-32.9985,26.3883-6.8875,54.6176-5.2129,66.6333-6.0973,25.1932-5.9952,42,10.6961,51.8151,10.6961,51.8151a4.3142,4.3142,0,0,0,5.24-1.244s1.8066-41.1131,7.8575-64.58,19.571-59.2411,29.26-79.9144,8.5069-37.554,8.5069-37.554S347.9249,286.8026,336.0975,280.82Z" transform="translate(-4.4336 -72.5045)" style="fill:#313d63"/><path d="M353.7938,215.4385c1.854-6.0933-10.0763-4.48-10.0763-4.48s.7614,9.2565-1.71,13.1289a26.5261,26.5261,0,0,1,8.0113-1.2166l4.4484-2.74S351.94,221.5318,353.7938,215.4385Z" transform="translate(-4.4336 -72.5045)" style="fill:#fde7de"/><path d="M330.9872,200.5394s3.0484,10.2359,16.4533,12.634a32.6115,32.6115,0,0,0,4.385.5124c8.8062.3632,8.5033-2.303,8.5033-2.303a51.7878,51.7878,0,0,0,2.0362-12.8948c.0312-.72,2.7316-1.0268,2.3565-1.6922-6.975-12.3736-5.1638-15.6022-5.1877-19.2541l-25.93-2.5192-6.02,4.9413-2.7772,6.0442,3.3555,9.5911Z" transform="translate(-4.4336 -72.5045)" style="fill:#fde7de"/><path d="M352.4958,158.098s10.2264-4.5317,15.9074-.0291,7.9258,10.4172,2.4386,17.1618-16.8024,9.0257-21.14,8.2953-8.6672-4.5089-9.3425-2.8929-1.67,5.1973-3.6239,6.2056c0,0-5.5754-3.019-6.8582,1.6266s5.3632,8.8693,5.3632,8.8693l-.1286,9.6318s-23.3727-16.58-17.95-44.6327l8.5858-7.7853C325.7487,154.5494,338.3737,148.8889,352.4958,158.098Z" transform="translate(-4.4336 -72.5045)" style="fill:#1e274f"/><path d="M324.9272,156.07a24.3924,24.3924,0,0,0-7.369-7.8145c-4.5892-2.836-13.2447-7.0431-22.1788,3.615-12.2718,14.64-8.7127,22.96-11.143,37.6594s-38.781,9.9391-45.3372,26.0953c-6.6789,16.4573-1.476,32.8561,16.5,47.3605,18.7624,15.139,31.6573.1831,32.8988-3.96s-.3717-10.5132-.1643-15.028a12.2216,12.2216,0,0,1,7.9617-10.8564c2.6971-1.0587,19.3022-9.6776,16.2214-26.6562s-7.7968-19.7888-7.4548-33.7288c.1185-4.8205,3.1353-15.55,10.4808-13.4743Z" transform="translate(-4.4336 -72.5045)" style="fill:#212b54"/><path d="M314.8375,160.66a2.65,2.65,0,0,0,2.0686,2.0728c1.8458.3245,8.8426-8.1831,8.8426-8.1831s-.5625-3.8261-3.4666-1.9221C322.282,152.6282,313.8185,159.5447,314.8375,160.66Z" transform="translate(-4.4336 -72.5045)" style="fill:#f5a51c"/><circle cx="356.9394" cy="189.1284" r="1.1514" transform="translate(132.4408 455.3667) rotate(-84.9075)" style="fill:#212b54"/><path d="M356.1059,185.5105a4.9631,4.9631,0,0,0-2.6812,3.3038" transform="translate(-4.4336 -72.5045)" style="fill:#1e274f"/><ellipse cx="357.1069" cy="188.9934" rx="7.0957" ry="6.7296" transform="translate(132.7279 455.4105) rotate(-84.9075)" style="fill:none;stroke:#313d63;stroke-miterlimit:10"/><path d="M336.2539,185.8118c.2958.0263,14.554,1.9307,14.554,1.9307" transform="translate(-4.4336 -72.5045)" style="fill:none;stroke:#313d63;stroke-miterlimit:10"/><path d="M360.4664,203.2615s-2.8277.4943-8.1712-1.7725c0,0,3.3117,7.7546,6.9665,5.2454Z" transform="translate(-4.4336 -72.5045)" style="fill:#e5b9b6"/><path d="M343.9943,212.556s5.38,1.3287,8.5715.6565c0,0-7.2246,3.961-8.711,6.4791Z" transform="translate(-4.4336 -72.5045)" style="fill:#e5b9b6"/><path d="M345.74,243.5109s13.8966,16.1779,7.8377,42.38l-19.6069-4.244s13.2968-15.8847,5.1277-32.8079Z" transform="translate(-4.4336 -72.5045)" style="fill:url(#ecb122f5-b503-4ee5-ba08-d10dea890e69)"/><path d="M332.1859,307.95s-.0686,15.1516-19.0077,24.4592l-1.4283,33.781" transform="translate(-4.4336 -72.5045)" style="fill:none;stroke:#fff;stroke-miterlimit:10"/><path d="M192.8394,175.28a22.1014,22.1014,0,0,0-.5071-5.9372,23.5564,23.5564,0,0,0-.938-3.6447,11.0017,11.0017,0,0,0-2.3289-3.1328,23.0378,23.0378,0,0,0-7.267-4.4568c-3.382-1.385-2.6723-11.92-8.7643-9.8211-3.8145,1.3148-18.6141,19.7614-13.5951,19.906-.4863-3.24,10.1887-21.0441,15.52-19.124,2.3424.8445,2.782,4.6437,3.4581,6.2923,1.2476,3.0461,3.3366,3.6369,6.621,5.2477a12.547,12.547,0,0,1,5.1523,3.9506c.5949.9189,1.1664,3.1295.6556,4.034-.334.5895-.8641.4693-1.9284.673-4.0333.7665-8.6284.4818-12.7313.4761-4.7459-.0066-9.4908-.0856-14.2308-.1991a22.8928,22.8928,0,0,0-3.0631-.1346c-1.0167.15-.791,1.9513-1.009,2.522a27.7692,27.7692,0,0,0-.2388,5.32c.0649.8667.0464,7.6474.3844,8.4774.2842.6963.9936,1.1636,1.3747,1.8179.3586.6173.4188,1.4205.9072,1.9813a6.1807,6.1807,0,0,0,1.64,1.0947,15.7771,15.7771,0,0,0,4.3758,1.4384,48.1568,48.1568,0,0,0,9.4466.6275,32.764,32.764,0,0,0,11.2905-1.8423c2.1-.7509,2.7174-1.8244,3.6426-3.3364a10.4944,10.4944,0,0,0,1.677-2.9626A88.9889,88.9889,0,0,0,192.8394,175.28Zm-2.04-2.2049a23.8048,23.8048,0,0,1-1.4893,2.7434,11.6472,11.6472,0,0,1-3.8581,4.2121c-2.4647,1.3293-6.1144.821-8.7828.7765-3.66,0-9.4344.4226-12.7206-1.4486-2.48-1.4129-3.8469-5.4122-4.8934-7.9032a1.973,1.973,0,0,1-.2421-1.0124c.1127-.4583,1.01.2736,1.45,1.1047.511.9656.7689,2.0259,1.1814,3.0306.5521,1.3472,1.4052,4.1306,3.0744,4.5a67.0555,67.0555,0,0,0,12.6805,1.0425c1.8153.0167,6.6049.246,7.937-1.32a36.4486,36.4486,0,0,0,4.488-6.1879c.28-.5174.9154-1.4485,1.3594-1.6043C191.9156,170.68,191.0492,172.5335,190.7991,173.0753Z" transform="translate(-4.4336 -72.5045)" style="fill:#b3cdfa"/><path d="M263.563,144.92a6.7648,6.7648,0,0,1-6.7447,6.6535,6.5445,6.5445,0,0,1-6.5622-6.6535,6.7647,6.7647,0,0,1,6.7447-6.6535A6.5445,6.5445,0,0,1,263.563,144.92Z" transform="translate(-4.4336 -72.5045)" style="fill:url(#bcacd6ec-fd86-4e10-9799-e8996b8e7f80)"/><polygon points="251.436 75.723 248.494 72.739 249.632 71.595 251.336 73.266 255.239 69.438 256.476 70.751 251.436 75.723" style="fill:#fff"/><path d="M152.0266,211.55l-2.7892-1.43a.1871.1871,0,0,0-.1741.0022l-2.7912,1.503a.185.185,0,0,1-.2714-.1937l.5351-3.1135a.1844.1844,0,0,0-.0535-.1648l-2.2558-2.1707a.1884.1884,0,0,1,.1039-.32l3.12-.4938a.1908.1908,0,0,0,.1408-.1042l1.3973-2.8443a.187.187,0,0,1,.3354-.0044l1.3932,2.8083a.1841.1841,0,0,0,.1406.1005l3.1194.4126a.1856.1856,0,0,1,.1033.3176l-2.2589,2.2294a.1891.1891,0,0,0-.0539.1662l.5306,3.1A.1893.1893,0,0,1,152.0266,211.55Zm13.0993-.2006-.5306-3.1a.1892.1892,0,0,1,.054-.1662l2.2589-2.2294a.1856.1856,0,0,0-.1034-.3176l-3.1193-.4126a.1841.1841,0,0,1-.1407-.1005l-1.3931-2.8083a.1871.1871,0,0,0-.3355.0044l-1.3972,2.8443a.1908.1908,0,0,1-.1409.1042l-3.12.4938a.1884.1884,0,0,0-.1039.32l2.2558,2.1707a.1847.1847,0,0,1,.0536.1648l-.5352,3.1135a.185.185,0,0,0,.2714.1937l2.7912-1.503a.1873.1873,0,0,1,.1742-.0022l2.7891,1.43A.1893.1893,0,0,0,165.1259,211.35Zm12.8278,0-.5307-3.1a.1892.1892,0,0,1,.054-.1662l2.2589-2.2294a.1856.1856,0,0,0-.1034-.3176l-3.1193-.4126a.1841.1841,0,0,1-.1407-.1005l-1.3931-2.8083a.187.187,0,0,0-.3354.0044l-1.3973,2.8443a.1908.1908,0,0,1-.1409.1042l-3.12.4938a.1884.1884,0,0,0-.1039.32l2.2559,2.1707a.1849.1849,0,0,1,.0535.1648l-.5352,3.1135a.185.185,0,0,0,.2714.1937l2.7912-1.503a.1873.1873,0,0,1,.1742-.0022l2.7893,1.43A.1893.1893,0,0,0,177.9537,211.35Zm12.8277,0-.5307-3.1a.1892.1892,0,0,1,.054-.1662l2.2589-2.2294a.1856.1856,0,0,0-.1034-.3176l-3.1193-.4126a.1841.1841,0,0,1-.1407-.1005l-1.3931-2.8083a.187.187,0,0,0-.3354.0044l-1.3973,2.8443a.1906.1906,0,0,1-.1409.1042l-3.12.4938a.1883.1883,0,0,0-.1038.32l2.2558,2.1707a.1853.1853,0,0,1,.0536.1648l-.5352,3.1135a.1849.1849,0,0,0,.2713.1937l2.7912-1.503a.1873.1873,0,0,1,.1742-.0022l2.7893,1.43A.1893.1893,0,0,0,190.7814,211.35Zm12.8278,0-.5308-3.1a.1892.1892,0,0,1,.054-.1662l2.2589-2.2294a.1856.1856,0,0,0-.1034-.3176l-3.1193-.4126a.1837.1837,0,0,1-.1406-.1005l-1.3932-2.8083a.187.187,0,0,0-.3354.0044l-1.3973,2.8443a.19.19,0,0,1-.1407.1042l-3.12.4938a.1884.1884,0,0,0-.1039.32l2.2558,2.1707a.185.185,0,0,1,.0536.1648l-.5351,3.1135a.1848.1848,0,0,0,.2712.1937l2.7913-1.503a.1871.1871,0,0,1,.1741-.0022l2.7893,1.43A.1893.1893,0,0,0,203.6092,211.35Z" transform="translate(-4.4336 -72.5045)" style="fill:url(#a62864bb-3e62-4403-a1a1-6b6726fde730)"/><path d="M244.4967,185.6914H220.3011a6.7514,6.7514,0,0,1-6.77-6.8639h0a6.9789,6.9789,0,0,1,6.958-6.8641h24.1955a6.7517,6.7517,0,0,1,6.77,6.8641h0A6.9788,6.9788,0,0,1,244.4967,185.6914Z" transform="translate(-4.4336 -72.5045)" style="fill:#6c98e3"/></svg>
