<svg xmlns="http://www.w3.org/2000/svg" xmlns:xlink="http://www.w3.org/1999/xlink" viewBox="0 0 496.2672 495.3038"><defs><linearGradient id="b5da4d14-3823-4aed-908a-8aa5e797cce5" x1="419.9568" y1="404.425" x2="465.734" y2="404.425" gradientUnits="userSpaceOnUse"><stop offset="0.3787" stop-color="#57d9a3"/><stop offset="1" stop-color="#36b37e"/></linearGradient><linearGradient id="af458b6b-d0a8-4da4-8c62-4e95057e2ab0" x1="389.1663" y1="425.8311" x2="422.7293" y2="425.8311" xlink:href="#b5da4d14-3823-4aed-908a-8aa5e797cce5"/><linearGradient id="bfbeb78a-47e0-4dab-8124-77089c95f53a" x1="365.1515" y1="447.7469" x2="384.906" y2="447.7469" xlink:href="#b5da4d14-3823-4aed-908a-8aa5e797cce5"/><linearGradient id="afa5bb99-bf8e-49ce-84aa-e7dea1828aba" x1="95.891" y1="19.042" x2="93.8929" y2="-7.8336" gradientTransform="matrix(1, 0, 0, -1, -2, 500.8697)" gradientUnits="userSpaceOnUse"><stop offset="0.21" stop-color="#e5e8ec" stop-opacity="0.3"/><stop offset="0.79" stop-color="#cfd4db" stop-opacity="0.8"/></linearGradient><linearGradient id="a9142cd7-97af-4949-9406-b40c20f5ad5d" x1="419.4219" y1="31.176" x2="416.1138" y2="-13.3198" xlink:href="#afa5bb99-bf8e-49ce-84aa-e7dea1828aba"/><radialGradient id="b8eefe54-682c-46e5-b2f4-fb5e0fdceb8c" cx="56.6991" cy="457.8677" r="41.3009" gradientTransform="matrix(1, 0, 0, -1, -2, 500.8697)" gradientUnits="userSpaceOnUse"><stop offset="0.3255" stop-color="#ffe380" stop-opacity="0"/><stop offset="0.6281" stop-color="#ffe482" stop-opacity="0.1795"/><stop offset="0.7685" stop-color="#ffe58a" stop-opacity="0.2627"/><stop offset="0.8754" stop-color="#ffe996" stop-opacity="0.3261"/><stop offset="0.9648" stop-color="#ffeea8" stop-opacity="0.3791"/><stop offset="1" stop-color="#fff0b2" stop-opacity="0.4"/></radialGradient><radialGradient id="af6d637a-93ac-4197-8e7f-a408938f5f52" cx="56.6991" cy="457.8677" r="28.8023" gradientTransform="matrix(1, 0, 0, -1, -2, 500.8697)" gradientUnits="userSpaceOnUse"><stop offset="0.3255" stop-color="#ffe380" stop-opacity="0"/><stop offset="0.6281" stop-color="#ffe482" stop-opacity="0.3141"/><stop offset="0.7685" stop-color="#ffe58a" stop-opacity="0.4598"/><stop offset="0.8754" stop-color="#ffe996" stop-opacity="0.5707"/><stop offset="0.9648" stop-color="#ffeea8" stop-opacity="0.6635"/><stop offset="1" stop-color="#fff0b2" stop-opacity="0.7"/></radialGradient><radialGradient id="bb77394e-8134-47ef-b965-0a092890bb67" cx="56.6991" cy="457.8677" r="15.7241" gradientTransform="matrix(1, 0, 0, -1, -2, 500.8697)" gradientUnits="userSpaceOnUse"><stop offset="0.3255" stop-color="#ffe380" stop-opacity="0"/><stop offset="0.4292" stop-color="#ffe27b" stop-opacity="0.0615"/><stop offset="0.5534" stop-color="#ffde6c" stop-opacity="0.1351"/><stop offset="0.6881" stop-color="#ffd854" stop-opacity="0.215"/><stop offset="0.8303" stop-color="#ffd032" stop-opacity="0.2993"/><stop offset="0.9769" stop-color="#ffc607" stop-opacity="0.3863"/><stop offset="1" stop-color="#ffc400" stop-opacity="0.4"/></radialGradient><radialGradient id="f5208af1-cc56-4749-adcb-f5463ca6a91b" cx="145.9756" cy="356.5411" r="143.9756" xlink:href="#b8eefe54-682c-46e5-b2f4-fb5e0fdceb8c"/><radialGradient id="a825c8a5-c7bd-402c-8adc-9fcc66dda24b" cx="456.9663" cy="459.5688" r="41.3009" xlink:href="#b8eefe54-682c-46e5-b2f4-fb5e0fdceb8c"/><radialGradient id="f73ea328-855d-406d-8a9d-958bc2b37923" cx="456.9663" cy="459.5688" r="28.8023" xlink:href="#af6d637a-93ac-4197-8e7f-a408938f5f52"/><radialGradient id="b9746914-d980-4ad3-9697-c4c304fd4948" cx="456.9663" cy="459.5688" r="15.7241" xlink:href="#bb77394e-8134-47ef-b965-0a092890bb67"/><linearGradient id="a7e97fec-b959-4b6a-8c2a-a7601e5422e0" x1="53" y1="221" x2="493" y2="221" gradientUnits="userSpaceOnUse"><stop offset="0" stop-color="#b2d4ff"/><stop offset="1" stop-color="#deebff"/></linearGradient><linearGradient id="bd89330c-4b56-401c-a488-5fff3cfa3607" x1="221.0714" y1="312.7248" x2="466.0235" y2="312.7248" gradientUnits="userSpaceOnUse"><stop offset="0" stop-color="#deebff"/><stop offset="0.74" stop-color="#fff"/></linearGradient><linearGradient id="e973df8a-402f-4d17-a9df-17eed382a206" x1="244.0007" y1="317.3121" x2="444.3642" y2="317.3121" gradientUnits="userSpaceOnUse"><stop offset="0" stop-color="#ffab00"/><stop offset="1" stop-color="#ffe380"/></linearGradient><linearGradient id="f33e31e2-ec13-467a-9621-2afc90a512c5" x1="78.3101" y1="358.1217" x2="190.4135" y2="358.1217" xlink:href="#bd89330c-4b56-401c-a488-5fff3cfa3607"/><linearGradient id="a11bfc30-c1bc-4e96-9318-f6bbfe9d3a3e" x1="11.3178" y1="326.5427" x2="174.0525" y2="326.5427" gradientUnits="userSpaceOnUse"><stop offset="0" stop-color="#0049b0"/><stop offset="0.99" stop-color="#0049b0"/><stop offset="1" stop-color="#0049b0"/></linearGradient><linearGradient id="eff4cadb-c7b1-4b9b-84d7-9b4d36adb85c" x1="80.2917" y1="152.3295" x2="193.3324" y2="152.3295" xlink:href="#bd89330c-4b56-401c-a488-5fff3cfa3607"/><linearGradient id="e34bb7ed-14b2-4a98-b67f-99d3b333f35d" x1="1067.9457" y1="552.0946" x2="1076.3579" y2="552.0946" gradientTransform="matrix(-0.9529, -0.1939, -0.1883, 0.981, 1205.921, 54.6366)" gradientUnits="userSpaceOnUse"><stop offset="0.0249" stop-color="#023f32"/><stop offset="0.0264" stop-color="#023f32"/><stop offset="0.136" stop-color="#0c5847"/><stop offset="0.2577" stop-color="#146c58"/><stop offset="0.3986" stop-color="#1a7a63"/><stop offset="0.5739" stop-color="#1d826a"/><stop offset="0.8903" stop-color="#1e846c"/></linearGradient><linearGradient id="a3130c51-a376-43fe-ad08-942867abeaf5" x1="225.0698" y1="143.3697" x2="462.0251" y2="143.3697" xlink:href="#bd89330c-4b56-401c-a488-5fff3cfa3607"/><clipPath id="ff537992-77f8-44f2-b6b8-0b7f163e13b3" transform="translate(-2 -1.1303)"><path d="M474.72,411.0948c-11.8472-19.0239,3.8572-19.7033,0-30.3476-3.8692-10.6775-13.7758-9.2855-12.1227-18.7974,2.0982-12.0735-2.7551-15.95-9.3675-15.95s-14.4629,6.3441-11.0206,17.3086c2.2041,7.0207-1.3776,8.8325-6.3369,14.7209s-3.5817,14.4944,0,18.7974c4.6257,5.5572,3.9084,8.9995-.8265,14.4943-4.6838,5.4354-5.51,16.7592,3.3061,20.3827s.9157,18.1452,6.3369,24.9122c7.4389,9.2855,17.9085,9.2855,21.7657-7.4736,2.5838-11.2261-1.3776-11.55,3.5817-17.4386S480.8958,421.012,474.72,411.0948Zm-34.715-16.5327c-5.3373-2.703,3.8942-11.1743,5.4453-11.4295,0,0,4.623-2.8826,8.5017-.2049s-1.2089,6.963-5.0252,8.5192S445.342,397.2651,440.0049,394.5621Zm17.633-33.9712c-2.48,0-1.6531,4.3031-5.2348,3.3972s-.99-8.1266,1.9286-7.9267C457.6379,356.2879,460.1176,360.5909,457.6379,360.5909Zm2.9414,56.7842c-2.2554-3.9707,2.85-8.3053,7.5153-6.1848a4.5477,4.5477,0,0,1,2.4926,2.6222c1.9286,5.2089,5.51,8.153.8265,8.606C468.1221,422.7368,462.7889,421.2654,460.5793,417.3751Z" style="fill:url(#b5da4d14-3823-4aed-908a-8aa5e797cce5)"/></clipPath><linearGradient id="ad7c0cfd-7c10-4005-ae92-2144f74fb0b4" x1="446.8342" y1="465.084" x2="446.8342" y2="348.4093" xlink:href="#b5da4d14-3823-4aed-908a-8aa5e797cce5"/><clipPath id="b535a06e-4b0d-43fe-98f2-1c23dcf7a0fe" transform="translate(-2 -1.1303)"><path d="M429.3176,430.7212c-8.6861-13.9479,2.828-14.446,0-22.25-2.8369-7.8285-10.1-6.8079-8.8881-13.7819,1.5383-8.852-2.02-11.694-6.8681-11.694s-10.604,4.6513-8.08,12.69c1.6161,5.1475-1.01,6.4759-4.646,10.7931s-2.6261,10.627,0,13.7819c3.3914,4.0744,2.8655,6.5983-.606,10.627-3.4341,3.9851-4.04,12.2875,2.424,14.9442s.6714,13.3037,4.6461,18.2652c5.454,6.8079,13.13,6.8079,15.9582-5.48,1.8944-8.2307-1.01-8.4684,2.626-12.7856S433.8457,437.9924,429.3176,430.7212ZM403.8652,418.6c-3.9132-1.9818,2.8551-8.1928,3.9924-8.38,0,0,3.3894-2.1135,6.2332-.15s-.8863,5.1052-3.6843,6.2462S407.7783,420.5816,403.8652,418.6Zm12.9282-24.907c-1.818,0-1.212,3.1549-3.8381,2.4907s-.7259-5.9583,1.4141-5.8117C416.7934,390.5379,418.6114,393.6928,416.7934,393.6928Zm2.1566,41.6331c-1.6537-2.9112,2.0894-6.0893,5.51-4.5346a3.3341,3.3341,0,0,1,1.8274,1.9225c1.4141,3.8191,4.04,5.9777.606,6.31C424.48,439.257,420.57,438.1781,418.95,435.3259Z" style="fill:url(#af458b6b-d0a8-4da4-8c62-4e95057e2ab0)"/></clipPath><linearGradient id="b790e31d-0317-4e44-964d-cf4e4197100b" x1="408.8723" y1="470.3052" x2="408.8723" y2="384.7614" xlink:href="#b5da4d14-3823-4aed-908a-8aa5e797cce5"/><clipPath id="eac67548-de4c-4177-af8b-db84b1016646" transform="translate(-2 -1.1303)"><path d="M388.7838,450.6252c-5.1125-8.2095,1.6645-8.5027,0-13.0961-1.67-4.6077-5.9448-4.007-5.2314-8.1118.9055-5.21-1.189-6.8829-4.0424-6.8829s-6.2413,2.7377-4.7558,7.4693c.9511,3.03-.5945,3.8116-2.7346,6.3526a6.6231,6.6231,0,0,0,0,8.1118c1.9961,2.3981,1.6866,3.8836-.3567,6.2548-2.0212,2.3456-2.3779,7.2322,1.4267,8.7959s.3952,7.83,2.7346,10.7506c3.21,4.007,7.7282,4.007,9.3927-3.2252,1.115-4.8445-.5944-4.9843,1.5457-7.5254S391.4489,454.9049,388.7838,450.6252Zm-14.9808-7.1344c-2.3032-1.1665,1.68-4.8222,2.35-4.9323,0,0,1.995-1.2439,3.6688-.0884s-.5216,3.0048-2.1685,3.6763S376.1061,444.6572,373.803,443.4908Zm7.6093-14.66c-1.07,0-.7134,1.8569-2.259,1.4659s-.4273-3.5069.8322-3.4206C381.4123,426.974,382.4823,428.831,381.4123,428.831Zm1.2693,24.5044c-.9733-1.7135,1.23-3.584,3.2431-2.6689A1.9622,1.9622,0,0,1,387,451.798c.8322,2.2478,2.3779,3.5183.3566,3.7138A5.1441,5.1441,0,0,1,382.6816,453.3354Z" style="fill:url(#bfbeb78a-47e0-4dab-8124-77089c95f53a)"/></clipPath><linearGradient id="e874fc37-debc-48a5-aff5-cacc3af3d118" x1="376.7501" y1="473.9235" x2="376.7501" y2="423.5741" xlink:href="#b5da4d14-3823-4aed-908a-8aa5e797cce5"/></defs><g style="isolation:isolate"><g id="ae63437e-8b79-4f52-ac82-094cfddb462c" data-name="Layer 2"><ellipse cx="93.5" cy="487.0868" rx="62.5" ry="8.2171" style="fill:url(#afa5bb99-bf8e-49ce-84aa-e7dea1828aba)"/><ellipse cx="416.7746" cy="478.4007" rx="73.6895" ry="14.6356" style="fill:url(#a9142cd7-97af-4949-9406-b40c20f5ad5d)"/><circle cx="54.6991" cy="43.002" r="41.3009" style="fill:url(#b8eefe54-682c-46e5-b2f4-fb5e0fdceb8c)"/><circle cx="54.6991" cy="43.002" r="28.8023" style="fill:url(#af6d637a-93ac-4197-8e7f-a408938f5f52)"/><circle cx="54.6991" cy="43.002" r="15.7241" style="fill:url(#bb77394e-8134-47ef-b965-0a092890bb67)"/><circle cx="143.9756" cy="144.3286" r="143.9756" style="fill:url(#f5208af1-cc56-4749-adcb-f5463ca6a91b)"/><circle cx="454.9663" cy="41.3009" r="41.3009" style="fill:url(#a825c8a5-c7bd-402c-8adc-9fcc66dda24b)"/><circle cx="454.9663" cy="41.3009" r="28.8023" style="fill:url(#f73ea328-855d-406d-8a9d-958bc2b37923)"/><circle cx="454.9663" cy="41.3009" r="15.7241" style="fill:url(#b9746914-d980-4ad3-9697-c4c304fd4948)"/></g><g id="bb986620-047e-47eb-af80-30774ed0273d" data-name="Layer 1"><path d="M493,46.7234V395.2766c0,4.2654-2.8507,7.7234-6.367,7.7234H59.367C55.8507,403,53,399.542,53,395.2766V46.7234C53,42.4578,55.8507,39,59.367,39H486.633C490.1493,39,493,42.4578,493,46.7234Z" transform="translate(-2 -1.1303)" style="fill:url(#a7e97fec-b959-4b6a-8c2a-a7601e5422e0)"/><rect x="221.0714" y="249.0175" width="244.9521" height="127.4146" rx="4.1803" style="fill:url(#bd89330c-4b56-401c-a488-5fff3cfa3607)"/><line x1="451.3724" y1="267.2901" x2="235.7225" y2="267.2901" style="fill:none;stroke:#4c9aff;stroke-miterlimit:10;opacity:0.2;mix-blend-mode:multiply"/><line x1="451.3724" y1="286.3528" x2="235.7225" y2="286.3528" style="fill:none;stroke:#4c9aff;stroke-miterlimit:10;opacity:0.2;mix-blend-mode:multiply"/><line x1="451.3724" y1="305.4157" x2="235.7225" y2="305.4157" style="fill:none;stroke:#4c9aff;stroke-miterlimit:10;opacity:0.2;mix-blend-mode:multiply"/><line x1="451.3724" y1="324.4784" x2="235.7225" y2="324.4784" style="fill:none;stroke:#4c9aff;stroke-miterlimit:10;opacity:0.2;mix-blend-mode:multiply"/><line x1="451.3724" y1="343.5412" x2="235.7225" y2="343.5412" style="fill:none;stroke:#4c9aff;stroke-miterlimit:10;opacity:0.2;mix-blend-mode:multiply"/><line x1="451.3724" y1="362.6039" x2="235.7225" y2="362.6039" style="fill:none;stroke:#4c9aff;stroke-miterlimit:10;opacity:0.2;mix-blend-mode:multiply"/><path d="M444.2477,344.5352c-9.49,0-6.0738-29.99-14.0458-29.99s-5.3146,17.2724-15.3744,17.2724-3.9859-45.9334-14.4253-45.9334-6.4535,27.7119-16.5133,27.7119-10.06-40.6189-14.9947-40.6189-4.5555,31.8877-9.3007,31.8877-3.7961-19.93-8.7311-19.93-4.3655,37.5819-11.0088,37.5819-3.037-17.2726-9.3006-17.2726-3.2268,18.0318-11.0088,18.0318S315.3684,270.89,307.0169,270.89s-7.7822,54.8544-16.3234,54.8544-7.2128-23.3464-16.1337-23.3464S269.435,350.04,260.3242,350.04s-9.3006-31.1284-16.3235-31.1284v44.8234H444.3642Z" transform="translate(-2 -1.1303)" style="fill:url(#e973df8a-402f-4d17-a9df-17eed382a206)"/><path d="M244.0007,318.9111c7.0229,0,7.2128,31.1284,16.3235,31.1284s5.3146-47.6417,14.2356-47.6417,7.5922,23.3464,16.1337,23.3464,7.9718-54.8544,16.3234-54.8544,4.7452,52.3869,12.5273,52.3869,4.7451-18.0318,11.0088-18.0318,2.6573,17.2726,9.3006,17.2726,6.0739-37.5819,11.0088-37.5819,3.9859,19.93,8.7311,19.93,4.3656-31.8877,9.3007-31.8877,4.9349,40.6189,14.9947,40.6189,6.0739-27.7119,16.5133-27.7119,4.3656,45.9334,14.4253,45.9334,7.4026-17.2724,15.3744-17.2724,4.5555,29.99,14.0458,29.99" transform="translate(-2 -1.1303)" style="fill:none;stroke:#f39000;stroke-miterlimit:10"/><rect x="78.3101" y="339.8697" width="112.1034" height="36.5041" rx="1.9274" style="fill:url(#f33e31e2-ec13-467a-9621-2afc90a512c5)"/><rect x="11.3178" y="282.5603" width="162.7348" height="87.9648" rx="3.6048" style="opacity:0.2;fill:url(#a11bfc30-c1bc-4e96-9318-f6bbfe9d3a3e)"/><rect x="5" y="290.0028" width="162.7348" height="87.9648" rx="3.6048" style="fill:#4c9aff"/><rect x="77.8966" y="264.0942" width="112.1034" height="55.7754" rx="2.3824" style="fill:#4c9aff;opacity:0.5"/><rect x="124.9716" y="296.7199" width="24.9757" height="10.3673" rx="1.1563" style="fill:#b2d4ff"/><path d="M23.9607,335.0258a13.0871,13.0871,0,0,0,4.0247,9.4668l-8.7386,8.7387a25.5177,25.5177,0,0,1,17.88-43.7258v12.3538A13.17,13.17,0,0,0,23.9607,335.0258Z" transform="translate(-2 -1.1303)" style="fill:#384363"/><path d="M62.6474,335.0258H50.2937a13.17,13.17,0,0,0-13.1666-13.1665V309.5055A25.5179,25.5179,0,0,1,62.6474,335.0258Z" transform="translate(-2 -1.1303)" style="fill:#b1b4c0"/><path d="M62.6474,335.0258a25.5176,25.5176,0,0,1-43.4006,18.2055l8.7386-8.7387a13.16,13.16,0,0,0,22.3083-9.4668Z" transform="translate(-2 -1.1303)" style="fill:#ebeced"/><g style="opacity:0.5"><rect x="70.7791" y="315.7527" width="79.1682" height="3.2987" rx="0.5" style="fill:#b2d4ff"/><rect x="72.7791" y="327.8787" width="79.1682" height="3.2987" rx="0.5" transform="translate(222.7264 657.9257) rotate(180)" style="fill:#b2d4ff"/><rect x="72.7791" y="338.8742" width="79.1682" height="3.2987" rx="0.5" transform="translate(222.7264 679.9167) rotate(180)" style="fill:#b2d4ff"/><rect x="72.7791" y="349.8699" width="79.1682" height="3.2987" rx="0.5" transform="translate(222.7264 701.9081) rotate(180)" style="fill:#b2d4ff"/></g><path d="M84.0677,65.255H189.5564a3.776,3.776,0,0,1,3.776,3.776V235.6281a3.7759,3.7759,0,0,1-3.7759,3.7759H84.0677a3.776,3.776,0,0,1-3.776-3.776V69.0309A3.776,3.776,0,0,1,84.0677,65.255Z" style="fill:url(#eff4cadb-c7b1-4b9b-84d7-9b4d36adb85c)"/><rect x="111.5876" y="84.8888" width="72.0522" height="3.1569" style="fill:#b2d4ff"/><rect x="111.5876" y="93.0597" width="55.5403" height="3.1569" style="fill:#b2d4ff"/><rect x="89.9843" y="84.8888" width="15.8459" height="11.5753" style="fill:#2684ff"/><rect x="111.5876" y="115.7152" width="72.0522" height="3.157" style="fill:#b2d4ff"/><rect x="111.5876" y="123.8862" width="55.5403" height="3.1569" style="fill:#b2d4ff"/><rect x="89.9843" y="115.7152" width="15.8459" height="11.5755" style="fill:#00c7e5"/><rect x="111.5876" y="146.5417" width="72.0522" height="3.157" style="fill:#b2d4ff"/><rect x="111.5876" y="154.7126" width="55.5403" height="3.157" style="fill:#b2d4ff"/><rect x="89.9843" y="146.5417" width="15.8459" height="11.5755" style="fill:#00c7e5"/><rect x="111.5876" y="177.3682" width="72.0522" height="3.1569" style="fill:#b2d4ff"/><rect x="111.5876" y="185.5391" width="55.5403" height="3.157" style="fill:#b2d4ff"/><rect x="89.9843" y="177.3682" width="15.8459" height="11.5753" style="fill:#2684ff"/><rect x="111.5876" y="208.1948" width="72.0522" height="3.1569" style="fill:#b2d4ff"/><rect x="111.5876" y="216.3656" width="55.5403" height="3.1569" style="fill:#b2d4ff"/><rect x="89.9843" y="208.1948" width="15.8459" height="11.5753" style="fill:#2684ff"/><path d="M71.0335,408.4059s-1.0958.6192-1.3283.4534.8216-1.18.1242-.9825,1.4153-1.7433,1.4153-1.7433a2.3738,2.3738,0,0,1-1.0776.1158c-.6383-.0682,1.9362-.9881,2.1458-1.1a17.1519,17.1519,0,0,0,1.3705-1.5714c1.7.646,1.1489,1.1966,1.1489,1.1966s-.97,1.1061-1.4107,1.713c-.2939.405-2.2035,2.8367-2.5141,2.82S71.0335,408.4059,71.0335,408.4059Z" transform="translate(-2 -1.1303)" style="fill:#e5b9b6"/><path d="M62.7911,333.56s.2249-1.488.4544-1.5582.269,1.7064.5326.922.2868,2.7008.2868,2.7008a3.1281,3.1281,0,0,1,.5227-1.0558c.3934-.5126-.4622,2.5413-.509,2.8209s.2062,2.519.2062,2.519c-1.3314.9812-1.3649.0357-1.3649.0357s-.1419-1.7781-.27-2.6718a28.887,28.887,0,0,1-.34-4.5692C62.4905,332.4405,62.7911,333.56,62.7911,333.56Z" transform="translate(-2 -1.1303)" style="fill:#e5b9b6"/><path d="M73.39,403.8982s6.4967-11.8883,6.4329-14.32-2.545-13.807-2.6126-17.88,4.7864-2.4637,4.7864-2.4637c7.09,2.1017,3.8721,17.0675,3.5364,20.0338s-11.2012,16.1171-11.2012,16.1171C74.3265,403.7448,73.39,403.8982,73.39,403.8982Z" transform="translate(-2 -1.1303)" style="fill:#e5b9b6"/><path d="M75.2338,487.94a2.5661,2.5661,0,0,0,.5909-.12l.0023.0007c.7451.3526,2.7471-.1132,4.2149-.8241a3.9875,3.9875,0,0,0,1.4767-1.3446A18.3386,18.3386,0,0,1,80.8015,491l-.6667-.1956s.0367-2.1778-.5415-1.5855-1.1383,1.0927-1.1383,1.0927l-4.68-1.3724S73.9293,488.0342,75.2338,487.94Z" transform="translate(-2 -1.1303)" style="fill:#243145"/><path d="M79.1882,485.2272a17.057,17.057,0,0,0,.92-2.8607l1.24.3555s.1012,1.2738.0757,2.927l-.0005.0027a3.9886,3.9886,0,0,1-1.4768,1.3446c-1.4678.7109-3.47,1.1767-4.2149.8241A6.7552,6.7552,0,0,0,79.1882,485.2272Z" transform="translate(-2 -1.1303)" style="fill:#e5b9b6"/><path d="M87.7831,490.1842l-.6834-.0625s-.245-2.1574-.7392-1.4595-.9828,1.3018-.9828,1.3018l-4.7976-.4391s.0354-.9237,1.311-1.2717a2.7115,2.7115,0,0,0,.5681-.2348l.0022,0c.7812.2023,2.6977-.6494,4.055-1.6385a4.3985,4.3985,0,0,0,1.2844-1.6165A18.5941,18.5941,0,0,1,87.7831,490.1842Z" transform="translate(-2 -1.1303)" style="fill:#243145"/><path d="M87.8009,484.7608l0,.0028a4.3985,4.3985,0,0,1-1.2844,1.6165c-1.3573.9891-3.2738,1.8408-4.055,1.6385a7.4367,7.4367,0,0,0,3.0776-3.2366,8.1118,8.1118,0,0,0,.0483-3.0462l1.761.15S87.6127,483.1237,87.8009,484.7608Z" transform="translate(-2 -1.1303)" style="fill:#e5b9b6"/><path d="M83.4677,369.6531a6.2185,6.2185,0,0,1,.9533,1.1423c1.8027,2.79.8956,6.51-.4555,9.6536-1.474,3.4293-3.5295,8.1509-3.0422,12.19.3594,2.9777,1.1026,3.9076,1.1026,3.9076s-4.2579,2.6926-6.6822.0524a97.1834,97.1834,0,0,1-1.9671-13.088c-.1706-4.875-.3862-4.9364-1.034-6.6615-1.0111-2.6962,1.5943-5.6578,3.2088-6.9737C77.9548,367.9162,81.0673,367.3787,83.4677,369.6531Z" transform="translate(-2 -1.1303)" style="fill:#279c83"/><path d="M64.2283,339.3189s3.5722,15.6494,5.08,17.6183,9.7764,9.248,12.2794,12.58-1.1785,6.2866-1.1785,6.2866c-5.2263,4.5224-12.49-10.7894-14.098-13.557s-3.508-23.3334-3.508-23.3334C63.7989,340.2752,64.2283,339.3189,64.2283,339.3189Z" transform="translate(-2 -1.1303)" style="fill:#fde7de"/><path d="M82.823,396.5461a30.5629,30.5629,0,0,1,10.2833,14.9978c2.8551,9.6861-1.4457,25.5112-2.9443,30.8363s.414,12.03-.8531,19.6807S81.56,484.7114,81.56,484.7114a1.5042,1.5042,0,0,1-1.8485-1.0389s2.3385-18.8992,1.8153-30.1389a311.9149,311.9149,0,0,0-4.9844-39.0545,47.505,47.505,0,0,1-.4018-17.8806S78.0078,398.2073,82.823,396.5461Z" transform="translate(-2 -1.1303)" style="fill:#313d63"/><path d="M82.2754,396.7008a24.7386,24.7386,0,0,1,9.23,12.9634c2.906,9.0487.42,25.4346-.4578,30.9576s1.0823,11.7985.5358,19.5748S86.74,483.9342,86.74,483.9342s-1.0117.6292-1.5561-.6949c0,0,.7114-19.0689-.41-30.0676a352.7017,352.7017,0,0,0-6.4507-37.6511,56.813,56.813,0,0,1-1.4363-17.5741S78.4936,399.2006,82.2754,396.7008Z" transform="translate(-2 -1.1303)" style="fill:#313d63"/><path d="M80.2582,365.156c-.24-2.9438,4.0572-1.1343,4.0572-1.1343s-.9589,4.15-.3274,6.1372a8.9451,8.9451,0,0,0-2.8762-1.2759l-1.446-1.6494S80.4988,368.1,80.2582,365.156Z" transform="translate(-2 -1.1303)" style="fill:#fde7de"/><path d="M89.7892,360.42a7.5452,7.5452,0,0,1-7.0138,4.2759,10.04,10.04,0,0,1-1.66-.1614c-3.2859-.6275-2.9787-1.8153-2.9787-1.8153a29.5727,29.5727,0,0,1,.1895-6.06c.0411-.3308-.936-.714-.7484-.9834,3.4866-5.0109,3.0523-6.6454,3.3283-8.3075l9.7814,1.1871,1.8666,2.7941.5858,3.0046-1.9435,4.0688Z" transform="translate(-2 -1.1303)" style="fill:#fde7de"/><path d="M84.9327,339.1412s-3.4536-2.9863-5.8856-1.4459-3.6954,4.0336-2.1578,7.6015,5.5588,5.6265,7.2175,5.6843,3.5377-1.2743,3.6694-.477.2381,2.5189.8874,3.1544c0,0,2.2844-.8737,2.4194,1.3589s-2.6338,3.559-2.6338,3.559l-.6569,4.4011s9.8635-5.4511,9.9083-18.7238l-2.6084-4.3213A9.3579,9.3579,0,0,0,84.9327,339.1412Z" transform="translate(-2 -1.1303)" style="fill:#1e274f"/><path d="M98.6834,343.7s-.2448.7756-.9172.7583c-.7069-.0183-2.6743-4.5256-2.6743-4.5256s.488-1.693,1.4236-.5638C96.5155,339.37,99.1421,343.2837,98.6834,343.7Z" transform="translate(-2 -1.1303)" style="fill:#171f40"/><ellipse cx="79.0184" cy="351.7521" rx="0.4344" ry="0.5349" style="fill:#212b54"/><path d="M81.5915,351.3087a2.43,2.43,0,0,1,.7507,1.7471" transform="translate(-2 -1.1303)" style="fill:#1e274f"/><ellipse cx="80.9662" cy="352.8058" rx="3.2947" ry="2.5401" transform="translate(-275.4804 425.1264) rotate(-88.7824)" style="fill:none;stroke:#313d63;stroke-miterlimit:10"/><path d="M88.9171,353.2339c-.1114-.0146-5.528-.4308-5.528-.4308" transform="translate(-2 -1.1303)" style="fill:none;stroke:#313d63;stroke-miterlimit:10"/><path d="M78.6792,359.0057a5.0253,5.0253,0,0,0,3.154-.0719s-1.7929,3.2358-2.9621,1.7631Z" transform="translate(-2 -1.1303)" style="fill:#e5b9b6"/><path d="M84.0961,364.7249a7.7949,7.7949,0,0,1-3.2205-.4727s2.3842,2.4558,2.75,3.7372Z" transform="translate(-2 -1.1303)" style="fill:#e5b9b6"/><path d="M81.1859,378.6748s-6.3267,6.1212-6.0007,18.6081l7.5673-.1683s-3.76-8.4366.5018-15.4133Z" transform="translate(-2 -1.1303)" style="fill:url(#e34bb7ed-14b2-4a98-b67f-99d3b333f35d)"/><path d="M229.53,64.87H457.565a4.46,4.46,0,0,1,4.46,4.46V217.41a4.46,4.46,0,0,1-4.46,4.46H229.53a4.46,4.46,0,0,1-4.46-4.46V69.33A4.46,4.46,0,0,1,229.53,64.87Z" style="fill:url(#a3130c51-a376-43fe-ad08-942867abeaf5)"/><path d="M377.3909,86.2936h-2.5527a3.8975,3.8975,0,0,0-6.4236,0H365.862v1.29h-5.4809v26.2931h22.415V87.5833h-5.4052Zm-5.7645-.6062a2.8193,2.8193,0,0,1,1.7095.6062H369.917A2.8188,2.8188,0,0,1,371.6264,85.6874Zm-4.681,1.69h9.3621v2.664h-9.3621Zm14.7673,1.29V112.793H361.4645V88.6667h4.3975v2.4577h11.5289V88.6667Z" transform="translate(-2 -1.1303)" style="fill:#4c9aff"/><path d="M362.7224,97.9632h4.0653V93.8974h-4.0653Zm1.0834-2.9824h1.8985V96.88h-1.8985Z" transform="translate(-2 -1.1303)" style="fill:#4c9aff"/><rect x="366.7339" y="94.2578" width="11.2549" height="1.0834" style="fill:#4c9aff"/><path d="M362.7224,103.3008h4.0653V99.2349h-4.0653Zm1.0834-2.9825h1.8985v1.8991h-1.8985Z" transform="translate(-2 -1.1303)" style="fill:#4c9aff"/><rect x="366.7339" y="99.5964" width="11.2549" height="1.0834" style="fill:#4c9aff"/><path d="M362.7224,108.7081h4.0653v-4.0658h-4.0653Zm1.0834-2.9824h1.8985v1.8991h-1.8985Z" transform="translate(-2 -1.1303)" style="fill:#4c9aff"/><rect x="366.7339" y="105.0027" width="11.2549" height="1.0834" style="fill:#4c9aff"/><path d="M277.2705,133.5791h-26.254v16.597h2.7442v2.12h26.2582V135.7041h-2.7484Zm-25.1928,15.5357V134.64h24.1316v1.0638H253.7607v13.4107Zm26.88,2.12H254.8219V136.7653h24.1358Z" transform="translate(-2 -1.1303)" style="fill:#4c9aff"/><path d="M266.1237,146.8934a4.0145,4.0145,0,0,1-1.9856-.56l-.3431,1.1965a4.2538,4.2538,0,0,0,2.0613.56v1.2343h1.0446v-1.311a2.32,2.32,0,0,0,2.15-2.2654c0-1.1327-.6363-1.82-2.0623-2.3546-1.0809-.4326-1.54-.7254-1.54-1.2472,0-.4327.3182-.8907,1.2094-.8907a3.7808,3.7808,0,0,1,1.7307.4326l.3441-1.171a4.0677,4.0677,0,0,0-1.7566-.42v-1.1841H265.933V140.16a2.2176,2.2176,0,0,0-2.0488,2.1638c0,1.1835.8653,1.7945,2.2022,2.2784.941.3436,1.3866.7125,1.3866,1.2856C267.473,146.4986,266.9258,146.8934,266.1237,146.8934Z" transform="translate(-2 -1.1303)" style="fill:#4c9aff"/><path d="M427.9386,98.9576c-1.3234-.5284-1.8833-.8865-1.8833-1.5246,0-.53.389-1.0894,1.4785-1.0894a4.6374,4.6374,0,0,1,2.1166.5284l.4205-1.4313a4.9751,4.9751,0,0,0-2.1481-.5144V93.4787h-1.2761v1.5258a2.7113,2.7113,0,0,0-2.5061,2.6455c0,1.4476,1.0585,2.1953,2.6927,2.7867,1.1519.42,1.6967.8713,1.6967,1.5724,0,.7465-.67,1.2294-1.65,1.2294a4.9078,4.9078,0,0,1-2.428-.6847l-.4205,1.4628a5.2021,5.2021,0,0,0,2.5219.6847v1.5106H427.83V104.608a2.837,2.837,0,0,0,2.63-2.77C430.46,100.4519,429.6818,99.612,427.9386,98.9576Z" transform="translate(-2 -1.1303)" style="fill:#4c9aff"/><path d="M427.2667,85.6121a14.694,14.694,0,1,0,14.6939,14.6939A14.7106,14.7106,0,0,0,427.2667,85.6121Zm0,28.1934a13.4995,13.4995,0,1,1,13.5-13.4995A13.5149,13.5149,0,0,1,427.2667,113.8055Z" transform="translate(-2 -1.1303)" style="fill:#4c9aff"/><path d="M427.2667,89.7414a10.5647,10.5647,0,1,0,10.5652,10.5646A10.5768,10.5768,0,0,0,427.2667,89.7414Zm0,19.9349a9.37,9.37,0,1,1,9.3708-9.37A9.3816,9.3816,0,0,1,427.2667,109.6763Z" transform="translate(-2 -1.1303)" style="fill:#4c9aff"/><path d="M414.6272,153.7579H439v-4.57H414.6272Zm1.0612-3.5091h22.25v2.4479h-22.25Z" transform="translate(-2 -1.1303)" style="fill:#4c9aff"/><path d="M438.9775,133.11a.5313.5313,0,0,0-.2155-.5959l-11.6557-7.7186a.5277.5277,0,0,0-.5855,0l-11.6557,7.7186a.53.53,0,0,0,.2927.9731h23.3114A.5313.5313,0,0,0,438.9775,133.11Zm-22.0574-.684,9.8934-6.5517,9.8934,6.5517Z" transform="translate(-2 -1.1303)" style="fill:#4c9aff"/><path d="M420.6463,147.8269V134.7535h-4.1127v13.0734Zm-3.0515-12.0122h1.99v10.951h-1.99Z" transform="translate(-2 -1.1303)" style="fill:#4c9aff"/><path d="M437.0292,147.8269V134.7535h-4.1127v13.0734Zm-3.0515-12.0122h1.99v10.951h-1.99Z" transform="translate(-2 -1.1303)" style="fill:#4c9aff"/><path d="M428.838,147.8269V134.7535h-4.1127v13.0734Zm-3.0515-12.0122h1.99v10.951h-1.99Z" transform="translate(-2 -1.1303)" style="fill:#4c9aff"/><path d="M386.3321,138.844c-.002-.871-.9286-1.5677-2.8262-2.1212a1.1536,1.1536,0,0,0,.1454-.5308h.0051v-4.5671c0-2.5777-8.5867-3.258-13.127-3.258s-13.1269.68-13.1269,3.258v4.565a1.5471,1.5471,0,0,0,.7843,1.2286,7.115,7.115,0,0,0,2.04.8936,1.1761,1.1761,0,0,0-.1423.5319h-.0061v4.5649a1.11,1.11,0,0,0,.0824.3886c-1.52.5215-2.29,1.1781-2.2913,1.9552h-.0041v4.566h-.001c0,2.5778,8.5847,3.26,13.1249,3.26,4.5382,0,13.12-.6823,13.1239-3.258h.0062v-4.5681h-.001a1.134,1.134,0,0,0-.0794-.3937c1.376-.4782,2.2872-1.1121,2.2882-1.948h.0062v-4.567Zm-15.8027-9.4165c7.8066,0,12.0664,1.4512,12.0664,2.1974s-4.26,2.1975-12.0664,2.1975-12.0653-1.4512-12.0653-2.1975S362.7229,129.4275,370.5294,129.4275Zm-12.0653,6.7645V133.02a15.1339,15.1339,0,0,0,5.1555,1.412v.0145h.0237v-.0114a53.1171,53.1171,0,0,0,13.7661.0011v.01h.0257l-.001-.0134a15.1717,15.1717,0,0,0,5.1617-1.4131v3.17h-.0051c0,.7462-4.2588,2.1985-12.0643,2.1985C362.726,138.3884,358.4692,136.9382,358.4641,136.192Zm2.4489,8.4826c2.2655,1.5461,8.6074,1.9944,12.2891,1.9944a44.3276,44.3276,0,0,0,9.8153-1.0059.2407.2407,0,0,1,.0392.0907c0,.2144-.8874,1.1389-5.2555,1.7625a48.6662,48.6662,0,0,1-6.8078.437,49.2892,49.2892,0,0,1-6.8315-.437c-4.3434-.6236-5.2319-1.5481-5.2319-1.7625C358.93,145.6218,359.3144,145.1539,360.913,144.6746Zm22.1446,5.6441h-.0052c0,.7452-4.2578,2.1985-12.0633,2.1985-7.7993,0-12.056-1.45-12.0633-2.1964v-3.1653a14.7917,14.7917,0,0,0,5.1082,1.4111l.0474.0061v.0011h.0114a54.4033,54.4033,0,0,0,13.8835-.0072,14.7167,14.7167,0,0,0,5.0813-1.408Zm2.214-6.91h-.0052c0,.7463-4.2588,2.2-12.0643,2.2-7.8,0-12.0572-1.4512-12.0623-2.1974v-3.1653a14.8135,14.8135,0,0,0,5.1122,1.4141c.0134.0021.0289.0031.0433.0052,1.0483.1453,2.1686.2556,3.3313.33s2.3675.1124,3.5817.1124a51.6548,51.6548,0,0,0,6.9582-.4474,14.8444,14.8444,0,0,0,5.1051-1.411Zm-5.2535-2.8a54.2454,54.2454,0,0,1-13.6186,0c-4.363-.6236-5.2546-1.5481-5.2546-1.7614,0-.04.0423-.1289.1784-.2505a47.0156,47.0156,0,0,0,9.2031.8524c3.5775,0,9.6514-.4267,12.0715-1.8676,2.1635.538,2.6737,1.1049,2.6737,1.2657C385.2716,139.06,384.379,139.9849,380.0181,140.6085Z" transform="translate(-2 -1.1303)" style="fill:#4c9aff"/><path d="M323.8537,125.1866l-3.2025,3.23a12.8577,12.8577,0,0,0-6.7629-1.9071,13.0668,13.0668,0,1,0,11.1609,6.2949l3.2483-3.2761-3.7484-.5088Zm-9.9654,26.3665a11.9915,11.9915,0,1,1,0-23.9829,11.8181,11.8181,0,0,1,6.0439,1.6481l.6689,2.88-.9049.905a8.8063,8.8063,0,1,0,.75.75l.8891-.8891,2.9268.6894a11.9861,11.9861,0,0,1-10.3741,17.999Zm2.8167-11.9914a2.82,2.82,0,1,1-1.2368-2.33l-1.9551,1.9551.75.75,1.9551-1.955A2.8,2.8,0,0,1,316.705,139.5617Zm-.487-3.08a3.84,3.84,0,0,0-2.33-.798,3.878,3.878,0,1,0,3.8779,3.878,3.84,3.84,0,0,0-.7979-2.33l2.7284-2.7285a7.7377,7.7377,0,1,1-.75-.75Zm7.7435-4.0884-2.33-.5492-.5472-2.3567,2.0893-2.1079.4694,2.5867,2.4012.3265Z" transform="translate(-2 -1.1303)" style="fill:#4c9aff"/><path d="M327.0962,100.1463a12.8642,12.8642,0,1,0-12.8642,12.8642A12.8788,12.8788,0,0,0,327.0962,100.1463Zm-2.1082,4.87-9.7962-4.4558,9.662-5.5624a11.6818,11.6818,0,0,1,.1342,10.0182Zm-.6326-10.9369L314.3127,99.86l-7.1283-9.1788a11.7639,11.7639,0,0,1,17.171,3.3978Zm-21.9418,6.0669a11.7794,11.7794,0,0,1,3.9611-8.8035l7.6705,9.8778.032-.0184,10.4383,4.7479a11.811,11.811,0,0,1-22.1019-5.8038Z" transform="translate(-2 -1.1303)" style="fill:#4c9aff"/><polygon points="251.768 86.733 250.852 86.733 250.852 112.265 276.401 112.265 276.401 111.349 251.768 111.349 251.768 86.733" style="fill:#4c9aff"/><path d="M259.1011,108.63a1.815,1.815,0,0,0,1.5062-2.8293l4.9969-5.6175a1.7933,1.7933,0,0,0,.8221.2059,1.8127,1.8127,0,0,0,1.7762-2.191l6.0215-3.0109a1.7865,1.7865,0,1,0-.4168-.8154l-6.0209,3.0106a1.8108,1.8108,0,0,0-2.87,2.1966l-5,5.6211a1.7942,1.7942,0,0,0-.8148-.2019,1.8159,1.8159,0,1,0,0,3.6318Zm16.4817-15.5352a.9.9,0,1,1-.9005.9A.9011.9011,0,0,1,275.5828,93.0951Zm-9.1565,4.5782a.9.9,0,1,1-.9005.9A.9011.9011,0,0,1,266.4263,97.6733Zm-7.3252,8.2409a.9.9,0,1,1-.9.9A.9011.9011,0,0,1,259.1011,105.9142Z" transform="translate(-2 -1.1303)" style="fill:#4c9aff"/><path d="M272.1442,178.8841H267.08v18.0422h-.8V174.7416h-5.0647v22.1847h-.7161V183.2811h-5.0647v13.6452h-3.213v.8258h23.1234v-.8258h-3.2Zm-4.2389.8259h3.413v17.2163h-3.413Zm-5.8647-4.1425h3.413v21.3588h-3.413Zm-5.7809,8.5394h3.4131v12.8194H256.26Z" transform="translate(-2 -1.1303)" style="fill:#4c9aff"/><path d="M325.3878,174.2068H302.44a2.956,2.956,0,0,0-2.9528,2.9528v17.8876A2.9559,2.9559,0,0,0,302.44,198h22.9479a2.9558,2.9558,0,0,0,2.9527-2.9528V177.16A2.9559,2.9559,0,0,0,325.3878,174.2068Zm0,22.7312H302.44a1.8932,1.8932,0,0,1-1.8907-1.8908V177.16a1.8931,1.8931,0,0,1,1.8907-1.8907h22.9479a1.8931,1.8931,0,0,1,1.8907,1.8907v5.1313h-3.7317a3.83,3.83,0,0,0-3.8021,3.8125,3.812,3.812,0,0,0,3.8021,3.8126h3.7317v5.1312A1.8932,1.8932,0,0,1,325.3878,196.938Zm1.8907-13.5851v5.501h-3.7317a2.7432,2.7432,0,0,1-1.9291-4.6905,2.7156,2.7156,0,0,1,1.9291-.81Z" transform="translate(-2 -1.1303)" style="fill:#4c9aff"/><path d="M321.3823,186.1034a2.0095,2.0095,0,1,0,2.009-2.01A2.0115,2.0115,0,0,0,321.3823,186.1034Zm2.9569,0a.9475.9475,0,1,1-.9479-.9474A.9488.9488,0,0,1,324.3392,186.1034Z" transform="translate(-2 -1.1303)" style="fill:#4c9aff"/><path d="M362.7334,180.0748a8.2807,8.2807,0,0,1,2.932-1.7194l.2058,1.4878,4.7955-3.73-5.6278-2.2882.2079,1.5031a10.98,10.98,0,0,0-4.252,3.1143,10.4245,10.4245,0,0,0-2.39,5.8237,10.0616,10.0616,0,0,0,1.3145,5.9122,9.7922,9.7922,0,0,0,4.2908,3.936,9.3926,9.3926,0,0,1-3.579-4.29,8.8654,8.8654,0,0,1-.4534-5.3282A8.4318,8.4318,0,0,1,362.7334,180.0748Z" transform="translate(-2 -1.1303)" style="fill:#4c9aff"/><path d="M377.6441,181.2727a9.7817,9.7817,0,0,0-4.5177-3.99,9.3819,9.3819,0,0,1,3.81,4.3507,8.8533,8.8533,0,0,1,.4814,5.5142,8.4866,8.4866,0,0,1-2.7373,4.5239,8.2763,8.2763,0,0,1-2.8741,1.59l-.2086-1.4425-4.7724,3.7592,5.6417,2.2534-.2319-1.6043a10.9634,10.9634,0,0,0,4.1278-2.8664,10.48,10.48,0,0,0,2.6249-5.9648A10.049,10.049,0,0,0,377.6441,181.2727Z" transform="translate(-2 -1.1303)" style="fill:#4c9aff"/><path d="M372.4254,185.8289a3.6224,3.6224,0,1,1-3.6224-3.6224A3.6224,3.6224,0,0,1,372.4254,185.8289Z" transform="translate(-2 -1.1303)" style="fill:#4c9aff"/><rect x="422.1836" y="189.5733" width="6.9164" height="0.9527" style="fill:#4c9aff"/><rect x="422.1836" y="191.0582" width="6.9164" height="0.9527" style="fill:#4c9aff"/><path d="M424.1843,193.6941v1.8485a3.4645,3.4645,0,1,0,6.9211,0v-1.8485Zm5.9689,1.8485a2.5134,2.5134,0,1,1-5.0161,0v-.8962h5.0161Z" transform="translate(-2 -1.1303)" style="fill:#4c9aff"/><path d="M427.6416,175.0239a6.4617,6.4617,0,0,0-6.4493,6.4586,6.2413,6.2413,0,0,0,.5908,2.6822l-.0055.0022,2.4681,5.9341h6.73l2.4931-5.8428.0707-.069v-.1049a6.2435,6.2435,0,0,0,.5522-2.6018A6.4619,6.4619,0,0,0,427.6416,175.0239Zm4.9916,8.75-.0065.0294-2.28,5.3449h-5.4645L422.6576,183.8l-.0011,0-.006-.0266a5.3055,5.3055,0,0,1-.5055-2.2914,5.4969,5.4969,0,1,1,10.9937,0A5.3055,5.3055,0,0,1,432.6332,183.7739Z" transform="translate(-2 -1.1303)" style="fill:#4c9aff"/></g><g id="f5cc074e-bd70-43df-b0aa-74400af71b4a" data-name="Layer 3"><path d="M474.72,411.0948c-11.8472-19.0239,3.8572-19.7033,0-30.3476-3.8692-10.6775-13.7758-9.2855-12.1227-18.7974,2.0982-12.0735-2.7551-15.95-9.3675-15.95s-14.4629,6.3441-11.0206,17.3086c2.2041,7.0207-1.3776,8.8325-6.3369,14.7209s-3.5817,14.4944,0,18.7974c4.6257,5.5572,3.9084,8.9995-.8265,14.4943-4.6838,5.4354-5.51,16.7592,3.3061,20.3827s.9157,18.1452,6.3369,24.9122c7.4389,9.2855,17.9085,9.2855,21.7657-7.4736,2.5838-11.2261-1.3776-11.55,3.5817-17.4386S480.8958,421.012,474.72,411.0948Zm-34.715-16.5327c-5.3373-2.703,3.8942-11.1743,5.4453-11.4295,0,0,4.623-2.8826,8.5017-.2049s-1.2089,6.963-5.0252,8.5192S445.342,397.2651,440.0049,394.5621Zm17.633-33.9712c-2.48,0-1.6531,4.3031-5.2348,3.3972s-.99-8.1266,1.9286-7.9267C457.6379,356.2879,460.1176,360.5909,457.6379,360.5909Zm2.9414,56.7842c-2.2554-3.9707,2.85-8.3053,7.5153-6.1848a4.5477,4.5477,0,0,1,2.4926,2.6222c1.9286,5.2089,5.51,8.153.8265,8.606C468.1221,422.7368,462.7889,421.2654,460.5793,417.3751Z" transform="translate(-2 -1.1303)" style="fill:url(#b5da4d14-3823-4aed-908a-8aa5e797cce5)"/><g style="clip-path:url(#ff537992-77f8-44f2-b6b8-0b7f163e13b3)"><path d="M441.9335,354.7026c.2756-5.8883,31.4454-16.5792,13.7758,18.118-9.9185,19.4768,3.3809,18.9592,9.6431,12.0031,10.194-11.3237,21.5036.4275,3.0306,14.0414-15.98,11.7767-23.4188,18.7974-23.4188,25.1387s4.2714,14.647,12.6737,12.23c11.0206-3.1706,11.5717,34.6506-19.2861,28.0829-15.2216-3.24-23.6943-12.4561-22.8677-41.8978S441.658,360.5909,441.9335,354.7026Z" transform="translate(-2 -1.1303)" style="fill:url(#ad7c0cfd-7c10-4005-ae92-2144f74fb0b4)"/></g><polygon points="454.689 390.137 456.893 480.726 450.28 480.726 452.484 390.137 454.689 390.137" style="fill:#005541"/><path d="M429.3176,430.7212c-8.6861-13.9479,2.828-14.446,0-22.25-2.8369-7.8285-10.1-6.8079-8.8881-13.7819,1.5383-8.852-2.02-11.694-6.8681-11.694s-10.604,4.6513-8.08,12.69c1.6161,5.1475-1.01,6.4759-4.646,10.7931s-2.6261,10.627,0,13.7819c3.3914,4.0744,2.8655,6.5983-.606,10.627-3.4341,3.9851-4.04,12.2875,2.424,14.9442s.6714,13.3037,4.6461,18.2652c5.454,6.8079,13.13,6.8079,15.9582-5.48,1.8944-8.2307-1.01-8.4684,2.626-12.7856S433.8457,437.9924,429.3176,430.7212ZM403.8652,418.6c-3.9132-1.9818,2.8551-8.1928,3.9924-8.38,0,0,3.3894-2.1135,6.2332-.15s-.8863,5.1052-3.6843,6.2462S407.7783,420.5816,403.8652,418.6Zm12.9282-24.907c-1.818,0-1.212,3.1549-3.8381,2.4907s-.7259-5.9583,1.4141-5.8117C416.7934,390.5379,418.6114,393.6928,416.7934,393.6928Zm2.1566,41.6331c-1.6537-2.9112,2.0894-6.0893,5.51-4.5346a3.3341,3.3341,0,0,1,1.8274,1.9225c1.4141,3.8191,4.04,5.9777.606,6.31C424.48,439.257,420.57,438.1781,418.95,435.3259Z" transform="translate(-2 -1.1303)" style="fill:url(#af458b6b-d0a8-4da4-8c62-4e95057e2ab0)"/><g style="clip-path:url(#b535a06e-4b0d-43fe-98f2-1c23dcf7a0fe)"><path d="M405.2792,389.3755c.202-4.3172,23.0552-12.1555,10.1,13.2838-7.2721,14.28,2.4788,13.9006,7.07,8.8005,7.4741-8.3024,15.7661.3134,2.222,10.2949-11.7162,8.6344-17.17,13.7819-17.17,18.4312s3.1317,10.7389,9.2921,8.9666c8.08-2.3247,8.4841,25.4051-14.14,20.59-11.16-2.3754-17.3723-9.1326-16.7662-30.7187S405.0772,393.6928,405.2792,389.3755Z" transform="translate(-2 -1.1303)" style="fill:url(#b790e31d-0317-4e44-964d-cf4e4197100b)"/></g><polygon points="414.097 415.054 415.713 481.472 410.865 481.472 412.481 415.054 414.097 415.054" style="fill:#005541"/><path d="M388.7838,450.6252c-5.1125-8.2095,1.6645-8.5027,0-13.0961-1.67-4.6077-5.9448-4.007-5.2314-8.1118.9055-5.21-1.189-6.8829-4.0424-6.8829s-6.2413,2.7377-4.7558,7.4693c.9511,3.03-.5945,3.8116-2.7346,6.3526a6.6231,6.6231,0,0,0,0,8.1118c1.9961,2.3981,1.6866,3.8836-.3567,6.2548-2.0212,2.3456-2.3779,7.2322,1.4267,8.7959s.3952,7.83,2.7346,10.7506c3.21,4.007,7.7282,4.007,9.3927-3.2252,1.115-4.8445-.5944-4.9843,1.5457-7.5254S391.4489,454.9049,388.7838,450.6252Zm-14.9808-7.1344c-2.3032-1.1665,1.68-4.8222,2.35-4.9323,0,0,1.995-1.2439,3.6688-.0884s-.5216,3.0048-2.1685,3.6763S376.1061,444.6572,373.803,443.4908Zm7.6093-14.66c-1.07,0-.7134,1.8569-2.259,1.4659s-.4273-3.5069.8322-3.4206C381.4123,426.974,382.4823,428.831,381.4123,428.831Zm1.2693,24.5044c-.9733-1.7135,1.23-3.584,3.2431-2.6689A1.9622,1.9622,0,0,1,387,451.798c.8322,2.2478,2.3779,3.5183.3566,3.7138A5.1441,5.1441,0,0,1,382.6816,453.3354Z" transform="translate(-2 -1.1303)" style="fill:url(#bfbeb78a-47e0-4dab-8124-77089c95f53a)"/><g style="clip-path:url(#eac67548-de4c-4177-af8b-db84b1016646)"><path d="M374.6353,426.29c.1189-2.541,13.57-7.1545,5.9447,7.8186-4.28,8.4049,1.459,8.1816,4.1614,5.18,4.3991-4.8866,9.28.1845,1.3078,6.0594-6.8959,5.082-10.1061,8.1117-10.1061,10.8482s1.8433,6.3208,5.4692,5.2776c4.7558-1.3683,4.9936,14.953-8.3227,12.1188-6.5687-1.3981-10.2249-5.3753-9.8683-18.0805S374.5164,428.831,374.6353,426.29Z" transform="translate(-2 -1.1303)" style="fill:url(#e874fc37-debc-48a5-aff5-cacc3af3d118)"/></g><polygon points="379.003 440.938 379.954 480.031 377.1 480.031 378.051 440.938 379.003 440.938" style="fill:#005541"/></g></g></svg>
