<svg xmlns="http://www.w3.org/2000/svg" viewBox="0 0 322 246.22"><title>fusion-ecommerce-main</title><path d="M389.74,261l.09,0,1.5-.67a.29.29,0,0,0,.14-.38.28.28,0,0,0-.38-.13c-.49.23-1,.45-1.48.66l-.09,0a.28.28,0,0,0-.15.37A.27.27,0,0,0,389.74,261Zm-1.6.64a.29.29,0,0,0,.16-.36.3.3,0,0,0-.37-.16c-.53.2-1.08.4-1.62.58a.28.28,0,1,0,.18.53c.55-.18,1.1-.38,1.64-.58Zm4.73-2.1h0c.51-.26,1-.54,1.53-.82a.28.28,0,0,0,.11-.39.29.29,0,0,0-.39-.1c-.49.28-1,.55-1.51.81a.27.27,0,0,0-.12.38A.27.27,0,0,0,392.87,259.54Zm3-1.69,0,0c.49-.3,1-.61,1.46-.93a.28.28,0,0,0,.09-.39.3.3,0,0,0-.4-.08c-.47.32-1,.63-1.45.92a.28.28,0,0,0-.09.39A.27.27,0,0,0,395.88,257.85Zm2.88-1.9.05,0,1.4-1a.3.3,0,0,0,.05-.4.29.29,0,0,0-.4,0c-.45.34-.91.69-1.38,1a.28.28,0,0,0-.07.39A.3.3,0,0,0,398.76,256Zm2.73-2.11.07,0c.44-.37.89-.75,1.32-1.13a.29.29,0,0,0,0-.4.28.28,0,0,0-.4,0l-1.3,1.12a.27.27,0,0,0,0,.39A.28.28,0,0,0,401.49,253.84Zm2.57-2.29.09-.06c.41-.4.83-.81,1.23-1.22a.28.28,0,0,0-.41-.39c-.4.41-.81.81-1.22,1.21a.27.27,0,0,0,0,.39A.3.3,0,0,0,404.06,251.55Zm2.4-2.47a.25.25,0,0,0,.1-.08c.39-.42.77-.86,1.14-1.3a.28.28,0,1,0-.44-.36c-.36.43-.74.87-1.12,1.29a.27.27,0,0,0,0,.4A.3.3,0,0,0,406.46,249.08Zm2.21-2.64a.27.27,0,0,0,.12-.09c.35-.45.7-.91,1-1.38a.28.28,0,0,0-.07-.39.29.29,0,0,0-.4.07c-.33.46-.68.92-1,1.36a.28.28,0,0,0,.05.4A.28.28,0,0,0,408.67,246.44Zm2-2.78a.25.25,0,0,0,.12-.11c.32-.48.64-1,.94-1.45a.28.28,0,1,0-.49-.29c-.3.48-.61,1-.92,1.43a.27.27,0,0,0,.08.39A.29.29,0,0,0,410.69,243.66Zm1.8-2.93a.31.31,0,0,0,.14-.12l0,0c.27-.48.54-1,.79-1.48a.27.27,0,0,0-.12-.38.28.28,0,0,0-.38.13c-.26.49-.52,1-.79,1.46l0,0a.27.27,0,0,0,.11.38A.25.25,0,0,0,412.49,240.73Zm1.56-3a.23.23,0,0,0,.15-.14c.24-.51.48-1,.7-1.57a.28.28,0,0,0-.16-.37.28.28,0,0,0-.37.16c-.22.52-.45,1-.69,1.55a.28.28,0,0,0,.14.37A.24.24,0,0,0,414.05,237.68Zm1.33-3.15a.24.24,0,0,0,.15-.16c.21-.53.4-1.08.58-1.62a.28.28,0,0,0-.18-.36.3.3,0,0,0-.36.19c-.18.53-.37,1.07-.57,1.6a.27.27,0,0,0,.17.36A.3.3,0,0,0,415.38,234.53Zm1.09-3.24a.26.26,0,0,0,.16-.18c.16-.54.32-1.1.46-1.65a.27.27,0,0,0-.2-.34.28.28,0,0,0-.35.2c-.14.55-.3,1.1-.46,1.64a.29.29,0,0,0,.2.35A.25.25,0,0,0,416.47,231.29Zm.86-3.3a.29.29,0,0,0,.16-.2c.13-.56.24-1.12.35-1.68a.28.28,0,0,0-.23-.33.28.28,0,0,0-.33.23c-.11.56-.22,1.11-.34,1.66a.27.27,0,0,0,.21.34A.37.37,0,0,0,417.33,228Zm.62-3.35a.28.28,0,0,0,.17-.23c.09-.56.16-1.13.22-1.7a.28.28,0,0,0-.25-.31.29.29,0,0,0-.31.26c-.07.55-.14,1.12-.22,1.68a.27.27,0,0,0,.24.32A.39.39,0,0,0,418,224.64Zm.38-3.39a.28.28,0,0,0,.18-.24c0-.57.07-1.15.1-1.72a.29.29,0,0,0-.58,0c0,.56,0,1.13-.09,1.69a.27.27,0,0,0,.26.3Zm.13-3.41a.27.27,0,0,0,.18-.26c0-.57,0-1.15,0-1.71a.28.28,0,0,0-.3-.27.29.29,0,0,0-.27.3c0,.55,0,1.12,0,1.69a.29.29,0,0,0,.28.28A.2.2,0,0,0,418.46,217.84Zm-.12-3.4a.28.28,0,0,0,.17-.28c0-.57-.1-1.15-.17-1.71a.27.27,0,0,0-.31-.24.28.28,0,0,0-.25.32c.06.55.12,1.11.16,1.68a.28.28,0,0,0,.31.25Zm-.41-3.38a.28.28,0,0,0,.17-.3c-.09-.57-.2-1.13-.31-1.69a.27.27,0,0,0-.34-.21.28.28,0,0,0-.22.33c.11.55.22,1.11.31,1.66a.27.27,0,0,0,.33.23Zm-.7-3.32a.3.3,0,0,0,.17-.34c-.15-.55-.31-1.1-.47-1.64a.28.28,0,0,0-.36-.18.28.28,0,0,0-.19.35c.17.53.32,1.08.46,1.62a.29.29,0,0,0,.35.2Zm-1-3.24a.29.29,0,0,0,.16-.36c-.17-.47-.36-.94-.55-1.4l-.08-.19a.3.3,0,0,0-.38-.15h0a.29.29,0,0,0-.15.37l.08.19c.19.45.38.92.55,1.38a.27.27,0,0,0,.36.16ZM399.3,209a.29.29,0,0,0,.16-.36.28.28,0,0,0-.37-.16,14.42,14.42,0,0,1-1.62.48.28.28,0,0,0-.21.34.28.28,0,0,0,.34.21c.57-.14,1.14-.31,1.69-.5Zm1.58-.69h0a12.59,12.59,0,0,0,1.51-.91.28.28,0,0,0-.32-.46,13.25,13.25,0,0,1-1.45.87.27.27,0,0,0-.12.38A.28.28,0,0,0,400.88,208.3ZM396,209.78a.28.28,0,0,0,.17-.29.27.27,0,0,0-.31-.25,13.69,13.69,0,0,1-1.69.1.3.3,0,0,0-.29.29.29.29,0,0,0,.29.28,14.68,14.68,0,0,0,1.75-.11Zm7.78-3.42.07,0c.45-.39.88-.79,1.28-1.21a.28.28,0,0,0,0-.39.3.3,0,0,0-.41,0,15.14,15.14,0,0,1-1.23,1.16.28.28,0,0,0,0,.4A.29.29,0,0,0,403.73,206.36Zm11.14-5h0A.28.28,0,0,0,415,201c-.25-.51-.53-1-.81-1.5a.28.28,0,0,0-.39-.11.3.3,0,0,0-.11.39c.28.48.55,1,.8,1.48A.29.29,0,0,0,414.87,201.38Zm-22.36,8.41a.31.31,0,0,0,.18-.23.29.29,0,0,0-.25-.31,13.09,13.09,0,0,1-1.66-.29.3.3,0,0,0-.35.21.28.28,0,0,0,.21.34,16,16,0,0,0,1.73.3A.22.22,0,0,0,392.51,209.79Zm13.58-5.92a.34.34,0,0,0,.12-.09,15.43,15.43,0,0,0,1-1.47.28.28,0,0,0-.11-.38.28.28,0,0,0-.39.11,12.49,12.49,0,0,1-.92,1.4.29.29,0,0,0,.06.4A.28.28,0,0,0,406.09,203.87ZM389.18,209a.28.28,0,0,0,0-.52,14.92,14.92,0,0,1-1.52-.68.29.29,0,0,0-.39.11.27.27,0,0,0,.11.38,14.44,14.44,0,0,0,1.6.72A.3.3,0,0,0,389.18,209Zm18.59-8.11a.29.29,0,0,0,.16-.15,13.45,13.45,0,0,0,.55-1.66.28.28,0,1,0-.55-.13,14,14,0,0,1-.53,1.58.28.28,0,0,0,.16.37A.26.26,0,0,0,407.77,200.89Zm5.4-2.45.05,0a.28.28,0,0,0,.08-.39c-.31-.48-.64-.95-1-1.41a.29.29,0,0,0-.4-.05.27.27,0,0,0-.06.39c.33.45.66.91,1,1.38A.3.3,0,0,0,413.17,198.44Zm-27,9a.27.27,0,0,0,.12-.09.27.27,0,0,0-.06-.39,10.87,10.87,0,0,1-1.26-1.08.29.29,0,0,0-.41,0,.27.27,0,0,0,0,.39,11,11,0,0,0,1.33,1.13A.28.28,0,0,0,386.17,207.4Zm22.47-9.8a.31.31,0,0,0,.18-.22,16.37,16.37,0,0,0,.13-1.73.27.27,0,0,0-.28-.28.29.29,0,0,0-.29.27,15.06,15.06,0,0,1-.13,1.67.28.28,0,0,0,.25.31A.22.22,0,0,0,408.64,197.6Zm2.49-1.87.08,0a.28.28,0,0,0,0-.4c-.37-.43-.76-.86-1.15-1.26a.29.29,0,0,0-.41,0,.28.28,0,0,0,0,.4c.39.4.77.82,1.14,1.24A.28.28,0,0,0,411.13,195.73ZM383.76,205l.06,0a.29.29,0,0,0,.07-.4,10,10,0,0,1-.86-1.41.29.29,0,0,0-.39-.12.28.28,0,0,0-.13.38,11.86,11.86,0,0,0,.91,1.49A.29.29,0,0,0,383.76,205Zm25-10.81a.29.29,0,0,0,.17-.29c0-.22,0-.44-.06-.67l0,0a.27.27,0,0,0,0-.39l-.08-.07c0-.18,0-.37-.08-.55a.3.3,0,0,0-.33-.23.29.29,0,0,0-.23.22l-.6-.48a.28.28,0,0,0-.36.44c.36.29.72.58,1.06.89,0,.31.08.62.1.92a.29.29,0,0,0,.31.26ZM382.23,202a.29.29,0,0,0,.17-.35,12.1,12.1,0,0,1-.41-1.6.27.27,0,0,0-.33-.23.29.29,0,0,0-.23.33,11.79,11.79,0,0,0,.42,1.68.28.28,0,0,0,.36.18Zm25.93-11.14a.27.27,0,0,0,.16-.33c-.14-.54-.3-1.1-.49-1.65a.29.29,0,0,0-.36-.17.28.28,0,0,0-.18.36c.18.54.34,1.08.48,1.61a.28.28,0,0,0,.35.2Zm-2.07.33a.28.28,0,0,0,.12-.1.28.28,0,0,0-.07-.39c-.47-.32-1-.64-1.45-.93a.28.28,0,0,0-.39.1.27.27,0,0,0,.09.38c.48.29,1,.6,1.42.91A.28.28,0,0,0,406.09,191.19Zm-24.45,7.48a.3.3,0,0,0,.18-.28,11.51,11.51,0,0,1,.05-1.66.29.29,0,0,0-.26-.3.28.28,0,0,0-.31.26,12.5,12.5,0,0,0-.05,1.73.27.27,0,0,0,.29.27Zm21.52-9.23a.25.25,0,0,0,.14-.13.28.28,0,0,0-.12-.38c-.51-.26-1-.51-1.56-.74a.3.3,0,0,0-.38.14.29.29,0,0,0,.14.38c.52.22,1,.47,1.53.72A.31.31,0,0,0,403.16,189.44Zm3.91-1.79a.28.28,0,0,0,.16-.37l-.08-.18c-.19-.46-.41-.92-.63-1.38a.28.28,0,0,0-.38-.13.28.28,0,0,0-.14.38c.22.45.43.91.62,1.36l.08.17a.28.28,0,0,0,.37.15Zm-7,.41a.26.26,0,0,0,.15-.16.27.27,0,0,0-.16-.36c-.53-.2-1.08-.39-1.63-.56a.28.28,0,0,0-.36.19.28.28,0,0,0,.18.35c.54.17,1.08.35,1.6.55A.33.33,0,0,0,400,188.06ZM382,195.29a.28.28,0,0,0,.17-.2,14.12,14.12,0,0,1,.49-1.6.27.27,0,0,0-.16-.36.29.29,0,0,0-.37.17,11.54,11.54,0,0,0-.51,1.67.27.27,0,0,0,.21.33A.25.25,0,0,0,382,195.29Zm23.62-10.69h0a.3.3,0,0,0,.11-.39c-.28-.49-.58-1-.88-1.47a.3.3,0,0,0-.4-.08.29.29,0,0,0-.09.39c.3.47.6,1,.87,1.44A.28.28,0,0,0,405.58,184.6Zm-8.83,2.47a.31.31,0,0,0,.17-.2.28.28,0,0,0-.22-.34,17.1,17.1,0,0,0-1.72-.28.3.3,0,0,0-.32.25.27.27,0,0,0,.25.31,16.56,16.56,0,0,1,1.67.27A.25.25,0,0,0,396.75,187.07Zm-13.55,5a.29.29,0,0,0,.14-.13,10.16,10.16,0,0,1,.94-1.38.27.27,0,0,0,0-.39.28.28,0,0,0-.4,0,12.34,12.34,0,0,0-1,1.45.28.28,0,0,0,.11.39A.31.31,0,0,0,383.2,192.11Zm10.14-5.41a.28.28,0,0,0-.11-.54,14.43,14.43,0,0,0-1.75.1.3.3,0,0,0-.26.31.28.28,0,0,0,.32.25,15.47,15.47,0,0,1,1.68-.1Zm10.41-5,.06,0a.28.28,0,0,0,.06-.39c-.33-.47-.67-.92-1-1.37a.28.28,0,0,0-.4,0,.27.27,0,0,0-.05.39q.53.66,1,1.35A.28.28,0,0,0,403.75,181.74Zm-18.4,7.71.08,0a9.12,9.12,0,0,1,1.18-.89l.17-.1a.28.28,0,0,0,.1-.39.29.29,0,0,0-.39-.09l-.18.11a9.5,9.5,0,0,0-1.25.94.28.28,0,0,0,0,.4A.29.29,0,0,0,385.35,189.45Zm4.57-2.34a.28.28,0,0,0-.18-.53,13.06,13.06,0,0,0-1.67.55h0a.29.29,0,0,0-.15.37.28.28,0,0,0,.37.15,12,12,0,0,1,1.6-.52Zm11.71-8a.2.2,0,0,0,.08,0,.29.29,0,0,0,0-.4c-.38-.43-.78-.85-1.17-1.25a.29.29,0,0,0-.41,0,.28.28,0,0,0,0,.4c.39.4.78.81,1.16,1.23A.26.26,0,0,0,401.63,179.08Zm-2.39-2.41.1-.07a.28.28,0,0,0,0-.4l-1.28-1.14a.31.31,0,0,0-.41,0,.28.28,0,0,0,0,.4l1.27,1.12A.28.28,0,0,0,399.24,176.67Zm-2.58-2.22.11-.08a.29.29,0,0,0,0-.4c-.44-.35-.89-.71-1.35-1.06a.29.29,0,0,0-.4.06.27.27,0,0,0,0,.39c.45.35.9.7,1.33,1A.3.3,0,0,0,396.66,174.45ZM394,172.38a.47.47,0,0,0,.12-.09.3.3,0,0,0-.06-.4c-.46-.33-.93-.66-1.41-1a.28.28,0,0,0-.32.47l1.39,1A.28.28,0,0,0,394,172.38Zm-2.82-1.92a.33.33,0,0,0,.13-.11.29.29,0,0,0-.08-.39l-1.45-.91a.3.3,0,0,0-.4.09.29.29,0,0,0,.09.39c.49.3,1,.6,1.44.91A.29.29,0,0,0,391.13,170.46Zm-2.91-1.79a.28.28,0,0,0,.13-.11.29.29,0,0,0-.09-.39c-.5-.29-1-.57-1.49-.84a.28.28,0,0,0-.39.11.27.27,0,0,0,.11.38q.74.41,1.47.84A.27.27,0,0,0,388.22,168.67Zm-3-1.65a.25.25,0,0,0,.14-.13.29.29,0,0,0-.12-.38l-1.52-.78a.28.28,0,0,0-.38.13.26.26,0,0,0,.12.37L385,167A.31.31,0,0,0,385.24,167Zm-3.05-1.53a.27.27,0,0,0,.14-.14.26.26,0,0,0-.13-.37l-1.55-.73a.3.3,0,0,0-.38.14.29.29,0,0,0,.14.38c.52.23,1,.47,1.54.72A.33.33,0,0,0,382.19,165.49Zm-3.11-1.42a.26.26,0,0,0,.15-.14.28.28,0,0,0-.14-.37c-.53-.23-1-.46-1.58-.67a.28.28,0,1,0-.23.52c.53.21,1.05.44,1.57.66A.26.26,0,0,0,379.08,164.07Zm-3.16-1.31a.25.25,0,0,0,.15-.15.28.28,0,0,0-.15-.37l-1.6-.61a.28.28,0,0,0-.37.16.27.27,0,0,0,.16.36l1.59.62A.28.28,0,0,0,375.92,162.76Zm-3.21-1.2a.31.31,0,0,0,.16-.16.28.28,0,0,0-.17-.37l-1.62-.56a.29.29,0,0,0-.36.17.27.27,0,0,0,.17.36c.54.19,1.08.37,1.61.57A.3.3,0,0,0,372.71,161.56Zm-3.24-1.11a.3.3,0,0,0,.16-.17.28.28,0,0,0-.18-.36l-1.64-.51a.28.28,0,1,0-.18.54c.55.16,1.09.34,1.64.51A.28.28,0,0,0,369.47,160.45Zm-3.28-1a.29.29,0,0,0,.16-.18.28.28,0,0,0-.19-.35l-1.66-.47a.28.28,0,0,0-.16.54l1.65.47A.27.27,0,0,0,366.19,159.44Zm-3.32-.92a.27.27,0,0,0,.17-.19.28.28,0,0,0-.2-.34l-1.67-.43a.29.29,0,0,0-.35.21.28.28,0,0,0,.21.34l1.66.42A.22.22,0,0,0,362.87,158.52Zm-3.33-.83a.29.29,0,0,0,.17-.19.28.28,0,0,0-.21-.34l-1.68-.38a.28.28,0,0,0-.34.21.28.28,0,0,0,.21.34l1.67.38A.28.28,0,0,0,359.54,157.69Zm-3.35-.74a.27.27,0,0,0,.16-.2.27.27,0,0,0-.21-.33l-1.69-.34a.29.29,0,0,0-.34.22.28.28,0,0,0,.22.33L356,157A.37.37,0,0,0,356.19,157Zm-3.38-.65a.28.28,0,0,0-.05-.54l-1.7-.29a.29.29,0,0,0-.33.23.28.28,0,0,0,.23.33l1.69.29A.29.29,0,0,0,352.81,156.3Zm-3.39-.56a.28.28,0,0,0,.17-.22.27.27,0,0,0-.23-.32l-1.7-.25a.29.29,0,0,0-.33.24.28.28,0,0,0,.24.32l1.7.25A.39.39,0,0,0,349.42,155.74Z" transform="translate(-105 -143.78)" style="fill:#586f7d"/><polyline points="205.66 14.81 236.01 11.73 234.89 0 205.66 14.81" style="fill:#ecf6f8"/><path d="M346.7,155.07c-.38-.08-36.07,3.55-36.07,3.55l31.46,1.79Z" transform="translate(-105 -143.78)" style="fill:#d1e4e2"/><polygon points="205.66 14.81 237.24 24.76 237.09 16.62 205.66 14.81" style="fill:#ecf6f8"/><path d="M228.4,335.11s-129.19,4.54-123.2,14.1,36.44,16,29.38,26.62,112.23,23.47,114.91,4.27,106.27,2.14,92.61-12.8,20.34-13.85,4.68-20.26S228.4,335.11,228.4,335.11Z" transform="translate(-105 -143.78)" style="fill:#f2f2f2"/><path d="M304.38,354.75H235.61a1,1,0,0,0,.59,1.77h67.59A1.05,1.05,0,0,0,304.38,354.75Z" transform="translate(-105 -143.78)" style="fill:#1c7961"/><rect x="49.52" y="47.43" width="230.97" height="133.11" rx="11.08" style="fill:#cce5e0"/><rect x="51.88" y="49.82" width="226.25" height="127.11" rx="8.94" style="fill:#fdffff"/><path d="M304.23,354.58c-2.43-1.81-6.72-5-8.08-6.26-2-1.77-3.22-24-3.22-24H247.07s-1.26,22.23-3.21,24c-1.37,1.23-5.65,4.45-8.08,6.26a.72.72,0,0,0,.43,1.29H303.8A.72.72,0,0,0,304.23,354.58Z" transform="translate(-105 -143.78)" style="fill:#accbc5"/><path d="M379.29,318.93V198.7s-216.25-1.46-217.71,0V318.93Z" transform="translate(-105 -143.78)" style="fill:#fff"/><rect x="62.03" y="60.18" width="206.26" height="12.62" style="fill:#2e3338"/><path d="M301.86,213.83H230.14a3.41,3.41,0,0,1-3.4-3.41h0a3.41,3.41,0,0,1,3.4-3.41h71.72a3.41,3.41,0,0,1,3.41,3.41h0A3.41,3.41,0,0,1,301.86,213.83Z" transform="translate(-105 -143.78)" style="fill:#fff;opacity:0.5"/><path d="M176.72,208.63v.83l-1.07.44-3.42-1.41-2.18-.9,2.18-1.21,3.68,1.32A1.19,1.19,0,0,1,176.72,208.63Z" transform="translate(-105 -143.78)" style="fill:#f7971d"/><path d="M172.05,211.28v2.35l0,0,3.84-1.68a1.32,1.32,0,0,0,.79-1v-1.52l-1.12.44Z" transform="translate(-105 -143.78)" style="fill:#ed6d23"/><polygon points="67.23 62.6 67.23 64.7 64.97 63.8 67.23 62.6" style="fill:#ed6d23"/><polygon points="67.05 67.49 67.05 69.87 65.05 68.85 67.05 67.49" style="fill:#f7971d"/><polygon points="65.05 68.85 65.05 66.47 67.05 67.49 65.05 68.85" style="fill:#f7971d"/><path d="M279.77,242.26c-.69,3.89-4.64,6.88-9.41,6.88s-8.72-3-9.41-6.88h-8s-13.15,11.07-13.09,11.33c1.46,6.24,7.83,9.32,7.83,9.32l5-4.64s-.34,33.68,0,33.79a57.49,57.49,0,0,0,35.57,0V258.27l5.59,4.64s6.72-4.87,8.1-9.59c0-.08-13.77-11.06-13.77-11.06Z" transform="translate(-105 -143.78)" style="fill:#2e3338"/><line x1="131.77" y1="84.09" x2="202.08" y2="84.09" style="fill:none;stroke:#fff;stroke-miterlimit:10;stroke-width:5px"/><line x1="131.77" y1="89.46" x2="176.2" y2="89.46" style="fill:none;stroke:#fff;stroke-miterlimit:10;stroke-width:5px"/><circle cx="150.81" cy="161.48" r="1.95" style="fill:gray"/><circle cx="160.57" cy="161.48" r="1.95" style="fill:gray;opacity:0.5"/><circle cx="170.34" cy="161.48" r="1.95" style="fill:gray;opacity:0.5"/><circle cx="180.1" cy="161.48" r="1.95" style="fill:gray;opacity:0.5"/><path d="M205.32,294.26c-.15.42.4,1,1.25,1.32s1.62.37,1.77-.05-.32-.83-1.17-1.14S205.47,293.85,205.32,294.26Z" transform="translate(-105 -143.78)" style="fill:#f1f1f1"/><rect x="66.34" y="109.73" width="60.55" height="36.86" rx="9.5" style="fill:#ccc"/><path d="M204.76,295.88a4.35,4.35,0,0,0,3.26,1c0,.08,0,.16-.05.25h-.39a4.55,4.55,0,0,1-2.91-1Z" transform="translate(-105 -143.78)" style="fill:#f1f1f1"/><path d="M198.23,299.35a4.38,4.38,0,0,0,3,.58l0,.24-.28,0a4.51,4.51,0,0,1-2.8-.65Z" transform="translate(-105 -143.78)" style="fill:#f1f1f1"/><rect x="66.34" y="118.27" width="60.55" height="8.06" style="fill:#b3b3b3"/><line x1="71.71" y1="131.7" x2="99.54" y2="131.7" style="fill:none;stroke:#b3b3b3;stroke-miterlimit:10;stroke-width:3px"/><line x1="71.71" y1="135.12" x2="91.73" y2="135.12" style="fill:none;stroke:#b3b3b3;stroke-miterlimit:10;stroke-width:3px"/><path d="M300.82,279.32l-9,2.57.14,9.15,15.5,11,8.5-11.93ZM297,287.19a2,2,0,1,1,1.39-2.39A2,2,0,0,1,297,287.19Z" transform="translate(-105 -143.78)" style="fill:#f7971d"/><line x1="224.54" y1="88" x2="259.94" y2="88" style="fill:#ccc;stroke:#e6e6e6;stroke-miterlimit:10;stroke-width:2px"/><line x1="224.54" y1="91.91" x2="259.94" y2="91.91" style="fill:#ccc;stroke:#e6e6e6;stroke-miterlimit:10;stroke-width:2px"/><line x1="224.54" y1="95.81" x2="259.94" y2="95.81" style="fill:#ccc;stroke:#e6e6e6;stroke-miterlimit:10;stroke-width:2px"/><line x1="224.54" y1="99.72" x2="259.94" y2="99.72" style="fill:#ccc;stroke:#e6e6e6;stroke-miterlimit:10;stroke-width:2px"/><path d="M214.52,239.11H187.66a6.83,6.83,0,0,1-6.83-6.84h0a6.83,6.83,0,0,1,6.83-6.83h26.86a6.84,6.84,0,0,1,6.84,6.83h0A6.84,6.84,0,0,1,214.52,239.11Z" transform="translate(-105 -143.78)" style="fill:#f7971d"/><line x1="224.54" y1="103.62" x2="259.94" y2="103.62" style="fill:#ccc;stroke:#e6e6e6;stroke-miterlimit:10;stroke-width:2px"/><path d="M193.69,234.2a2.38,2.38,0,0,0,1.19.33c.67,0,1.07-.36,1.07-.87s-.27-.76-1-1-1.35-.73-1.35-1.46a1.48,1.48,0,0,1,1.66-1.39,2.45,2.45,0,0,1,1.13.25l-.18.54a2.07,2.07,0,0,0-1-.24c-.7,0-1,.42-1,.77s.31.71,1,1c.87.33,1.31.75,1.31,1.5s-.59,1.48-1.8,1.48a2.72,2.72,0,0,1-1.31-.33Z" transform="translate(-105 -143.78)" style="fill:#fff"/><path d="M198.36,233.39l-.53,1.61h-.68l1.74-5.12h.8l1.74,5.12h-.7l-.55-1.61Zm1.68-.52-.5-1.47c-.11-.34-.19-.64-.27-.94h0c-.08.31-.16.62-.26.93l-.5,1.48Z" transform="translate(-105 -143.78)" style="fill:#fff"/><path d="M202.19,229.88h.66v4.57H205V235h-2.85Z" transform="translate(-105 -143.78)" style="fill:#fff"/><path d="M208.43,232.6h-2v1.85h2.22V235h-2.88v-5.12h2.77v.55h-2.11v1.62h2Z" transform="translate(-105 -143.78)" style="fill:#fff"/><rect x="224.54" y="113.63" width="12.21" height="16.85" style="fill:#ccc;stroke:#e6e6e6;stroke-miterlimit:10;opacity:0.5"/><rect x="240.65" y="113.63" width="12.21" height="16.85" style="fill:#ccc;stroke:#e6e6e6;stroke-miterlimit:10;opacity:0.5"/><rect x="224.54" y="134.63" width="12.21" height="16.85" style="fill:#ccc;stroke:#e6e6e6;stroke-miterlimit:10;opacity:0.5"/><rect x="240.65" y="134.63" width="12.21" height="16.85" style="fill:#ccc;stroke:#e6e6e6;stroke-miterlimit:10;opacity:0.5"/><rect x="20.47" y="131.82" width="57.53" height="45.06" rx="8" style="fill:#accbc5"/><rect x="24.44" y="134.93" width="17.29" height="2.55" style="fill:#1c7961"/><rect x="24.44" y="140.6" width="50.44" height="25.5" rx="6" style="fill:#fff"/><rect x="27.28" y="149.1" width="25.5" height="1.13" style="fill:#d3d6db"/><rect x="27.28" y="152.79" width="25.5" height="1.13" style="fill:#d3d6db"/><rect x="27.28" y="156.47" width="17" height="1.13" style="fill:#d3d6db"/><path d="M157.12,289.77H136c-2.05,0-3.71-.82-3.71-1.84h0c0-1,1.66-1.84,3.71-1.84h21.13c2,0,3.71.82,3.71,1.84h0C160.83,289,159.17,289.77,157.12,289.77Z" transform="translate(-105 -143.78)" style="fill:#e89423"/><rect x="262.08" y="109.83" width="59.92" height="53.79" rx="8" style="fill:#accbc5"/><polygon points="271.39 116.93 270.63 116.93 270.63 138.07 291.79 138.07 291.79 137.31 271.39 137.31 271.39 116.93" style="fill:#fff"/><path d="M380.81,277.91a1.51,1.51,0,0,0,1.5-1.51,1.44,1.44,0,0,0-.26-.84l4.14-4.65a1.46,1.46,0,0,0,.68.17,1.51,1.51,0,0,0,1.51-1.5,1.55,1.55,0,0,0,0-.31l5-2.49a1.5,1.5,0,0,0,2.63-1,1.51,1.51,0,1,0-3,0,1.55,1.55,0,0,0,0,.31l-5,2.49a1.52,1.52,0,0,0-1.13-.51,1.5,1.5,0,0,0-1.5,1.5,1.48,1.48,0,0,0,.25.83l-4.14,4.66a1.39,1.39,0,0,0-.67-.17,1.51,1.51,0,1,0,0,3ZM394.45,265a.75.75,0,0,1,.75.75.75.75,0,1,1-.75-.75Zm-7.58,3.79a.76.76,0,0,1,.75.75.75.75,0,0,1-.75.74.74.74,0,0,1-.74-.74A.75.75,0,0,1,386.87,268.83Zm-6.06,6.83a.74.74,0,0,1,.74.74.75.75,0,0,1-.74.75.76.76,0,0,1-.75-.75A.75.75,0,0,1,380.81,275.66Z" transform="translate(-105 -143.78)" style="fill:#fff"/><path d="M401.1,291.94a2.41,2.41,0,1,0-2.41-2.41A2.41,2.41,0,0,0,401.1,291.94Zm0-4a1.6,1.6,0,1,1-1.59,1.59A1.6,1.6,0,0,1,401.1,287.94Z" transform="translate(-105 -143.78)" style="fill:#fff"/><path d="M415.25,291.94a2.41,2.41,0,1,0-2.41-2.41A2.41,2.41,0,0,0,415.25,291.94Zm0-4a1.6,1.6,0,1,1-1.59,1.59A1.6,1.6,0,0,1,415.25,287.94Z" transform="translate(-105 -143.78)" style="fill:#fff"/><path d="M415.25,292.08a4.1,4.1,0,0,0-2.74,1.07,5.6,5.6,0,0,0-8.64,0,4.09,4.09,0,0,0-2.77-1.1,4.33,4.33,0,0,0-4.23,4.41v3.11h5.55v1.78H414V299.6h5.5v-3.11A4.33,4.33,0,0,0,415.25,292.08Zm-17.57,6.71v-2.3a3.52,3.52,0,0,1,3.42-3.59,3.29,3.29,0,0,1,2.28,1,6.11,6.11,0,0,0-1,3.31v1.63Zm15.49,1.78h-9.94v-3.41a5,5,0,1,1,9.94,0Zm5.5-1.78H414v-1.63a6.23,6.23,0,0,0-1-3.35,3.3,3.3,0,0,1,2.24-.91,3.52,3.52,0,0,1,3.42,3.59Z" transform="translate(-105 -143.78)" style="fill:#fff"/><path d="M408.2,290.75a3.22,3.22,0,1,0-3.22-3.22A3.22,3.22,0,0,0,408.2,290.75Zm0-5.63a2.41,2.41,0,1,1-2.41,2.41A2.41,2.41,0,0,1,408.2,285.12Z" transform="translate(-105 -143.78)" style="fill:#fff"/><path d="M178.76,325.92a35.06,35.06,0,0,1-4.95.36c-1.08,0-2.14-.06-3.19-.15V322.3a.58.58,0,0,1,.58-.58h7a.58.58,0,0,1,.58.58Z" transform="translate(-105 -143.78)" style="fill:#1b7d9a;fill-rule:evenodd"/><path d="M180.6,311.46c2.18-2.22.1-8-3.33-10.53-4.39-3.23-8.27-4.58-11.18-2.52l9.17,8.8c-3.95.16-3,.27-6-2.43l-.35,7.34a17.74,17.74,0,0,1,1.22,2.84c.56,2.08.81,4.44,1.24,6.63l6.28.24c.66-4.28,0-7.42,2.95-10.37Z" transform="translate(-105 -143.78)" style="fill:#f7caa3;fill-rule:evenodd"/><path d="M165.84,301.43l14.58,14.12a.92.92,0,0,0,1.25.13h0a.52.52,0,0,0,.13-.17.57.57,0,0,0,.18-.12.93.93,0,0,0,0-1.25l-13.1-15.5Z" transform="translate(-105 -143.78)" style="fill:#6a6b66;fill-rule:evenodd"/><path d="M168.59,299.36h0l-2,1.88h0c-.31.29-.64.41-.74.27l-4-5.82c-.1-.14.08-.5.39-.79h0l.16-.14.15-.15c.31-.29.68-.44.81-.33l5.54,4.36c.13.1,0,.43-.32.72Z" transform="translate(-105 -143.78)" style="fill:#868783;fill-rule:evenodd"/><path d="M159.87,290.42c-1.29-.48-2-1.94-2.94-2.91.21,2.13,1.06,6.58,3.23,8.24,1.68,1.29,3.67.61,3.84-1.28.22-2.56-2.15-3.31-4.13-4.05Z" transform="translate(-105 -143.78)" style="fill:#f5a732;fill-rule:evenodd"/><path d="M168.4,300.62l1.21,3.21a8.85,8.85,0,0,0,2.29,3.69l.13,2.7c.05,1-.31,3.29-1,2.53h0a1.59,1.59,0,0,1-2.26-.87L165,301.82a2.09,2.09,0,0,1,1-2.53h0c.75-.67,2.07.39,2.43,1.33Z" transform="translate(-105 -143.78)" style="fill:#f7caa3;fill-rule:evenodd"/><path d="M165.91,302.56c-.06-.18-.35-1-.35-1.09,0-2.12,1.52-2,2.28-.71a4.74,4.74,0,0,1,.44,1.17c.31,1.1-2,1.79-2.37.63Z" transform="translate(-105 -143.78)" style="fill:#fff;fill-rule:evenodd"/><path d="M170.46,322.31h8.47a.45.45,0,0,0,.44-.45v-.93a.44.44,0,0,0-.44-.44h-8.47a.45.45,0,0,0-.45.44v.93a.45.45,0,0,0,.45.45Z" transform="translate(-105 -143.78)" style="fill:#59a1b5;fill-rule:evenodd"/><path d="M159.72,229c-6.61,2.41-10.68-1.38-10.92-1.61h0c-.24.23-4.3,4-10.91,1.61,0,0-3.65,16.89,10.91,25h0C163.37,245.86,159.72,229,159.72,229Z" transform="translate(-105 -143.78)" style="fill:#f5c31c"/><path d="M158.06,230.74c-5.61,2-9.05-1.17-9.26-1.36h0c-.2.19-3.65,3.41-9.26,1.36,0,0-3.1,14.33,9.26,21.24h0C161.16,245.07,158.06,230.74,158.06,230.74Z" transform="translate(-105 -143.78)" style="fill:#f7971d"/><polygon points="43.01 99.5 39.12 95.61 40.45 94.29 43.01 96.84 47.17 92.59 48.5 93.92 43.01 99.5" style="fill:#fff"/></svg>
