<svg xmlns="http://www.w3.org/2000/svg"
     xmlns:xlink="http://www.w3.org/1999/xlink"
     viewBox="0 0 391.25 284.44">
    <defs>
        <filter id="b" x="257.03" y="-8442" width="52.73" height="32766"
                filterUnits="userSpaceOnUse"
                color-interpolation-filters="sRGB">
            <feFlood flood-color="#fff" result="bg"></feFlood>
            <feBlend in="SourceGraphic" in2="bg"></feBlend>
        </filter>
        <mask id="a" x="257.03" y="-8442" width="52.73" height="32766"
              maskUnits="userSpaceOnUse">
            <g style="filter:url(#b)"></g>
        </mask>
        <linearGradient id="c" x1="257.03" y1="369.94" x2="309.75"
                        y2="369.94" gradientUnits="userSpaceOnUse">
            <stop offset="0" stop-color="#fff"></stop>
            <stop offset="1"></stop>
        </linearGradient>
        <filter id="e" x="257.03" y="360.43" width="52.73"
                height="19.02" filterUnits="userSpaceOnUse"
                color-interpolation-filters="sRGB">
            <feFlood flood-color="#fff" result="bg"></feFlood>
            <feBlend in="SourceGraphic" in2="bg"></feBlend>
        </filter>
        <mask id="d" x="210.28" y="247.89" width="52.73" height="19.02"
              maskUnits="userSpaceOnUse">
            <g style="filter:url(#e)">
                <g transform="translate(-46.75 -112.54)">
                    <g style="mask:url(#a)">
                        <path
                                d="M309.75,360.43a34.94,34.94,0,0,1-2.8,12.9,16.58,16.58,0,0,1-3.09,1.74,58.32,58.32,0,0,1-20.47,4.38,58.25,58.25,0,0,1-20.46-4.38,16.14,16.14,0,0,1-3.1-1.75,34.9,34.9,0,0,1-2.8-12.89Z"
                                style="mix-blend-mode:multiply;fill:url(#c)"></path>
                    </g>
                </g>
            </g>
        </mask>
        <linearGradient id="f" x1="257.03" y1="369.94" x2="309.75"
                        y2="369.94" gradientUnits="userSpaceOnUse">
            <stop offset="0" stop-color="#313d63"></stop>
            <stop offset="1" stop-color="#373f71"></stop>
        </linearGradient>
    </defs>
    <title>index-main</title>
    <g style="isolation:isolate">
        <path
                d="M221.85,292c-16.41-15.35-79.79,22.32-104.32,6.8-27.9-17.65,3.68-45.16,44.33-56.51,32.42-9.06,15.18-63.14,60-61.78s20.1,35.84,93.64,18.15,43.61,38.82,14.65,54.18c-48.18,25.54,8.38,57-10.16,72.31C294.93,345.88,269.13,336.26,221.85,292Z"
                transform="translate(-46.75 -112.54)"
                style="fill:#ecf6f8;opacity:.6"></path>
        <path
                d="M243.85,205.69c18.82,10.48,57.28,24.42,45.82,47.79S262.34,302,278.59,314s65.09-15.22,70.13,4.88,70.71,29.25,82.4,7.57-17-41.39-21.54-64.91S461,216.29,427,191.28,238.69,116,218,113C176.11,107,161.12,159.66,243.85,205.69Z"
                transform="translate(-46.75 -112.54)"
                style="fill:#ecf6f8"></path>
        <path
                d="M245.78,365.42S138,368,143.05,373.52s30.38,9.18,24.5,15.32,93.58,13.49,95.8,2.45,88.62,1.23,77.23-7.36,17-8,3.9-11.65S245.78,365.42,245.78,365.42Z"
                transform="translate(-46.75 -112.54)"
                style="fill:#f2f2f2"></path>
        <path
                d="M291.09,373.89a53.76,53.76,0,0,1-13.5-20.77c-7.77-21.64,1.65-40.68,10.91-52.85,5.48-7.18,6.89-14.22,4.46-22.16-2.27-7.43-7.6-14.91-13.24-22.84-8.28-11.63-17.66-24.82-18.76-40.55-1.15-16.51,6.64-29.41,23.16-38.32,9.9-5.35,22.51-9.1,38.48-11.45a2.12,2.12,0,0,1,2.36,1.9h0a2.18,2.18,0,0,1-1.77,2.47c-15.52,2.27-27.69,5.88-37.18,11-14.88,8-21.91,19.5-20.9,34.08s9.62,26.53,17.94,38.22c5.85,8.23,11.39,16,13.87,24.13,2.87,9.35,1.18,17.95-5.17,26.29-12.49,16.39-15.94,32.71-10.27,48.51a49.92,49.92,0,0,0,12.27,18.95Z"
                transform="translate(-46.75 -112.54)"
                style="fill:#279c83;stroke:#279c83;stroke-miterlimit:10;stroke-width:5px"></path>
        <path
                d="M286.86,362.25s-2.23-9.62,4.43-13.18C291.29,349.07,297.52,353.94,286.86,362.25Z"
                transform="translate(-46.75 -112.54)"
                style="fill:#f5c31c"></path>
        <path
                d="M286.86,362.25s4.09-7.5-.43-11.33C286.43,350.92,282.79,356.69,286.86,362.25Z"
                transform="translate(-46.75 -112.54)"
                style="fill:#e89423"></path>
        <path
                d="M314.09,359s0,9.19-7.14,14.34a16.58,16.58,0,0,1-3.09,1.74,58.32,58.32,0,0,1-20.47,4.38,58.25,58.25,0,0,1-20.46-4.38,16.14,16.14,0,0,1-3.1-1.75c-7.14-5.14-7.14-14.33-7.14-14.33Z"
                transform="translate(-46.75 -112.54)"
                style="fill:#313d63"></path>
        <g style="mask:url(#d)">
            <path
                    d="M309.75,360.43a34.94,34.94,0,0,1-2.8,12.9,16.58,16.58,0,0,1-3.09,1.74,58.32,58.32,0,0,1-20.47,4.38,58.25,58.25,0,0,1-20.46-4.38,16.14,16.14,0,0,1-3.1-1.75,34.9,34.9,0,0,1-2.8-12.89Z"
                    transform="translate(-46.75 -112.54)"
                    style="mix-blend-mode:multiply;fill:url(#f)"></path>
        </g>
        <path
                d="M262.08,221.08a23.32,23.32,0,0,0-4.92-10.29c-5.65-7.14-15.06-11.94-27.23-13.89a60.79,60.79,0,0,1-34.28-17.63,57.54,57.54,0,0,1-9-11.85,2.07,2.07,0,0,1,1-2.91h0a2.07,2.07,0,0,1,2.67.87,54.58,54.58,0,0,0,8.43,11.11,56,56,0,0,0,31.84,16.3c9.3,1.49,22.07,5.41,30,15.64a27,27,0,0,1,5.61,12.14Z"
                transform="translate(-46.75 -112.54)"
                style="fill:#279c83"></path>
        <path
                d="M294.8,298.19l-3.16-2.72,0,0a4,4,0,0,0,.55-3.38c-1.17-4.81-9-9-13.55-11-12.37-5.57-15.47-14.73-16.25-19.09a2.08,2.08,0,0,1,2.05-2.44h0a2.09,2.09,0,0,1,2,1.72c.61,3.44,3.16,11.19,13.86,16,9.45,4.26,14.81,9,15.93,14A8.06,8.06,0,0,1,294.8,298.19Z"
                transform="translate(-46.75 -112.54)"
                style="fill:#279c83"></path>
        <path
                d="M279.16,329.33l-2.53-3.3a68.37,68.37,0,0,1,10.07-6.22c7.84-3.91,14.11-4.81,18.63-2.68l-1.77,3.77C296.77,317.7,283.65,325.9,279.16,329.33Z"
                transform="translate(-46.75 -112.54)"
                style="fill:#279c83"></path>
        <path
                d="M237.85,218.55c-8.93-12.44,1.49-20.83,1.6-20.92l1.54,2c-.35.28-8.62,7-1.11,17.49Z"
                transform="translate(-46.75 -112.54)"
                style="fill:#279c83"></path>
        <path
                d="M273.26,290.19l-2.11-1.35c6.32-9.94,17-5.84,17.13-5.8l-.91,2.33C287,285.23,278.45,282,273.26,290.19Z"
                transform="translate(-46.75 -112.54)"
                style="fill:#279c83"></path>
        <path
                d="M288.82,263.7h0a1.23,1.23,0,0,1-1.44-1.2c-.06-2.84.55-9.31,6.79-13.15a1.25,1.25,0,0,1,1.78.49h0a1.24,1.24,0,0,1-.45,1.61,12.22,12.22,0,0,0-5.65,11A1.24,1.24,0,0,1,288.82,263.7Z"
                transform="translate(-46.75 -112.54)"
                style="fill:#279c83"></path>
        <circle cx="192.6" cy="113.21" r="11.82"
                style="fill:#f5c31c"></circle>
        <path
                d="M247.7,225.75a8.26,8.26,0,0,1-2.14,5.58s0,0,0,0a8.36,8.36,0,1,1-11.83-11.79l0,0a8.36,8.36,0,0,1,13.95,6.21Z"
                transform="translate(-46.75 -112.54)"
                style="fill:#e89423"></path>
        <circle cx="270.74" cy="295.42" r="8.02"
                transform="translate(-111.15 402.53) rotate(-80.74)"
                style="fill:#f5c31c"></circle>
        <path
                d="M276.41,295.42A5.64,5.64,0,0,1,275,299.2h0a5.67,5.67,0,1,1-8-8h0a5.61,5.61,0,0,1,3.79-1.46A5.67,5.67,0,0,1,276.41,295.42Z"
                transform="translate(-46.75 -112.54)"
                style="fill:#e89423"></path>
        <circle cx="259.05" cy="205.89" r="6.69"
                style="fill:#f5c31c"></circle>
        <path
                d="M310.52,318.43a4.69,4.69,0,0,1-1.21,3.15h0a4.73,4.73,0,1,1-6.69-6.66l0,0a4.73,4.73,0,0,1,7.89,3.52Z"
                transform="translate(-46.75 -112.54)"
                style="fill:#e89423"></path>
        <path
                d="M240.77,239.05s.56-1.43.35-1.64-1.2,1.29-1.06.44-1.77,2.14-1.77,2.14a2.94,2.94,0,0,0,0-1.26c-.14-.71-.88,2.5-1,2.77s-1.58,2-1.58,2c.88,1.74,1.43.94,1.43.94s1.11-1.44,1.73-2.13c.41-.45,2.88-3.37,2.83-3.72S240.77,239.05,240.77,239.05Z"
                transform="translate(-46.75 -112.54)"
                style="fill:#e5b9b6"></path>
        <path
                d="M229,226.54s0-1.54-.25-1.67-.67,1.64-.84.8-.89,2.63-.89,2.63a3,3,0,0,0-.43-1.19c-.38-.6.07,2.66.07,2.95s-.75,2.46-.75,2.46c1.44,1.31,1.67.37,1.67.37s.53-1.74.86-2.6c.22-.58,1.49-4.18,1.32-4.49S229,226.54,229,226.54Z"
                transform="translate(-46.75 -112.54)"
                style="fill:#e5b9b6"></path>
        <path
                d="M178.33,299s-9.81,28.52-12.78,31.34c0,0-17.85-3.21-28.45.38,0,0,1.2.31,0,1.57s1.18-1.26,32.15,9c4,1.33,15.72-15.6,15.95-18.06S180,298.9,180,298.9Z"
                transform="translate(-46.75 -112.54)"
                style="fill:#273556"></path>
        <path
                d="M236.07,243.11s-12.37,11-15,11.69-15.41,1.34-19.88,2.51-2.21,6.19-2.21,6.19c3.05,7.41,19.13-.82,22.34-2.11s16.52-17.66,16.52-17.66C236,244.22,236.07,243.11,236.07,243.11Z"
                transform="translate(-46.75 -112.54)"
                style="fill:#e5b9b6"></path>
        <path
                d="M184.16,378a4.66,4.66,0,0,1-.7-.26h0c-1,.17-3.36-.79-5-1.85a4.77,4.77,0,0,1-1.55-1.71,15.57,15.57,0,0,0-.18,5.52l.86,0s.39-2.19,1-1.45,1.19,1.37,1.19,1.37l6-.24S185.75,378.43,184.16,378Z"
                transform="translate(-46.75 -112.54)"
                style="fill:#243145"></path>
        <path
                d="M179.71,374.32a15.12,15.12,0,0,1-.56-3.08l-1.6.05a27.2,27.2,0,0,0-.67,2.91h0a4.77,4.77,0,0,0,1.55,1.71c1.67,1.06,4,2,5,1.85C181.94,377,180.08,375.36,179.71,374.32Z"
                transform="translate(-46.75 -112.54)"
                style="fill:#e5b9b6"></path>
        <path
                d="M129.39,330l.06.85s2.2.31,1.49.93-1.33,1.23-1.33,1.23l.45,6s.94,0,1.3-1.64a3.65,3.65,0,0,1,.23-.71h0c-.2-1,.67-3.38,1.67-5.08a4.79,4.79,0,0,1,1.65-1.62A15.5,15.5,0,0,0,129.39,330Z"
                transform="translate(-46.75 -112.54)"
                style="fill:#243145"></path>
        <path
                d="M134.91,330h0a4.79,4.79,0,0,0-1.65,1.62c-1,1.7-1.87,4.1-1.67,5.08.66-1.54,2.27-3.46,3.3-3.86a6.86,6.86,0,0,1,3.11-.06l-.16-2.21A29.28,29.28,0,0,0,134.91,330Z"
                transform="translate(-46.75 -112.54)"
                style="fill:#e5b9b6"></path>
        <path
                d="M196.41,257.59a7.19,7.19,0,0,0-1.4.91c-2.77,2.35-2.39,6.29-1.34,9.76,1.13,3.79,2.73,9,1.33,12.92-1,2.89-2.13,3.64-2.13,3.64s4.71,3.73,8.22,1.68c0,0,3.83-7.77,5-12.61s1.45-4.84,2.59-6.4c1.78-2.45-.84-6.05-2.57-7.75C203.54,257.19,199.82,255.9,196.41,257.59Z"
                transform="translate(-46.75 -112.54)"
                style="fill:#279c83"></path>
        <path
                d="M226.08,232s-7.49,14.77-9.73,16.37-13.86,6.87-17.6,9.59.21,6.57.21,6.57c5.54,5.79,17.5-7.75,20-10.12s8.93-22.47,8.93-22.47C226.42,233,226.08,232,226.08,232Z"
                transform="translate(-46.75 -112.54)"
                style="fill:#fde7de"></path>
        <path
                d="M192.87,284.82s-10.19,3.5-15.61,12.49-3.26,25.85-2.47,31.54-2.89,11.92-2.84,19.88S177,373.25,177,373.25a2,2,0,0,0,2.48-.59s.86-19.45,3.72-30.56,9.27-28,13.85-37.83,4-17.77,4-17.77S198.47,287.65,192.87,284.82Z"
                transform="translate(-46.75 -112.54)"
                style="fill:#313d63"></path>
        <path
                d="M201.25,253.87c.88-2.88-4.77-2.12-4.77-2.12s.36,4.39-.81,6.22a12.46,12.46,0,0,1,3.79-.58l2.11-1.29S200.37,256.76,201.25,253.87Z"
                transform="translate(-46.75 -112.54)"
                style="fill:#fde7de"></path>
        <path
                d="M190.46,246.82s1.44,4.85,7.78,6a17.06,17.06,0,0,0,2.08.25c4.17.17,4-1.09,4-1.09a24.45,24.45,0,0,0,1-6.11c0-.34,1.29-.48,1.11-.8-3.3-5.86-2.44-7.38-2.45-9.11l-12.28-1.19-2.85,2.33L187.53,240l1.59,4.53Z"
                transform="translate(-46.75 -112.54)"
                style="fill:#fde7de"></path>
        <path
                d="M200.64,226.73s4.84-2.14,7.52,0,3.76,4.93,1.16,8.12-7.95,4.28-10,3.93-4.1-2.13-4.42-1.37-.79,2.46-1.71,2.94c0,0-2.64-1.43-3.25.77s2.54,4.2,2.54,4.2l-.06,4.55s-11.06-7.84-8.5-21.12l4.07-3.69A14,14,0,0,1,200.64,226.73Z"
                transform="translate(-46.75 -112.54)"
                style="fill:#1e274f"></path>
        <path
                d="M187.59,225.77a11.56,11.56,0,0,0-3.49-3.69c-2.17-1.35-6.27-3.34-10.5,1.71-5.81,6.93-4.12,10.86-5.27,17.82S150,246.32,146.87,254s-.7,15.55,7.81,22.42c8.88,7.16,15,.09,15.57-1.87s-.18-5-.08-7.12a5.81,5.81,0,0,1,3.77-5.14c1.28-.5,9.14-4.58,7.68-12.61s-3.69-9.37-3.53-16c.06-2.28,1.48-7.36,5-6.37Z"
                transform="translate(-46.75 -112.54)"
                style="fill:#212b54"></path>
        <path
                d="M182.81,228a1.26,1.26,0,0,0,1,1c.87.15,4.19-3.87,4.19-3.87s-.27-1.82-1.64-.91C186.34,224.15,182.33,227.42,182.81,228Z"
                transform="translate(-46.75 -112.54)"
                style="fill:#f5a51c"></path>
        <circle cx="202.74" cy="241.42" r="0.54"
                transform="translate(-102.47 309.39) rotate(-84.91)"
                style="fill:#212b54"></circle>
        <path d="M202.34,239.71a2.31,2.31,0,0,0-1.26,1.56"
              transform="translate(-46.75 -112.54)"
              style="fill:#1e274f"></path>
        <ellipse cx="202.82" cy="241.36" rx="3.36" ry="3.19"
                 transform="translate(-102.34 309.41) rotate(-84.91)"
                 style="fill:none;stroke:#313d63;stroke-miterlimit:10"></ellipse>
        <path d="M193,239.85l6.89.92"
              transform="translate(-46.75 -112.54)"
              style="fill:none;stroke:#313d63;stroke-miterlimit:10"></path>
        <path
                d="M204.41,248.11a7.6,7.6,0,0,1-3.87-.84s1.57,3.67,3.3,2.49Z"
                transform="translate(-46.75 -112.54)"
                style="fill:#e5b9b6"></path>
        <path
                d="M196.61,252.51a11.88,11.88,0,0,0,4.06.31s-3.42,1.88-4.12,3.07Z"
                transform="translate(-46.75 -112.54)"
                style="fill:#e5b9b6"></path>
        <path
                d="M197.44,267.16s6.58,7.66,3.71,20.06l-9.28-2s6.29-7.52,2.42-15.53Z"
                transform="translate(-46.75 -112.54)"
                style="fill:#1e846c"></path>
        <polyline
                points="354.61 92.9 366.43 127.94 352.85 131.81 354.61 92.9"
                style="fill:#fff5df"></polyline>
        <path
                d="M415.1,247.9c-.29-.4-14.26-42.46-14.26-42.46l19.34,36.48Z"
                transform="translate(-46.75 -112.54)"
                style="fill:#ffe8b5"></path>
        <polygon
                points="354.1 92.9 382.53 125.98 373.44 129.38 354.1 92.9"
                style="fill:#fff5df"></polygon>
        <path
                d="M332.37,349.82c2.76.2,11.83,2.77,28.27-2.41,22.43-7.08,25.24-22.25,2.42-40s-40.39-3.19-27.39,4.48c22.74,13.43,105.46,29.09,78.44-68.65"
                transform="translate(-46.75 -112.54)"
                style="fill:none;stroke:#586f7d;stroke-miterlimit:10;stroke-width:.75px;stroke-dasharray:12"></path>
        <path d="M166.3,290s-1.11-.27-3-.83"
              transform="translate(-46.75 -112.54)"
              style="fill:none;stroke:#586f7d;stroke-miterlimit:10;stroke-width:.75px"></path>
        <path
                d="M157.35,287.16c-12.24-4.48-33.13-14.58-37.1-32.29-8.29-37,19.56-53.79,28.24-44.87s-46.69,48.43-73.73,36.8c-25.26-10.87-33.69-40.91-23.28-68.22"
                transform="translate(-46.75 -112.54)"
                style="fill:none;stroke:#586f7d;stroke-miterlimit:10;stroke-width:.75px;stroke-dasharray:12.23550033569336,12.23550033569336"></path>
        <path d="M52.67,175.65c.41-.94.84-1.88,1.3-2.81"
              transform="translate(-46.75 -112.54)"
              style="fill:none;stroke:#586f7d;stroke-miterlimit:10;stroke-width:.75px"></path>
        <polyline
                points="26.83 27.96 12.6 51.89 21.82 57.43 26.83 27.96"
                style="fill:#ecf6f8"></polyline>
        <path d="M56.58,168.84c.28-.23,17-28.34,17-28.34L55.17,162.57Z"
              transform="translate(-46.75 -112.54)"
              style="fill:#d1e4e2"></path>
        <polygon points="26.83 27.96 2.39 45.72 8.43 50.02 26.83 27.96"
                 style="fill:#ecf6f8"></polygon>
        <path d="M191,297.66s0,7.17-9,11.58l-.68,16"
              transform="translate(-46.75 -112.54)"
              style="fill:none;stroke:#fff;stroke-miterlimit:10"></path>
        <path
                d="M305.41,141.47C286,150.32,276.84,162,289.22,174.8c3.11,11.63,16.07,11.86,21.2,10.72,13.9,2.34,45.89-12.34,49.23-20.2,5.58-5.24,15.53-11.28,10-23.81C367,122.07,330.88,124.15,305.41,141.47Z"
                transform="translate(-46.75 -112.54)"
                style="fill:#f8981d"></path>
        <path
                d="M325.7,179.28c-3.52-2.3-2.72-6.39-9.28-5.35-8.06,1.29-5.92-3.65-10.46-4-6.41-.48-9.37-4.45-8.51-10.26s-5.34-6.38-7.08-9c-8,7.14-9.6,15.34-1.15,24.11,3.11,11.63,16.07,11.86,21.2,10.72,5.79,1,14.71-1,23.4-4.21C330.9,181.19,328,180.76,325.7,179.28Z"
                transform="translate(-46.75 -112.54)"
                style="opacity:.05"></path>
        <path
                d="M194.34,152c5.7,4.64,6,16.5-2.65,20.75-5.28,9.4-21.57,6.39-30.2-13.55-1-3.7-3.74-8.43,2.58-14.86C171.13,133.62,187.83,138.87,194.34,152Z"
                transform="translate(-46.75 -112.54)"
                style="fill:#f5c31c"></path>
        <path
                d="M190.57,146.4c2.64,6.12-1.17,8,.33,11a7.26,7.26,0,0,1,.81,2.8c.11,1.93-1.28,3.67-3.06,4.75-2.93,1.77.9,3-2.89,6-2.2,1.76-.42,3.42-2.53,5.05a14.62,14.62,0,0,0-3.19,1.63c5,1,9.35-.74,11.65-4.84,8.62-4.25,8.35-16.11,2.65-20.75A30.23,30.23,0,0,0,190.57,146.4Z"
                transform="translate(-46.75 -112.54)"
                style="opacity:.05"></path>
    </g>
</svg>
