<svg xmlns="http://www.w3.org/2000/svg" xmlns:xlink="http://www.w3.org/1999/xlink" viewBox="0 0 488.74 320.2"><defs><linearGradient id="a" x1="491.32" y1="192" x2="491.32" y2="145.5" gradientTransform="matrix(-1, 0, 0, 1, 758.74, 0)" gradientUnits="userSpaceOnUse"><stop offset="0" stop-color="#fff"/><stop offset="1" stop-color="#e3eff6"/></linearGradient><linearGradient id="b" x1="426.17" y1="192" x2="426.17" y2="145.5" xlink:href="#a"/><linearGradient id="c" x1="213.88" y1="241.51" x2="213.09" y2="244.64" gradientUnits="userSpaceOnUse"><stop offset="0" stop-color="#436280"/><stop offset="1" stop-color="#294a66"/></linearGradient><linearGradient id="d" x1="226.94" y1="241.09" x2="225.95" y2="245.01" xlink:href="#c"/><linearGradient id="e" x1="220.46" y1="262.85" x2="221.53" y2="240.22" xlink:href="#c"/><linearGradient id="f" x1="211.06" y1="271.79" x2="208.03" y2="266.13" xlink:href="#c"/><linearGradient id="g" x1="69.76" y1="455.61" x2="79.44" y2="455.61" gradientTransform="matrix(-1, 0.01, 0.01, 1, 289.15, -241.4)" gradientUnits="userSpaceOnUse"><stop offset="0" stop-color="#c99861"/><stop offset="1" stop-color="#b2804f"/></linearGradient><linearGradient id="h" x1="69.76" y1="456.49" x2="74.28" y2="456.49" xlink:href="#g"/><linearGradient id="i" x1="87.81" y1="422.57" x2="89.33" y2="443.67" xlink:href="#g"/><linearGradient id="j" x1="90.98" y1="447.68" x2="86.35" y2="470.14" xlink:href="#g"/><linearGradient id="k" x1="92.1" y1="447.88" x2="87.48" y2="470.3" xlink:href="#g"/><linearGradient id="l" x1="221.08" y1="193.84" x2="229.18" y2="193.84" xlink:href="#c"/><linearGradient id="m" x1="221.49" y1="197.54" x2="208.69" y2="185.34" xlink:href="#c"/><clipPath id="n" transform="translate(-4.62 -57.8)"><path d="M221.07,202.67s-.29-2.48,3.12-2.37a4.6,4.6,0,0,1-.21,2.34Z" style="fill:none"/></clipPath><clipPath id="o" transform="translate(-4.62 -57.8)"><path d="M217,202.18a5.42,5.42,0,0,0-3-3,3.41,3.41,0,0,0-3.87,1.41A7.67,7.67,0,0,0,217,202.18Z" style="fill:none"/></clipPath></defs><title>res-main</title><g style="isolation:isolate"><path d="M439.31,340.69c12.93-5.32,42.69-17.56,51.34-46.39,4.33-14.43,4-35.17-5.12-45.11-15.6-16.94-42.52,13.22-59.48-2.19-14.1-12.81-12.89-49.47-4.44-74.68,11.67-34.84,33.94-38.18,34.83-56.37,1.76-36.09-83.12-80.6-116.8-45.17-23.46,24.67-11.75,77.27-31.24,86.79-13.19,6.44-30.3-11.91-45.46-28.17-19.43-20.85-17.74-29.83-28.66-38.27C201.75,66,129.65,101.56,117.87,148.6c-7.76,31,13.73,54.73,4.3,68-13.08,18.33-55-26.48-87.26-3.86-19,13.34-32,48.23-30.1,73.6C13.85,404.67,353.09,376.15,439.31,340.69Z" transform="translate(-4.62 -57.8)" style="fill:#ecf6f8"/><path d="M437.49,335.1s3.21-24-11.38-36.37-49.75-4.16-35.86,6.48S409.89,307.27,437.49,335.1Z" transform="translate(-4.62 -57.8)" style="fill:#1e846c"/><path d="M441,363.45l-.62,0c1.54-26.17-8.35-41.9-16.92-50.49a53.2,53.2,0,0,0-19.14-12.49l.18-.6a53.93,53.93,0,0,1,19.4,12.65A56.74,56.74,0,0,1,436.56,332C440.18,341.2,441.67,351.8,441,363.45Z" transform="translate(-4.62 -57.8)" style="fill:#1e846c"/><path d="M444.32,338.55s-1.13-16.74,9.52-24.65,34.6-.63,24.51,6.1S464.67,320.54,444.32,338.55Z" transform="translate(-4.62 -57.8)" style="fill:#1e846c"/><path d="M441.07,358h-.44c.12-18.33,7.75-28.87,14.13-34.49a37.38,37.38,0,0,1,14-7.87l.1.42A36.89,36.89,0,0,0,455,323.85C448.72,329.41,441.18,339.84,441.07,358Z" transform="translate(-4.62 -57.8)" style="fill:#1e846c"/><path d="M440.92,321.17s-6.13-18.58,3.61-30.59,38.89-10.73,29.45-.2S458.69,295,440.92,321.17Z" transform="translate(-4.62 -57.8)" style="fill:#1e846c"/><path d="M442.38,344.21c-5.18-20.74.39-34.85,6-43a43.65,43.65,0,0,1,13.52-12.94l.24.45a42.85,42.85,0,0,0-13.35,12.8c-5.52,8.1-11,22.07-5.89,42.61Z" transform="translate(-4.62 -57.8)" style="fill:#1e846c"/><path d="M80.73,346.22s-2.11-15.8,7.5-24,32.76-2.74,23.62,4.26S98.91,327.89,80.73,346.22Z" transform="translate(-4.62 -57.8)" style="fill:#1e846c"/><path d="M78.43,364.89l.41,0c-1-17.23,5.5-27.59,11.15-33.25a34.93,34.93,0,0,1,12.6-8.23l-.12-.39a35.38,35.38,0,0,0-12.77,8.33,37.37,37.37,0,0,0-8.35,12.83A48.68,48.68,0,0,0,78.43,364.89Z" transform="translate(-4.62 -57.8)" style="fill:#1e846c"/><path d="M76.23,348.49s.75-11-6.26-16.23-22.79-.42-16.14,4S62.83,336.63,76.23,348.49Z" transform="translate(-4.62 -57.8)" style="fill:#1e846c"/><path d="M78.38,361.3h.28c-.07-12.08-5.1-19-9.3-22.72a24.59,24.59,0,0,0-9.21-5.18l-.07.28a24.08,24.08,0,0,1,9.1,5.13C73.34,342.47,78.31,349.34,78.38,361.3Z" transform="translate(-4.62 -57.8)" style="fill:#1e846c"/><path d="M78.48,337.05s4-12.24-2.38-20.15-25.62-7.07-19.4-.14S66.77,319.77,78.48,337.05Z" transform="translate(-4.62 -57.8)" style="fill:#1e846c"/><path d="M77.52,352.22c3.41-13.66-.26-23-3.94-28.35a28.76,28.76,0,0,0-8.9-8.52l-.16.29a28.39,28.39,0,0,1,8.79,8.43c3.64,5.34,7.26,14.54,3.88,28.07Z" transform="translate(-4.62 -57.8)" style="fill:#1e846c"/><ellipse cx="252.12" cy="306.73" rx="204.6" ry="13.47" style="fill:#f2f2f2"/><rect x="295" y="135.57" width="1.95" height="165.5" style="fill:#666"/><path d="M183,192h51.83l25.95-18.52,39.21-28h0s-53.37,8.88-74.72,15.65A83.75,83.75,0,0,0,183,192Z" transform="translate(-4.62 -57.8)" style="fill:#f5c31c"/><path d="M234.83,192h39.06L300,145.5h0s-29,12.49-38.33,19C243.11,177.4,234.83,192,234.83,192Z" transform="translate(-4.62 -57.8)" style="fill:url(#a)"/><path d="M417,192H365.15l-26-18.52-39.2-28h0s53.37,8.88,74.72,15.65A83.75,83.75,0,0,1,417,192Z" transform="translate(-4.62 -57.8)" style="fill:#f5c31c"/><path d="M365.15,192H326.09L300,145.5h0s29,12.49,38.33,19C356.87,177.4,365.15,192,365.15,192Z" transform="translate(-4.62 -57.8)" style="fill:url(#b)"/><path d="M273.89,192h52.2a200.39,200.39,0,0,0-11-22.93c-3.7-6.3-15.09-23.57-15.09-23.57h0s-12.35,17.56-16.06,23.94C276.17,182.77,273.89,192,273.89,192Z" transform="translate(-4.62 -57.8)" style="fill:#f5c31c"/><path d="M261.4,292.3h78.39a1.35,1.35,0,1,0,0-2.69H261.4a1.35,1.35,0,0,0,0,2.69Z" transform="translate(-4.62 -57.8)" style="fill:#666"/><path d="M359.47,311.76h28.08a1.58,1.58,0,0,0,0-3.15H359.47a1.58,1.58,0,1,0,0,3.15Z" transform="translate(-4.62 -57.8)" style="fill:#666"/><path d="M373.51,356.31a.66.66,0,0,0,.65-.66v-45a.66.66,0,1,0-1.31,0v45A.66.66,0,0,0,373.51,356.31Z" transform="translate(-4.62 -57.8)" style="fill:#666"/><path d="M344.19,280.66s-4.93-1.34-6.42-1.19-.08,1.11,1,1.57.21.11.21.11-8.58,2.14-7.62,3.37,8.74,2.42,12.87.44Z" transform="translate(-4.62 -57.8)" style="fill:#e5b9b6"/><path d="M377.29,289s6.83,8,3.69,13.38-7.71,7.05-16.2,7.05c-10.1,0-20.59,3.81-20.59,3.81s13,16.34,23.33,43.52l-5.51-.12s-43.46-44.83-27.69-59.36c4.15-3.82,10-5.8,26.18-8.28Z" transform="translate(-4.62 -57.8)" style="fill:#e5b9b6"/><path d="M367,249.59c-1.88-3.78,6.52-4.32,6.52-4.32s.38,6.23,2.47,8.46a19.06,19.06,0,0,0-5.65.27L367,252.79S368.89,253.37,367,249.59Z" transform="translate(-4.62 -57.8)" style="fill:#fde7de"/><path d="M373.49,246.37s-3.58,1.6-5.85,1.59c0,0,5.38,1.64,6.65,3.11Z" transform="translate(-4.62 -57.8)" style="fill:#e5b9b6"/><path d="M334.32,297.23c4.15-3.82,10-5.8,26.18-8.28h16.79s6.83,8,3.69,13.38-7.71,7.05-16.2,7.05c-10.1,0-20.59,3.81-20.59,3.81Z" transform="translate(-4.62 -57.8)" style="fill:#212b54"/><path d="M335,293.6s5.69-6,11.66-.91,15.34,51,15.34,51l-4.55,2.43S326.89,300.67,335,293.6Z" transform="translate(-4.62 -57.8)" style="fill:#fde7de"/><path d="M362,343.69s4,1.06,3.93,2.49-16.82,15.35-15.69,12.38,7.21-12.44,7.21-12.44Z" transform="translate(-4.62 -57.8)" style="fill:#666"/><path d="M367.44,356.61s2.68,3.14,1.81,4.28-22.4,3.13-19.8,1.33S361.56,356,361.56,356Z" transform="translate(-4.62 -57.8)" style="fill:#666"/><path d="M363.2,290.63c1.71-.21,14.13,1.12,14.17-.9.32-16,5.65-32.07-2.11-38.29l-8.47,1.1a31,31,0,0,1-4.32,8.41c-3.4,4.59-8,8.61-2.82,14.13C362.69,278.32,363.2,290.63,363.2,290.63Z" transform="translate(-4.62 -57.8)" style="fill:#279c83"/><path d="M377.88,259.76s5,26.21-10.08,30.15-23.61-5-23.61-5v-4.3s19.36,4,21.4-.39S369.76,250.92,377.88,259.76Z" transform="translate(-4.62 -57.8)" style="fill:#fde7de"/><path d="M378,241.82s-1.44,4.85-7.78,6a17.06,17.06,0,0,1-2.08.25c-4.17.17-4-1.09-4-1.09a24.45,24.45,0,0,1-1-6.11c0-.34-1.29-.48-1.11-.8,3.3-5.86,2.44-7.38,2.45-9.11l12.27-1.19,2.85,2.33,1.32,2.87-1.59,4.53Z" transform="translate(-4.62 -57.8)" style="fill:#fde7de"/><path d="M367.83,221.73s-4.84-2.14-7.53,0-3.75,4.93-1.15,8.12,8,4.28,10,3.93,4.1-2.13,4.42-1.37.79,2.46,1.71,2.94c0,0,2.64-1.43,3.25.77s-2.54,4.2-2.54,4.2l.06,4.55s11.06-7.84,8.5-21.12l-4.07-3.69A14,14,0,0,0,367.83,221.73Z" transform="translate(-4.62 -57.8)" style="fill:#1e274f"/><path d="M380.88,220.77a11.43,11.43,0,0,1,3.49-3.69c2.17-1.35,6.27-3.34,10.5,1.71,5.81,6.93,4.12,10.86,5.27,17.82S418.5,241.32,421.6,249s.7,15.55-7.81,22.42c-8.88,7.16-15,.09-15.57-1.87s.17-5,.08-7.12a5.82,5.82,0,0,0-3.77-5.14c-1.28-.5-9.14-4.58-7.68-12.61s3.69-9.37,3.53-16c-.06-2.28-1.49-7.36-5-6.37Z" transform="translate(-4.62 -57.8)" style="fill:#212b54"/><path d="M385.66,223a1.26,1.26,0,0,1-1,1c-.88.15-4.19-3.87-4.19-3.87s.27-1.82,1.64-.91C382.13,219.15,386.14,222.42,385.66,223Z" transform="translate(-4.62 -57.8)" style="fill:#f5a51c"/><circle cx="365.73" cy="236.42" r="0.54" transform="translate(-24.16 -24.4) rotate(-5.09)" style="fill:#212b54"/><path d="M366.12,234.71a2.32,2.32,0,0,1,1.27,1.56" transform="translate(-4.62 -57.8)" style="fill:#1e274f"/><ellipse cx="365.65" cy="236.36" rx="3.19" ry="3.36" transform="translate(-24.15 -24.41) rotate(-5.09)" style="fill:none;stroke:#313d63;stroke-miterlimit:10"/><path d="M375.52,234.85l-6.89.92" transform="translate(-4.62 -57.8)" style="fill:none;stroke:#313d63;stroke-miterlimit:10"/><path d="M364.06,243.11a7.6,7.6,0,0,0,3.87-.84s-1.57,3.67-3.3,2.49Z" transform="translate(-4.62 -57.8)" style="fill:#e5b9b6"/><path d="M312.56,280.23c-.21-1-1.13-2.32-1.28-3.62-.1-.85-.24-4.75-.24-4.75l-.68,0v0l-.55,0-.55,0v0l-.67,0s-.15,3.9-.24,4.75c-.16,1.3-1.08,2.63-1.29,3.62-.47,2.22,0,9.41,0,9.41h5.5S313,282.45,312.56,280.23Z" transform="translate(-4.62 -57.8)" style="fill:#fff4ee"/><rect x="303.76" y="213.76" width="2.87" height="0.64" rx="0.15" style="fill:#ef929f"/><rect x="302.78" y="222.86" width="4.77" height="5.31" style="fill:#f4c892"/><g style="opacity:0.4"><path d="M145.33,200.91a4.35,4.35,0,1,1-2.12,6A4.51,4.51,0,0,1,145.33,200.91Z" transform="translate(-4.62 -57.8)" style="fill:#fff"/><path d="M101.89,196.1a2.05,2.05,0,1,1-1,2.83A2.14,2.14,0,0,1,101.89,196.1Z" transform="translate(-4.62 -57.8)" style="fill:#fff"/><path d="M140.17,155a2.06,2.06,0,1,1-1,2.84A2.12,2.12,0,0,1,140.17,155Z" transform="translate(-4.62 -57.8)" style="fill:#fff"/></g><g style="opacity:0.4"><path d="M394.29,189.09a4.35,4.35,0,1,1-6.36.17A4.51,4.51,0,0,1,394.29,189.09Z" transform="translate(-4.62 -57.8)" style="fill:#fff"/><ellipse cx="381.93" cy="148.33" rx="2.05" ry="2.2" transform="translate(12.9 277.82) rotate(-48.43)" style="fill:#fff"/><path d="M435.38,167.87a2.06,2.06,0,1,1-3,.08A2.12,2.12,0,0,1,435.38,167.87Z" transform="translate(-4.62 -57.8)" style="fill:#fff"/></g><g style="opacity:0.4"><path d="M439,261.47a4.35,4.35,0,1,1,6.27,1.09A4.52,4.52,0,0,1,439,261.47Z" transform="translate(-4.62 -57.8)" style="fill:#fff"/><path d="M441.42,305.1a2.05,2.05,0,1,1,3,.52A2.13,2.13,0,0,1,441.42,305.1Z" transform="translate(-4.62 -57.8)" style="fill:#fff"/><path d="M394.51,274.16a2.05,2.05,0,1,1,3,.52A2.13,2.13,0,0,1,394.51,274.16Z" transform="translate(-4.62 -57.8)" style="fill:#fff"/></g><g style="opacity:0.4"><ellipse cx="266.69" cy="265.02" rx="4.65" ry="4.34" transform="translate(-48.27 -5.03) rotate(-10.45)" style="fill:#fff"/><path d="M225.79,243.4a2.05,2.05,0,1,1-1.79,2.41A2.12,2.12,0,0,1,225.79,243.4Z" transform="translate(-4.62 -57.8)" style="fill:#fff"/><path d="M274.46,215.31a2.05,2.05,0,1,1-1.79,2.41A2.12,2.12,0,0,1,274.46,215.31Z" transform="translate(-4.62 -57.8)" style="fill:#fff"/></g><g style="opacity:0.4"><path d="M90.58,293.69a4.35,4.35,0,1,1-6.35.37A4.5,4.5,0,0,1,90.58,293.69Z" transform="translate(-4.62 -57.8)" style="fill:#fff"/><path d="M78.2,251.78a2.05,2.05,0,1,1-3,.17A2.13,2.13,0,0,1,78.2,251.78Z" transform="translate(-4.62 -57.8)" style="fill:#fff"/><path d="M131,271.14a2.05,2.05,0,1,1-3,.17A2.1,2.1,0,0,1,131,271.14Z" transform="translate(-4.62 -57.8)" style="fill:#fff"/></g><path d="M232.88,317.9c3.43-1,2.83-4,3.43-4.42-.42-1.76-10.33-53.22-10.33-53.22-1.38,1.9-11.61,5.44-11.61,5.44s-3.46,5.86-1.49,15.89c1.94,9.83,13.5,34.4,14,35.26C227.84,317.11,228.66,319.08,232.88,317.9Z" transform="translate(-4.62 -57.8)" style="fill:#273556"/><path d="M236.31,313.48c-1-.57-2.63-1.14-5.72-.63-2.67.44-2.72,3.15-3.73,4l0,0c1.68,6.6,2.27,11.89,3,13.62a66,66,0,0,0,14.42,22.44h4.1C246.71,349.47,239,324.78,236.31,313.48Z" transform="translate(-4.62 -57.8)" style="fill:#273556"/><path d="M229,276.14l-3-16.32c-10,1.45-16-.8-16-.8s-3.18.56-7,9.42-.67,23.88.78,30.74c2.14,10.11,4.59,15.65,4.44,17,1.08.4,5.34-.63,7-.67,1.37,0,3.23.44,3.88.14-.41-8.89-.35-26,.05-33.65C219.26,280.86,229,276.14,229,276.14Z" transform="translate(-4.62 -57.8)" style="fill:#212b54"/><path d="M208.22,316.22c.6,18.65,9,39.35,9,39.35l4.59-1s-2.58-37.35-2.66-38.88c-1-1.65-3.57-2.84-6.94-2.84C207.69,312.85,208.22,316.22,208.22,316.22Z" transform="translate(-4.62 -57.8)" style="fill:#212b54"/><path d="M243.14,354.27a7.94,7.94,0,0,1-.34,2.5,7,7,0,0,0-.41,3.28s-.17.68,2,.57a19.47,19.47,0,0,1,6,.77c1.29.41,6.43.56,9.09-.77,0,0-.14-1.63-.92-1.63s-4.84-.74-5.71-1.62A11.08,11.08,0,0,1,250,353s-.5-.48-1.71,0C248.31,353,243.39,353.42,243.14,354.27Z" transform="translate(-4.62 -57.8)" style="fill:#fb0"/><ellipse cx="244.5" cy="295.81" rx="0.43" ry="0.38" style="fill:#9d6e33"/><ellipse cx="245.35" cy="297.41" rx="0.43" ry="0.38" style="fill:#9d6e33"/><ellipse cx="246.48" cy="298.67" rx="0.43" ry="0.38" style="fill:#9d6e33"/><path d="M249.11,353.78a.2.2,0,0,1-.18-.12.17.17,0,0,1,.13-.21l1.12-.31a.2.2,0,0,1,.24.11.17.17,0,0,1-.13.21l-1.12.31Z" transform="translate(-4.62 -57.8)" style="fill:#9d6e33"/><path d="M250,355.37a.19.19,0,0,1-.17-.09.16.16,0,0,1,.09-.22l1.07-.46a.2.2,0,0,1,.26.08.16.16,0,0,1-.09.22l-1.08.46Z" transform="translate(-4.62 -57.8)" style="fill:#9d6e33"/><path d="M251.1,356.64a.2.2,0,0,1-.14-.06.15.15,0,0,1,0-.23l.74-.57a.2.2,0,0,1,.26,0,.16.16,0,0,1,0,.24l-.74.57A.17.17,0,0,1,251.1,356.64Z" transform="translate(-4.62 -57.8)" style="fill:#9d6e33"/><path d="M248.5,352.31a.18.18,0,0,1,.13,0,.14.14,0,0,1,.06.11v.24a.28.28,0,0,1-.07.17,6.19,6.19,0,0,0-.94,1.2.42.42,0,0,1-.35.22c-.7.08-2.64.27-4.12.32a.36.36,0,0,1-.38-.27c-.09-.53-.26-1.6,0-1.69S247.54,352.35,248.5,352.31Z" transform="translate(-4.62 -57.8)" style="fill:#9d6e33"/><path d="M213.37,361.71a2.1,2.1,0,0,1,.77-1.44,3.71,3.71,0,0,0,1.13-1.71c.15-.45,1.1-3.59.52-5a1.34,1.34,0,0,1,.1-.34c-.06-.4,0-.71.59-.82a8.27,8.27,0,0,1,4.71.62.63.63,0,0,1,.2.2l.66.1a4.93,4.93,0,0,1-.25,1.24,9.38,9.38,0,0,0,0,2.8,6.68,6.68,0,0,1,.54,2.66c-.19.78-.56.91-.65,1.46s-.29,1.42-2.31,1.22a51.61,51.61,0,0,0-5.63-.26C213.31,362.53,213.37,362,213.37,361.71Z" transform="translate(-4.62 -57.8)" style="fill:#fb0"/><ellipse cx="214.3" cy="299.35" rx="0.43" ry="0.38" style="fill:#9d6e33"/><ellipse cx="214.53" cy="298.1" rx="0.43" ry="0.38" style="fill:#9d6e33"/><ellipse cx="214.73" cy="296.98" rx="0.43" ry="0.38" style="fill:#9d6e33"/><path d="M216.85,357.08a.42.42,0,0,1-.47.34A.39.39,0,0,1,216,357a.4.4,0,0,1,.46-.34A.39.39,0,0,1,216.85,357.08Z" transform="translate(-4.62 -57.8)" style="fill:#9d6e33"/><path d="M216.74,355.82a.41.41,0,0,1-.46.35.4.4,0,0,1-.39-.41.42.42,0,0,1,.46-.35A.39.39,0,0,1,216.74,355.82Z" transform="translate(-4.62 -57.8)" style="fill:#9d6e33"/><path d="M216.65,354.68a.42.42,0,0,1-.46.35.39.39,0,0,1-.39-.41.42.42,0,0,1,.46-.35A.4.4,0,0,1,216.65,354.68Z" transform="translate(-4.62 -57.8)" style="fill:#9d6e33"/><path d="M218.92,357.31h-.06a5.74,5.74,0,0,0-2.4-.09.19.19,0,0,1-.22-.13.17.17,0,0,1,.14-.2,6,6,0,0,1,2.6.11.16.16,0,0,1,.12.21A.19.19,0,0,1,218.92,357.31Z" transform="translate(-4.62 -57.8)" style="fill:#9d6e33"/><path d="M219.14,356.07h0a6.51,6.51,0,0,0-2.73-.11.18.18,0,0,1-.22-.12.16.16,0,0,1,.13-.2,6.52,6.52,0,0,1,2.93.12.16.16,0,0,1,.12.21A.18.18,0,0,1,219.14,356.07Z" transform="translate(-4.62 -57.8)" style="fill:#9d6e33"/><path d="M219.35,354.94h-.07a6.2,6.2,0,0,0-3-.13.19.19,0,0,1-.23-.11.17.17,0,0,1,.13-.21,6.82,6.82,0,0,1,3.23.13.15.15,0,0,1,.11.21A.18.18,0,0,1,219.35,354.94Z" transform="translate(-4.62 -57.8)" style="fill:#9d6e33"/><path d="M201,258.29a31.89,31.89,0,0,1,2.6-20.11c1.47-3.07,1-5,.51-6.37-1.79-4.89-5.46-5.5-5.46-5.5-6.85,20.07-5.55,33.09-5.55,33.09,0,.17.1.34.16.52C195.7,260.63,196.38,261.67,201,258.29Z" transform="translate(-4.62 -57.8)" style="fill:#f8981d"/><path d="M206,202.81s1.43,10.06.38,13.45c0,0,3.15,12.54,9.84,13.8s2.33-11.13,2.33-11.13-3.89-6.49-3.95-11S206,202.81,206,202.81Z" transform="translate(-4.62 -57.8)" style="fill:#fde7de"/><path d="M221.05,261.58l-.71.12a112.88,112.88,0,0,1,.69-19c.28-2.75.47-4.56.11-6.07-.3-1.27-3.26-9.23-3.28-9.3l.25-.09c.11.26,3.25,8,3.56,9.29.38,1.58.19,3.42-.09,6.21A114.67,114.67,0,0,0,221.05,261.58Z" transform="translate(-4.62 -57.8)" style="fill:#afe3e3"/><path d="M221.82,239.16v0h0Z" transform="translate(-4.62 -57.8)" style="fill:#efeeee;mix-blend-mode:multiply"/><path d="M228.74,233.21c-.38-2.78-3.44-6.33-3.44-6.33l-1.07-4.16-3.55-1.62c-1.22.88-.15,5-1.71,5.21-5,.77-13.38-4.62-13.38-4.62l-6.94,4.62,1.42,6.09s1.49,2.79,3.36,6.47c4.2,8.69,3.32,22.88,3.32,22.88l19.89-5s.52-15.71.74-17S229.12,236,228.74,233.21Z" transform="translate(-4.62 -57.8)" style="fill:#f8981d"/><path d="M219.25,227.23c-4.19,0-13.63-4.9-13.89-5a.58.58,0,0,1-.41-.76.7.7,0,0,1,.86-.37c.07,0,8.54,5.17,13,4.88,1.95-.13,0-4.31,1.48-5.36a.74.74,0,0,1,.95.08.56.56,0,0,1-.1.85C219.05,223.05,221.87,227.23,219.25,227.23Z" transform="translate(-4.62 -57.8)" style="fill:#f2f2f2"/><path d="M212.19,241.2a1.71,1.71,0,0,1,1.77-1.51c3,0,9.13-.09,12.27,0a1.72,1.72,0,0,1,1.16.46,1.36,1.36,0,0,1,.44,1.06c-.17,2.93-.52,9.6-.45,13.57.09,5.19-.1,13.74.54,15.95,0,0-16.82-1.08-20.57-1.52s-3.72-2.14-3.72-2.14l2.68-7.88a.31.31,0,0,1,.26-.19l3.73-.32a1,1,0,0,0,1-.89Z" transform="translate(-4.62 -57.8)" style="fill:#273556"/><path d="M222.18,221.79s2.55.27,2.59,1.73l1.34,4.39S222.61,223.24,222.18,221.79Z" transform="translate(-4.62 -57.8)" style="fill:#212b54"/><path d="M204.91,222.11s6.17,6.08,8.22,12.43,2.18,7.33,1,7.64c-1.35.35-1.34-1.41-3.16-6.71s-6-10.9-8.3-11.95Z" transform="translate(-4.62 -57.8)" style="fill:#212b54"/><path d="M227.92,237.74s1.05,3.84-1.06,4.3S225.51,239.57,227.92,237.74Z" transform="translate(-4.62 -57.8)" style="fill:#273556"/><path d="M214.6,241.18a.62.62,0,0,1-.63.6.6.6,0,1,1,0-1.2A.62.62,0,0,1,214.6,241.18Z" transform="translate(-4.62 -57.8)" style="fill:url(#c)"/><path d="M227.77,240.67a.73.73,0,1,1-.73-.75A.74.74,0,0,1,227.77,240.67Z" transform="translate(-4.62 -57.8)" style="fill:url(#d)"/><path d="M216.34,247.88h9.77l-.43,8.17a1.36,1.36,0,0,1-1.14,1.21,19,19,0,0,1-7.47,0,1.49,1.49,0,0,1-1.22-1.5Z" transform="translate(-4.62 -57.8)" style="fill:url(#e)"/><path d="M207.37,258.89l-2.26,8.87a7.6,7.6,0,0,0,2.81.46l-2-.77,2-8.63Z" transform="translate(-4.62 -57.8)" style="fill:url(#f)"/><path d="M210,260.16a.73.73,0,0,1-.81.64.71.71,0,0,1-.71-.73.75.75,0,0,1,.82-.64A.71.71,0,0,1,210,260.16Z" transform="translate(-4.62 -57.8)" style="fill:#a9afb9"/><path d="M209.24,263.23a.74.74,0,0,1-.81.64.71.71,0,0,1-.71-.73.75.75,0,0,1,.81-.64A.71.71,0,0,1,209.24,263.23Z" transform="translate(-4.62 -57.8)" style="fill:#a9afb9"/><path d="M208.45,266.31a.75.75,0,0,1-.81.64.72.72,0,0,1-.71-.73.74.74,0,0,1,.81-.64A.71.71,0,0,1,208.45,266.31Z" transform="translate(-4.62 -57.8)" style="fill:#a9afb9"/><path d="M221.08,207.22s.1,13.33,3.11,17.95A24,24,0,0,1,216,213.86c-2.27-7.17-1.61-9.17-1.61-9.17Z" transform="translate(-4.62 -57.8)" style="fill:url(#g)"/><path d="M224,206.35s-1.09,13.28.22,18.82c0,0-5-6.09-4.65-16.14Z" transform="translate(-4.62 -57.8)" style="fill:url(#h)"/><path d="M221.47,190.37a57.35,57.35,0,0,1,3.72,7s-2.18,4.06-.43,7.27c0,0-1.19,4.88-7.63,9.17,0,0-8.28-2-12.08-11.94,0,0-2-14.24,4-15.53S221.47,190.37,221.47,190.37Z" transform="translate(-4.62 -57.8)" style="fill:#fde7de"/><path d="M206.54,196.45l.91-1.91a30.47,30.47,0,0,1-4,.89c-.94.15-1.88.27-2.81.41l-.19,0c0,7.41,2,19.42,2.91,23.72a17.56,17.56,0,0,0,4,7.33s-.45-7.34-.64-14.74S205.53,198.6,206.54,196.45Z" transform="translate(-4.62 -57.8)" style="fill:url(#i)"/><path d="M204.56,209.23s-.51,12.39,1.31,15.89c0,0-1.88-2.54-1.75-9.35S204.56,209.23,204.56,209.23Z" transform="translate(-4.62 -57.8)" style="fill:url(#j)"/><path d="M203.16,209.07s-.76,6.35.17,10.52C203.33,219.59,201.19,214,203.16,209.07Z" transform="translate(-4.62 -57.8)" style="fill:url(#k)"/><path d="M210.47,184.27c-8.69,2.15-11.68,5.39-11,8.49,1.09,5.06,1,5.74,1,5.74a34.3,34.3,0,0,1,4.45-2.19A64.78,64.78,0,0,1,222.52,192S218.52,182.28,210.47,184.27Z" transform="translate(-4.62 -57.8)" style="fill:#273556"/><path d="M229.17,194.92l-7.37-.59-.72-1.53S229.28,192.27,229.17,194.92Z" transform="translate(-4.62 -57.8)" style="fill:url(#l)"/><path d="M216,196.11l-8.23-.91c7.31-4,13.07-3.95,13.07-3.95s3.34.91,4.86,1.26c4.38,1,3.46,2.41,3.46,2.41-1.35-3.11-8.09,1.08-8.09,1.08A12,12,0,0,1,216,196.11Z" transform="translate(-4.62 -57.8)" style="fill:url(#m)"/><path d="M210.78,199.5a9.24,9.24,0,0,1,1.33-1.07,2.4,2.4,0,0,1,1.48-.21h0l.06,0a.24.24,0,0,0,0-.3.2.2,0,0,0-.15-.07,2.76,2.76,0,0,0-2.75,1.67Z" transform="translate(-4.62 -57.8)" style="fill:#1e274f"/><path d="M223.6,199.07a4.1,4.1,0,0,0-1.26-.68s-.24-.13-.18-.28.34-.26,1,.21a3.46,3.46,0,0,1,.77.59A.5.5,0,0,1,223.6,199.07Z" transform="translate(-4.62 -57.8)" style="fill:#1e274f"/><path d="M219.85,200.68s-1.11,2.31,1.45,6a2.92,2.92,0,0,1-2.1.57,3.15,3.15,0,0,0,2.54-.59S219.56,203.67,219.85,200.68Z" transform="translate(-4.62 -57.8)" style="fill:#e5b9b6"/><path d="M219.87,208.83a8.14,8.14,0,0,1-4.65-1.66s1.48,2.54,2.81,2.8C219,210.16,219.87,208.83,219.87,208.83Z" transform="translate(-4.62 -57.8)" style="fill:#e5b9b6"/><g style="clip-path:url(#n)"><path d="M221,201.5a.75.75,0,0,0,.79.68.73.73,0,0,0,.76-.69.78.78,0,0,0-1.55,0Z" transform="translate(-4.62 -57.8)" style="fill:#1e274f"/></g><g style="clip-path:url(#o)"><path d="M212.6,200.74a.93.93,0,0,0,1.84,0,.89.89,0,0,0-.93-.81A.87.87,0,0,0,212.6,200.74Z" transform="translate(-4.62 -57.8)" style="fill:#1e274f"/><path d="M213.62,200.52a.17.17,0,1,0,.17-.15A.16.16,0,0,0,213.62,200.52Z" transform="translate(-4.62 -57.8)" style="fill:#1e274f"/></g><polygon points="243.04 184.58 241.77 183.98 217.43 183.98 206.63 203.44 207.29 204.21 243.04 184.58" style="fill:#279c83"/><polygon points="207.29 204.21 218.55 184.58 243.04 184.58 232.1 203.5 207.29 204.21" style="fill:#1e846c"/><path d="M216.24,241.36c-.45-.48-.94-.93-1.42-1.39-7.26,5.79-13.24,12-19.69,14.66-4,5.07-1.21,7.42,3.87,6.15,5.44-3.15,14.46-14.16,17.95-18.57A8.63,8.63,0,0,0,216.24,241.36Z" transform="translate(-4.62 -57.8)" style="fill:#e5b9b6"/><path d="M213.47,239.86l4.72-2.53,5.81,1.26s.56.47-.92.74a3.09,3.09,0,0,1-2.17-.21s.39.82-.72,1.47A1.43,1.43,0,0,1,218.9,242s-.84,1.3-2,1S213.28,242.6,213.47,239.86Z" transform="translate(-4.62 -57.8)" style="fill:#fde7de"/><path d="M242.15,245a.46.46,0,0,1,.48-.26l4.82.27a1,1,0,0,1,.75.37.78.78,0,0,1-.28,1.18.64.64,0,0,1-.42.09,32.11,32.11,0,0,1-5.12-.92c-.22-.07-.36-.24-.32-.39Z" transform="translate(-4.62 -57.8)" style="fill:#e5b9b6"/><path d="M241.16,246a.32.32,0,0,0-.12.35.57.57,0,0,0,.3.34,19.37,19.37,0,0,0,4.92,1.62.93.93,0,0,0,1-1.31.57.57,0,0,0-.4-.27L242,245.63A1.37,1.37,0,0,0,241.16,246Z" transform="translate(-4.62 -57.8)" style="fill:#e5b9b6"/><path d="M241.06,246.6a.8.8,0,0,0-.65,0,.71.71,0,0,0-.42.66.43.43,0,0,0,.29.37c.76.32,2.92,1.25,4.54,1.81a1.06,1.06,0,0,0,.61,0,.94.94,0,0,0,.8-.89.39.39,0,0,0-.32-.36Z" transform="translate(-4.62 -57.8)" style="fill:#e5b9b6"/><path d="M240.68,248.05a.46.46,0,0,0-.5.07c-.17.18-.33.46,0,.7a32.1,32.1,0,0,0,2.85,1.64,1.36,1.36,0,0,0,.77.14l.21,0c.56-.05.92-.41.83-.82a.44.44,0,0,0-.27-.26Z" transform="translate(-4.62 -57.8)" style="fill:#e5b9b6"/></g></svg>
