<svg xmlns="http://www.w3.org/2000/svg" xmlns:xlink="http://www.w3.org/1999/xlink" viewBox="0 0 507.8295 420.5339"><defs><linearGradient id="a38a7366-2098-4bfa-9e96-88e19cab2416" x1="-10.6227" y1="357.8965" x2="46.9042" y2="357.8965" gradientUnits="userSpaceOnUse"><stop offset="0.3787" stop-color="#57d9a3"/><stop offset="1" stop-color="#36b37e"/></linearGradient><linearGradient id="bd599107-88e0-447e-bad6-1b0e66ac7bde" x1="51.4131" y1="145" x2="506.3318" y2="145" gradientUnits="userSpaceOnUse"><stop offset="0" stop-color="#deebff"/><stop offset="0.12" stop-color="#deebff" stop-opacity="0.98"/><stop offset="0.28" stop-color="#deebff" stop-opacity="0.92"/><stop offset="0.44" stop-color="#deebff" stop-opacity="0.82"/><stop offset="0.62" stop-color="#deebff" stop-opacity="0.68"/><stop offset="0.81" stop-color="#deebff" stop-opacity="0.51"/><stop offset="1" stop-color="#deebff" stop-opacity="0.3"/></linearGradient><linearGradient id="bbf4437c-c57a-48df-915b-6a4d0336607b" x1="443.3993" y1="291.448" x2="474.756" y2="291.448" gradientUnits="userSpaceOnUse"><stop offset="0" stop-color="#e3edfe"/><stop offset="1" stop-color="#bfd5fb"/></linearGradient><linearGradient id="e198ef87-5c6f-4125-9cb2-99bf10f19bac" x1="457.6664" y1="223.9598" x2="493.115" y2="223.9598" xlink:href="#bbf4437c-c57a-48df-915b-6a4d0336607b"/><linearGradient id="b0be0a15-28b0-4d2c-8466-74eb1f422553" x1="132.8469" y1="53.419" x2="151.9058" y2="53.419" xlink:href="#bbf4437c-c57a-48df-915b-6a4d0336607b"/><linearGradient id="a64a0083-d9a3-4b2d-a845-6c290eacca0b" x1="94.2563" y1="53.419" x2="113.3151" y2="53.419" xlink:href="#bbf4437c-c57a-48df-915b-6a4d0336607b"/><linearGradient id="ba362668-1e9a-435d-a5fa-82b307d72468" x1="99.4647" y1="182.3937" x2="132.1636" y2="182.3937" gradientUnits="userSpaceOnUse"><stop offset="0" stop-color="#e3edfe"/><stop offset="1" stop-color="#d9e6fc"/></linearGradient><linearGradient id="a7047254-6410-439a-aaf6-2cc3ae01d4e8" x1="51.6879" y1="212.7617" x2="84.3868" y2="212.7617" xlink:href="#ba362668-1e9a-435d-a5fa-82b307d72468"/><linearGradient id="ac6e5267-7877-47de-9838-d775455774dc" x1="173.2052" y1="383.854" x2="309.6414" y2="303.6414" gradientUnits="userSpaceOnUse"><stop offset="0" stop-color="#b2d4ff"/><stop offset="1" stop-color="#deebff"/></linearGradient><linearGradient id="be236e50-1971-4188-aca0-a38540c6d12f" x1="159.5969" y1="886.3275" x2="258.2058" y2="787.7186" gradientTransform="translate(0 -651)" gradientUnits="userSpaceOnUse"><stop offset="0" stop-color="#0049b0"/><stop offset="0.99" stop-color="#0049b0"/><stop offset="1" stop-color="#0049b0"/></linearGradient><linearGradient id="e7aad474-33f8-4a28-8dcd-6de5b7d79954" x1="152.8154" y1="879.4085" x2="251.4243" y2="780.7996" gradientTransform="translate(0 -651)" gradientUnits="userSpaceOnUse"><stop offset="0" stop-color="#deebff"/><stop offset="0.74" stop-color="#fff"/></linearGradient><linearGradient id="f71cdef0-64d5-4eb2-9aec-4be6f034c3da" x1="201.5069" y1="136.0749" x2="214.8138" y2="136.0749" gradientTransform="matrix(1, 0, -0.1543, 1, 49.4108, 0)" gradientUnits="userSpaceOnUse"><stop offset="0" stop-color="#3457b4"/><stop offset="1" stop-color="#6c98e3"/></linearGradient><linearGradient id="f42d7f52-8261-4393-bc6b-ab69124e21b1" x1="167.1296" y1="199.036" x2="228.4296" y2="199.036" gradientUnits="userSpaceOnUse"><stop offset="0" stop-color="#fc7318"/><stop offset="1" stop-color="#feb423"/></linearGradient><linearGradient id="f13fbd09-ad43-440a-beb1-506d478662ab" x1="255.2055" y1="54.7445" x2="250.5614" y2="-7.7202" gradientTransform="matrix(1, 0, 0, -1, 16.313, 450)" gradientUnits="userSpaceOnUse"><stop offset="0.21" stop-color="#e5e8ec" stop-opacity="0.3"/><stop offset="0.79" stop-color="#cfd4db" stop-opacity="0.8"/></linearGradient><clipPath id="ae545eea-bac3-4be1-90cd-c4f23689e25e" transform="translate(16.313 -52)"><path d="M58.1965,366.5727c-14.888-24.7464,4.8473-25.63,0-39.4764-4.8623-13.8894-17.3116-12.0786-15.2342-24.4518C45.599,286.9392,39.5,281.8968,31.19,281.8968s-18.1752,8.2525-13.8493,22.5153c2.77,9.1326-1.7312,11.4894-7.9634,19.149s-4.501,18.8544,0,24.4518c5.813,7.2288,4.9115,11.7066-1.0387,18.8544-5.8859,7.07-6.9246,21.8,4.1548,26.5139s1.1507,23.6034,7.9634,32.406c9.3482,12.0786,22.5051,12.0786,27.3523-9.7218,3.247-14.6029-1.7311-15.0246,4.5011-22.6842S65.9577,379.4731,58.1965,366.5727ZM14.5712,345.0669c-6.7072-3.5162,4.8937-14.5357,6.8429-14.8677,0,0,5.81-3.75,10.6838-.2665s-1.5191,9.0575-6.315,11.0819S21.2781,348.583,14.5712,345.0669Zm22.1589-44.19c-3.1161,0-2.0774,5.5974-6.5784,4.419s-1.2443-10.5711,2.4236-10.311C36.73,295.28,39.8462,300.8769,36.73,300.8769Zm3.6964,73.8652c-2.8344-5.165,3.5813-10.8035,9.4442-8.0451a5.83,5.83,0,0,1,3.1323,3.4109c2.4236,6.7757,6.9247,10.6055,1.0387,11.1947C49.9052,381.7167,43.2031,379.8027,40.4265,374.7421Z" style="fill:url(#a38a7366-2098-4bfa-9e96-88e19cab2416)"/></clipPath><linearGradient id="b51170fd-35a5-4f61-80be-710d6d145bb5" x1="23.1533" y1="436.8023" x2="23.1533" y2="285.0309" xlink:href="#a38a7366-2098-4bfa-9e96-88e19cab2416"/><linearGradient id="fc8bc4a3-cdc8-418f-875e-f3ef8e4503c2" x1="368.4295" y1="1105.794" x2="368.4295" y2="1025.7987" gradientTransform="translate(16.313 -703)" gradientUnits="userSpaceOnUse"><stop offset="0" stop-color="#ffe380" stop-opacity="0"/><stop offset="0.09" stop-color="#ffe07a" stop-opacity="0.05"/><stop offset="0.24" stop-color="#ffd969" stop-opacity="0.18"/><stop offset="0.46" stop-color="#ffcd4d" stop-opacity="0.4"/><stop offset="0.71" stop-color="#ffbd28" stop-opacity="0.69"/><stop offset="0.96" stop-color="#ffab00"/></linearGradient><linearGradient id="e70dd6af-cfa9-405b-b345-8adb6c18cec1" x1="459.962" y1="1084.9687" x2="459.962" y2="959.567" gradientTransform="translate(16.313 -703)" gradientUnits="userSpaceOnUse"><stop offset="0" stop-color="#00c7e5" stop-opacity="0"/><stop offset="0.1" stop-color="#00c7e5" stop-opacity="0.06"/><stop offset="0.28" stop-color="#00c7e5" stop-opacity="0.21"/><stop offset="0.52" stop-color="#00c7e5" stop-opacity="0.46"/><stop offset="0.81" stop-color="#00c7e5" stop-opacity="0.81"/><stop offset="0.96" stop-color="#00c7e5"/></linearGradient><linearGradient id="bdb18909-fc70-419a-ae95-e2b8a7ac3174" x1="413.6335" y1="1101.9595" x2="413.6335" y2="985.4299" gradientTransform="translate(16.313 -703)" gradientUnits="userSpaceOnUse"><stop offset="0.18" stop-color="#2684ff" stop-opacity="0"/><stop offset="0.27" stop-color="#2380f9" stop-opacity="0.07"/><stop offset="0.45" stop-color="#1c75ea" stop-opacity="0.26"/><stop offset="0.68" stop-color="#1062d2" stop-opacity="0.57"/><stop offset="0.96" stop-color="#0049b1" stop-opacity="0.99"/><stop offset="0.96" stop-color="#0049b0"/></linearGradient><linearGradient id="e9bd22dc-8c0c-4d8b-9631-032ff686ff6d" x1="427.9827" y1="372.123" x2="451.1114" y2="402.6409" gradientTransform="matrix(1, 0, 0, -1, -1.56, 490.13)" gradientUnits="userSpaceOnUse"><stop offset="0" stop-color="#0065ff"/><stop offset="1" stop-color="#4c9aff"/></linearGradient><linearGradient id="eec375c7-2d79-4675-b891-c7c187c3e841" x1="398.4586" y1="312.2035" x2="432.4629" y2="312.2035" xlink:href="#bbf4437c-c57a-48df-915b-6a4d0336607b"/><linearGradient id="af840325-2bf1-4c19-8f5c-50ab23a5f0b7" x1="416.5518" y1="278.3899" x2="423.0131" y2="278.3899" xlink:href="#bbf4437c-c57a-48df-915b-6a4d0336607b"/><linearGradient id="a88a6c14-7c85-42ab-b45b-ecbf27bb2c95" x1="432.2274" y1="278.3899" x2="438.6886" y2="278.3899" xlink:href="#bbf4437c-c57a-48df-915b-6a4d0336607b"/><linearGradient id="ae6f0e99-ec05-409d-b033-4a5c656966af" x1="392.446" y1="309.7671" x2="423.9189" y2="309.7671" xlink:href="#bbf4437c-c57a-48df-915b-6a4d0336607b"/><linearGradient id="edde6dc8-bc40-4760-8de4-0045298b7b86" x1="394.3088" y1="307.2729" x2="418.5807" y2="307.2729" xlink:href="#bbf4437c-c57a-48df-915b-6a4d0336607b"/><linearGradient id="b378e7cf-c537-4366-a4dd-f933c5ea040d" x1="395.6572" y1="309.8855" x2="418.1311" y2="309.8855" xlink:href="#bbf4437c-c57a-48df-915b-6a4d0336607b"/><linearGradient id="e3613617-2df6-4b98-a5ff-dbba7f89f6bc" x1="396.2893" y1="312.4981" x2="417.5412" y2="312.4981" xlink:href="#bbf4437c-c57a-48df-915b-6a4d0336607b"/><linearGradient id="b8a738da-7e90-4786-a1ec-bcbe5aba8e70" x1="298.8788" y1="874.8875" x2="375.2275" y2="798.5389" gradientTransform="translate(16.313 -703)" xlink:href="#be236e50-1971-4188-aca0-a38540c6d12f"/><linearGradient id="bf189996-e57a-43cc-a97f-4b1272e3de4b" x1="292.1125" y1="868.5564" x2="368.4611" y2="792.2078" gradientTransform="translate(16.313 -703)" xlink:href="#e7aad474-33f8-4a28-8dcd-6de5b7d79954"/><linearGradient id="a100a846-26af-4c6c-a844-09a25be3c0c1" x1="258.4963" y1="961.8828" x2="328.4263" y2="891.9528" xlink:href="#be236e50-1971-4188-aca0-a38540c6d12f"/><linearGradient id="e647d62e-e52e-4ed1-8485-f8c18e9578ff" x1="251.7833" y1="955.3037" x2="321.402" y2="885.685" xlink:href="#e7aad474-33f8-4a28-8dcd-6de5b7d79954"/><linearGradient id="b2099d4c-9e43-4b7f-81f1-5c46fa76d936" x1="219.6383" y1="300.8571" x2="234.5061" y2="300.8571" gradientTransform="translate(-131.0998 54.6366) rotate(-11.1786)" gradientUnits="userSpaceOnUse"><stop offset="0.0249" stop-color="#023f32"/><stop offset="0.0264" stop-color="#023f32"/><stop offset="0.136" stop-color="#0c5847"/><stop offset="0.2577" stop-color="#146c58"/><stop offset="0.3986" stop-color="#1a7a63"/><stop offset="0.5739" stop-color="#1d826a"/><stop offset="0.8903" stop-color="#1e846c"/></linearGradient><linearGradient id="b8fbd520-a35c-466c-81d7-7ece7892a578" x1="86.209" y1="145" x2="144.75" y2="145" gradientTransform="matrix(1, 0, 0, 1, 0, 0)" xlink:href="#e7aad474-33f8-4a28-8dcd-6de5b7d79954"/></defs><g id="e1a0adfc-1c19-47d9-8a4a-e585c84cfb4d" data-name="Layer 2"><rect x="51.4131" width="454.9186" height="290" rx="17.6014" style="fill:url(#bd599107-88e0-447e-bad6-1b0e66ac7bde)"/><polyline points="79.742 272.835 66.454 272.835 66.454 268.526" style="fill:none;stroke:#fff;stroke-linejoin:round;stroke-width:1.8799999952316284px"/><line x1="66.4535" y1="260.0419" x2="66.4535" y2="23.8421" style="fill:none;stroke:#fff;stroke-linejoin:round;stroke-width:1.8799999952316284px;stroke-dasharray:6.380000114440918,6.380000114440918"/><polyline points="66.454 19.667 66.454 15.358 79.742 15.358" style="fill:none;stroke:#fff;stroke-linejoin:round;stroke-width:1.8799999952316284px"/><line x1="106.3174" y1="15.3583" x2="463.8057" y2="15.3583" style="fill:none;stroke:#fff;stroke-linejoin:round;stroke-width:1.8799999952316284px;stroke-dasharray:6.179999828338623,6.179999828338623"/><polyline points="477.094 15.358 490.382 15.358 490.382 19.667" style="fill:none;stroke:#fff;stroke-linejoin:round;stroke-width:1.8799999952316284px"/><line x1="490.3816" y1="28.1513" x2="490.3816" y2="264.2164" style="fill:none;stroke:#fff;stroke-linejoin:round;stroke-width:1.8799999952316284px;stroke-dasharray:6.380000114440918,6.380000114440918"/><polyline points="490.382 268.526 490.382 272.835 477.094 272.835" style="fill:none;stroke:#fff;stroke-linejoin:round;stroke-width:1.8799999952316284px"/><line x1="450.5178" y1="272.8349" x2="93.0295" y2="272.8349" style="fill:none;stroke:#fff;stroke-linejoin:round;stroke-width:1.8799999952316284px;stroke-dasharray:6.179999828338623,6.179999828338623"/><g style="opacity:0.5"><path d="M455.9052,252.9887s-24.155-5.7789-25.0366-26.76c0,0,4.5842,5.8184,11.1077,7.2288C441.9763,233.4573,456.6105,240.4308,455.9052,252.9887Z" transform="translate(16.313 -52)" style="fill:#b3cdfa"/><path d="M485.0735,244.7605s3.0152,14.021-16.4333,16.4332c0,0-2.9137-4.3357,5.2036-9.4451a11.29,11.29,0,0,1,4.2368-1.5048A9.3242,9.3242,0,0,0,485.0735,244.7605Z" transform="translate(16.313 -52)" style="fill:#b3cdfa"/><path d="M473.8438,252.4522a11.2969,11.2969,0,0,1,4.2368-1.505,9.323,9.323,0,0,0,6.9929-5.4833,10.1381,10.1381,0,0,1,.1627,1.653,11.18,11.18,0,0,0-.1627-2.3567,9.3228,9.3228,0,0,1-6.9929,5.4833,11.2986,11.2986,0,0,0-4.2368,1.505c-5.0922,3.2054-5.8425,6.1048-5.695,7.8216C468.2641,257.8209,469.39,255.2559,473.8438,252.4522Z" transform="translate(16.313 -52)" style="fill:#c2d7fb"/><path d="M458.03,214.335s-15.9787,24.8559,2.2827,39.186c0,0,3.9144-3.1911,4.977-11.2411a26.0056,26.0056,0,0,0-2.932-15.4251A48.5969,48.5969,0,0,1,458.03,214.335Z" transform="translate(16.313 -52)" style="fill:#b3cdfa"/><path d="M462.3577,226.8548a48.6011,48.6011,0,0,1-4.3277-12.52s.0068-.1076-.5972,1.003a45.2454,45.2454,0,0,0,3.7919,10.521c2.4853,4.7446,4.2993,11.3138,3.5984,16.6238a21.2135,21.2135,0,0,1-4.51,11.0382c.2541.2154-.2686-.2109,0,0,0,0,3.9144-3.191,4.977-11.241A26.0041,26.0041,0,0,0,462.3577,226.8548Z" transform="translate(16.313 -52)" style="fill:#c2d7fb"/><path d="M434.4723,248.08s-8.8158-1.94-12.1657,10.2262c0,0,9.521-7.4052,11.46-1.4105,0,0,4.4079,7.0526,11.2842,6.7C445.0512,263.5961,445.4037,248.4329,434.4723,248.08Z" transform="translate(16.313 -52)" style="fill:#b3cdfa"/><path d="M434.4722,248.7841c9.5139.3068,10.48,11.8278,10.571,14.8118l.008,0s.3525-15.1632-10.579-15.5157c0,0-8.8157-1.94-12.1656,10.2262,0,0,.111-.0843.2718-.2026C426.107,246.9489,434.4722,248.7841,434.4722,248.7841Z" transform="translate(16.313 -52)" style="fill:#c2d7fb"/><path d="M443.0545,261.8506c1.4938,2.0186,3.54,3.0782,5.5227,4.5462,4.2767,3.1667,4.4531,9.0933,4.84,13.9768.08,1.0132,1.6127,1.0445,1.6013,0-.043-3.9911-.6409-9.2126-3.0613-12.52-2.1065-2.8784-5.8523-3.8991-8.2539-6.5037-.3116-.3379-.9318.1186-.649.5007Z" transform="translate(16.313 -52)" style="fill:#b3cdfa"/><path d="M451.5185,248.6376c6.2237,5.2209,5.7577,11.0343,4.7794,18.403-.645,4.86-.4254,10.0772,1.6549,14.5717.3218.6955,1.2814.17,1.1613-.49-.7511-4.1238-1.712-8.0426-1.4159-12.2863.2379-3.41,1.3255-6.7284.9684-10.17a15.2055,15.2055,0,0,0-6.5661-10.7832c-.4385-.3172-1,.4041-.582.7545Z" transform="translate(16.313 -52)" style="fill:#b3cdfa"/><path d="M459.5122,247.3729c-.4349,5.4722,1.0418,10.89,1.1384,16.3667.0986,5.59-1.3612,10.8219-1.9062,16.3128a.51.51,0,0,0,.9433.2556c4.8416-10.2389,1.5824-22.2777.63-32.9351a.4032.4032,0,0,0-.8058,0Z" transform="translate(16.313 -52)" style="fill:#b3cdfa"/><path d="M473.4577,257.721c-3.5495,2.8595-8.3872,4.9256-9.8746,9.4821-.94,2.879-4.0547,10.0337-1.1442,12.4251a.4242.4242,0,0,0,.7141-.2959c.1249-4.1227.7324-9.9224,2.98-13.4564,1.9052-2.9954,5.63-4.7925,7.8277-7.7668.2333-.3155-.244-.5966-.503-.3881Z" transform="translate(16.313 -52)" style="fill:#b3cdfa"/><path d="M467.6539,307.9894H451.4532a3.8013,3.8013,0,0,1-3.7625-3.26l-4.2914-29.8229H474.756l-3.3245,29.7043A3.8012,3.8012,0,0,1,467.6539,307.9894Z" transform="translate(16.313 -52)" style="fill:url(#bbf4437c-c57a-48df-915b-6a4d0336607b)"/><rect x="457.6664" y="221.5509" width="35.4486" height="4.8177" style="fill:url(#e198ef87-5c6f-4125-9cb2-99bf10f19bac)"/></g><g style="opacity:0.5"><rect x="126.4344" y="33.8742" width="31.8838" height="39.0894" style="fill:#b3cdfa"/><polygon points="126.434 33.874 126.434 34.588 157.605 34.588 157.605 72.964 158.318 72.964 158.318 33.874 126.434 33.874" style="fill:#cadcfb"/><rect x="132.8469" y="41.736" width="19.0589" height="23.366" style="fill:url(#b0be0a15-28b0-4d2c-8466-74eb1f422553)"/><rect x="136.2632" y="45.9241" width="12.2264" height="14.9896" style="fill:#b3cdfa"/><rect x="87.8437" y="33.8742" width="31.8839" height="39.0894" style="fill:#b3cdfa"/><polygon points="87.844 33.874 87.844 34.588 119.014 34.588 119.014 72.964 119.728 72.964 119.728 33.874 87.844 33.874" style="fill:#cadcfb"/><rect x="94.2563" y="41.736" width="19.0588" height="23.366" style="fill:url(#a64a0083-d9a3-4b2d-a845-6c290eacca0b)"/><rect x="97.6724" y="45.9241" width="12.2264" height="14.9896" style="fill:#b3cdfa"/></g><rect x="99.4647" y="177.3782" width="32.6989" height="10.031" style="fill:url(#ba362668-1e9a-435d-a5fa-82b307d72468)"/><rect x="51.6879" y="207.7462" width="32.6989" height="10.031" style="fill:url(#a7047254-6410-439a-aaf6-2cc3ae01d4e8)"/><path d="M299.55,397.836H186.8864a22.9433,22.9433,0,0,1-22.9433-22.9433L200.007,111.377a15.1041,15.1041,0,0,1,15.1041-15.1041h109.985a25.6214,25.6214,0,0,1,25.6214,25.6215L314.6536,382.732C313.5416,391.2236,307.8914,397.836,299.55,397.836Z" transform="translate(16.313 -52)" style="fill:#dfe1e5"/><path d="M294.0235,391.8554H179.2006a15.1041,15.1041,0,0,1-15.1041-15.1041l36.064-265.1725a15.104,15.104,0,0,1,15.104-15.1041H330.0874a15.1041,15.1041,0,0,1,15.1041,15.1041L309.1276,376.7513C307.4682,384.7109,302.3652,391.8554,294.0235,391.8554Z" transform="translate(16.313 -52)" style="fill:#4c9aff"/><path d="M286.8207,109.6356H249.818a.9839.9839,0,0,1-.8543-1.4721h0a.984.984,0,0,1,.8543-.4957h37.0027a.9839.9839,0,0,1,.8542,1.472h0A.984.984,0,0,1,286.8207,109.6356Z" transform="translate(16.313 -52)" style="fill:#2d365a"/><path d="M330.42,110.5552c-.5658,3.16-3.3235,5.31-6.1593,4.802s-4.6759-3.4813-4.11-6.6412,3.3237-5.31,6.1595-4.802S330.986,107.3953,330.42,110.5552Z" transform="translate(16.313 -52)" style="fill:#2d365a"/><path d="M184.3657,381.295A10.9683,10.9683,0,0,1,173.41,370.3982l7.8524-52.5109v-.06a10.9681,10.9681,0,0,1,10.9556-10.9557h105.48a10.9688,10.9688,0,0,1,10.9561,10.8972l-7.8455,52.452c-1.1109,5.3219-4.5834,11.0741-10.9629,11.0741Z" transform="translate(16.313 -52)" style="fill:url(#ac6e5267-7877-47de-9838-d775455774dc)"/><path d="M191.715,349.9014A2.5581,2.5581,0,0,1,189.16,347.36l1.8314-12.247v-.014a2.5581,2.5581,0,0,1,2.5552-2.5552h14.0442a2.5583,2.5583,0,0,1,2.5552,2.5416l-1.83,12.2334c-.2591,1.2412-1.069,2.5827-2.5569,2.5827Z" transform="translate(16.313 -52)" style="fill:#f39000"/><path d="M182.8515,363.995a.7475.7475,0,0,1-.7466-.7425l.5351-3.5783V359.67a.7475.7475,0,0,1,.7466-.7465h17.1a.7473.7473,0,0,1,.7465.7426l-.5346,3.5743a.832.832,0,0,1-.7471.7546Z" transform="translate(16.313 -52)" style="fill:#b2d4ff"/><path d="M205.341,363.995a.7473.7473,0,0,1-.7465-.7425l.535-3.5783V359.67a.7475.7475,0,0,1,.7467-.7465h45.212a.7473.7473,0,0,1,.7465.7426L251.3,363.24a.8322.8322,0,0,1-.7471.7546Z" transform="translate(16.313 -52)" style="fill:#b2d4ff"/><path d="M255.9425,363.995a.7473.7473,0,0,1-.7465-.7425l.535-3.5783V359.67a.7475.7475,0,0,1,.7467-.7465h28.3448a.7473.7473,0,0,1,.7465.7426l-.5346,3.5743a.832.832,0,0,1-.7471.7546Z" transform="translate(16.313 -52)" style="fill:#b2d4ff"/><path d="M180.3682,375.4239a.7475.7475,0,0,1-.7466-.7426l.5351-3.5784v-.004a.7474.7474,0,0,1,.7466-.7465h59.8972a.7475.7475,0,0,1,.7467.7424l-.5347,3.5744a.8322.8322,0,0,1-.747.7547Z" transform="translate(16.313 -52)" style="fill:#b2d4ff"/><path d="M164.081,132.5828h89.6407c1.0246,0,1.8553,2.1433,1.8553,4.7872v97.3061c0,2.6439-.8307,4.7872-1.8553,4.7872H164.081c-1.0246,0-1.8553-2.1433-1.8553-4.7872V137.37C162.2257,134.7261,163.0564,132.5828,164.081,132.5828Z" transform="translate(16.313 -52)" style="opacity:0.2;fill:url(#be236e50-1971-4188-aca0-a38540c6d12f)"/><path d="M157.3,125.6638H246.94c1.0247,0,1.8553,2.1433,1.8553,4.7872v97.3061c0,2.6439-.8306,4.7872-1.8553,4.7872H157.3c-1.0247,0-1.8553-2.1433-1.8553-4.7872V130.451C155.4442,127.8071,156.2748,125.6638,157.3,125.6638Z" transform="translate(16.313 -52)" style="fill:url(#e7aad474-33f8-4a28-8dcd-6de5b7d79954)"/><path d="M220.0972,167.4353a28.1,28.1,0,0,0-.0984-9.5819,9.0775,9.0775,0,0,0-1.8887-3.1328,19.0608,19.0608,0,0,0-6.6406-4.4567c-3.1873-1.385-.9969-11.9205-7.384-9.8212-3.9993,1.3148-21.3913,19.7614-16.3927,19.906-.031-3.24,13.1463-21.0441,18.2079-19.1239,2.2237.8444,2.1294,4.6436,2.5738,6.2922.82,3.0461,2.8255,3.6369,5.8835,5.2477,1.9073,1.0057,3.73,2.2318,4.5971,3.9506.4657.919.7265,3.13.0886,4.034-.4169.5895-.93.4693-2.023.673-4.1411.7665-8.6961.4818-12.7982.4761-4.7449-.0065-9.4788-.0856-14.2028-.199a22.4418,22.4418,0,0,0-3.0442-.1346c-1.0378.15-1.0652,1.9513-1.3634,2.5219a29.1147,29.1147,0,0,0-.9865,5.32c-.0569.8666-1.0284,7.6473-.8071,8.4773.1863.6964.83,1.1636,1.1192,1.8179.2719.6174.2192,1.4206.6288,1.9813a5.0792,5.0792,0,0,0,1.4866,1.0947,13.8946,13.8946,0,0,0,4.1736,1.4385,46.8342,46.8342,0,0,0,9.3585.6274,34.9914,34.9914,0,0,0,11.5494-1.8423c2.2052-.7508,2.9737-1.8244,4.1114-3.3364a12.6717,12.6717,0,0,0,2.0934-2.9626A93.4528,93.4528,0,0,0,220.0972,167.4353Zm-1.73-2.2049a28.7269,28.7269,0,0,1-1.875,2.7434,14.3239,14.3239,0,0,1-4.45,4.2121c-2.6515,1.3294-6.23.821-8.8919.7766-3.66,0-9.4939.4225-12.517-1.4487-2.2819-1.4129-3.0863-5.4122-3.7828-7.9032a1.862,1.862,0,0,1-.1-1.0123c.1771-.4584.9713.2736,1.2946,1.1047a29.4744,29.4744,0,0,1,.7554,3.03c.3628,1.3473.8247,4.1306,2.442,4.5a64.7926,64.7926,0,0,0,12.534,1.0425c1.813.0166,6.57.2459,8.1226-1.3205a44.7173,44.7173,0,0,0,5.3577-6.1879,5.1077,5.1077,0,0,1,1.5848-1.6043C219.82,162.8352,218.6931,164.6887,218.3669,165.23Z" transform="translate(16.313 -52)" style="fill:#b3cdfa"/><path d="M243.2283,136.0749a8.0539,8.0539,0,0,1-7.68,6.6535,5.5627,5.5627,0,0,1-5.6271-6.6535,8.0539,8.0539,0,0,1,7.68-6.6534A5.5626,5.5626,0,0,1,243.2283,136.0749Z" transform="translate(16.313 -52)" style="fill:url(#f71cdef0-64d5-4eb2-9aec-4be6f034c3da)"/><polygon points="251.383 87.383 248.86 84.399 250.159 83.255 251.629 84.925 256.069 81.098 257.122 82.411 251.383 87.383" style="fill:#fff"/><path d="M174.187,203.7055l-2.5882-1.43a.1875.1875,0,0,0-.1744.0023L168.422,203.78a.1643.1643,0,0,1-.2442-.1937l.9727-3.1135a.168.168,0,0,0-.03-.1648l-1.9507-2.1707a.2066.2066,0,0,1,.1489-.32l3.1894-.4939a.2294.2294,0,0,0,.1554-.1041l1.7971-2.8444a.1871.1871,0,0,1,.336-.0044l.9985,2.8083a.153.153,0,0,0,.1265.1005l3.0614.4126c.1505.02.1852.2081.0587.3176l-2.5722,2.2294a.2161.2161,0,0,0-.0773.1662l.095,3.0995A.2161.2161,0,0,1,174.187,203.7055Zm13.1275-.2007-.095-3.0995a.2159.2159,0,0,1,.0774-.1662l2.5722-2.2294c.1264-.1095.0917-.2971-.0588-.3176l-3.0613-.4126a.153.153,0,0,1-.1266-.1005l-.9984-2.8083a.1872.1872,0,0,0-.3361.0044L183.491,197.22a.23.23,0,0,1-.1556.1041l-3.1894.4939a.2066.2066,0,0,0-.1489.32l1.9507,2.1707a.1682.1682,0,0,1,.03.1648l-.9728,3.1135a.1643.1643,0,0,0,.2442.1937l3.0024-1.5029a.1877.1877,0,0,1,.1745-.0023l2.5881,1.43A.2161.2161,0,0,0,187.3145,203.5048Zm12.8278,0-.0951-3.0995a.2159.2159,0,0,1,.0774-.1662l2.5722-2.2294c.1264-.1095.0917-.2971-.0588-.3176l-3.0613-.4126a.153.153,0,0,1-.1266-.1005l-.9984-2.8083a.1871.1871,0,0,0-.336.0044l-1.797,2.8444a.23.23,0,0,1-.1556.1041l-3.1894.4939a.2066.2066,0,0,0-.1489.32l1.9509,2.1707a.1687.1687,0,0,1,.03.1648l-.9728,3.1135a.1643.1643,0,0,0,.2442.1937l3.0024-1.5029a.1877.1877,0,0,1,.1745-.0023l2.5883,1.43A.2161.2161,0,0,0,200.1423,203.5048Zm12.8277,0-.0951-3.0995a.2159.2159,0,0,1,.0774-.1662l2.5722-2.2294c.1264-.1095.0917-.2971-.0588-.3176l-3.0613-.4126a.153.153,0,0,1-.1266-.1005l-.9984-2.8083a.1871.1871,0,0,0-.336.0044l-1.797,2.8444a.23.23,0,0,1-.1555.1041l-3.19.4939a.2065.2065,0,0,0-.1488.32l1.9508,2.1707a.1687.1687,0,0,1,.03.1648l-.9727,3.1135a.1643.1643,0,0,0,.2441.1937l3.0024-1.5029a.1877.1877,0,0,1,.1745-.0023l2.5883,1.43A.2161.2161,0,0,0,212.97,203.5048Zm12.8277,0-.0951-3.0995a.2159.2159,0,0,1,.0774-.1662l2.5722-2.2294c.1265-.1095.0917-.2971-.0588-.3176l-3.0613-.4126a.1527.1527,0,0,1-.1265-.1005l-.9985-2.8083a.1871.1871,0,0,0-.336.0044l-1.797,2.8444a.23.23,0,0,1-.1554.1041l-3.19.4939a.2065.2065,0,0,0-.1489.32l1.9508,2.1707a.1684.1684,0,0,1,.03.1648l-.9726,3.1135a.1642.1642,0,0,0,.244.1937l3.0025-1.5029a.1875.1875,0,0,1,.1744-.0023l2.5883,1.43A.2161.2161,0,0,0,225.7977,203.5048Z" transform="translate(16.313 -52)" style="fill:url(#f42d7f52-8261-4393-bc6b-ab69124e21b1)"/><path d="M205.2643,227.8465H181.0687a5.7386,5.7386,0,0,1-5.8051-6.8639h0a8.3088,8.3088,0,0,1,7.9227-6.864h24.1955a5.7388,5.7388,0,0,1,5.8053,6.864h0A8.3088,8.3088,0,0,1,205.2643,227.8465Z" transform="translate(16.313 -52)" style="fill:#6c98e3"/><ellipse cx="270.6097" cy="407.4787" rx="237.2198" ry="13.0552" style="fill:url(#f13fbd09-ad43-440a-beb1-506d478662ab)"/><path d="M58.1965,366.5727c-14.888-24.7464,4.8473-25.63,0-39.4764-4.8623-13.8894-17.3116-12.0786-15.2342-24.4518C45.599,286.9392,39.5,281.8968,31.19,281.8968s-18.1752,8.2525-13.8493,22.5153c2.77,9.1326-1.7312,11.4894-7.9634,19.149s-4.501,18.8544,0,24.4518c5.813,7.2288,4.9115,11.7066-1.0387,18.8544-5.8859,7.07-6.9246,21.8,4.1548,26.5139s1.1507,23.6034,7.9634,32.406c9.3482,12.0786,22.5051,12.0786,27.3523-9.7218,3.247-14.6029-1.7311-15.0246,4.5011-22.6842S65.9577,379.4731,58.1965,366.5727ZM14.5712,345.0669c-6.7072-3.5162,4.8937-14.5357,6.8429-14.8677,0,0,5.81-3.75,10.6838-.2665s-1.5191,9.0575-6.315,11.0819S21.2781,348.583,14.5712,345.0669Zm22.1589-44.19c-3.1161,0-2.0774,5.5974-6.5784,4.419s-1.2443-10.5711,2.4236-10.311C36.73,295.28,39.8462,300.8769,36.73,300.8769Zm3.6964,73.8652c-2.8344-5.165,3.5813-10.8035,9.4442-8.0451a5.83,5.83,0,0,1,3.1323,3.4109c2.4236,6.7757,6.9247,10.6055,1.0387,11.1947C49.9052,381.7167,43.2031,379.8027,40.4265,374.7421Z" transform="translate(16.313 -52)" style="fill:url(#a38a7366-2098-4bfa-9e96-88e19cab2416)"/><g style="clip-path:url(#ae545eea-bac3-4be1-90cd-c4f23689e25e)"><path d="M16.9948,293.2173c.3463-7.66,39.5165-21.5664,17.3117,23.568-12.4644,25.3356,4.2486,24.6623,12.1181,15.6138,12.8106-14.73,27.023.556,3.8086,18.2652-20.0815,15.3192-29.43,24.4517-29.43,32.7s5.3677,19.053,15.9267,15.9084c13.8493-4.1244,14.5418,45.0738-24.2363,36.53-19.1287-4.2143-29.776-16.203-28.7373-54.501S16.6486,300.8769,16.9948,293.2173Z" transform="translate(16.313 -52)" style="fill:url(#b51170fd-35a5-4f61-80be-710d6d145bb5)"/></g><polygon points="51.85 288.78 54.62 406.62 46.31 406.62 49.08 288.78 51.85 288.78" style="fill:#005541"/><rect x="366.02" y="322.7987" width="37.4451" height="79.9953" rx="1.4618" style="opacity:0.6000000238418579;isolation:isolate;fill:url(#fc8bc4a3-cdc8-418f-875e-f3ef8e4503c2)"/><rect x="457.5524" y="256.567" width="37.4451" height="125.4017" rx="1.7992" style="opacity:0.6000000238418579;isolation:isolate;fill:url(#e70dd6af-cfa9-405b-b345-8adb6c18cec1)"/><rect x="411.224" y="282.4299" width="37.4451" height="116.5296" rx="1.4618" style="fill:url(#bdb18909-fc70-419a-ae95-e2b8a7ac3174)"/><path d="M441.0117,80c-4.748,0-9.4344,5.4572-20.8728,8.0213a1.9937,1.9937,0,0,0-1.5416,1.9835c.5138,21.8749,11.0222,35.8055,22.43,42.3726,11.3922-6.5774,21.9006-20.4977,22.4144-42.3726A1.9937,1.9937,0,0,0,461.9,88.0213C450.4615,85.452,445.7751,80,441.0271,80Z" transform="translate(16.313 -52)" style="fill:#c1c7d0"/><path d="M441.0117,82.24c1.6186,0,3.597,1.0277,6.1046,2.3792a53.1974,53.1974,0,0,0,14.0745,5.5445,53.14,53.14,0,0,1-6.8137,25.6311,40.4918,40.4918,0,0,1-13.36,13.9615,40.4915,40.4915,0,0,1-13.36-13.9615c-4.27-7.2916-6.562-15.9295-6.8138-25.6311A53.945,53.945,0,0,0,434.9174,84.62c2.5076-1.3309,4.4859-2.3792,6.1046-2.3792" transform="translate(16.313 -52)" style="fill:url(#e9bd22dc-8c0c-4d8b-9631-032ff686ff6d)"/><path d="M451.9363,100.8883,448.91,97.8617a.4265.4265,0,0,0-.6013,0l-9.0181,8.9256-4.1571-3.91a.4264.4264,0,0,0-.5909,0l-3.0267,3.0266a.4267.4267,0,0,0-.0032.6032l.0032.0032,7.4818,7.194a.4267.4267,0,0,0,.5961,0l12.3325-12.2607a.4264.4264,0,0,0,0-.6012Z" transform="translate(16.313 -52)" style="fill:#ffc400"/><path d="M423.4431,326.13H402.0587a3.6,3.6,0,0,1,0-7.2h14.5684a2.5765,2.5765,0,0,0,2.5191-2.064l3.73-18.5894h8.407a1.18,1.18,0,1,1,0,2.36h-6.4736L421.46,317.33a4.9432,4.9432,0,0,1-4.8328,3.9595H402.0587a1.24,1.24,0,0,0,0,2.4809h21.3844a1.18,1.18,0,0,1,0,2.36Z" transform="translate(16.313 -52)" style="fill:url(#eec375c7-2d79-4675-b891-c7c187c3e841)"/><circle cx="419.7824" cy="278.3899" r="3.2306" style="fill:url(#af840325-2bf1-4c19-8f5c-50ab23a5f0b7)"/><circle cx="435.458" cy="278.3899" r="3.2306" style="fill:url(#a88a6c14-7c85-42ab-b45b-ecbf27bb2c95)"/><path d="M420.7357,316.428H400.9869a6.38,6.38,0,0,1-6.1273-4.6542l-2.4136-8.6676h30.4616a1.0114,1.0114,0,0,1,0,2.0227H395.1089l1.6992,6.1024a4.3514,4.3514,0,0,0,4.1788,3.174h19.7488a1.0114,1.0114,0,0,1,0,2.0227Z" transform="translate(16.313 -52)" style="fill:url(#ae6f0e99-ec05-409d-b033-4a5c656966af)"/><path d="M418.075,307.7786h-23.26a.5057.5057,0,0,1,0-1.0114h23.26a.5057.5057,0,0,1,0,1.0114Z" transform="translate(16.313 -52)" style="fill:url(#edde6dc8-bc40-4760-8de4-0045298b7b86)"/><path d="M417.6255,309.38H395.6572v1.0114h21.9683a.5057.5057,0,0,0,0-1.0114Z" transform="translate(16.313 -52)" style="fill:url(#b378e7cf-c537-4366-a4dd-f933c5ea040d)"/><path d="M417.0355,311.9924H396.2893v1.0114h20.7462a.5057.5057,0,1,0,0-1.0114Z" transform="translate(16.313 -52)" style="fill:url(#e3613617-2df6-4b98-a5ff-dbba7f89f6bc)"/><rect x="299.6161" y="109.863" width="107.5001" height="47.7004" rx="2.1365" style="opacity:0.20000000298023224;isolation:isolate;fill:url(#b8a738da-7e90-4786-a1ec-bcbe5aba8e70)"/><rect x="292.8498" y="103.532" width="107.5" height="47.7003" rx="2.1365" style="fill:url(#bf189996-e57a-43cc-a97f-4b1272e3de4b)"/><circle cx="383.4827" cy="138.6156" r="6.522" style="fill:#2684ff"/><line x1="301.9581" y1="113.2025" x2="391.354" y2="113.2025" style="fill:none;stroke:#b2d4ff;stroke-miterlimit:10;stroke-width:1.8799999952316284px"/><line x1="301.9581" y1="124.6721" x2="363.1297" y2="124.6721" style="fill:none;stroke:#b2d4ff;stroke-miterlimit:10;stroke-width:1.8799999952316284px"/><rect x="301.9581" y="132.0937" width="12.9315" height="12.9652" rx="2.1365" style="fill:#00c7e5"/><path d="M241.8478,258.694h103.227c1.18,0,2.1365.6908,2.1365,1.5429v31.3618c0,.8521-.9565,1.5429-2.1365,1.5429H241.8478c-1.18,0-2.1366-.6908-2.1366-1.5429V260.2369C239.7112,259.3848,240.6678,258.694,241.8478,258.694Z" transform="translate(16.313 -52)" style="opacity:0.20000000298023224;isolation:isolate;fill:url(#a100a846-26af-4c6c-a844-09a25be3c0c1)"/><path d="M234.9791,252.594H338.2062c1.18,0,2.1365.6778,2.1365,1.5139v30.7729c0,.8361-.9566,1.5139-2.1365,1.5139H234.9791c-1.18,0-2.1365-.6778-2.1365-1.5139V254.1079C232.8426,253.2718,233.7992,252.594,234.9791,252.594Z" transform="translate(16.313 -52)" style="fill:url(#e647d62e-e52e-4ed1-8485-f8c18e9578ff)"/><circle cx="342.9371" cy="221.1719" r="6.522" style="fill:#ff991f"/><line x1="258.2639" y1="209.9271" x2="347.6599" y2="209.9271" style="fill:none;stroke:#b2d4ff;stroke-miterlimit:10;stroke-width:1.8799999952316284px"/><rect x="258.2639" y="214.7624" width="12.9315" height="12.9652" rx="2.1365" style="fill:#ffc400"/><path d="M190.4516,336.8542s2.2114.6011,2.4931.2618-2.1094-1.5742-.8261-1.5008-3.4515-2.2579-3.4515-2.2579a4.4,4.4,0,0,0,1.8636-.1834c1.0176-.3235-3.8406-.8955-4.26-1.0008a37.7452,37.7452,0,0,1-3.2686-2.0031c-2.4167,1.59-1.1542,2.2685-1.1542,2.2685s2.31,1.408,3.4248,2.2119c.7439.5364,5.451,3.7078,5.9566,3.5765S190.4516,336.8542,190.4516,336.8542Z" transform="translate(16.313 -52)" style="fill:#e5b9b6"/><path d="M182.2263,222.6638s-.4194-2.2533-.8473-2.3595-.5016,2.5838-.993,1.3961-.5346,4.09-.5346,4.09a4.4,4.4,0,0,0-.9746-1.5988c-.7335-.7761.8618,3.8481.949,4.2715a37.7131,37.7131,0,0,1-.3844,3.8143c2.4821,1.4858,2.5447.0541,2.5447.0541s.2645-2.6924.5044-4.0457c.16-.9029.972-6.52.634-6.9188S182.2263,222.6638,182.2263,222.6638Z" transform="translate(16.313 -52)" style="fill:#e5b9b6"/><path d="M183.6919,330.5741s-18.2951-16.4671-19.7233-20.3075-4.4813-22.5447-6.9385-28.9639-9.5075-2.2467-9.5075-2.2467c-10.4558,5.7034,4.333,28.1146,6.7622,32.659s28.78,21.5135,28.78,21.5135C182.0392,330.6506,183.6919,330.5741,183.6919,330.5741Z" transform="translate(16.313 -52)" style="fill:#e5b9b6"/><path d="M159.0274,456.429a5.779,5.779,0,0,1-1.1018-.1824l-.0042.001c-1.3894.5339-5.122-.1714-7.8587-1.2478a7.0973,7.0973,0,0,1-2.7533-2.0362,22.9266,22.9266,0,0,0,1.3372,8.0986l1.243-.2962s-.0684-3.2977,1.01-2.4008,2.1222,1.6547,2.1222,1.6547l8.7254-2.0782S161.46,456.5713,159.0274,456.429Z" transform="translate(16.313 -52)" style="fill:#243145"/><path d="M151.6544,452.321a22.45,22.45,0,0,1-1.7155-4.3318l-2.312.5382a42.3538,42.3538,0,0,0-.1412,4.4322l.001.004A7.0966,7.0966,0,0,0,150.24,455c2.7367,1.0764,6.4693,1.7817,7.8587,1.2478C155.6789,455.6485,152.4836,453.7352,151.6544,452.321Z" transform="translate(16.313 -52)" style="fill:#e5b9b6"/><path d="M135.63,459.8269l1.2741-.0947s.4568-3.2667,1.3784-2.21,1.8323,1.9712,1.8323,1.9712l8.9449-.665s-.0661-1.3986-2.4444-1.9256a5.7748,5.7748,0,0,1-1.0591-.3554l-.0041,0c-1.4565.3064-5.03-.9832-7.56-2.4809a7.0976,7.0976,0,0,1-2.3947-2.4478A22.9312,22.9312,0,0,0,135.63,459.8269Z" transform="translate(16.313 -52)" style="fill:#243145"/><path d="M135.5964,451.6147l0,.0042a7.0976,7.0976,0,0,0,2.3947,2.4478c2.5307,1.4977,6.1039,2.7873,7.56,2.4809-2.2936-.9758-5.1441-3.3728-5.7381-4.9009a10.022,10.022,0,0,1-.09-4.6125l-3.2833.2273A42.3608,42.3608,0,0,0,135.5964,451.6147Z" transform="translate(16.313 -52)" style="fill:#e5b9b6"/><path d="M143.6755,277.3163a10.2054,10.2054,0,0,0-1.7774,1.73c-3.361,4.2249-1.67,9.8582.8492,14.6178,2.7483,5.1927,6.5806,12.3421,5.672,18.4575-.67,4.5089-2.0555,5.917-2.0555,5.917s7.9385,4.0772,12.4586.0792c0,0,3.35-12.4359,3.6676-19.8179s.72-7.4749,1.9278-10.0871c1.8853-4.0827-2.9726-8.5671-5.9826-10.56C153.9542,274.6863,148.151,273.8724,143.6755,277.3163Z" transform="translate(16.313 -52)" style="fill:#279c83"/><path d="M179.5466,231.3837s-6.66,23.6966-9.4709,26.6779-18.2277,14.0035-22.8945,19.05,2.1972,9.5192,2.1972,9.5192c9.7443,6.848,23.2871-16.3375,26.2853-20.5283s6.54-35.3319,6.54-35.3319C180.3472,232.8318,179.5466,231.3837,179.5466,231.3837Z" transform="translate(16.313 -52)" style="fill:#fde7de"/><path d="M144.8776,318.0383s-13.85,8.0436-19.1729,22.71,2.6954,38.63,5.49,46.6929-.772,18.2167,1.59,29.8009S147.2319,451.54,147.2319,451.54a3.0347,3.0347,0,0,0,3.4465-1.5731s-4.36-28.6174-3.3846-45.6369,5.4267-43.55,9.2934-59.1371.7491-27.0752.7491-27.0752S153.8552,320.5537,144.8776,318.0383Z" transform="translate(16.313 -52)" style="fill:#313d63"/><path d="M145.8985,318.2726A39.8065,39.8065,0,0,0,128.69,337.9019c-5.4182,13.7017-.7835,38.5136.8535,46.8766s-2.0179,17.8655-.9989,29.64,9.03,35.9441,9.03,35.9441a2.1161,2.1161,0,0,0,2.9013-1.0523s-1.3263-28.8745.764-45.5289,7.7136-42.19,12.0271-57.0121a70.2892,70.2892,0,0,0,2.6779-26.611S152.95,322.0578,145.8985,318.2726Z" transform="translate(16.313 -52)" style="fill:#313d63"/><path d="M149.6594,270.5068c.4485-4.4577-7.5644-1.7177-7.5644-1.7177s1.7877,6.2838.61,9.2931a18.6582,18.6582,0,0,1,5.3625-1.932l2.6961-2.4976S149.2108,274.9645,149.6594,270.5068Z" transform="translate(16.313 -52)" style="fill:#fde7de"/><path d="M131.8893,263.3355s3.5,6.6478,13.077,6.4746a22.9386,22.9386,0,0,0,3.0958-.2444c6.1264-.95,5.5539-2.7488,5.5539-2.7488a36.43,36.43,0,0,0-.3534-9.1761c-.0766-.5009,1.745-1.0811,1.3954-1.4891-6.5007-7.5875-5.691-10.0625-6.2056-12.5793l-18.237,1.7976-3.48,4.2308-1.0923,4.55,3.6236,6.161Z" transform="translate(16.313 -52)" style="fill:#fde7de"/><path d="M140.9441,231.1145s6.439-4.5218,10.9734-2.1894,6.89,6.1079,4.0231,11.5105-10.3641,8.52-13.4567,8.6072-6.5958-1.93-6.8415-.7223-.4439,3.8143-1.6544,4.7765c0,0-4.2592-1.323-4.5109,2.0577s4.91,5.3891,4.91,5.3891l1.2248,6.6642s-18.39-8.2542-18.4736-28.352l4.8632-6.5433C122.0027,232.3132,129.943,226.6854,140.9441,231.1145Z" transform="translate(16.313 -52)" style="fill:#1e274f"/><path d="M121.6431,233.4744a17.1566,17.1566,0,0,0-6.1508-4.3876c-3.5536-1.3313-10.1-3.0541-14.8121,5.5191-6.472,11.776-2.8814,17.0323-2.5539,27.5074s-25.4064,12.1473-27.7274,24.19c-2.3647,12.2677,3.4621,22.8745,17.8451,30.4322,15.012,7.8884,21.8709-4.1908,22.1627-7.2189s-1.69-7.2042-2.1627-10.3481a8.5967,8.5967,0,0,1,4.0136-8.5774c1.7169-1.0984,12-9.3105,7.5589-20.607s-8.079-12.5924-9.744-22.2588c-.5756-3.3426.043-11.1584,5.3951-10.7275Z" transform="translate(16.313 -52)" style="fill:#212b54"/><path d="M115.3064,238.0178a1.8641,1.8641,0,0,0,1.71,1.1483c1.3179-.0278,4.9861-6.8529,4.9861-6.8529s-.91-2.5635-2.6543-.8536C119.3484,231.46,114.4511,237.3873,115.3064,238.0178Z" transform="translate(16.313 -52)" style="fill:#f5a51c"/><circle cx="148.2422" cy="251.9219" r="0.8099" transform="translate(-9.561 -34.863) rotate(-6.0861)" style="fill:#212b54"/><path d="M147.1736,249.5389a3.4912,3.4912,0,0,0-1.4,2.6455" transform="translate(16.313 -52)" style="fill:#1e274f"/><ellipse cx="148.3394" cy="251.8059" rx="4.7337" ry="4.9913" transform="translate(-9.5481 -34.8533) rotate(-6.0861)" style="fill:none;stroke:#313d63;stroke-miterlimit:10"/><path d="M133.5153,252.4541c.2077-.0222,10.3067-.6524,10.3067-.6524" transform="translate(16.313 -52)" style="fill:none;stroke:#313d63;stroke-miterlimit:10"/><path d="M152.6034,261.1938s-1.8839.7267-5.88-.1088c0,0,3.3428,4.9,5.5227,2.67Z" transform="translate(16.313 -52)" style="fill:#e5b9b6"/><path d="M142.5039,269.854s3.8936.1833,6.0045-.7159c0,0-4.4453,3.7187-5.1276,5.659Z" transform="translate(16.313 -52)" style="fill:#e5b9b6"/><path d="M147.93,290.9772s11.7959,9.2689,11.1881,28.1767l-14.109-.2548s7.01-12.7749-.9356-23.3392Z" transform="translate(16.313 -52)" style="fill:url(#b2099d4c-9e43-4b7f-81f1-5c46fa76d936)"/><path d="M154.625,333.1863s1.5276,7.9182-7.4008,14.7322l2.74,17.7855" transform="translate(16.313 -52)" style="fill:none;stroke:#fff;stroke-miterlimit:10"/><g style="opacity:0.5"><polygon points="86.209 137.675 100.023 141.024 90.932 154.808 103.072 157.751 88.015 195 128.865 150.248 118.421 146.6 133.373 134.238 122.51 130.489 144.75 95 107.52 95 86.209 137.675" style="fill:url(#b8fbd520-a35c-466c-81d7-7ece7892a578)"/></g></g></svg>
