<svg id="bb40a71f-1ba8-46c0-b464-e8f1a251e6c1" data-name="Layer 2" xmlns="http://www.w3.org/2000/svg" xmlns:xlink="http://www.w3.org/1999/xlink" viewBox="0 0 339.8222 508.7385"><defs><linearGradient id="b4930235-413a-4561-8931-62b85971e21b" x1="127.9078" y1="1156.9223" x2="127.9078" y2="952.9877" gradientTransform="translate(-80.1778 -681)" gradientUnits="userSpaceOnUse"><stop offset="0" stop-color="#ffe380" stop-opacity="0"/><stop offset="0.09" stop-color="#ffe07a" stop-opacity="0.05"/><stop offset="0.24" stop-color="#ffd969" stop-opacity="0.18"/><stop offset="0.46" stop-color="#ffcd4d" stop-opacity="0.4"/><stop offset="0.71" stop-color="#ffbd28" stop-opacity="0.69"/><stop offset="0.96" stop-color="#ffab00"/></linearGradient><linearGradient id="f69aeb07-046f-4333-8102-b2ea857bce4a" x1="246.0163" y1="1145.4839" x2="246.0163" y2="825.7934" gradientTransform="translate(-80.1778 -681)" gradientUnits="userSpaceOnUse"><stop offset="0" stop-color="#00c7e5" stop-opacity="0"/><stop offset="0.1" stop-color="#00c7e5" stop-opacity="0.06"/><stop offset="0.28" stop-color="#00c7e5" stop-opacity="0.21"/><stop offset="0.52" stop-color="#00c7e5" stop-opacity="0.46"/><stop offset="0.81" stop-color="#00c7e5" stop-opacity="0.81"/><stop offset="0.96" stop-color="#00c7e5"/></linearGradient><linearGradient id="fcf3723d-9d8e-4879-93cb-3f676533d469" x1="372.27" y1="1189.7385" x2="372.27" y2="892.6659" gradientTransform="translate(-80.1778 -681)" gradientUnits="userSpaceOnUse"><stop offset="0.18" stop-color="#2684ff" stop-opacity="0"/><stop offset="0.27" stop-color="#2380f9" stop-opacity="0.07"/><stop offset="0.45" stop-color="#1c75ea" stop-opacity="0.26"/><stop offset="0.68" stop-color="#1062d2" stop-opacity="0.57"/><stop offset="0.96" stop-color="#0049b1" stop-opacity="0.99"/><stop offset="0.96" stop-color="#0049b0"/></linearGradient><linearGradient id="b12f1150-4ecd-4b3a-9b67-8e847786f82b" x1="194.0716" y1="320.8583" x2="278.8236" y2="432.6872" gradientTransform="matrix(1, 0, 0, -1, -1.56, 490.13)" gradientUnits="userSpaceOnUse"><stop offset="0" stop-color="#0065ff"/><stop offset="1" stop-color="#4c9aff"/></linearGradient></defs><rect y="271.9877" width="95.46" height="203.9346" rx="3.7267" style="opacity:0.6000000238418579;isolation:isolate;fill:url(#b4930235-413a-4561-8931-62b85971e21b)"/><rect x="118.1084" y="144.7934" width="95.46" height="319.6905" rx="4.5867" style="opacity:0.6000000238418579;isolation:isolate;fill:url(#f69aeb07-046f-4333-8102-b2ea857bce4a)"/><rect x="244.3622" y="211.6659" width="95.46" height="297.0726" rx="3.7267" style="fill:url(#fcf3723d-9d8e-4879-93cb-3f676533d469)"/><path d="M245.9709,30C228.5724,30,211.4,49.997,169.4852,59.393a7.3057,7.3057,0,0,0-5.6489,7.2682c1.8829,80.1576,40.39,131.2046,82.1911,155.2688,41.7452-24.1019,80.2517-75.1112,82.1347-155.2688a7.3059,7.3059,0,0,0-5.6489-7.2682C280.5985,49.9782,263.4259,30,246.0274,30Z" transform="translate(-80.1778 -30)" style="fill:#c1c7d0"/><path d="M245.9709,38.21c5.9313,0,13.1807,3.7659,22.37,8.7181,11.9191,6.3267,28.2444,15.0637,51.5742,20.3171-.9415,35.6068-9.4148,67.2028-24.968,93.922a148.3771,148.3771,0,0,1-48.957,51.16,148.3777,148.3777,0,0,1-48.9569-51.16c-15.6474-26.7192-24.0454-58.3717-24.9681-93.922,23.3676-5.3476,39.6551-13.99,51.5743-20.3171,9.1889-4.8769,16.4383-8.7181,22.37-8.7181" transform="translate(-80.1778 -30)" style="fill:url(#b12f1150-4ecd-4b3a-9b67-8e847786f82b)"/><path d="M286.0026,106.5423,274.9119,95.4517a1.5627,1.5627,0,0,0-2.203,0L239.663,128.1586,224.43,113.8293a1.563,1.563,0,0,0-2.1654,0L211.1738,124.92a1.5628,1.5628,0,0,0-.0117,2.21l.0117.0117L238.59,153.5033a1.5628,1.5628,0,0,0,2.1842,0l45.1911-44.9274a1.5629,1.5629,0,0,0,0-2.2031Z" transform="translate(-80.1778 -30)" style="fill:#ffc400"/></svg>
