<?xml version="1.0" encoding="UTF-8"?>
<svg xmlns="http://www.w3.org/2000/svg" xmlns:xlink="http://www.w3.org/1999/xlink" viewBox="0 0 487.353 439.97">
  <defs>
    <style>
      .uuid-005514ed-9463-44ca-8d4a-c9487595a4a3 {
        fill: url(#uuid-5a98778b-56d3-421f-914d-eda873c3b216);
      }

      .uuid-7e7118f9-a6de-4041-9074-740cefbd3344 {
        fill: url(#uuid-10415d3c-bf0c-40ca-8397-14c4b1e53ecc);
      }

      .uuid-86c9ecc5-f9a6-4777-8aed-5f41791e1dad {
        clip-path: url(#uuid-d69538b9-5867-4fbf-9dfe-68fd3739b95c);
      }

      .uuid-12c3279c-4d63-4dfc-af04-c0da7fad0b3b {
        fill: url(#uuid-193a7527-0e8d-4c17-bc15-8e0efa082b69);
      }

      .uuid-12c3279c-4d63-4dfc-af04-c0da7fad0b3b, .uuid-3907196b-3852-4b07-ba88-c661e3a0b479 {
        isolation: isolate;
        opacity: .2;
      }

      .uuid-40c6b7d0-e55a-4419-80e7-4621a46859e6 {
        fill: url(#uuid-2102db99-8ee2-4d60-84cb-21f56a255ba6);
      }

      .uuid-69a5c74b-fae0-4985-82db-a9fc3827d65c {
        fill: url(#uuid-190da5a6-153a-4439-8db6-8890e7b87457);
      }

      .uuid-37b89689-441a-4095-9add-1d5b5723e8fa {
        fill: #005541;
      }

      .uuid-9bba5716-afa2-47f1-b66b-1dba2c48ee9a {
        fill: #00c7e5;
      }

      .uuid-a35fc01f-f118-420c-abaa-7f9717e2c56c {
        fill: #f5a51c;
      }

      .uuid-1720e041-d15c-47a3-9ddc-8c54bdd4f417 {
        fill: #ffe380;
      }

      .uuid-b6616f3b-4c98-4073-b1c2-ee62d8c1180b, .uuid-569578f9-db45-4af3-aeba-79415ffa86b2 {
        fill: #ff991f;
      }

      .uuid-3a9d4eee-9bf5-4f55-ac85-47685a570b6c {
        fill: #ffc400;
      }

      .uuid-b17901b2-0b5c-478f-9841-a7828340ccc7 {
        fill: #ffab00;
      }

      .uuid-190ec758-819c-45fe-8eda-1477527cc01e {
        fill: #e5b9b6;
      }

      .uuid-1c746338-ad92-4ea0-90be-5c77e98a3ab8 {
        fill: #fde7de;
      }

      .uuid-4b2675d6-298e-464a-960e-1d258c22770f {
        fill: #b2d4ff;
      }

      .uuid-1e29b36f-2097-4d3e-98fa-1a4099b3eafd {
        fill: #dfe1e5;
      }

      .uuid-e7d8563d-fedc-408d-bc91-6b11370942a5 {
        fill: #1e274f;
      }

      .uuid-07572c6a-ced7-4f1a-9e2d-bf7e8e3e37e4 {
        fill: #243145;
      }

      .uuid-787e2cee-cc00-45e3-9ad4-9a23c3007403 {
        fill: #212b54;
      }

      .uuid-aa4c050e-3a1d-4296-bf13-b0d5c37ceffa {
        fill: #2d365a;
      }

      .uuid-2cc906ae-b386-433f-8e30-baff97216627 {
        fill: #279c83;
      }

      .uuid-4850ecf4-c6c9-4fa1-b63d-4f4ad3704f29 {
        fill: #313d63;
      }

      .uuid-7f79c034-5dac-4167-ab77-92a9c8428620 {
        fill: #4c9aff;
      }

      .uuid-c588d41e-97cb-4169-a51d-842dc68d7eac {
        fill: #2684ff;
      }

      .uuid-3907196b-3852-4b07-ba88-c661e3a0b479 {
        fill: url(#uuid-09ddea36-5fe9-4f11-ab1e-360d0b12a886);
      }

      .uuid-52cca894-f1a7-4599-934e-8bb3477232c8 {
        fill: url(#uuid-46162515-8c5a-4ab6-a0bc-f6b32e5d5ef5);
      }

      .uuid-569578f9-db45-4af3-aeba-79415ffa86b2 {
        font-family: MyriadPro-Regular, Myriad Pro;
        font-size: 34.532px;
      }

      .uuid-5d7954d2-fa5e-479f-8a34-6611e6e79aa5 {
        fill: url(#uuid-c4f99ba1-ea77-426f-9cde-201d142d8221);
      }

      .uuid-f0337bb8-9972-45f4-b77b-f6ef36f7d7e5 {
        clip-path: url(#uuid-218bc5b9-1540-4b7e-a3c2-7f92fb43fb19);
      }

      .uuid-74d06785-c4c5-413e-87da-aa67571f648c {
        fill: url(#uuid-a5c68115-90b2-4d92-bdc9-fbd3160d55ae);
      }

      .uuid-2e720094-e1d2-42ce-a82d-c3e5555c657f {
        fill: url(#uuid-0a66b71b-9483-4ef9-9e91-75e052983db6);
      }

      .uuid-a05aefdb-cd40-47f5-9623-e9b15f744f46 {
        fill: url(#uuid-e0ecdf8c-d22a-4148-ab47-65cca2dbae66);
      }

      .uuid-817fbfa3-4bfb-42c9-9d11-0f14363ff4d4 {
        fill: url(#uuid-1b583acc-be2f-4fc8-ba52-caa645949e65);
      }

      .uuid-fd897c25-6972-4172-96c5-d50821b5611e {
        fill: url(#uuid-4dae2975-fc29-4da4-9d99-33cfe0d59ebe);
      }

      .uuid-5ce80af6-5e12-4f33-8219-32cba1607763 {
        fill: url(#uuid-3d9a5929-6386-41dc-beb5-9a7b61e3ab14);
      }

      .uuid-f99a8b04-4d13-40ec-a68c-0d7938fc2e85 {
        fill: url(#uuid-1f968e5d-d52a-452b-9590-52b46c8bd2fb);
      }

      .uuid-d729c9f1-d011-4ad6-9ffc-f9a1f89b1a9d {
        clip-path: url(#uuid-25ba9a9b-5a0a-4026-a332-55874155528c);
      }

      .uuid-1af20156-d8b0-484c-bf3e-036e75528685, .uuid-3581782c-2792-4960-ac8a-19ac936cb4dd, .uuid-e6c822bb-e519-453b-a1d9-b8b9d8782826, .uuid-a84a0e51-30ee-454e-a52e-f2ed2a3804a7, .uuid-cc925a8c-2789-4046-a3ed-c1a1cfb77f22, .uuid-90961a58-68e0-4e1e-8e79-2d484e9b016b {
        fill: none;
      }

      .uuid-1af20156-d8b0-484c-bf3e-036e75528685, .uuid-3581782c-2792-4960-ac8a-19ac936cb4dd, .uuid-cc925a8c-2789-4046-a3ed-c1a1cfb77f22 {
        stroke-miterlimit: 10;
      }

      .uuid-1af20156-d8b0-484c-bf3e-036e75528685, .uuid-e6c822bb-e519-453b-a1d9-b8b9d8782826, .uuid-a84a0e51-30ee-454e-a52e-f2ed2a3804a7, .uuid-90961a58-68e0-4e1e-8e79-2d484e9b016b {
        stroke: #fff;
      }

      .uuid-3581782c-2792-4960-ac8a-19ac936cb4dd {
        stroke: #313d63;
      }

      .uuid-6e4a2659-2e5c-4187-9a6e-d7ef1cc76c59 {
        fill: url(#uuid-15fe1d92-7c03-4586-8f49-6ba3ebc4a937);
      }

      .uuid-e6c822bb-e519-453b-a1d9-b8b9d8782826 {
        stroke-dasharray: 0 0 6.38 6.38;
      }

      .uuid-e6c822bb-e519-453b-a1d9-b8b9d8782826, .uuid-a84a0e51-30ee-454e-a52e-f2ed2a3804a7, .uuid-cc925a8c-2789-4046-a3ed-c1a1cfb77f22, .uuid-90961a58-68e0-4e1e-8e79-2d484e9b016b {
        stroke-width: 1.88px;
      }

      .uuid-e6c822bb-e519-453b-a1d9-b8b9d8782826, .uuid-a84a0e51-30ee-454e-a52e-f2ed2a3804a7, .uuid-90961a58-68e0-4e1e-8e79-2d484e9b016b {
        stroke-linejoin: round;
      }

      .uuid-0774676a-6693-4e60-9784-fc3887b9ffb5 {
        fill: url(#uuid-11b2bee3-0975-4451-8d5c-f53d0f0eee81);
      }

      .uuid-a84a0e51-30ee-454e-a52e-f2ed2a3804a7 {
        stroke-dasharray: 0 0 6.18 6.18;
      }

      .uuid-e3d81d3a-5240-4a02-be3e-d04ff979088e {
        fill: url(#uuid-90962244-3c7d-4ccf-8d4a-6741eed290da);
      }

      .uuid-5dbc4c2f-1259-4444-a925-3cb89eb7952e {
        fill: url(#uuid-1aa02738-f5e5-4aa8-8b79-109c30bf0421);
      }

      .uuid-0653d78f-7f62-4c77-ac0b-ad387826ef4f {
        clip-path: url(#uuid-149712cf-0c38-4390-b626-30e01dfa0995);
      }

      .uuid-cc925a8c-2789-4046-a3ed-c1a1cfb77f22 {
        stroke: #b2d4ff;
      }
    </style>
    <linearGradient id="uuid-e0ecdf8c-d22a-4148-ab47-65cca2dbae66" data-name="New Gradient Swatch 16" x1="140.506" y1="332.78" x2="288.708" y2="245.651" gradientTransform="matrix(1, 0, 0, 1, 0, 0)" gradientUnits="userSpaceOnUse">
      <stop offset="0" stop-color="#b2d4ff"/>
      <stop offset="1" stop-color="#deebff"/>
    </linearGradient>
    <linearGradient id="uuid-1f968e5d-d52a-452b-9590-52b46c8bd2fb" data-name="New Gradient Swatch 16" x1="166.576" y1="135.085" x2="314.778" y2="47.956" xlink:href="#uuid-e0ecdf8c-d22a-4148-ab47-65cca2dbae66"/>
    <linearGradient id="uuid-90962244-3c7d-4ccf-8d4a-6741eed290da" x1="244.63" y1="70.832" x2="239.76" y2="5.34" gradientTransform="translate(0 483.806) scale(1 -1)" gradientUnits="userSpaceOnUse">
      <stop offset=".21" stop-color="#e5e8ec" stop-opacity=".3"/>
      <stop offset=".79" stop-color="#cfd4db" stop-opacity=".8"/>
    </linearGradient>
    <linearGradient id="uuid-5a98778b-56d3-421f-914d-eda873c3b216" data-name="New Gradient Swatch 2" x1="385.096" y1="316.533" x2="447.584" y2="316.533" gradientTransform="matrix(1, 0, 0, 1, 0, 0)" gradientUnits="userSpaceOnUse">
      <stop offset=".379" stop-color="#57d9a3"/>
      <stop offset="1" stop-color="#36b37e"/>
    </linearGradient>
    <clipPath id="uuid-25ba9a9b-5a0a-4026-a332-55874155528c">
      <path class="uuid-005514ed-9463-44ca-8d4a-c9487595a4a3" d="M459.85,325.957c-16.172-26.88,5.265-27.84,0-42.881-5.282-15.087-18.805-13.12-16.548-26.56,2.864-17.06-3.761-22.537-12.787-22.537s-19.742,8.964-15.044,24.457c3.009,9.92-1.88,12.48-8.65,20.8-6.77,8.32-4.889,20.48,0,26.56,6.314,7.852,5.335,12.716-1.128,20.48-6.394,7.68-7.522,23.68,4.513,28.8,12.035,5.12,1.25,25.639,8.65,35.201,10.154,13.12,24.446,13.12,29.711-10.56,3.527-15.862-1.88-16.32,4.889-24.64,6.77-8.32,14.824-15.108,6.394-29.12Zm-47.387-23.36c-7.286-3.819,5.316-15.789,7.433-16.15,0,0,6.31-4.073,11.605-.29,5.295,3.783-1.65,9.839-6.86,12.038-5.209,2.199-4.893,8.221-12.179,4.402Zm24.07-48.001c-3.385,0-2.257,6.08-7.146,4.8-4.889-1.28-1.352-11.483,2.633-11.2,4.513,.32,7.898,6.4,4.513,6.4Zm4.015,80.235c-3.079-5.61,3.89-11.735,10.259-8.739,1.498,.705,2.744,1.865,3.402,3.705,2.633,7.36,7.522,11.52,1.128,12.16-4.493,.45-11.773-1.629-14.789-7.126Z"/>
    </clipPath>
    <linearGradient id="uuid-1b583acc-be2f-4fc8-ba52-caa645949e65" data-name="New Gradient Swatch 2" x1="421.785" y1="402.243" x2="421.785" y2="237.384" xlink:href="#uuid-5a98778b-56d3-421f-914d-eda873c3b216"/>
    <linearGradient id="uuid-193a7527-0e8d-4c17-bc15-8e0efa082b69" x1="277.017" y1="821.968" x2="359.95" y2="739.035" gradientTransform="translate(0 -651)" gradientUnits="userSpaceOnUse">
      <stop offset="0" stop-color="#0049b0"/>
      <stop offset=".99" stop-color="#0049b0"/>
      <stop offset="1" stop-color="#0049b0"/>
    </linearGradient>
    <linearGradient id="uuid-4dae2975-fc29-4da4-9d99-33cfe0d59ebe" data-name="New Gradient Swatch 13" x1="269.667" y1="815.091" x2="352.6" y2="732.158" gradientTransform="translate(0 -651)" gradientUnits="userSpaceOnUse">
      <stop offset="0" stop-color="#deebff"/>
      <stop offset=".74" stop-color="#fff"/>
    </linearGradient>
    <linearGradient id="uuid-09ddea36-5fe9-4f11-ab1e-360d0b12a886" x1="233.152" y1="916.465" x2="309.113" y2="840.505" xlink:href="#uuid-193a7527-0e8d-4c17-bc15-8e0efa082b69"/>
    <linearGradient id="uuid-c4f99ba1-ea77-426f-9cde-201d142d8221" data-name="New Gradient Swatch 13" x1="225.86" y1="909.319" x2="301.483" y2="833.696" xlink:href="#uuid-4dae2975-fc29-4da4-9d99-33cfe0d59ebe"/>
    <linearGradient id="uuid-a5c68115-90b2-4d92-bdc9-fbd3160d55ae" data-name="New Gradient Swatch copy 3" x1="191.949" y1="250.325" x2="208.099" y2="250.325" gradientTransform="translate(-129.469 53.107) rotate(-11.179)" gradientUnits="userSpaceOnUse">
      <stop offset=".025" stop-color="#023f32"/>
      <stop offset=".026" stop-color="#023f32"/>
      <stop offset=".136" stop-color="#0c5847"/>
      <stop offset=".258" stop-color="#146b57"/>
      <stop offset=".399" stop-color="#197963"/>
      <stop offset=".574" stop-color="#1d8169"/>
      <stop offset=".89" stop-color="#1e846c"/>
    </linearGradient>
    <linearGradient id="uuid-2102db99-8ee2-4d60-84cb-21f56a255ba6" data-name="New Gradient Swatch 2" x1="335.045" y1="339.204" x2="384.769" y2="339.204" xlink:href="#uuid-5a98778b-56d3-421f-914d-eda873c3b216"/>
    <linearGradient id="uuid-190da5a6-153a-4439-8db6-8890e7b87457" data-name="New Gradient Swatch 2" x1="335.045" y1="339.204" x2="384.769" y2="339.204" xlink:href="#uuid-5a98778b-56d3-421f-914d-eda873c3b216"/>
    <clipPath id="uuid-218bc5b9-1540-4b7e-a3c2-7f92fb43fb19">
      <path class="uuid-69a5c74b-fae0-4985-82db-a9fc3827d65c" d="M394.53,346.449c-12.869-20.664,4.19-21.402,0-32.965-4.203-11.598-14.964-10.086-13.168-20.418,2.279-13.115-2.993-17.325-10.175-17.325s-15.71,6.891-11.971,18.801c2.394,7.626-1.496,9.594-6.883,15.99-5.387,6.396-3.891,15.744,0,20.418,5.025,6.036,4.245,9.776-.898,15.744-5.088,5.904-5.985,18.204,3.591,22.14,9.577,3.936,.995,19.71,6.883,27.061,8.08,10.086,19.453,10.086,23.643-8.118,2.807-12.194-1.496-12.546,3.891-18.942,5.387-6.396,11.796-11.614,5.088-22.386Zm-37.709-17.958c-5.798-2.936,4.23-12.138,5.915-12.415,0,0,5.022-3.131,9.235-.223,4.214,2.908-1.313,7.563-5.459,9.254-4.145,1.69-3.894,6.32-9.691,3.384Zm19.154-36.901c-2.693,0-1.796,4.674-5.686,3.69s-1.075-8.827,2.095-8.61c3.591,.246,6.285,4.92,3.591,4.92Zm3.195,61.681c-2.45-4.313,3.096-9.021,8.163-6.718,1.192,.542,2.184,1.434,2.707,2.848,2.095,5.658,5.985,8.856,.898,9.348-3.575,.346-9.369-1.253-11.769-5.478Z"/>
    </clipPath>
    <linearGradient id="uuid-0a66b71b-9483-4ef9-9e91-75e052983db6" data-name="New Gradient Swatch 2" x1="364.24" y1="405.094" x2="364.24" y2="278.358" xlink:href="#uuid-5a98778b-56d3-421f-914d-eda873c3b216"/>
    <linearGradient id="uuid-15fe1d92-7c03-4586-8f49-6ba3ebc4a937" data-name="New Gradient Swatch 2" x1="301.599" y1="362.456" x2="338.056" y2="362.456" xlink:href="#uuid-5a98778b-56d3-421f-914d-eda873c3b216"/>
    <linearGradient id="uuid-1aa02738-f5e5-4aa8-8b79-109c30bf0421" data-name="New Gradient Swatch 2" x1="301.599" y1="362.456" x2="338.056" y2="362.456" xlink:href="#uuid-5a98778b-56d3-421f-914d-eda873c3b216"/>
    <clipPath id="uuid-149712cf-0c38-4390-b626-30e01dfa0995">
      <path class="uuid-5dbc4c2f-1259-4444-a925-3cb89eb7952e" d="M345.213,367.768c-9.435-15.151,3.072-15.692,0-24.169-3.081-8.504-10.971-7.395-9.655-14.97,1.671-9.615-2.194-12.703-7.46-12.703s-11.518,5.052-8.777,13.785c1.755,5.591-1.097,7.034-5.047,11.724-3.95,4.69-2.852,11.543,0,14.97,3.684,4.426,3.113,7.167-.658,11.543-3.73,4.329-4.388,13.347,2.633,16.233,7.022,2.886,.729,14.451,5.047,19.84,5.924,7.395,14.262,7.395,17.334-5.952,2.058-8.941-1.097-9.199,2.852-13.888,3.95-4.69,8.649-8.515,3.73-16.413Zm-27.647-13.167c-4.251-2.153,3.101-8.899,4.337-9.103,0,0,3.682-2.296,6.771-.163,3.089,2.132-.963,5.545-4.002,6.785-3.039,1.239-2.855,4.634-7.105,2.481Zm14.043-27.055c-1.975,0-1.317,3.427-4.169,2.705-2.852-.721-.789-6.472,1.536-6.313,2.633,.18,4.608,3.607,2.633,3.607Zm2.343,45.223c-1.796-3.162,2.27-6.614,5.985-4.926,.874,.397,1.601,1.051,1.985,2.088,1.536,4.148,4.388,6.493,.658,6.854-2.621,.254-6.869-.918-8.629-4.017Z"/>
    </clipPath>
    <linearGradient id="uuid-10415d3c-bf0c-40ca-8397-14c4b1e53ecc" data-name="New Gradient Swatch 2" x1="323.004" y1="410.765" x2="323.004" y2="317.845" xlink:href="#uuid-5a98778b-56d3-421f-914d-eda873c3b216"/>
    <linearGradient id="uuid-3d9a5929-6386-41dc-beb5-9a7b61e3ab14" data-name="New Gradient Swatch 2" x1="275.513" y1="386.262" x2="296.971" y2="386.262" xlink:href="#uuid-5a98778b-56d3-421f-914d-eda873c3b216"/>
    <linearGradient id="uuid-46162515-8c5a-4ab6-a0bc-f6b32e5d5ef5" data-name="New Gradient Swatch 2" x1="275.513" y1="386.262" x2="296.971" y2="386.262" xlink:href="#uuid-5a98778b-56d3-421f-914d-eda873c3b216"/>
    <clipPath id="uuid-d69538b9-5867-4fbf-9dfe-68fd3739b95c">
      <path class="uuid-52cca894-f1a7-4599-934e-8bb3477232c8" d="M301.183,389.388c-5.553-8.917,1.808-9.236,0-14.225-1.814-5.005-6.457-4.353-5.683-8.811,.984-5.659-1.291-7.476-4.391-7.476s-6.78,2.974-5.166,8.113c1.033,3.291-.646,4.14-2.97,6.9-2.325,2.76-1.679,6.794,0,8.811,2.168,2.605,1.832,4.219-.387,6.794-2.196,2.548-2.583,7.856,1.55,9.554,4.133,1.699,.429,8.506,2.97,11.678,3.487,4.353,8.395,4.353,10.203-3.503,1.211-5.262-.646-5.414,1.679-8.174,2.325-2.76,5.091-5.012,2.196-9.661Zm-16.273-7.75c-2.502-1.267,1.825-5.238,2.552-5.358,0,0,2.167-1.351,3.985-.096,1.818,1.255-.567,3.264-2.356,3.993-1.789,.729-1.68,2.727-4.182,1.46Zm8.265-15.924c-1.162,0-.775,2.017-2.454,1.592s-.464-3.809,.904-3.716c1.55,.106,2.712,2.123,1.55,2.123Zm1.379,26.618c-1.057-1.861,1.336-3.893,3.523-2.899,.515,.234,.942,.619,1.168,1.229,.904,2.442,2.583,3.822,.387,4.034-1.543,.149-4.043-.541-5.079-2.364Z"/>
    </clipPath>
    <linearGradient id="uuid-11b2bee3-0975-4451-8d5c-f53d0f0eee81" data-name="New Gradient Swatch 2" x1="288.112" y1="414.696" x2="288.112" y2="360.004" xlink:href="#uuid-5a98778b-56d3-421f-914d-eda873c3b216"/>
  </defs>
  <g id="uuid-53c2351a-f6f6-4cd5-96e7-881caf552d16" data-name="Layer 5"/>
  <g id="uuid-e26d2ef7-4ad2-422b-a57e-38c7ee98e6ba" data-name="Layer 1"/>
  <g id="uuid-789b07cc-4404-4703-9abd-777025d01eb7" data-name="Layer 2">
    <g id="uuid-e3729662-4f15-4bcf-b3e8-e0fbe3843499" data-name="Layer 7">
      <g>
        <polyline class="uuid-90961a58-68e0-4e1e-8e79-2d484e9b016b" points="21.263 280.62 6.829 280.62 6.829 275.94"/>
        <line class="uuid-e6c822bb-e519-453b-a1d9-b8b9d8782826" x1="6.829" y1="266.724" x2="6.829" y2="10.155"/>
        <polyline class="uuid-90961a58-68e0-4e1e-8e79-2d484e9b016b" points="6.829 5.621 6.829 .94 21.263 .94"/>
        <line class="uuid-a84a0e51-30ee-454e-a52e-f2ed2a3804a7" x1="50.13" y1=".94" x2="438.447" y2=".94"/>
        <polyline class="uuid-90961a58-68e0-4e1e-8e79-2d484e9b016b" points="452.881 .94 467.315 .94 467.315 5.621"/>
        <line class="uuid-e6c822bb-e519-453b-a1d9-b8b9d8782826" x1="467.315" y1="14.836" x2="467.315" y2="271.259"/>
        <polyline class="uuid-90961a58-68e0-4e1e-8e79-2d484e9b016b" points="467.315 275.94 467.315 280.62 452.881 280.62"/>
        <line class="uuid-a84a0e51-30ee-454e-a52e-f2ed2a3804a7" x1="424.013" y1="280.62" x2="35.696" y2="280.62"/>
      </g>
      <g>
        <g>
          <path class="uuid-1e29b36f-2097-4d3e-98fa-1a4099b3eafd" d="M277.746,347.968h-122.379c-13.764,0-24.922-11.158-24.922-24.922L169.619,36.806c0-9.061,7.345-16.407,16.407-16.407h119.47c15.371,0,27.831,12.46,27.831,27.831l-39.174,283.331c-1.208,9.224-7.345,16.407-16.407,16.407Z"/>
          <path class="uuid-7f79c034-5dac-4167-ab77-92a9c8428620" d="M271.743,341.472h-124.725c-9.061,0-16.407-7.345-16.407-16.407L169.786,37.025c0-9.061,7.346-16.407,16.407-16.407h124.725c9.061,0,16.407,7.345,16.407,16.407l-39.174,288.04c-1.802,8.646-7.346,16.407-16.407,16.407Z"/>
          <path class="uuid-aa4c050e-3a1d-4296-bf13-b0d5c37ceffa" d="M263.919,34.915h-40.194c-.821,0-1.335-.887-.928-1.599h0c.19-.333,.544-.539,.928-.539h40.194c.821,0,1.335,.887,.928,1.599h0c-.19,.333-.544,.539-.928,.539Z"/>
          <path class="uuid-aa4c050e-3a1d-4296-bf13-b0d5c37ceffa" d="M311.278,35.913c-.615,3.432-3.61,5.768-6.69,5.216-3.08-.552-5.079-3.781-4.465-7.214,.615-3.432,3.61-5.768,6.691-5.216,3.08,.552,5.079,3.781,4.464,7.214Z"/>
        </g>
        <g>
          <path class="uuid-a05aefdb-cd40-47f5-9623-e9b15f744f46" d="M152.629,330.001c-6.541,0-11.866-5.304-11.9-11.836l8.529-57.039v-.065c0-6.562,5.339-11.901,11.9-11.901h114.576c6.541,0,11.866,5.304,11.901,11.837l-8.522,56.975c-1.207,5.781-4.979,12.029-11.908,12.029h-114.576Z"/>
          <path class="uuid-4b2675d6-298e-464a-960e-1d258c22770f" d="M150.984,311.209c-.446,0-.809-.361-.811-.807l.581-3.887v-.005c0-.447,.364-.811,.811-.811h18.575c.446,0,.809,.361,.811,.807l-.581,3.882c-.082,.394-.339,.82-.812,.82h-18.575Z"/>
          <path class="uuid-4b2675d6-298e-464a-960e-1d258c22770f" d="M175.413,311.209c-.446,0-.809-.361-.811-.807l.581-3.887v-.005c0-.447,.364-.811,.811-.811h49.111c.446,0,.809,.361,.811,.807l-.581,3.882c-.082,.394-.339,.82-.812,.82h-49.111Z"/>
          <path class="uuid-4b2675d6-298e-464a-960e-1d258c22770f" d="M230.378,311.209c-.446,0-.809-.361-.811-.807l.581-3.887v-.005c0-.447,.364-.811,.811-.811h30.789c.446,0,.809,.361,.811,.807l-.581,3.882c-.082,.394-.339,.82-.812,.82h-30.789Z"/>
          <path class="uuid-4b2675d6-298e-464a-960e-1d258c22770f" d="M148.287,323.623c-.446,0-.809-.361-.811-.807l.581-3.887v-.004c0-.447,.364-.811,.811-.811h65.063c.446,0,.809,.361,.811,.807l-.581,3.883c-.082,.394-.339,.82-.811,.82h-65.063Z"/>
        </g>
        <g>
          <path class="uuid-f99a8b04-4d13-40ec-a68c-0d7938fc2e85" d="M178.699,132.306c-6.541,0-11.866-5.304-11.9-11.836l8.529-57.039v-.065c0-6.562,5.339-11.901,11.9-11.901h114.576c6.541,0,11.866,5.304,11.901,11.837l-8.522,56.975c-1.207,5.781-4.979,12.029-11.908,12.029h-114.576Z"/>
          <path class="uuid-4b2675d6-298e-464a-960e-1d258c22770f" d="M177.054,113.514c-.446,0-.809-.361-.811-.807l.581-3.887v-.005c0-.447,.364-.811,.811-.811h18.575c.446,0,.809,.361,.811,.807l-.581,3.882c-.082,.394-.339,.82-.812,.82h-18.575Z"/>
          <path class="uuid-4b2675d6-298e-464a-960e-1d258c22770f" d="M201.483,113.514c-.446,0-.809-.361-.811-.807l.581-3.887v-.005c0-.447,.364-.811,.811-.811h49.111c.446,0,.809,.361,.811,.807l-.581,3.882c-.082,.394-.339,.82-.812,.82h-49.111Z"/>
          <path class="uuid-4b2675d6-298e-464a-960e-1d258c22770f" d="M256.448,113.514c-.446,0-.809-.361-.811-.807l.581-3.887v-.005c0-.447,.364-.811,.811-.811h30.789c.446,0,.809,.361,.811,.807l-.581,3.882c-.082,.394-.339,.82-.812,.82h-30.789Z"/>
          <path class="uuid-4b2675d6-298e-464a-960e-1d258c22770f" d="M174.356,125.928c-.446,0-.809-.361-.811-.807l.581-3.887v-.004c0-.447,.364-.811,.811-.811h65.063c.446,0,.809,.361,.811,.807l-.581,3.883c-.082,.394-.339,.82-.811,.82h-65.063Z"/>
        </g>
      </g>
      <ellipse class="uuid-e3d81d3a-5240-4a02-be3e-d04ff979088e" cx="243.677" cy="425.789" rx="243.677" ry="14.181"/>
      <g>
        <path class="uuid-c588d41e-97cb-4169-a51d-842dc68d7eac" d="M194.096,88.662c-.051,.045-.111,.068-.171,.068s-.12-.023-.171-.068l-12.623-11.256v14.477h12.142c.157,0,.284,.151,.284,.337s-.128,.337-.284,.337h-12.142v2.759h7.728c.157,0,.284,.151,.284,.337s-.127,.337-.284,.337h-7.728v1.744h25.59v-20.327l-12.624,11.256Z"/>
        <polygon class="uuid-c588d41e-97cb-4169-a51d-842dc68d7eac" points="206.154 77.068 181.697 77.068 193.925 87.971 206.154 77.068"/>
      </g>
      <g>
        <g>
          <path class="uuid-005514ed-9463-44ca-8d4a-c9487595a4a3" d="M459.85,325.957c-16.172-26.88,5.265-27.84,0-42.881-5.282-15.087-18.805-13.12-16.548-26.56,2.864-17.06-3.761-22.537-12.787-22.537s-19.742,8.964-15.044,24.457c3.009,9.92-1.88,12.48-8.65,20.8-6.77,8.32-4.889,20.48,0,26.56,6.314,7.852,5.335,12.716-1.128,20.48-6.394,7.68-7.522,23.68,4.513,28.8,12.035,5.12,1.25,25.639,8.65,35.201,10.154,13.12,24.446,13.12,29.711-10.56,3.527-15.862-1.88-16.32,4.889-24.64,6.77-8.32,14.824-15.108,6.394-29.12Zm-47.387-23.36c-7.286-3.819,5.316-15.789,7.433-16.15,0,0,6.31-4.073,11.605-.29,5.295,3.783-1.65,9.839-6.86,12.038-5.209,2.199-4.893,8.221-12.179,4.402Zm24.07-48.001c-3.385,0-2.257,6.08-7.146,4.8-4.889-1.28-1.352-11.483,2.633-11.2,4.513,.32,7.898,6.4,4.513,6.4Zm4.015,80.235c-3.079-5.61,3.89-11.735,10.259-8.739,1.498,.705,2.744,1.865,3.402,3.705,2.633,7.36,7.522,11.52,1.128,12.16-4.493,.45-11.773-1.629-14.789-7.126Z"/>
          <g class="uuid-d729c9f1-d011-4ad6-9ffc-f9a1f89b1a9d">
            <path class="uuid-817fbfa3-4bfb-42c9-9d11-0f14363ff4d4" d="M415.095,246.276c.376-8.32,42.924-23.426,18.805,25.6-13.539,27.52,4.615,26.789,13.163,16.96,13.915-16,29.353,.604,4.137,19.84-21.813,16.64-31.968,26.56-31.968,35.521s5.831,20.696,17.3,17.28c15.044-4.48,15.796,48.961-26.326,39.681-20.778-4.578-32.344-17.6-31.216-59.201,1.128-41.601,35.729-87.361,36.105-95.682Z"/>
          </g>
        </g>
        <polygon class="uuid-37b89689-441a-4095-9add-1d5b5723e8fa" points="435.236 297.941 438.245 425.943 429.219 425.943 432.228 297.941 435.236 297.941"/>
      </g>
      <g>
        <rect class="uuid-12c3279c-4d63-4dfc-af04-c0da7fad0b3b" x="260.098" y="103.595" width="116.77" height="51.814" rx="2.321" ry="2.321"/>
        <g>
          <rect class="uuid-fd897c25-6972-4172-96c5-d50821b5611e" x="252.748" y="96.717" width="116.77" height="51.814" rx="2.321" ry="2.321"/>
          <circle class="uuid-c588d41e-97cb-4169-a51d-842dc68d7eac" cx="351.197" cy="134.827" r="7.084"/>
          <line class="uuid-cc925a8c-2789-4046-a3ed-c1a1cfb77f22" x1="262.642" y1="107.222" x2="359.747" y2="107.222"/>
          <line class="uuid-cc925a8c-2789-4046-a3ed-c1a1cfb77f22" x1="262.642" y1="119.681" x2="329.089" y2="119.681"/>
          <rect class="uuid-9bba5716-afa2-47f1-b66b-1dba2c48ee9a" x="262.642" y="127.742" width="14.047" height="14.083" rx="2.321" ry="2.321"/>
        </g>
      </g>
      <g>
        <path class="uuid-3907196b-3852-4b07-ba88-c661e3a0b479" d="M215.068,208.776h112.129c1.282,0,2.321,.75,2.321,1.676v34.066c0,.926-1.039,1.676-2.321,1.676h-112.129c-1.282,0-2.321-.75-2.321-1.676v-34.066c0-.926,1.039-1.676,2.321-1.676Z"/>
        <g>
          <path class="uuid-5d7954d2-fa5e-479f-8a34-6611e6e79aa5" d="M207.607,202.15h112.129c1.282,0,2.321,.736,2.321,1.644v33.427c0,.908-1.039,1.644-2.321,1.644h-112.129c-1.282,0-2.321-.736-2.321-1.644v-33.427c0-.908,1.039-1.644,2.321-1.644Z"/>
          <circle class="uuid-b6616f3b-4c98-4073-b1c2-ee62d8c1180b" cx="307.155" cy="224.502" r="7.084"/>
          <line class="uuid-cc925a8c-2789-4046-a3ed-c1a1cfb77f22" x1="215.18" y1="212.288" x2="312.285" y2="212.288"/>
          <rect class="uuid-3a9d4eee-9bf5-4f55-ac85-47685a570b6c" x="215.18" y="217.54" width="14.047" height="14.083" rx="2.321" ry="2.321"/>
        </g>
      </g>
      <g>
        <path class="uuid-190ec758-819c-45fe-8eda-1477527cc01e" d="M159.24,293.676s2.402,.653,2.708,.284c.306-.369-2.291-1.71-.897-1.63s-3.749-2.453-3.749-2.453c0,0,.919,.152,2.024-.199,1.105-.351-4.172-.973-4.627-1.087-.456-.115-3.55-2.176-3.55-2.176-2.625,1.728-1.254,2.464-1.254,2.464,0,0,2.51,1.529,3.72,2.403,.808,.583,5.921,4.028,6.47,3.885,.549-.143-.845-1.491-.845-1.491Z"/>
        <path class="uuid-190ec758-819c-45fe-8eda-1477527cc01e" d="M150.305,169.638s-.456-2.448-.92-2.563c-.465-.115-.545,2.807-1.079,1.516-.534-1.29-.581,4.442-.581,4.442,0,0-.262-.894-1.059-1.737-.797-.843,.936,4.18,1.031,4.64,.095,.46-.418,4.143-.418,4.143,2.696,1.614,2.764,.059,2.764,.059,0,0,.287-2.925,.548-4.395,.174-.981,1.056-7.083,.689-7.515-.367-.433-.976,1.409-.976,1.409Z"/>
        <path class="uuid-190ec758-819c-45fe-8eda-1477527cc01e" d="M151.897,286.855s-19.873-17.887-21.424-22.059c-1.551-4.172-4.868-24.489-7.537-31.462-2.669-6.973-10.327-2.44-10.327-2.44-11.357,6.195,4.707,30.539,7.345,35.475,2.639,4.936,31.262,23.369,31.262,23.369-1.114-2.8,.681-2.883,.681-2.883Z"/>
        <path class="uuid-07572c6a-ced7-4f1a-9e2d-bf7e8e3e37e4" d="M125.105,423.563c-.366-.021-.772-.088-1.197-.198h-.005c-1.509,.581-5.564-.185-8.536-1.354-1.3-.512-2.288-1.389-2.991-2.212,.048,2.805,.364,6.278,1.452,8.797l1.35-.322s-.074-3.582,1.097-2.608c1.171,.974,2.305,1.797,2.305,1.797l9.478-2.257s-.312-1.489-2.954-1.643Z"/>
        <path class="uuid-190ec758-819c-45fe-8eda-1477527cc01e" d="M117.097,419.1c-1.049-1.782-1.863-4.705-1.863-4.705l-2.511,.585s-.205,2.095-.153,4.814v.004c.704,.823,1.692,1.7,2.992,2.212,2.973,1.169,7.027,1.935,8.536,1.355-2.628-.651-6.099-2.729-7-4.265Z"/>
        <path class="uuid-07572c6a-ced7-4f1a-9e2d-bf7e8e3e37e4" d="M99.69,427.254l1.384-.103s.496-3.548,1.497-2.401c1.001,1.148,1.99,2.141,1.99,2.141l9.716-.722s-.072-1.519-2.655-2.092c-.358-.079-.748-.21-1.151-.386h-.004c-1.582,.333-5.463-1.068-8.212-2.695-1.202-.712-2.038-1.735-2.601-2.659-.398,2.777-.638,6.256,.036,8.916Z"/>
        <path class="uuid-190ec758-819c-45fe-8eda-1477527cc01e" d="M99.654,418.333v.005c.564,.924,1.399,1.947,2.601,2.659,2.749,1.627,6.63,3.028,8.212,2.695-2.491-1.06-5.588-3.664-6.233-5.324-.752-1.926-.098-5.01-.098-5.01l-3.566,.247s-.535,2.036-.917,4.729Z"/>
        <path class="uuid-2cc906ae-b386-433f-8e30-baff97216627" d="M108.43,229.004c-.766,.59-1.405,1.218-1.931,1.879-3.651,4.589-1.814,10.708,.922,15.878,2.985,5.641,7.148,13.407,6.161,20.049-.728,4.898-2.233,6.427-2.233,6.427,0,0,8.623,4.429,13.533,.086,0,0,3.639-13.508,3.984-21.527,.346-8.019,.782-8.119,2.094-10.957,2.048-4.435-3.229-9.306-6.498-11.47-4.867-3.222-11.171-4.106-16.033-.366Z"/>
        <path class="uuid-1c746338-ad92-4ea0-90be-5c77e98a3ab8" d="M147.394,179.11s-7.234,25.74-10.288,28.978c-3.053,3.238-19.8,15.211-24.869,20.693-5.069,5.481,2.387,10.34,2.387,10.34,10.585,7.439,25.295-17.746,28.552-22.299,3.256-4.552,7.105-38.379,7.105-38.379-2.017,2.239-2.887,.666-2.887,.666Z"/>
        <g>
          <path class="uuid-4850ecf4-c6c9-4fa1-b63d-4f4ad3704f29" d="M109.735,273.238s-15.044,8.737-20.826,24.668c-5.782,15.932,2.928,41.961,5.963,50.72,3.035,8.759-.839,19.788,1.728,32.371,2.566,12.583,15.693,37.255,15.693,37.255,0,0,2.603,.666,3.744-1.709,0,0-4.736-31.085-3.676-49.572,1.06-18.487,5.895-47.305,10.095-64.237,4.2-16.932,.814-29.41,.814-29.41,0,0-3.781,2.646-13.533-.086Z"/>
          <path class="uuid-4850ecf4-c6c9-4fa1-b63d-4f4ad3704f29" d="M110.844,273.492s-12.807,6.439-18.693,21.322c-5.885,14.883-.851,41.835,.927,50.919,1.778,9.084-2.192,19.406-1.085,32.197,1.107,12.79,9.809,39.044,9.809,39.044,0,0,2.049,1.035,3.151-1.143,0,0-1.441-31.365,.83-49.455,2.271-18.091,8.379-45.829,13.064-61.929,4.686-16.1,2.909-28.906,2.909-28.906,0,0-3.254,2.063-10.913-2.049Z"/>
        </g>
        <path class="uuid-1c746338-ad92-4ea0-90be-5c77e98a3ab8" d="M114.93,221.607c.487-4.842-8.217-1.866-8.217-1.866,0,0,1.942,6.826,.663,10.094,0,0,3.183-1.754,5.825-2.099l2.929-2.713s-1.687,1.425-1.2-3.417Z"/>
        <path class="uuid-1c746338-ad92-4ea0-90be-5c77e98a3ab8" d="M95.627,213.818s3.801,7.221,14.205,7.033c1.3-.023,2.413-.118,3.363-.265,6.655-1.032,6.033-2.986,6.033-2.986,0,0,.519-4.081-.384-9.967-.083-.544,1.896-1.174,1.516-1.617-7.061-8.242-6.182-10.93-6.741-13.664l-19.81,1.953-3.78,4.596-1.186,4.942,3.936,6.692,2.849,3.285Z"/>
        <path class="uuid-e7d8563d-fedc-408d-bc91-6b11370942a5" d="M105.463,178.818s6.994-4.912,11.92-2.378,7.484,6.635,4.37,12.503c-3.114,5.868-11.258,9.254-14.617,9.349s-7.165-2.096-7.432-.785c-.266,1.311-.482,4.143-1.797,5.188,0,0-4.626-1.437-4.9,2.235s5.334,5.854,5.334,5.854l1.33,7.239s-19.976-8.966-20.067-30.797l5.283-7.108s8.626-6.113,20.576-1.301Z"/>
        <path class="uuid-787e2cee-cc00-45e3-9ad4-9a23c3007403" d="M84.497,181.381s-2.834-3.324-6.681-4.766c-3.86-1.446-10.971-3.317-16.089,5.995-7.03,12.791-3.13,18.501-2.774,29.88,.356,11.379-27.597,13.195-30.118,26.276-2.569,13.326,3.761,24.847,19.384,33.057,16.307,8.569,23.757-4.552,24.074-7.841,.317-3.289-1.836-7.826-2.349-11.24-.758-5.038,2.496-8.124,4.36-9.317,1.865-1.193,13.035-10.113,8.211-22.384-4.825-12.27-8.776-13.678-10.584-24.178-.625-3.631,.047-12.121,5.86-11.653l6.708-3.827Z"/>
        <path class="uuid-a35fc01f-f118-420c-abaa-7f9717e2c56c" d="M77.614,186.317s.496,1.276,1.858,1.247c1.432-.03,5.416-7.444,5.416-7.444,0,0-.988-2.785-2.883-.927,0,0-5.32,6.439-4.39,7.124Z"/>
        <circle class="uuid-787e2cee-cc00-45e3-9ad4-9a23c3007403" cx="113.39" cy="201.42" r=".88" transform="translate(-20.716 13.157) rotate(-6.086)"/>
        <path class="uuid-e7d8563d-fedc-408d-bc91-6b11370942a5" d="M112.23,198.831s-1.39,.89-1.52,2.874"/>
        <ellipse class="uuid-3581782c-2792-4960-ac8a-19ac936cb4dd" cx="113.496" cy="201.294" rx="5.142" ry="5.422" transform="translate(-20.702 13.168) rotate(-6.086)"/>
        <path class="uuid-3581782c-2792-4960-ac8a-19ac936cb4dd" d="M97.393,201.998c.226-.024,11.195-.709,11.195-.709"/>
        <path class="uuid-190ec758-819c-45fe-8eda-1477527cc01e" d="M118.128,211.491s-2.046,.789-6.388-.118c0,0,3.631,5.322,5.999,2.9l.389-2.782Z"/>
        <path class="uuid-190ec758-819c-45fe-8eda-1477527cc01e" d="M107.157,220.898s4.229,.199,6.522-.778c0,0-4.829,4.039-5.57,6.147l-.952-5.369Z"/>
        <path class="uuid-74d06785-c4c5-413e-87da-aa67571f648c" d="M113.051,243.843s12.813,10.068,12.153,30.607l-15.326-.277s7.614-13.877-1.016-25.352l4.189-4.978Z"/>
      </g>
      <path class="uuid-1af20156-d8b0-484c-bf3e-036e75528685" d="M120.323,289.692s1.659,8.601-8.039,16.003l2.976,19.319"/>
      <g>
        <polygon class="uuid-1720e041-d15c-47a3-9ddc-8c54bdd4f417" points="69.967 70.184 93.652 62.089 154.664 84.698 69.967 70.184"/>
        <polygon class="uuid-b17901b2-0b5c-478f-9841-a7828340ccc7" points="69.967 70.184 71.655 105.639 154.664 84.698 69.967 70.184"/>
        <polygon class="uuid-b17901b2-0b5c-478f-9841-a7828340ccc7" points="59.965 73.871 71.655 105.639 154.664 84.698 59.965 73.871"/>
        <polygon class="uuid-1720e041-d15c-47a3-9ddc-8c54bdd4f417" points="154.664 84.698 24.05 86.183 59.965 73.871 154.664 84.698"/>
      </g>
      <g>
        <g>
          <path class="uuid-40c6b7d0-e55a-4419-80e7-4621a46859e6" d="M394.53,346.449c-12.869-20.664,4.19-21.402,0-32.965-4.203-11.598-14.964-10.086-13.168-20.418,2.279-13.115-2.993-17.325-10.175-17.325s-15.71,6.891-11.971,18.801c2.394,7.626-1.496,9.594-6.883,15.99-5.387,6.396-3.891,15.744,0,20.418,5.025,6.036,4.245,9.776-.898,15.744-5.088,5.904-5.985,18.204,3.591,22.14,9.577,3.936,.995,19.71,6.883,27.061,8.08,10.086,19.453,10.086,23.643-8.118,2.807-12.194-1.496-12.546,3.891-18.942,5.387-6.396,11.796-11.614,5.088-22.386Zm-37.709-17.958c-5.798-2.936,4.23-12.138,5.915-12.415,0,0,5.022-3.131,9.235-.223,4.214,2.908-1.313,7.563-5.459,9.254-4.145,1.69-3.894,6.32-9.691,3.384Zm19.154-36.901c-2.693,0-1.796,4.674-5.686,3.69s-1.075-8.827,2.095-8.61c3.591,.246,6.285,4.92,3.591,4.92Zm3.195,61.681c-2.45-4.313,3.096-9.021,8.163-6.718,1.192,.542,2.184,1.434,2.707,2.848,2.095,5.658,5.985,8.856,.898,9.348-3.575,.346-9.369-1.253-11.769-5.478Z"/>
          <g class="uuid-f0337bb8-9972-45f4-b77b-f6ef36f7d7e5">
            <path class="uuid-2e720094-e1d2-42ce-a82d-c3e5555c657f" d="M358.916,285.194c.299-6.396,34.157-18.009,14.964,19.68-10.774,21.156,3.672,20.594,10.475,13.038,11.073-12.3,23.358,.464,3.292,15.252-17.358,12.792-25.438,20.418-25.438,27.307s4.64,15.91,13.767,13.284c11.971-3.444,12.57,37.639-20.949,30.505-16.534-3.519-25.738-13.53-24.84-45.511,.898-31.981,28.431-67.159,28.73-73.555Z"/>
          </g>
        </g>
        <polygon class="uuid-37b89689-441a-4095-9add-1d5b5723e8fa" points="374.944 324.911 377.338 423.313 370.156 423.313 372.55 324.911 374.944 324.911"/>
      </g>
      <g>
        <g>
          <path class="uuid-6e4a2659-2e5c-4187-9a6e-d7ef1cc76c59" d="M345.213,367.768c-9.435-15.151,3.072-15.692,0-24.169-3.081-8.504-10.971-7.395-9.655-14.97,1.671-9.615-2.194-12.703-7.46-12.703s-11.518,5.052-8.777,13.785c1.755,5.591-1.097,7.034-5.047,11.724-3.95,4.69-2.852,11.543,0,14.97,3.684,4.426,3.113,7.167-.658,11.543-3.73,4.329-4.388,13.347,2.633,16.233,7.022,2.886,.729,14.451,5.047,19.84,5.924,7.395,14.262,7.395,17.334-5.952,2.058-8.941-1.097-9.199,2.852-13.888,3.95-4.69,8.649-8.515,3.73-16.413Zm-27.647-13.167c-4.251-2.153,3.101-8.899,4.337-9.103,0,0,3.682-2.296,6.771-.163,3.089,2.132-.963,5.545-4.002,6.785-3.039,1.239-2.855,4.634-7.105,2.481Zm14.043-27.055c-1.975,0-1.317,3.427-4.169,2.705-2.852-.721-.789-6.472,1.536-6.313,2.633,.18,4.608,3.607,2.633,3.607Zm2.343,45.223c-1.796-3.162,2.27-6.614,5.985-4.926,.874,.397,1.601,1.051,1.985,2.088,1.536,4.148,4.388,6.493,.658,6.854-2.621,.254-6.869-.918-8.629-4.017Z"/>
          <g class="uuid-0653d78f-7f62-4c77-ac0b-ad387826ef4f">
            <path class="uuid-7e7118f9-a6de-4041-9074-740cefbd3344" d="M319.101,322.857c.219-4.69,25.043-13.204,10.971,14.429-7.899,15.511,2.693,15.099,7.68,9.559,8.119-9.018,17.126,.34,2.414,11.183-12.727,9.379-18.651,14.97-18.651,20.021s3.402,11.665,10.093,9.74c8.777-2.525,9.216,27.596-15.36,22.365-12.123-2.58-18.87-9.92-18.212-33.368,.658-23.448,20.845-49.24,21.065-53.93Z"/>
          </g>
        </g>
        <polygon class="uuid-37b89689-441a-4095-9add-1d5b5723e8fa" points="330.852 351.977 332.608 424.123 327.342 424.123 329.097 351.977 330.852 351.977"/>
      </g>
      <g>
        <g>
          <path class="uuid-5ce80af6-5e12-4f33-8219-32cba1607763" d="M301.183,389.388c-5.553-8.917,1.808-9.236,0-14.225-1.814-5.005-6.457-4.353-5.683-8.811,.984-5.659-1.291-7.476-4.391-7.476s-6.78,2.974-5.166,8.113c1.033,3.291-.646,4.14-2.97,6.9-2.325,2.76-1.679,6.794,0,8.811,2.168,2.605,1.832,4.219-.387,6.794-2.196,2.548-2.583,7.856,1.55,9.554,4.133,1.699,.429,8.506,2.97,11.678,3.487,4.353,8.395,4.353,10.203-3.503,1.211-5.262-.646-5.414,1.679-8.174,2.325-2.76,5.091-5.012,2.196-9.661Zm-16.273-7.75c-2.502-1.267,1.825-5.238,2.552-5.358,0,0,2.167-1.351,3.985-.096,1.818,1.255-.567,3.264-2.356,3.993-1.789,.729-1.68,2.727-4.182,1.46Zm8.265-15.924c-1.162,0-.775,2.017-2.454,1.592s-.464-3.809,.904-3.716c1.55,.106,2.712,2.123,1.55,2.123Zm1.379,26.618c-1.057-1.861,1.336-3.893,3.523-2.899,.515,.234,.942,.619,1.168,1.229,.904,2.442,2.583,3.822,.387,4.034-1.543,.149-4.043-.541-5.079-2.364Z"/>
          <g class="uuid-86c9ecc5-f9a6-4777-8aed-5f41791e1dad">
            <path class="uuid-0774676a-6693-4e60-9784-fc3887b9ffb5" d="M285.815,362.954c.129-2.76,14.74-7.772,6.457,8.493-4.649,9.13,1.585,8.887,4.52,5.626,4.778-5.308,10.08,.2,1.421,6.582-7.491,5.52-10.978,8.811-10.978,11.784s2.002,6.866,5.941,5.733c5.166-1.486,5.424,16.243-9.04,13.164-7.135-1.519-11.107-5.839-10.719-19.64,.387-13.801,12.269-28.982,12.398-31.742Z"/>
          </g>
        </g>
        <polygon class="uuid-37b89689-441a-4095-9add-1d5b5723e8fa" points="292.731 380.094 293.764 422.558 290.665 422.558 291.698 380.094 292.731 380.094"/>
      </g>
    </g>
  </g>
  <g id="uuid-ad793cc5-e844-4529-bd8d-6f66c93e6c67" data-name="Layer 3"/>
  <g id="uuid-a31cf636-1b82-4af4-8896-f861a193a723" data-name="Layer 8">
    <text class="uuid-569578f9-db45-4af3-aeba-79415ffa86b2" transform="translate(155.468 294.116) scale(1.121 1)"><tspan x="0" y="0">@</tspan></text>
  </g>
  <g id="uuid-3b904ff5-be80-458d-b2f3-0332a4ca3849" data-name="Layer 6"/>
</svg>